<svg width="64" height="65" viewBox="0 0 64 65" fill="none" xmlns="http://www.w3.org/2000/svg">
<g clip-path="url(#clip0_784_9068)">
<path d="M14.594 32.5063L7.47433 39.626L0.227539 32.5063L7.47433 25.2596L14.594 32.5063ZM32.0117 15.0886L44.344 27.4209L51.5908 20.1741L32.0117 0.722168L12.5598 20.1741L19.8066 27.4209L32.0117 15.0886ZM56.5491 25.2596L49.4295 32.5063L56.6762 39.7531L63.7959 32.5063L56.5491 25.2596ZM32.0117 49.9241L19.6795 37.5918L12.4327 44.8386L32.0117 64.2905L51.4636 44.8386L44.344 37.5918L32.0117 49.9241ZM32.0117 39.626L39.2585 32.3792L32.0117 25.2596L24.7649 32.5063L32.0117 39.626Z" fill="#F0B90B"/>
</g>
<defs>
<clipPath id="clip0_784_9068">
<rect width="63.5684" height="63.5684" fill="white" transform="translate(0.232422 0.720215)"/>
</clipPath>
</defs>
</svg>
