<svg width="81" height="81" viewBox="0 0 81 81" fill="none" xmlns="http://www.w3.org/2000/svg">
<path fill-rule="evenodd" clip-rule="evenodd" d="M44.6378 35.3874L43.4382 41.7852L54.8343 43.3847L54.0346 46.3837L42.8384 44.7842C42.0386 47.3833 41.6388 50.1824 40.6391 52.5816C39.6395 55.3807 38.6398 58.1797 37.4402 60.7788C35.8407 64.1777 33.0417 66.5769 29.243 67.1767C27.0437 67.5766 24.6445 67.3766 22.8451 65.9771C22.2453 65.5772 21.6455 64.7775 21.6455 64.1777C21.6455 63.378 22.0454 62.3783 22.6452 61.9784C23.045 61.7785 24.0447 61.9784 24.6445 62.1784C25.2443 62.7782 25.8441 63.5779 26.244 64.3776C27.4436 65.9771 29.043 66.177 30.6425 64.9774C32.4419 63.378 33.4415 61.1787 34.0413 58.9794C35.2409 54.1811 36.4405 49.5826 37.4402 44.7842V43.9845L26.8438 42.385L27.2436 39.386L38.2399 40.9855L39.6395 34.7876L28.2433 32.9882L28.6432 29.7893L40.4392 31.3887C40.8391 30.1891 41.039 29.1895 41.4389 28.1898C42.4385 24.591 43.4382 20.9922 45.8374 17.7933C48.2366 14.5944 51.0356 12.595 55.2342 12.795C57.0336 12.795 58.833 13.3948 60.0326 14.7943C60.2325 14.9942 60.6324 15.3941 60.6324 15.794C60.6324 16.5937 60.6324 17.5934 60.0326 18.1932C59.2329 18.793 58.2332 18.593 57.4335 17.7933C56.8337 17.1935 56.4338 16.5937 55.834 15.9939C54.6344 14.3944 52.835 14.1945 51.4355 15.594C50.4358 16.5937 49.4362 17.9932 48.8364 19.3928C47.4368 23.5913 46.4372 27.9899 45.0376 32.3884L56.0339 33.9878L55.2342 36.9868L44.6378 35.3874Z" fill="#0090FF"/>
</svg>
