<svg width="58" height="28" viewBox="0 0 58 28" fill="none" xmlns="http://www.w3.org/2000/svg">
<path d="M43.868 0.342773C40.6516 0.342773 37.1453 1.99097 33.4395 5.23741C31.6814 6.77574 30.163 8.42392 29.0244 9.74248C29.0244 9.74248 29.0244 9.74248 29.0344 9.75247V9.74248C29.0344 9.74248 30.8323 11.7003 32.8202 13.7981C33.889 12.5294 35.4274 10.8013 37.1953 9.24304C40.4918 6.35621 42.6393 5.74687 43.868 5.74687C48.4931 5.74687 52.2489 9.41286 52.2489 13.9179C52.2489 18.393 48.4831 22.059 43.868 22.089C43.6582 22.089 43.3885 22.059 43.0489 21.9891C44.3974 22.5685 45.8459 22.988 47.2245 22.988C55.695 22.988 57.3533 17.464 57.4632 17.0645C57.7129 16.0556 57.8428 14.9967 57.8428 13.9079C57.8428 6.4361 51.5696 0.342773 43.868 0.342773Z" fill="url(#paint0_linear_784_9089)"/>
<path d="M14.2814 27.5132C17.4978 27.5132 21.004 25.8649 24.71 22.6185C26.468 21.0802 27.9864 19.432 29.125 18.1134C29.125 18.1134 29.125 18.1134 29.115 18.1034V18.1134C29.115 18.1134 27.3171 16.1556 25.3292 14.0579C24.2604 15.3265 22.7221 17.0546 20.9541 18.6129C17.6577 21.4997 15.51 22.109 14.2814 22.109C9.6564 22.0991 5.90052 18.4331 5.90052 13.928C5.90052 9.45289 9.66639 5.7869 14.2814 5.75694C14.4911 5.75694 14.7608 5.78691 15.1005 5.85683C13.7519 5.27747 12.3035 4.85791 10.925 4.85791C2.45429 4.85791 0.806094 10.3819 0.686225 10.7714C0.436499 11.7903 0.306641 12.8392 0.306641 13.928C0.306641 21.4198 6.57977 27.5132 14.2814 27.5132Z" fill="url(#paint1_linear_784_9089)"/>
<path d="M47.2047 22.8681C42.8693 22.7583 38.3643 19.342 37.4453 18.4929C35.068 16.2953 29.5838 10.3518 29.1545 9.88234C25.1388 5.37726 19.6947 0.342773 14.2807 0.342773H14.2707H14.2607C7.68788 0.372741 2.16393 4.82787 0.685547 10.7714C0.795426 10.3818 2.96306 4.74795 10.9144 4.94774C15.2496 5.05763 19.7747 8.52382 20.7037 9.3729C23.081 11.5705 28.5651 17.514 28.9947 17.9835C33.0102 22.4785 38.4542 27.5131 43.8682 27.5131H43.8782H43.8882C50.461 27.4831 55.9949 23.028 57.4634 17.0845C57.3435 17.474 55.1658 23.0579 47.2047 22.8681Z" fill="#29ABE2"/>
<defs>
<linearGradient id="paint0_linear_784_9089" x1="36.5934" y1="2.13427" x2="55.5936" y2="21.8096" gradientUnits="userSpaceOnUse">
<stop offset="0.21" stop-color="#F15A24"/>
<stop offset="0.6841" stop-color="#FBB03B"/>
</linearGradient>
<linearGradient id="paint1_linear_784_9089" x1="21.556" y1="25.7216" x2="2.55568" y2="6.04631" gradientUnits="userSpaceOnUse">
<stop offset="0.21" stop-color="#ED1E79"/>
<stop offset="0.8929" stop-color="#522785"/>
</linearGradient>
</defs>
</svg>
