<svg width="603" height="379" viewBox="0 0 603 379" fill="none" xmlns="http://www.w3.org/2000/svg">
<path d="M595.753 616.684L127.648 146.789L122.778 143.201L29.1357 222.289L509.642 702.795L595.753 616.684Z" fill="url(#paint0_linear_850_10)"/>
<path d="M1.16233 147.332L42.1004 107.162H85.8978L126.836 147.332V192.931L85.8914 233.876H42.1068L1.16233 192.931V147.332Z" fill="white" stroke="url(#paint1_linear_850_10)" stroke-width="2.32271"/>
<path d="M41.4224 161.714C41.4224 158.058 44.3955 157.017 47.5766 156.66V155.471C45.2279 155.263 42.6116 154.371 42.6116 151.19C42.6116 147.384 46.9523 146.344 51.0849 146.344C55.1877 146.344 59.5284 147.384 59.5284 151.19C59.5284 154.371 56.9121 155.263 54.5634 155.471V156.66C57.7445 157.017 60.7176 158.355 60.7176 161.714C60.7176 166.144 56.8229 167.898 51.0849 167.898C45.3171 167.898 41.4224 166.144 41.4224 161.714ZM47.3685 152.26C47.3685 153.538 48.528 154.014 51.0849 154.014C53.612 154.014 54.7715 153.538 54.7715 152.26C54.7715 151.011 53.612 150.506 51.0849 150.506C48.528 150.506 47.3685 151.011 47.3685 152.26ZM46.1793 160.971C46.1793 162.844 47.6361 163.736 51.0849 163.736C54.5039 163.736 55.9607 162.844 55.9607 160.971C55.9607 159.128 54.5039 158.176 51.0849 158.176C47.6361 158.176 46.1793 159.128 46.1793 160.971ZM63.1095 167.601V146.641H72.4747L75.5369 166.412H76.7262L79.7884 146.641H89.1536V167.601H84.3967V150.803L85.2886 147.83H84.0994L80.7398 167.601H71.5233L68.1637 147.83H66.9745L67.8664 150.803V167.601H63.1095ZM45.3036 181.601V173.741H47.1431L49.3729 181.345H49.6294L51.8703 173.741H53.6988V181.601H52.7845V174.655L52.9406 173.997H52.673L50.4209 181.601H48.5814L46.3293 173.997H46.0728L46.2178 174.655V181.601H45.3036ZM56.8173 175.179C56.3602 175.179 56.0146 174.845 56.0146 174.399C56.0146 173.975 56.3602 173.63 56.8173 173.63C57.2633 173.63 57.6201 173.975 57.6201 174.399C57.6201 174.845 57.2633 175.179 56.8173 175.179ZM54.9666 181.601V180.821H56.5275V176.74L55.3791 176.84V176.06L56.6613 175.949C57.1853 175.904 57.3859 176.194 57.3859 176.617V180.821H58.9468V181.601H54.9666ZM59.7981 181.601V180.821H61.359V174.087L60.2106 174.187V173.407L61.5039 173.295C62.0168 173.25 62.2621 173.54 62.2621 174.064V180.821H63.8118V181.601H59.7981ZM64.6649 181.601V180.821H66.2258V174.087L65.0774 174.187V173.407L66.3707 173.295C66.8836 173.25 67.1289 173.54 67.1289 174.064V180.821H68.6786V181.601H64.6649ZM71.4722 175.179C71.0151 175.179 70.6694 174.845 70.6694 174.399C70.6694 173.975 71.0151 173.63 71.4722 173.63C71.9181 173.63 72.2749 173.975 72.2749 174.399C72.2749 174.845 71.9181 175.179 71.4722 175.179ZM69.6214 181.601V180.821H71.1823V176.74L70.034 176.84V176.06L71.3161 175.949C71.8401 175.904 72.0408 176.194 72.0408 176.617V180.821H73.6016V181.601H69.6214ZM74.2269 178.825C74.2269 177.22 75.3864 175.949 77.1591 175.949C78.9207 175.949 80.069 177.22 80.069 178.825C80.069 180.442 78.9207 181.713 77.1591 181.713C75.3864 181.713 74.2269 180.442 74.2269 178.825ZM75.1411 178.825C75.1411 179.984 75.8435 180.932 77.1591 180.932C78.4635 180.932 79.1659 179.984 79.1659 178.825C79.1659 177.677 78.4635 176.729 77.1591 176.729C75.8435 176.729 75.1411 177.677 75.1411 178.825ZM84.2517 176.729C83.0811 176.729 82.256 177.654 82.256 179.148V181.601H81.3418V176.06H82.256V177.019L82.1111 177.654H82.3675C82.5905 176.651 83.2929 175.949 84.497 175.949C85.7457 175.949 86.5595 176.673 86.5595 178.212V181.601H85.6565V178.334C85.6565 177.175 85.1994 176.729 84.2517 176.729ZM36.6799 193.617C36.6799 194.787 35.9775 195.713 33.6585 195.713C30.9158 195.713 30.1019 194.497 30.1019 192.658H31.0162C31.0162 194.52 32.0084 194.932 33.6585 194.932C34.9964 194.932 35.7656 194.609 35.7656 193.661C35.7656 192.468 34.3832 192.223 33.1345 191.855C31.5848 191.387 30.4587 190.963 30.4587 189.569C30.4587 188.365 31.306 187.63 33.246 187.63C35.565 187.63 36.3565 189.045 36.3565 190.328H35.4423C35.4423 188.99 34.4501 188.41 33.246 188.41C32.1645 188.41 31.3729 188.678 31.3729 189.547C31.3729 190.372 32.0642 190.673 33.3575 191.075C34.896 191.554 36.6799 191.978 36.6799 193.617ZM40.1455 194.932C41.3162 194.932 42.1412 194.007 42.1412 192.524V190.06H43.0443V195.601H42.1412V194.642L42.2861 194.007H42.0297C41.8067 195.01 41.1044 195.713 39.9003 195.713C38.6404 195.713 37.8265 194.988 37.8265 193.449V190.06H38.7408V193.327C38.7408 194.486 39.1867 194.932 40.1455 194.932ZM44.5142 190.06H45.4284V190.874L45.2835 191.509H45.5399C45.774 190.64 46.5099 189.949 47.7809 189.949C49.3863 189.949 50.4232 191.186 50.4232 192.836C50.4232 194.475 49.3863 195.713 47.7809 195.713C46.5099 195.713 45.774 195.021 45.5399 194.163H45.2835L45.4284 194.787V197.63H44.5142V190.06ZM45.4284 192.836C45.4284 194.308 46.3761 194.932 47.5133 194.932C48.6616 194.932 49.509 194.285 49.509 192.836C49.509 191.376 48.6616 190.729 47.5133 190.729C46.3761 190.729 45.4284 191.353 45.4284 192.836ZM51.7545 190.06H52.6687V190.874L52.5238 191.509H52.7802C53.0144 190.64 53.7502 189.949 55.0212 189.949C56.6266 189.949 57.6635 191.186 57.6635 192.836C57.6635 194.475 56.6266 195.713 55.0212 195.713C53.7502 195.713 53.0144 195.021 52.7802 194.163H52.5238L52.6687 194.787V197.63H51.7545V190.06ZM52.6687 192.836C52.6687 194.308 53.6164 194.932 54.7536 194.932C55.9019 194.932 56.7493 194.285 56.7493 192.836C56.7493 191.376 55.9019 190.729 54.7536 190.729C53.6164 190.729 52.6687 191.353 52.6687 192.836ZM58.214 195.601V194.821H59.7748V188.087L58.6265 188.187V187.407L59.9198 187.295C60.4326 187.25 60.6779 187.54 60.6779 188.064V194.821H62.2276V195.601H58.214ZM67.1988 190.06H68.191L65.7828 195.545V197.095C65.7828 197.519 65.5376 197.775 65.0135 197.753L62.8729 197.652V196.872L64.8686 196.972V195.545L62.4493 190.06H63.4527L65.1919 194.375V194.798H65.4595V194.375L67.1988 190.06ZM73.0726 195.601V187.741H75.1575C77.0751 187.741 78.1789 188.12 78.1789 189.67C78.1789 190.807 77.4207 191.275 76.6068 191.331V191.599C77.8109 191.621 78.7586 192.111 78.7586 193.516C78.7586 195.099 77.5657 195.601 75.6592 195.601H73.0726ZM73.9868 191.119H75.1909C76.4731 191.119 77.2646 190.93 77.2646 189.815C77.2646 188.6 76.4731 188.521 75.1909 188.521H73.9868V191.119ZM73.9868 194.821H75.6926C77.0305 194.821 77.8444 194.598 77.8444 193.36C77.8444 192.212 77.0305 191.9 75.6926 191.9H73.9868V194.821ZM82.2265 194.932C83.3971 194.932 84.2221 194.007 84.2221 192.524V190.06H85.1252V195.601H84.2221V194.642L84.3671 194.007H84.1106C83.8877 195.01 83.1853 195.713 81.9812 195.713C80.7213 195.713 79.9075 194.988 79.9075 193.449V190.06H80.8217V193.327C80.8217 194.486 81.2677 194.932 82.2265 194.932ZM86.5951 195.601V190.718C86.5951 190.194 86.8404 189.937 87.3644 189.96L90.4415 190.06V190.84L87.5093 190.74V195.601H86.5951ZM94.4045 190.729C93.2338 190.729 92.4088 191.654 92.4088 193.148V195.601H91.4946V190.06H92.4088V191.019L92.2639 191.654H92.5203C92.7433 190.651 93.4457 189.949 94.6498 189.949C95.8984 189.949 96.7123 190.673 96.7123 192.212V195.601H95.8093V192.334C95.8093 191.175 95.3521 190.729 94.4045 190.729ZM99.7081 194.943L101.659 194.821V195.601L99.5632 195.713C99.0392 195.746 98.805 195.467 98.805 194.954V190.84H97.5786V190.06H98.805V188.633L99.7081 188.354V190.06H101.436V190.84H99.7081V194.943Z" fill="url(#paint2_linear_850_10)"/>
<path d="M440.212 303.389L203.312 47.7515L114.498 82.4123L112.83 131.313L469.089 512.293L543.233 422.54L440.212 303.389Z" fill="url(#paint3_linear_850_10)"/>
<path d="M80.0198 51.7864L120.958 11.6159H164.755L205.693 51.7864V97.3856L164.749 138.33H120.964L80.0198 97.3856V51.7864Z" fill="white" stroke="url(#paint4_linear_850_10)" stroke-width="2.32271"/>
<mask id="path-6-inside-1_850_10" fill="white">
<path d="M112.704 59.1589C116.569 57.6426 118.026 55.621 118.026 50.8343H127.272V71.7944H122.515V54.6993L123.407 52.0235H122.218C121.861 57.4345 120.821 61.4779 114.369 63.4699L112.704 59.1589ZM130.247 64.0942H135.004C135.004 66.6213 136.402 67.9294 140.118 67.9294C143.478 67.9294 144.578 66.6213 144.578 64.005C144.578 61.7752 143.478 60.6454 141.248 60.6454C139.494 60.6454 138.096 61.359 136.907 62.8752L131.556 59.7832V50.8343H147.67V54.9966H136.313V57.9994L135.421 60.6752L136.402 61.2401C137.531 57.9697 139.732 56.4831 142.675 56.4831C146.361 56.4831 149.335 59.0697 149.335 63.8861C149.335 69.6538 145.648 72.0917 140.118 72.0917C134.588 72.0917 130.247 69.8025 130.247 64.0942ZM164.421 71.7944L160.674 65.997L157.374 67.5429V71.7944H152.617V49.9424H157.374V62.6374L164.242 59.4859L164.183 56.7805H168.94V60.0508C168.94 61.4779 168.375 62.3995 167.067 63.0239L164.748 64.0942L169.832 71.7944H164.421ZM126.832 85.9059C126.397 85.9171 126.152 85.6606 126.152 85.237V77.9344H127.066V85.1255L131.024 85.014V85.7944L126.832 85.9059ZM133.833 79.3726C133.376 79.3726 133.031 79.0381 133.031 78.5922C133.031 78.1685 133.376 77.8229 133.833 77.8229C134.279 77.8229 134.636 78.1685 134.636 78.5922C134.636 79.0381 134.279 79.3726 133.833 79.3726ZM131.983 85.7944V85.014H133.544V80.9335L132.395 81.0338V80.2534L133.677 80.1419C134.201 80.0973 134.402 80.3872 134.402 80.8108V85.014H135.963V85.7944H131.983ZM140.532 80.2534H141.412L139.606 85.7944H137.756L135.927 80.2534H136.819L138.547 85.538H138.815L140.532 80.2534ZM142.021 82.9514C142.021 81.1676 143.136 80.1419 144.708 80.1419C146.269 80.1419 147.295 81.1342 147.295 82.8399V83.1967H142.913C142.969 84.2447 143.471 85.1478 144.842 85.1478C145.756 85.1478 146.369 84.7018 146.57 83.8545H147.484C147.272 84.713 146.603 85.9059 144.842 85.9059C142.857 85.9059 142.021 84.5457 142.021 82.9514ZM142.913 82.5055H146.403C146.403 81.6136 145.812 80.9112 144.708 80.9112C143.616 80.9112 142.913 81.6136 142.913 82.5055ZM153.126 84.3562C153.126 85.1924 152.602 85.9059 150.94 85.9059C149.145 85.9059 148.41 85.0697 148.41 83.7542H149.324C149.324 84.713 149.881 85.1589 150.952 85.1589C151.81 85.1589 152.211 84.9583 152.211 84.3897C152.211 83.665 151.464 83.5423 150.561 83.2636C149.513 82.9291 148.666 82.6058 148.666 81.6024C148.666 80.7216 149.413 80.1419 150.684 80.1419C152.412 80.1419 152.936 81.0896 152.936 82.0038H152.022C152.022 81.2568 151.565 80.8889 150.684 80.8889C150.071 80.8889 149.58 81.0673 149.58 81.569C149.58 82.1041 149.959 82.2714 150.851 82.5612C151.944 82.918 153.126 83.1633 153.126 84.3562ZM117.352 95.8588C117.352 93.5733 118.724 91.8229 121.031 91.8229C123.038 91.8229 124.354 93.027 124.588 94.9669H123.674C123.495 93.4618 122.57 92.6033 121.031 92.6033C119.203 92.6033 118.267 93.9635 118.267 95.8588C118.267 97.7653 119.203 99.1255 121.031 99.1255C122.57 99.1255 123.495 98.2559 123.674 96.7508H124.588C124.354 98.7018 123.038 99.9059 121.031 99.9059C118.724 99.9059 117.352 98.1555 117.352 95.8588ZM129.002 94.1419C130.251 94.1419 131.065 94.8666 131.065 96.4051V99.7944H130.162V96.5278C130.162 95.3683 129.705 94.9223 128.757 94.9223C127.587 94.9223 126.762 95.8477 126.762 97.3417V99.7944H125.847V91.5999H126.762V95.2122L126.617 95.8477H126.873C127.096 94.8443 127.798 94.1419 129.002 94.1419ZM132.342 98.2559C132.342 97.3751 132.866 96.7731 134.159 96.6393L136.367 96.4274C136.311 95.4129 135.765 94.9112 134.806 94.9112C134.003 94.9112 133.256 95.2679 133.256 96.3159H132.364C132.364 95.1676 133.234 94.1419 134.806 94.1419C136.356 94.1419 137.281 95.1676 137.281 96.6504V99.014H138.095V99.7944H137.114C136.69 99.7944 136.456 99.5603 136.456 99.1478V98.8468L136.601 98.267H136.333C136.122 99.1143 135.531 99.9059 134.193 99.9059C132.587 99.9059 132.342 98.8356 132.342 98.2559ZM133.256 98.1444C133.256 98.7799 133.658 99.1255 134.304 99.1255C135.564 99.1255 136.367 98.2559 136.367 97.1075L134.315 97.3194C133.613 97.3863 133.256 97.5981 133.256 98.1444ZM142.051 94.9223C140.88 94.9223 140.055 95.8477 140.055 97.3417V99.7944H139.141V94.2534H140.055V95.2122L139.91 95.8477H140.167C140.39 94.8443 141.092 94.1419 142.296 94.1419C143.545 94.1419 144.359 94.8666 144.359 96.4051V99.7944H143.456V96.5278C143.456 95.3683 142.999 94.9223 142.051 94.9223ZM151.526 94.2534H152.016V95.0338H151.548C151.236 95.0338 151.035 95.1007 150.823 95.2568C151.057 95.5467 151.202 95.948 151.202 96.4274C151.202 97.6204 150.266 98.3674 148.594 98.9806C149.887 98.7687 151.136 98.9471 151.136 100.173C151.136 101.645 149.619 101.835 145.907 101.835V101.054C149.084 101.054 150.221 100.976 150.221 100.107C150.221 98.8802 147.78 99.4711 146.408 99.8836L146.219 99.2481C147.111 99.0029 147.991 98.7464 148.85 98.4789V98.2224C147.066 98.6795 145.505 98.0998 145.505 96.3828C145.505 94.8554 146.754 94.1419 148.348 94.1419C149.017 94.1419 149.708 94.3091 150.232 94.677C150.812 94.3091 151.024 94.2534 151.526 94.2534ZM148.359 97.8991C149.53 97.8991 150.288 97.4866 150.288 96.4051C150.288 95.3348 149.53 94.9223 148.359 94.9223C147.2 94.9223 146.419 95.3348 146.419 96.4051C146.419 97.4866 147.2 97.8991 148.359 97.8991ZM152.648 96.9514C152.648 95.1676 153.762 94.1419 155.334 94.1419C156.895 94.1419 157.921 95.1342 157.921 96.8399V97.1967H153.54C153.595 98.2447 154.097 99.1478 155.468 99.1478C156.382 99.1478 156.996 98.7018 157.196 97.8545H158.111C157.899 98.713 157.23 99.9059 155.468 99.9059C153.484 99.9059 152.648 98.5457 152.648 96.9514ZM153.54 96.5055H157.029C157.029 95.6136 156.438 94.9112 155.334 94.9112C154.242 94.9112 153.54 95.6136 153.54 96.5055ZM165.057 99.7944H164.142V98.9806L164.298 98.3562H164.031C163.797 99.2147 163.05 99.9059 161.79 99.9059C160.184 99.9059 159.148 98.6684 159.148 97.0183C159.148 95.3794 160.184 94.1419 161.79 94.1419C163.05 94.1419 163.797 94.8331 164.031 95.7028H164.298L164.142 95.0673V91.5999H165.057V99.7944ZM164.142 97.0183C164.142 95.5467 163.206 94.9223 162.057 94.9223C160.909 94.9223 160.062 95.5467 160.062 97.0183C160.062 98.5011 160.909 99.1255 162.057 99.1255C163.206 99.1255 164.142 98.5011 164.142 97.0183Z"/>
</mask>
<path d="M112.704 59.1589C116.569 57.6426 118.026 55.621 118.026 50.8343H127.272V71.7944H122.515V54.6993L123.407 52.0235H122.218C121.861 57.4345 120.821 61.4779 114.369 63.4699L112.704 59.1589ZM130.247 64.0942H135.004C135.004 66.6213 136.402 67.9294 140.118 67.9294C143.478 67.9294 144.578 66.6213 144.578 64.005C144.578 61.7752 143.478 60.6454 141.248 60.6454C139.494 60.6454 138.096 61.359 136.907 62.8752L131.556 59.7832V50.8343H147.67V54.9966H136.313V57.9994L135.421 60.6752L136.402 61.2401C137.531 57.9697 139.732 56.4831 142.675 56.4831C146.361 56.4831 149.335 59.0697 149.335 63.8861C149.335 69.6538 145.648 72.0917 140.118 72.0917C134.588 72.0917 130.247 69.8025 130.247 64.0942ZM164.421 71.7944L160.674 65.997L157.374 67.5429V71.7944H152.617V49.9424H157.374V62.6374L164.242 59.4859L164.183 56.7805H168.94V60.0508C168.94 61.4779 168.375 62.3995 167.067 63.0239L164.748 64.0942L169.832 71.7944H164.421ZM126.832 85.9059C126.397 85.9171 126.152 85.6606 126.152 85.237V77.9344H127.066V85.1255L131.024 85.014V85.7944L126.832 85.9059ZM133.833 79.3726C133.376 79.3726 133.031 79.0381 133.031 78.5922C133.031 78.1685 133.376 77.8229 133.833 77.8229C134.279 77.8229 134.636 78.1685 134.636 78.5922C134.636 79.0381 134.279 79.3726 133.833 79.3726ZM131.983 85.7944V85.014H133.544V80.9335L132.395 81.0338V80.2534L133.677 80.1419C134.201 80.0973 134.402 80.3872 134.402 80.8108V85.014H135.963V85.7944H131.983ZM140.532 80.2534H141.412L139.606 85.7944H137.756L135.927 80.2534H136.819L138.547 85.538H138.815L140.532 80.2534ZM142.021 82.9514C142.021 81.1676 143.136 80.1419 144.708 80.1419C146.269 80.1419 147.295 81.1342 147.295 82.8399V83.1967H142.913C142.969 84.2447 143.471 85.1478 144.842 85.1478C145.756 85.1478 146.369 84.7018 146.57 83.8545H147.484C147.272 84.713 146.603 85.9059 144.842 85.9059C142.857 85.9059 142.021 84.5457 142.021 82.9514ZM142.913 82.5055H146.403C146.403 81.6136 145.812 80.9112 144.708 80.9112C143.616 80.9112 142.913 81.6136 142.913 82.5055ZM153.126 84.3562C153.126 85.1924 152.602 85.9059 150.94 85.9059C149.145 85.9059 148.41 85.0697 148.41 83.7542H149.324C149.324 84.713 149.881 85.1589 150.952 85.1589C151.81 85.1589 152.211 84.9583 152.211 84.3897C152.211 83.665 151.464 83.5423 150.561 83.2636C149.513 82.9291 148.666 82.6058 148.666 81.6024C148.666 80.7216 149.413 80.1419 150.684 80.1419C152.412 80.1419 152.936 81.0896 152.936 82.0038H152.022C152.022 81.2568 151.565 80.8889 150.684 80.8889C150.071 80.8889 149.58 81.0673 149.58 81.569C149.58 82.1041 149.959 82.2714 150.851 82.5612C151.944 82.918 153.126 83.1633 153.126 84.3562ZM117.352 95.8588C117.352 93.5733 118.724 91.8229 121.031 91.8229C123.038 91.8229 124.354 93.027 124.588 94.9669H123.674C123.495 93.4618 122.57 92.6033 121.031 92.6033C119.203 92.6033 118.267 93.9635 118.267 95.8588C118.267 97.7653 119.203 99.1255 121.031 99.1255C122.57 99.1255 123.495 98.2559 123.674 96.7508H124.588C124.354 98.7018 123.038 99.9059 121.031 99.9059C118.724 99.9059 117.352 98.1555 117.352 95.8588ZM129.002 94.1419C130.251 94.1419 131.065 94.8666 131.065 96.4051V99.7944H130.162V96.5278C130.162 95.3683 129.705 94.9223 128.757 94.9223C127.587 94.9223 126.762 95.8477 126.762 97.3417V99.7944H125.847V91.5999H126.762V95.2122L126.617 95.8477H126.873C127.096 94.8443 127.798 94.1419 129.002 94.1419ZM132.342 98.2559C132.342 97.3751 132.866 96.7731 134.159 96.6393L136.367 96.4274C136.311 95.4129 135.765 94.9112 134.806 94.9112C134.003 94.9112 133.256 95.2679 133.256 96.3159H132.364C132.364 95.1676 133.234 94.1419 134.806 94.1419C136.356 94.1419 137.281 95.1676 137.281 96.6504V99.014H138.095V99.7944H137.114C136.69 99.7944 136.456 99.5603 136.456 99.1478V98.8468L136.601 98.267H136.333C136.122 99.1143 135.531 99.9059 134.193 99.9059C132.587 99.9059 132.342 98.8356 132.342 98.2559ZM133.256 98.1444C133.256 98.7799 133.658 99.1255 134.304 99.1255C135.564 99.1255 136.367 98.2559 136.367 97.1075L134.315 97.3194C133.613 97.3863 133.256 97.5981 133.256 98.1444ZM142.051 94.9223C140.88 94.9223 140.055 95.8477 140.055 97.3417V99.7944H139.141V94.2534H140.055V95.2122L139.91 95.8477H140.167C140.39 94.8443 141.092 94.1419 142.296 94.1419C143.545 94.1419 144.359 94.8666 144.359 96.4051V99.7944H143.456V96.5278C143.456 95.3683 142.999 94.9223 142.051 94.9223ZM151.526 94.2534H152.016V95.0338H151.548C151.236 95.0338 151.035 95.1007 150.823 95.2568C151.057 95.5467 151.202 95.948 151.202 96.4274C151.202 97.6204 150.266 98.3674 148.594 98.9806C149.887 98.7687 151.136 98.9471 151.136 100.173C151.136 101.645 149.619 101.835 145.907 101.835V101.054C149.084 101.054 150.221 100.976 150.221 100.107C150.221 98.8802 147.78 99.4711 146.408 99.8836L146.219 99.2481C147.111 99.0029 147.991 98.7464 148.85 98.4789V98.2224C147.066 98.6795 145.505 98.0998 145.505 96.3828C145.505 94.8554 146.754 94.1419 148.348 94.1419C149.017 94.1419 149.708 94.3091 150.232 94.677C150.812 94.3091 151.024 94.2534 151.526 94.2534ZM148.359 97.8991C149.53 97.8991 150.288 97.4866 150.288 96.4051C150.288 95.3348 149.53 94.9223 148.359 94.9223C147.2 94.9223 146.419 95.3348 146.419 96.4051C146.419 97.4866 147.2 97.8991 148.359 97.8991ZM152.648 96.9514C152.648 95.1676 153.762 94.1419 155.334 94.1419C156.895 94.1419 157.921 95.1342 157.921 96.8399V97.1967H153.54C153.595 98.2447 154.097 99.1478 155.468 99.1478C156.382 99.1478 156.996 98.7018 157.196 97.8545H158.111C157.899 98.713 157.23 99.9059 155.468 99.9059C153.484 99.9059 152.648 98.5457 152.648 96.9514ZM153.54 96.5055H157.029C157.029 95.6136 156.438 94.9112 155.334 94.9112C154.242 94.9112 153.54 95.6136 153.54 96.5055ZM165.057 99.7944H164.142V98.9806L164.298 98.3562H164.031C163.797 99.2147 163.05 99.9059 161.79 99.9059C160.184 99.9059 159.148 98.6684 159.148 97.0183C159.148 95.3794 160.184 94.1419 161.79 94.1419C163.05 94.1419 163.797 94.8331 164.031 95.7028H164.298L164.142 95.0673V91.5999H165.057V99.7944ZM164.142 97.0183C164.142 95.5467 163.206 94.9223 162.057 94.9223C160.909 94.9223 160.062 95.5467 160.062 97.0183C160.062 98.5011 160.909 99.1255 162.057 99.1255C163.206 99.1255 164.142 98.5011 164.142 97.0183Z" fill="#5852F2"/>
<path d="M112.704 59.1589L111.856 56.9966L109.705 57.8404L110.537 59.9957L112.704 59.1589ZM118.026 50.8343V48.5116H115.703V50.8343H118.026ZM127.272 50.8343H129.595V48.5116H127.272V50.8343ZM127.272 71.7944V74.1171H129.595V71.7944H127.272ZM122.515 71.7944H120.192V74.1171H122.515V71.7944ZM122.515 54.6993L120.312 53.9648L120.192 54.3224V54.6993H122.515ZM123.407 52.0235L125.611 52.7581L126.63 49.7008H123.407V52.0235ZM122.218 52.0235V49.7008H120.043L119.9 51.8707L122.218 52.0235ZM114.369 63.4699L112.202 64.3067L112.983 66.3286L115.054 65.6892L114.369 63.4699ZM113.552 61.3212C115.698 60.4795 117.535 59.3615 118.757 57.4959C119.963 55.6547 120.349 53.422 120.349 50.8343H115.703C115.703 53.0333 115.36 54.2047 114.871 54.9501C114.399 55.6711 113.575 56.322 111.856 56.9966L113.552 61.3212ZM118.026 53.157H127.272V48.5116H118.026V53.157ZM124.949 50.8343V71.7944H129.595V50.8343H124.949ZM127.272 69.4717H122.515V74.1171H127.272V69.4717ZM124.838 71.7944V54.6993H120.192V71.7944H124.838ZM124.719 55.4338L125.611 52.7581L121.204 51.289L120.312 53.9648L124.719 55.4338ZM123.407 49.7008H122.218V54.3463H123.407V49.7008ZM119.9 51.8707C119.724 54.5388 119.39 56.4334 118.564 57.8727C117.809 59.1893 116.482 60.3866 113.684 61.2505L115.054 65.6892C118.708 64.5611 121.127 62.7408 122.594 60.185C123.99 57.7519 124.355 54.9193 124.536 52.1764L119.9 51.8707ZM116.536 62.633L114.871 58.3221L110.537 59.9957L112.202 64.3067L116.536 62.633ZM130.247 64.0942V61.7715H127.925V64.0942H130.247ZM135.004 64.0942H137.327V61.7715H135.004V64.0942ZM136.907 62.8752L135.745 64.8864L137.491 65.8949L138.735 64.3087L136.907 62.8752ZM131.556 59.7832H129.233V61.1238L130.394 61.7944L131.556 59.7832ZM131.556 50.8343V48.5116H129.233V50.8343H131.556ZM147.67 50.8343H149.992V48.5116H147.67V50.8343ZM147.67 54.9966V57.3193H149.992V54.9966H147.67ZM136.313 54.9966V52.6739H133.99V54.9966H136.313ZM136.313 57.9994L138.516 58.7339L138.635 58.3763V57.9994H136.313ZM135.421 60.6752L133.217 59.9407L132.617 61.7411L134.262 62.6881L135.421 60.6752ZM136.402 61.2401L135.243 63.253L137.679 64.6557L138.597 61.9985L136.402 61.2401ZM130.247 66.4169H135.004V61.7715H130.247V66.4169ZM132.682 64.0942C132.682 65.7927 133.171 67.5522 134.728 68.7821C136.155 69.9096 138.075 70.2522 140.118 70.2522V65.6067C138.445 65.6067 137.808 65.2952 137.607 65.1369C137.537 65.0809 137.327 64.9228 137.327 64.0942H132.682ZM140.118 70.2522C142.012 70.2522 143.861 69.8998 145.2 68.6397C146.579 67.3415 146.9 65.5751 146.9 64.005H142.255C142.255 65.0512 142.026 65.2471 142.016 65.2569C141.965 65.305 141.584 65.6067 140.118 65.6067V70.2522ZM146.9 64.005C146.9 62.5399 146.538 61.0091 145.402 59.8576C144.26 58.7005 142.729 58.3227 141.248 58.3227V62.9681C141.616 62.9681 141.842 63.0156 141.965 63.0574C142.025 63.0775 142.059 63.0955 142.075 63.1051C142.09 63.1143 142.095 63.1195 142.096 63.1205C142.097 63.1215 142.103 63.1277 142.113 63.1454C142.124 63.164 142.144 63.2012 142.165 63.2651C142.208 63.3975 142.255 63.6315 142.255 64.005H146.9ZM141.248 58.3227C138.709 58.3227 136.663 59.4226 135.08 61.4418L138.735 64.3087C139.53 63.2953 140.278 62.9681 141.248 62.9681V58.3227ZM138.069 60.8641L132.718 57.7721L130.394 61.7944L135.745 64.8864L138.069 60.8641ZM133.878 59.7832V50.8343H129.233V59.7832H133.878ZM131.556 53.157H147.67V48.5116H131.556V53.157ZM145.347 50.8343V54.9966H149.992V50.8343H145.347ZM147.67 52.6739H136.313V57.3193H147.67V52.6739ZM133.99 54.9966V57.9994H138.635V54.9966H133.99ZM134.109 57.2649L133.217 59.9407L137.624 61.4097L138.516 58.7339L134.109 57.2649ZM134.262 62.6881L135.243 63.253L137.561 59.2271L136.58 58.6623L134.262 62.6881ZM138.597 61.9985C139.045 60.7019 139.637 59.9465 140.236 59.5051C140.827 59.0695 141.606 58.8059 142.675 58.8059V54.1604C140.8 54.1604 139.007 54.6401 137.48 55.7653C135.961 56.8848 134.888 58.5078 134.206 60.4816L138.597 61.9985ZM142.675 58.8059C143.965 58.8059 145 59.2491 145.715 59.9907C146.428 60.7303 147.012 61.9644 147.012 63.8861H151.657C151.657 60.9914 150.754 58.524 149.059 56.7662C147.366 55.0105 145.071 54.1604 142.675 54.1604V58.8059ZM147.012 63.8861C147.012 66.2443 146.283 67.5675 145.322 68.36C144.282 69.2177 142.59 69.769 140.118 69.769V74.4144C143.176 74.4144 146.092 73.7468 148.278 71.9436C150.543 70.0753 151.657 67.2956 151.657 63.8861H147.012ZM140.118 69.769C137.62 69.769 135.703 69.2438 134.471 68.3521C133.355 67.5442 132.57 66.2765 132.57 64.0942H127.925C127.925 67.6202 129.31 70.3513 131.747 72.1151C134.068 73.795 137.086 74.4144 140.118 74.4144V69.769ZM164.421 71.7944L162.47 73.055L163.156 74.1171H164.421V71.7944ZM160.674 65.997L162.625 64.7364L161.525 63.0335L159.689 63.8936L160.674 65.997ZM157.374 67.5429L156.389 65.4396L155.052 66.0661V67.5429H157.374ZM157.374 71.7944V74.1171H159.697V71.7944H157.374ZM152.617 71.7944H150.295V74.1171H152.617V71.7944ZM152.617 49.9424V47.6197H150.295V49.9424H152.617ZM157.374 49.9424H159.697V47.6197H157.374V49.9424ZM157.374 62.6374H155.052V66.2588L158.343 64.7484L157.374 62.6374ZM164.242 59.4859L165.211 61.597L166.598 60.9606L166.564 59.4349L164.242 59.4859ZM164.183 56.7805V54.4577H161.808L161.861 56.8315L164.183 56.7805ZM168.94 56.7805H171.262V54.4577H168.94V56.7805ZM167.067 63.0239L168.04 65.1328L168.054 65.1265L168.067 65.1201L167.067 63.0239ZM164.748 64.0942L163.774 61.9853L161.32 63.1181L162.809 65.374L164.748 64.0942ZM169.832 71.7944V74.1171H174.148L171.77 70.5147L169.832 71.7944ZM166.371 70.5339L162.625 64.7364L158.724 67.2575L162.47 73.055L166.371 70.5339ZM159.689 63.8936L156.389 65.4396L158.36 69.6463L161.66 68.1003L159.689 63.8936ZM155.052 67.5429V71.7944H159.697V67.5429H155.052ZM157.374 69.4717H152.617V74.1171H157.374V69.4717ZM154.94 71.7944V49.9424H150.295V71.7944H154.94ZM152.617 52.2651H157.374V47.6197H152.617V52.2651ZM155.052 49.9424V62.6374H159.697V49.9424H155.052ZM158.343 64.7484L165.211 61.597L163.273 57.3749L156.406 60.5263L158.343 64.7484ZM166.564 59.4349L166.505 56.7294L161.861 56.8315L161.92 59.537L166.564 59.4349ZM164.183 59.1032H168.94V54.4577H164.183V59.1032ZM166.617 56.7805V60.0508H171.262V56.7805H166.617ZM166.617 60.0508C166.617 60.4563 166.539 60.5837 166.525 60.606C166.512 60.6265 166.433 60.7525 166.066 60.9277L168.067 65.1201C169.008 64.6709 169.866 64.024 170.462 63.0708C171.058 62.1194 171.262 61.0725 171.262 60.0508H166.617ZM166.093 60.915L163.774 61.9853L165.721 66.2031L168.04 65.1328L166.093 60.915ZM162.809 65.374L167.893 73.0742L171.77 70.5147L166.686 62.8144L162.809 65.374ZM169.832 69.4717H164.421V74.1171H169.832V69.4717ZM126.832 85.9059L126.892 88.2279L126.894 88.2278L126.832 85.9059ZM126.152 77.9344V75.6117H123.829V77.9344H126.152ZM127.066 77.9344H129.389V75.6117H127.066V77.9344ZM127.066 85.1255H124.744V87.5145L127.132 87.4473L127.066 85.1255ZM131.024 85.014H133.347V82.6249L130.959 82.6922L131.024 85.014ZM131.024 85.7944L131.086 88.1163L133.347 88.0562V85.7944H131.024ZM126.773 83.584C127.025 83.5775 127.531 83.6518 127.972 84.0921C128.402 84.5229 128.475 85.0097 128.475 85.237H123.829C123.829 85.8879 124.025 86.7147 124.687 87.3769C125.358 88.0486 126.205 88.2455 126.892 88.2279L126.773 83.584ZM128.475 85.237V77.9344H123.829V85.237H128.475ZM126.152 80.2571H127.066V75.6117H126.152V80.2571ZM124.744 77.9344V85.1255H129.389V77.9344H124.744ZM127.132 87.4473L131.09 87.3358L130.959 82.6922L127.001 82.8037L127.132 87.4473ZM128.702 85.014V85.7944H133.347V85.014H128.702ZM130.963 83.4725L126.771 83.584L126.894 88.2278L131.086 88.1163L130.963 83.4725ZM131.983 85.7944H129.66V88.1171H131.983V85.7944ZM131.983 85.014V82.6913H129.66V85.014H131.983ZM133.544 85.014V87.3367H135.866V85.014H133.544ZM133.544 80.9335H135.866V78.399L133.341 78.6196L133.544 80.9335ZM132.395 81.0338H130.073V83.5683L132.597 83.3477L132.395 81.0338ZM132.395 80.2534L132.194 77.9394L130.073 78.1239V80.2534H132.395ZM133.677 80.1419L133.48 77.8275L133.476 77.8279L133.677 80.1419ZM134.402 85.014H132.079V87.3367H134.402V85.014ZM135.963 85.014H138.286V82.6913H135.963V85.014ZM135.963 85.7944V88.1171H138.286V85.7944H135.963ZM133.833 77.0499C134.182 77.0499 134.57 77.1834 134.879 77.4831C135.191 77.7862 135.353 78.1945 135.353 78.5922H130.708C130.708 80.3852 132.159 81.6953 133.833 81.6953V77.0499ZM135.353 78.5922C135.353 79.5156 134.594 80.1456 133.833 80.1456V75.5002C132.159 75.5002 130.708 76.8215 130.708 78.5922H135.353ZM133.833 80.1456C133.083 80.1456 132.314 79.5363 132.314 78.5922H136.959C136.959 76.8007 135.476 75.5002 133.833 75.5002V80.1456ZM132.314 78.5922C132.314 77.6703 133.083 77.0499 133.833 77.0499V81.6953C135.476 81.6953 136.959 80.406 136.959 78.5922H132.314ZM134.305 85.7944V85.014H129.66V85.7944H134.305ZM131.983 87.3367H133.544V82.6913H131.983V87.3367ZM135.866 85.014V80.9335H131.221V85.014H135.866ZM133.341 78.6196L132.193 78.7199L132.597 83.3477L133.746 83.2474L133.341 78.6196ZM134.718 81.0338V80.2534H130.073V81.0338H134.718ZM132.596 82.5674L133.879 82.4559L133.476 77.8279L132.194 77.9394L132.596 82.5674ZM133.874 82.4562C133.696 82.4714 133.089 82.4566 132.565 81.9138C132.096 81.428 132.079 80.9082 132.079 80.8108H136.725C136.725 80.2898 136.608 79.4132 135.908 78.6878C135.152 77.9052 134.183 77.7678 133.48 77.8276L133.874 82.4562ZM132.079 80.8108V85.014H136.725V80.8108H132.079ZM134.402 87.3367H135.963V82.6913H134.402V87.3367ZM133.64 85.014V85.7944H138.286V85.014H133.64ZM135.963 83.4717H131.983V88.1171H135.963V83.4717ZM140.532 80.2534V77.9307H138.844L138.323 79.5357L140.532 80.2534ZM141.412 80.2534L143.621 80.9732L144.613 77.9307H141.412V80.2534ZM139.606 85.7944V88.1171H141.292L141.815 86.5143L139.606 85.7944ZM137.756 85.7944L135.55 86.5223L136.076 88.1171H137.756V85.7944ZM135.927 80.2534V77.9307H132.715L133.721 80.9812L135.927 80.2534ZM136.819 80.2534L139.027 79.5315L138.503 77.9307H136.819V80.2534ZM138.547 85.538L136.339 86.2599L136.863 87.8607H138.547V85.538ZM138.815 85.538V87.8607H140.502L141.024 86.2557L138.815 85.538ZM140.532 82.5761H141.412V77.9307H140.532V82.5761ZM139.204 79.5336L137.398 85.0746L141.815 86.5143L143.621 80.9732L139.204 79.5336ZM139.606 83.4717H137.756V88.1171H139.606V83.4717ZM139.961 85.0666L138.133 79.5255L133.721 80.9812L135.55 86.5223L139.961 85.0666ZM135.927 82.5761H136.819V77.9307H135.927V82.5761ZM134.611 80.9753L136.339 86.2599L140.755 84.8161L139.027 79.5315L134.611 80.9753ZM138.547 87.8607H138.815V83.2153H138.547V87.8607ZM141.024 86.2557L142.741 80.9711L138.323 79.5357L136.606 84.8203L141.024 86.2557ZM147.295 83.1967V85.5194H149.617V83.1967H147.295ZM142.913 83.1967V80.874H140.464L140.594 83.3201L142.913 83.1967ZM146.57 83.8545V81.5318H144.733L144.31 83.3192L146.57 83.8545ZM147.484 83.8545L149.739 84.411L150.45 81.5318H147.484V83.8545ZM142.913 82.5055H140.59V84.8282H142.913V82.5055ZM146.403 82.5055V84.8282H148.725V82.5055H146.403ZM144.344 82.9514C144.344 82.7469 144.376 82.6266 144.397 82.5697C144.417 82.5162 144.431 82.5063 144.425 82.5129C144.394 82.5444 144.434 82.4646 144.708 82.4646V77.8192C143.41 77.8192 142.107 78.2522 141.126 79.2425C140.141 80.2353 139.698 81.567 139.698 82.9514H144.344ZM144.708 82.4646C144.853 82.4646 144.927 82.4876 144.947 82.4954C144.964 82.5017 144.949 82.4982 144.927 82.476C144.905 82.4541 144.911 82.4482 144.926 82.4896C144.943 82.5352 144.972 82.6448 144.972 82.84H149.617C149.617 81.5197 149.212 80.2126 148.247 79.2265C147.278 78.2369 145.988 77.8192 144.708 77.8192V82.4646ZM144.972 82.84V83.1967H149.617V82.84H144.972ZM147.295 80.874H142.913V85.5194H147.295V80.874ZM140.594 83.3201C140.637 84.1337 140.863 85.1872 141.616 86.0712C142.436 87.0344 143.601 87.4705 144.842 87.4705V82.8251C144.754 82.8251 144.779 82.8109 144.869 82.8486C144.967 82.8897 145.071 82.9632 145.153 83.0594C145.228 83.1477 145.251 83.215 145.252 83.2181C145.252 83.2184 145.238 83.174 145.233 83.0733L140.594 83.3201ZM144.842 87.4705C145.673 87.4705 146.576 87.2651 147.359 86.6834C148.158 86.0899 148.625 85.2582 148.83 84.3898L144.31 83.3192C144.31 83.3171 144.323 83.2654 144.371 83.1884C144.421 83.1083 144.494 83.0246 144.588 82.9544C144.786 82.8075 144.925 82.8251 144.842 82.8251V87.4705ZM146.57 86.1772H147.484V81.5318H146.57V86.1772ZM145.229 83.2981C145.213 83.3624 145.191 83.4233 145.166 83.472C145.141 83.5192 145.123 83.539 145.119 83.5431C145.117 83.5448 145.117 83.5446 145.118 83.5439C145.119 83.5431 145.116 83.5452 145.107 83.549C145.092 83.5548 145.016 83.5832 144.842 83.5832V88.2286C146.304 88.2286 147.503 87.7101 148.37 86.8612C149.182 86.0655 149.565 85.117 149.739 84.411L145.229 83.2981ZM144.842 83.5832C144.612 83.5832 144.504 83.5444 144.475 83.5319C144.459 83.5252 144.455 83.5214 144.457 83.5229C144.459 83.5244 144.46 83.5258 144.459 83.5248C144.457 83.5222 144.344 83.3746 144.344 82.9514H139.698C139.698 84.1226 140.003 85.4523 140.915 86.5283C141.88 87.6659 143.276 88.2286 144.842 88.2286V83.5832ZM142.913 84.8282H146.403V80.1828H142.913V84.8282ZM148.725 82.5055C148.725 81.5443 148.4 80.5232 147.616 79.7355C146.822 78.9376 145.767 78.5885 144.708 78.5885V83.2339C144.753 83.2339 144.545 83.2359 144.323 83.0123C144.11 82.7987 144.08 82.5747 144.08 82.5055H148.725ZM144.708 78.5885C142.52 78.5885 140.59 80.1514 140.59 82.5055H145.236C145.236 82.6938 145.151 82.9204 144.973 83.0835C144.802 83.2412 144.665 83.2339 144.708 83.2339V78.5885ZM148.41 83.7542V81.4315H146.087V83.7542H148.41ZM149.324 83.7542H151.647V81.4315H149.324V83.7542ZM150.561 83.2636L149.855 85.4764L149.866 85.4797L149.876 85.483L150.561 83.2636ZM152.936 82.0038V84.3265H155.259V82.0038H152.936ZM152.022 82.0038H149.699V84.3265H152.022V82.0038ZM150.851 82.5612L151.572 80.3532L151.569 80.3522L150.851 82.5612ZM150.803 84.3562C150.803 84.3262 150.807 84.2206 150.867 84.0755C150.93 83.9183 151.036 83.7712 151.167 83.6621C151.411 83.4585 151.489 83.5832 150.94 83.5832V88.2286C152.053 88.2286 153.224 87.9965 154.145 87.2272C155.138 86.3975 155.448 85.2792 155.448 84.3562H150.803ZM150.94 83.5832C150.665 83.5832 150.522 83.5504 150.471 83.5348C150.429 83.5218 150.485 83.5317 150.57 83.6095C150.61 83.6464 150.646 83.6891 150.676 83.7345C150.706 83.7792 150.723 83.8175 150.732 83.8425C150.749 83.8892 150.732 83.872 150.732 83.7542H146.087C146.087 84.8394 146.401 86.0922 147.434 87.0373C148.43 87.9483 149.723 88.2286 150.94 88.2286V83.5832ZM148.41 86.0769H149.324V81.4315H148.41V86.0769ZM147.001 83.7542C147.001 84.6918 147.291 85.7889 148.235 86.5885C149.104 87.3241 150.152 87.4816 150.952 87.4816V82.8362C150.681 82.8362 150.915 82.7708 151.238 83.0437C151.409 83.1889 151.527 83.3676 151.591 83.5332C151.65 83.6839 151.647 83.7744 151.647 83.7542H147.001ZM150.952 87.4816C151.451 87.4816 152.302 87.4445 153.075 86.9933C153.519 86.7339 153.925 86.3456 154.199 85.8161C154.462 85.3071 154.534 84.8001 154.534 84.3897H149.889C149.889 84.2635 149.911 83.9948 150.072 83.6834C150.243 83.3514 150.496 83.1199 150.732 82.9817C150.941 82.8598 151.097 82.833 151.11 82.8307C151.128 82.8276 151.086 82.8362 150.952 82.8362V87.4816ZM154.534 84.3897C154.534 83.7778 154.366 83.1501 153.971 82.5969C153.601 82.08 153.14 81.7774 152.798 81.5994C152.25 81.3138 151.462 81.1108 151.246 81.0442L149.876 85.483C150.007 85.5233 150.133 85.5602 150.236 85.5905C150.345 85.6227 150.428 85.6473 150.503 85.6708C150.667 85.7223 150.688 85.7379 150.652 85.7194C150.61 85.6975 150.392 85.5788 150.191 85.2975C149.964 84.9798 149.889 84.6391 149.889 84.3897H154.534ZM151.268 81.0509C151.011 80.969 150.838 80.9099 150.705 80.8551C150.57 80.7999 150.549 80.7782 150.582 80.8021C150.627 80.8346 150.752 80.9377 150.857 81.1308C150.966 81.3322 150.989 81.5122 150.989 81.6024H146.343C146.343 82.9333 146.984 83.9325 147.859 84.5656C148.552 85.0668 149.388 85.3273 149.855 85.4764L151.268 81.0509ZM150.989 81.6024C150.989 81.7174 150.962 81.8782 150.876 82.0487C150.791 82.2191 150.675 82.3386 150.578 82.4108C150.401 82.5409 150.367 82.4646 150.684 82.4646V77.8192C149.73 77.8192 148.687 78.0328 147.819 78.6729C146.879 79.3666 146.343 80.4259 146.343 81.6024H150.989ZM150.684 82.4646C150.908 82.4646 150.995 82.4957 150.992 82.4945C150.979 82.4901 150.899 82.4565 150.806 82.3625C150.715 82.2702 150.661 82.1698 150.635 82.0948C150.611 82.0269 150.613 81.9923 150.613 82.0038H155.259C155.259 81.1238 155.003 80.0012 154.11 79.0975C153.203 78.1793 151.967 77.8192 150.684 77.8192V82.4646ZM152.936 79.6811H152.022V84.3265H152.936V79.6811ZM154.345 82.0038C154.345 81.1356 154.057 80.1144 153.163 79.3755C152.351 78.7054 151.392 78.5662 150.684 78.5662V83.2116C150.857 83.2116 150.566 83.2563 150.204 82.9569C150.011 82.7974 149.869 82.5949 149.784 82.3877C149.706 82.1941 149.699 82.0497 149.699 82.0038H154.345ZM150.684 78.5662C150.22 78.5662 149.494 78.6224 148.801 78.9957C147.942 79.4581 147.258 80.3631 147.258 81.569H151.903C151.903 81.8393 151.831 82.1759 151.626 82.4986C151.428 82.8098 151.18 82.9908 151.003 83.0859C150.709 83.2445 150.534 83.2116 150.684 83.2116V78.5662ZM147.258 81.569C147.258 81.9823 147.333 82.4787 147.591 82.9778C147.851 83.4783 148.213 83.8235 148.546 84.0575C149.092 84.4416 149.772 84.6526 150.133 84.7702L151.569 80.3522C151.35 80.2812 151.225 80.2372 151.144 80.2045C151.057 80.1694 151.111 80.1824 151.217 80.2567C151.344 80.3457 151.555 80.5307 151.716 80.8403C151.875 81.1484 151.903 81.4232 151.903 81.569H147.258ZM150.13 84.7692C150.282 84.8186 150.44 84.8679 150.564 84.907C150.697 84.949 150.807 84.9842 150.906 85.0187C151.116 85.0916 151.197 85.1336 151.217 85.1453C151.228 85.1518 151.101 85.0803 150.978 84.8903C150.915 84.7946 150.868 84.6898 150.838 84.5844C150.809 84.481 150.803 84.4005 150.803 84.3562H155.448C155.448 83.6492 155.265 82.9617 154.87 82.355C154.491 81.7724 154 81.3935 153.579 81.145C152.86 80.7204 151.901 80.4607 151.572 80.3532L150.13 84.7692ZM124.588 94.9669V97.2896H127.208L126.894 94.6886L124.588 94.9669ZM123.674 94.9669L121.367 95.2403L121.61 97.2896H123.674V94.9669ZM123.674 96.7508V94.4281H121.61L121.367 96.4774L123.674 96.7508ZM124.588 96.7508L126.894 97.0275L127.206 94.4281H124.588V96.7508ZM119.675 95.8588C119.675 95.1677 119.881 94.7352 120.076 94.5112C120.242 94.3217 120.51 94.1456 121.031 94.1456V89.5002C119.246 89.5002 117.674 90.1993 116.577 91.4564C115.51 92.6789 115.03 94.2644 115.03 95.8588H119.675ZM121.031 94.1456C121.56 94.1456 121.811 94.2956 121.928 94.4004C122.048 94.5073 122.221 94.7396 122.282 95.2452L126.894 94.6886C126.721 93.2543 126.119 91.9146 125.021 90.9345C123.92 89.9522 122.51 89.5002 121.031 89.5002V94.1456ZM124.588 92.6442H123.674V97.2896H124.588V92.6442ZM125.98 94.6935C125.842 93.5275 125.379 92.3639 124.419 91.4969C123.454 90.6252 122.238 90.2806 121.031 90.2806V94.926C121.202 94.926 121.291 94.9499 121.321 94.9601C121.346 94.9685 121.331 94.9675 121.306 94.9445C121.281 94.9219 121.282 94.9111 121.296 94.9422C121.313 94.9779 121.347 95.0694 121.367 95.2403L125.98 94.6935ZM121.031 90.2806C119.483 90.2806 118.097 90.8881 117.151 92.0672C116.261 93.177 115.944 94.5616 115.944 95.8588H120.589C120.589 95.2608 120.74 95.0176 120.775 94.9735C120.787 94.9593 120.788 94.9607 120.791 94.9592C120.798 94.9559 120.865 94.926 121.031 94.926V90.2806ZM115.944 95.8588C115.944 97.1589 116.26 98.5461 117.15 99.6581C118.095 100.84 119.482 101.448 121.031 101.448V96.8028C120.865 96.8028 120.799 96.7729 120.792 96.7699C120.789 96.7686 120.788 96.7704 120.777 96.7561C120.741 96.7114 120.589 96.4652 120.589 95.8588H115.944ZM121.031 101.448C122.246 101.448 123.463 101.096 124.425 100.221C125.381 99.3521 125.842 98.1888 125.98 97.0241L121.367 96.4774C121.347 96.6486 121.312 96.7419 121.295 96.7801C121.279 96.8138 121.277 96.8052 121.3 96.7841C121.324 96.7624 121.338 96.7612 121.314 96.7693C121.285 96.7791 121.199 96.8028 121.031 96.8028V101.448ZM123.674 99.0735H124.588V94.4281H123.674V99.0735ZM122.282 96.474C122.22 96.9878 122.045 97.2222 121.926 97.329C121.809 97.4333 121.559 97.5832 121.031 97.5832V102.229C122.51 102.229 123.922 101.776 125.023 100.791C126.122 99.808 126.722 98.4648 126.894 97.0275L122.282 96.474ZM121.031 97.5832C120.51 97.5832 120.243 97.4073 120.078 97.2179C119.882 96.9934 119.675 96.5581 119.675 95.8588H115.03C115.03 97.4563 115.508 99.0445 116.575 100.269C117.673 101.529 119.245 102.229 121.031 102.229V97.5832ZM131.065 99.7944V102.117H133.388V99.7944H131.065ZM130.162 99.7944H127.839V102.117H130.162V99.7944ZM126.762 99.7944V102.117H129.084V99.7944H126.762ZM125.847 99.7944H123.525V102.117H125.847V99.7944ZM125.847 91.5999V89.2772H123.525V91.5999H125.847ZM126.762 91.5999H129.084V89.2772H126.762V91.5999ZM126.762 95.2122L129.026 95.7287L129.084 95.4737V95.2122H126.762ZM126.617 95.8477L124.352 95.3312L123.705 98.1704H126.617V95.8477ZM126.873 95.8477V98.1704H128.736L129.14 96.3516L126.873 95.8477ZM129.002 96.4646C129.094 96.4646 129.102 96.4781 129.055 96.461C129 96.4408 128.912 96.3936 128.829 96.3074C128.747 96.2224 128.72 96.151 128.717 96.1442C128.717 96.1437 128.723 96.1625 128.73 96.2058C128.736 96.2492 128.742 96.3146 128.742 96.4051H133.388C133.388 95.2431 133.076 94.0216 132.175 93.0857C131.264 92.1388 130.072 91.8192 129.002 91.8192V96.4646ZM128.742 96.4051V99.7944H133.388V96.4051H128.742ZM131.065 97.4717H130.162V102.117H131.065V97.4717ZM132.485 99.7944V96.5278H127.839V99.7944H132.485ZM132.485 96.5278C132.485 95.721 132.34 94.6159 131.535 93.7292C130.68 92.7874 129.555 92.5996 128.757 92.5996V97.245C128.907 97.245 128.484 97.2803 128.095 96.8513C127.924 96.6631 127.86 96.4872 127.84 96.4171C127.823 96.3583 127.839 96.3793 127.839 96.5278H132.485ZM128.757 92.5996C127.515 92.5996 126.356 93.112 125.545 94.0743C124.761 95.0036 124.439 96.1807 124.439 97.3417H129.084C129.084 97.0087 129.174 96.9761 129.096 97.0692C129.056 97.116 128.994 97.1678 128.913 97.2044C128.834 97.2406 128.774 97.245 128.757 97.245V92.5996ZM124.439 97.3417V99.7944H129.084V97.3417H124.439ZM126.762 97.4717H125.847V102.117H126.762V97.4717ZM128.17 99.7944V91.5999H123.525V99.7944H128.17ZM125.847 93.9226H126.762V89.2772H125.847V93.9226ZM124.439 91.5999V95.2122H129.084V91.5999H124.439ZM124.497 94.6957L124.352 95.3312L128.881 96.3642L129.026 95.7287L124.497 94.6957ZM126.617 98.1704H126.873V93.525H126.617V98.1704ZM129.14 96.3516C129.153 96.2955 129.164 96.2805 129.157 96.2937C129.148 96.3092 129.123 96.3469 129.075 96.3879C129.025 96.4301 128.976 96.4545 128.944 96.4653C128.915 96.4752 128.928 96.4646 129.002 96.4646V91.8192C127.928 91.8192 126.896 92.1429 126.065 92.8491C125.251 93.5411 124.804 94.4534 124.606 95.3438L129.14 96.3516ZM134.159 96.6393L133.937 94.3272L133.929 94.328L133.92 94.3289L134.159 96.6393ZM136.367 96.4274L136.589 98.7395L138.808 98.5265L138.686 96.3L136.367 96.4274ZM133.256 96.3159V98.6387H135.579V96.3159H133.256ZM132.364 96.3159H130.042V98.6387H132.364V96.3159ZM137.281 99.014H134.958V101.337H137.281V99.014ZM138.095 99.014H140.418V96.6913H138.095V99.014ZM138.095 99.7944V102.117H140.418V99.7944H138.095ZM136.456 98.8468L134.203 98.2834L134.133 98.5608V98.8468H136.456ZM136.601 98.267L138.854 98.8304L139.576 95.9443H136.601V98.267ZM136.333 98.267V95.9443H134.52L134.08 97.7037L136.333 98.267ZM136.367 97.1075H138.69V94.5326L136.128 94.7971L136.367 97.1075ZM134.315 97.3194L134.536 99.6316L134.545 99.6307L134.554 99.6298L134.315 97.3194ZM134.665 98.2559C134.665 98.2641 134.664 98.3487 134.615 98.4758C134.563 98.6123 134.476 98.7465 134.363 98.8534C134.149 99.0568 134.037 98.987 134.398 98.9496L133.92 94.3289C132.988 94.4253 131.968 94.7235 131.168 95.4815C130.313 96.2919 130.019 97.3295 130.019 98.2559H134.665ZM134.381 98.9514L136.589 98.7395L136.145 94.1153L133.937 94.3272L134.381 98.9514ZM138.686 96.3C138.637 95.4145 138.351 94.3965 137.532 93.6113C136.708 92.8222 135.679 92.5885 134.806 92.5885V97.2339C134.892 97.2339 134.616 97.251 134.319 96.9664C134.025 96.6856 134.041 96.4258 134.048 96.5549L138.686 96.3ZM134.806 92.5885C134.112 92.5885 133.154 92.7355 132.317 93.3775C131.377 94.0982 130.934 95.176 130.934 96.3159H135.579C135.579 96.3311 135.576 96.4502 135.498 96.6191C135.418 96.7957 135.291 96.9506 135.144 97.0636C134.881 97.2652 134.698 97.2339 134.806 97.2339V92.5885ZM133.256 93.9932H132.364V98.6387H133.256V93.9932ZM134.687 96.3159C134.687 96.3225 134.686 96.3444 134.673 96.3762C134.659 96.4092 134.637 96.4422 134.61 96.4686C134.582 96.4957 134.565 96.4994 134.581 96.4934C134.598 96.487 134.667 96.4646 134.806 96.4646V91.8192C133.499 91.8192 132.283 92.2565 131.382 93.128C130.489 93.9902 130.042 95.1482 130.042 96.3159H134.687ZM134.806 96.4646C134.937 96.4646 134.994 96.4859 134.999 96.4881C135.002 96.4889 134.978 96.4787 134.951 96.4505C134.925 96.4235 134.923 96.4079 134.93 96.4278C134.938 96.4505 134.958 96.5202 134.958 96.6504H139.604C139.604 95.426 139.215 94.182 138.298 93.2297C137.37 92.2647 136.111 91.8192 134.806 91.8192V96.4646ZM134.958 96.6504V99.014H139.604V96.6504H134.958ZM137.281 101.337H138.095V96.6913H137.281V101.337ZM135.772 99.014V99.7944H140.418V99.014H135.772ZM138.095 97.4717H137.114V102.117H138.095V97.4717ZM137.114 97.4717C137.319 97.4717 137.814 97.5345 138.258 97.9731C138.706 98.4158 138.779 98.9209 138.779 99.1478H134.133C134.133 99.7872 134.323 100.616 134.994 101.279C135.661 101.937 136.485 102.117 137.114 102.117V97.4717ZM138.779 99.1478V98.8468H134.133V99.1478H138.779ZM138.709 99.4101L138.854 98.8304L134.348 97.7037L134.203 98.2834L138.709 99.4101ZM136.601 95.9443H136.333V100.59H136.601V95.9443ZM134.08 97.7037C134.067 97.7545 134.057 97.7714 134.061 97.7633C134.067 97.7526 134.091 97.7138 134.141 97.669C134.166 97.6471 134.193 97.6275 134.22 97.6112C134.248 97.5949 134.271 97.585 134.286 97.5796C134.319 97.5682 134.297 97.5832 134.193 97.5832V102.229C135.352 102.229 136.407 101.871 137.229 101.139C138.015 100.44 138.403 99.5643 138.587 98.8304L134.08 97.7037ZM134.193 97.5832C134.048 97.5832 134.061 97.5592 134.161 97.6034C134.274 97.653 134.402 97.747 134.505 97.8807C134.599 98.0027 134.637 98.111 134.651 98.1646C134.664 98.2154 134.665 98.2452 134.665 98.2559H130.019C130.019 98.8071 130.125 99.8074 130.825 100.716C131.613 101.739 132.824 102.229 134.193 102.229V97.5832ZM130.934 98.1444C130.934 98.9679 131.21 99.891 131.969 100.587C132.699 101.254 133.587 101.448 134.304 101.448V96.8028C134.375 96.8028 134.739 96.824 135.106 97.16C135.504 97.5238 135.579 97.9564 135.579 98.1444H130.934ZM134.304 101.448C135.487 101.448 136.618 101.028 137.457 100.183C138.289 99.3446 138.69 98.2319 138.69 97.1075H134.044C134.044 97.1234 134.042 97.1046 134.058 97.0621C134.075 97.0184 134.107 96.9633 134.159 96.9111C134.212 96.8584 134.266 96.8266 134.306 96.8107C134.346 96.7953 134.351 96.8028 134.304 96.8028V101.448ZM136.128 94.7971L134.077 95.0089L134.554 99.6298L136.605 99.4179L136.128 94.7971ZM134.095 95.0071C133.641 95.0504 132.851 95.1651 132.15 95.6781C131.261 96.3291 130.934 97.2854 130.934 98.1444H135.579C135.579 98.2576 135.56 98.485 135.437 98.7556C135.307 99.0427 135.108 99.27 134.895 99.4261C134.701 99.5679 134.54 99.6192 134.492 99.6329C134.444 99.6467 134.447 99.64 134.536 99.6316L134.095 95.0071ZM140.055 99.7944V102.117H142.378V99.7944H140.055ZM139.141 99.7944H136.818V102.117H139.141V99.7944ZM139.141 94.2534V91.9307H136.818V94.2534H139.141ZM140.055 94.2534H142.378V91.9307H140.055V94.2534ZM140.055 95.2122L142.32 95.7287L142.378 95.4737V95.2122H140.055ZM139.91 95.8477L137.646 95.3312L136.998 98.1704H139.91V95.8477ZM140.167 95.8477V98.1704H142.03L142.434 96.3516L140.167 95.8477ZM144.359 99.7944V102.117H146.682V99.7944H144.359ZM143.456 99.7944H141.133V102.117H143.456V99.7944ZM142.051 92.5996C140.809 92.5996 139.65 93.112 138.839 94.0743C138.055 95.0036 137.733 96.1807 137.733 97.3417H142.378C142.378 97.0087 142.468 96.9761 142.39 97.0692C142.35 97.116 142.288 97.1678 142.207 97.2044C142.128 97.2406 142.068 97.245 142.051 97.245V92.5996ZM137.733 97.3417V99.7944H142.378V97.3417H137.733ZM140.055 97.4717H139.141V102.117H140.055V97.4717ZM141.464 99.7944V94.2534H136.818V99.7944H141.464ZM139.141 96.5761H140.055V91.9307H139.141V96.5761ZM137.733 94.2534V95.2122H142.378V94.2534H137.733ZM137.791 94.6957L137.646 95.3312L142.175 96.3642L142.32 95.7287L137.791 94.6957ZM139.91 98.1704H140.167V93.525H139.91V98.1704ZM142.434 96.3516C142.447 96.2955 142.458 96.2805 142.45 96.2937C142.442 96.3092 142.417 96.3469 142.368 96.3879C142.319 96.4301 142.27 96.4545 142.238 96.4653C142.209 96.4752 142.222 96.4646 142.296 96.4646V91.8192C141.222 91.8192 140.189 92.1429 139.359 92.8491C138.545 93.5411 138.097 94.4534 137.899 95.3438L142.434 96.3516ZM142.296 96.4646C142.387 96.4646 142.396 96.4781 142.349 96.461C142.294 96.4408 142.205 96.3936 142.123 96.3074C142.041 96.2224 142.013 96.151 142.011 96.1442C142.011 96.1437 142.017 96.1625 142.024 96.2058C142.03 96.2492 142.036 96.3146 142.036 96.4051H146.682C146.682 95.2431 146.37 94.0216 145.469 93.0857C144.558 92.1388 143.366 91.8192 142.296 91.8192V96.4646ZM142.036 96.4051V99.7944H146.682V96.4051H142.036ZM144.359 97.4717H143.456V102.117H144.359V97.4717ZM145.779 99.7944V96.5278H141.133V99.7944H145.779ZM145.779 96.5278C145.779 95.721 145.634 94.6159 144.829 93.7292C143.974 92.7874 142.849 92.5996 142.051 92.5996V97.245C142.201 97.245 141.778 97.2803 141.389 96.8513C141.218 96.6631 141.154 96.4872 141.134 96.4171C141.117 96.3583 141.133 96.3793 141.133 96.5278H145.779ZM152.016 94.2534H154.339V91.9307H152.016V94.2534ZM152.016 95.0338V97.3565H154.339V95.0338H152.016ZM150.823 95.2568L149.446 93.3869L147.491 94.8273L149.016 96.7162L150.823 95.2568ZM148.594 98.9806L147.794 96.7998L148.969 101.273L148.594 98.9806ZM145.907 101.835H143.584V104.157H145.907V101.835ZM145.907 101.054V98.7316H143.584V101.054H145.907ZM146.408 99.8836L144.183 100.547L144.848 102.779L147.077 102.108L146.408 99.8836ZM146.219 99.2481L145.603 97.0086L143.315 97.6378L143.993 99.912L146.219 99.2481ZM148.85 98.4789L149.541 100.696L151.173 100.188V98.4789H148.85ZM148.85 98.2224H151.173V95.2295L148.273 95.9724L148.85 98.2224ZM150.232 94.677L148.898 96.578L150.167 97.4693L151.477 96.6382L150.232 94.677ZM151.526 96.5761H152.016V91.9307H151.526V96.5761ZM149.694 94.2534V95.0338H154.339V94.2534H149.694ZM152.016 92.7111H151.548V97.3565H152.016V92.7111ZM151.548 92.7111C150.786 92.7111 150.092 92.9103 149.446 93.3869L152.201 97.1267C152.143 97.1695 152.018 97.2481 151.842 97.3033C151.676 97.3554 151.558 97.3565 151.548 97.3565V92.7111ZM149.016 96.7162C148.881 96.5482 148.88 96.4187 148.88 96.4274H153.525C153.525 95.4774 153.234 94.5451 152.63 93.7974L149.016 96.7162ZM148.88 96.4274C148.88 96.4104 148.886 96.3469 148.92 96.2718C148.952 96.2023 148.979 96.1871 148.943 96.2212C148.9 96.2607 148.8 96.3405 148.601 96.4482C148.403 96.5553 148.139 96.6731 147.794 96.7998L149.393 101.161C150.337 100.815 151.33 100.346 152.108 99.6216C152.97 98.8191 153.525 97.738 153.525 96.4274H148.88ZM148.969 101.273C149.189 101.237 149.364 101.225 149.489 101.227C149.623 101.23 149.632 101.248 149.559 101.222C149.474 101.191 149.248 101.086 149.052 100.82C148.846 100.541 148.813 100.277 148.813 100.174H153.458C153.458 99.4573 153.269 98.7103 152.789 98.0601C152.318 97.4225 151.699 97.0558 151.14 96.8535C150.106 96.4797 148.998 96.5607 148.218 96.6884L148.969 101.273ZM148.813 100.174C148.813 100.118 148.84 99.8076 149.106 99.509C149.323 99.2658 149.499 99.261 149.299 99.3161C149.105 99.3691 148.753 99.4266 148.148 99.4637C147.557 99.5 146.825 99.512 145.907 99.512V104.157C147.683 104.157 149.325 104.126 150.528 103.796C151.17 103.62 151.958 103.291 152.575 102.599C153.241 101.851 153.458 100.965 153.458 100.174H148.813ZM148.229 101.835V101.054H143.584V101.835H148.229ZM145.907 103.377C147.417 103.377 148.743 103.366 149.685 103.189C150.153 103.101 150.864 102.918 151.477 102.409C152.235 101.781 152.544 100.919 152.544 100.107H147.899C147.899 99.9609 147.923 99.7296 148.038 99.4669C148.157 99.1949 148.332 98.9825 148.511 98.8338C148.812 98.5844 149.039 98.5838 148.826 98.6239C148.657 98.6558 148.353 98.6878 147.834 98.7074C147.328 98.7265 146.699 98.7316 145.907 98.7316V103.377ZM152.544 100.107C152.544 99.5509 152.399 98.9491 152.024 98.4068C151.658 97.8774 151.179 97.5582 150.757 97.3718C149.992 97.0337 149.192 97.0325 148.693 97.0618C147.618 97.125 146.441 97.4484 145.739 97.6594L147.077 102.108C147.747 101.906 148.476 101.728 148.965 101.699C149.016 101.696 149.055 101.696 149.084 101.696C149.099 101.696 149.11 101.697 149.117 101.697C149.125 101.697 149.128 101.698 149.128 101.698C149.127 101.698 149.122 101.697 149.113 101.695C149.103 101.694 149.088 101.691 149.068 101.686C149.03 101.677 148.964 101.658 148.88 101.621C148.708 101.545 148.431 101.378 148.203 101.049C147.967 100.708 147.899 100.356 147.899 100.107H152.544ZM148.634 99.2198L148.445 98.5843L143.993 99.912L144.183 100.547L148.634 99.2198ZM146.835 101.488C147.748 101.236 148.655 100.973 149.541 100.696L148.159 96.2614C147.328 96.5202 146.473 96.7693 145.603 97.0086L146.835 101.488ZM151.173 98.4789V98.2224H146.527V98.4789H151.173ZM148.273 95.9724C148.015 96.0385 147.812 96.0546 147.674 96.0487C147.532 96.0426 147.498 96.0161 147.536 96.0348C147.587 96.0601 147.688 96.1305 147.766 96.2588C147.841 96.384 147.828 96.4538 147.828 96.3828H143.183C143.183 98.0766 144.032 99.4862 145.481 100.201C146.758 100.831 148.209 100.784 149.427 100.472L148.273 95.9724ZM147.828 96.3828C147.828 96.3241 147.838 96.3573 147.799 96.4337C147.76 96.5111 147.71 96.5575 147.689 96.5727C147.675 96.5823 147.711 96.5532 147.828 96.5219C147.946 96.4907 148.119 96.4646 148.348 96.4646V91.8192C147.249 91.8192 146.004 92.0591 144.969 92.8065C143.837 93.6243 143.183 94.8937 143.183 96.3828H147.828ZM148.348 96.4646C148.677 96.4646 148.864 96.5542 148.898 96.578L151.567 92.7761C150.553 92.0641 149.357 91.8192 148.348 91.8192V96.4646ZM151.477 96.6382C151.534 96.6018 151.579 96.5744 151.614 96.5536C151.649 96.5328 151.671 96.521 151.683 96.5151C151.704 96.5041 151.675 96.5207 151.613 96.5404C151.583 96.5501 151.551 96.5585 151.519 96.5651C151.488 96.5715 151.463 96.5749 151.448 96.5765C151.434 96.5781 151.432 96.5778 151.445 96.5773C151.458 96.5767 151.483 96.5761 151.526 96.5761V91.9307C151.194 91.9307 150.733 91.9455 150.203 92.1141C149.717 92.269 149.311 92.5108 148.988 92.7159L151.477 96.6382ZM148.359 100.222C149.146 100.222 150.199 100.096 151.107 99.452C152.163 98.7029 152.611 97.5586 152.611 96.4051H147.965C147.965 96.405 147.965 96.3976 147.967 96.3838C147.968 96.37 147.971 96.3495 147.976 96.3231C147.987 96.2696 148.008 96.1953 148.048 96.1094C148.136 95.9214 148.273 95.7665 148.419 95.6634C148.549 95.5707 148.639 95.553 148.622 95.557C148.604 95.5612 148.523 95.5764 148.359 95.5764V100.222ZM152.611 96.4051C152.611 95.2484 152.156 94.108 151.102 93.3644C150.196 92.7255 149.147 92.5996 148.359 92.5996V97.245C148.523 97.245 148.604 97.2602 148.623 97.2646C148.641 97.2689 148.554 97.2518 148.424 97.1604C148.28 97.0586 148.141 96.9042 148.051 96.714C147.967 96.5357 147.965 96.4111 147.965 96.4051H152.611ZM148.359 92.5996C147.573 92.5996 146.53 92.7274 145.627 93.3566C144.576 94.089 144.097 95.2239 144.097 96.4051H148.742C148.742 96.4204 148.739 96.5507 148.651 96.7313C148.559 96.9221 148.421 97.0718 148.282 97.1681C148.158 97.2546 148.076 97.2698 148.097 97.2649C148.119 97.2599 148.2 97.245 148.359 97.245V92.5996ZM144.097 96.4051C144.097 97.5829 144.569 98.7219 145.622 99.4598C146.527 100.094 147.573 100.222 148.359 100.222V95.5764C148.2 95.5764 148.119 95.5615 148.099 95.5568C148.079 95.5521 148.163 95.5679 148.288 95.6556C148.427 95.7533 148.564 95.9035 148.655 96.0922C148.74 96.2701 148.742 96.396 148.742 96.4051H144.097ZM157.921 97.1967V99.5194H160.244V97.1967H157.921ZM153.54 97.1967V94.874H151.09L151.22 97.3201L153.54 97.1967ZM157.196 97.8545V95.5318H155.36L154.936 97.3192L157.196 97.8545ZM158.111 97.8545L160.366 98.411L161.076 95.5318H158.111V97.8545ZM153.54 96.5055H151.217V98.8282H153.54V96.5055ZM157.029 96.5055V98.8282H159.352V96.5055H157.029ZM154.97 96.9514C154.97 96.7469 155.002 96.6266 155.023 96.5697C155.043 96.5162 155.058 96.5063 155.051 96.5129C155.02 96.5444 155.06 96.4646 155.334 96.4646V91.8192C154.036 91.8192 152.734 92.2522 151.752 93.2425C150.768 94.2353 150.325 95.567 150.325 96.9514H154.97ZM155.334 96.4646C155.48 96.4646 155.553 96.4876 155.574 96.4954C155.59 96.5017 155.575 96.4982 155.553 96.476C155.532 96.4541 155.537 96.4482 155.552 96.4896C155.569 96.5352 155.598 96.6448 155.598 96.84H160.244C160.244 95.5197 159.838 94.2126 158.873 93.2265C157.904 92.2369 156.615 91.8192 155.334 91.8192V96.4646ZM155.598 96.84V97.1967H160.244V96.84H155.598ZM157.921 94.874H153.54V99.5194H157.921V94.874ZM151.22 97.3201C151.263 98.1337 151.489 99.1872 152.242 100.071C153.062 101.034 154.227 101.47 155.468 101.47V96.8251C155.38 96.8251 155.405 96.8109 155.495 96.8486C155.593 96.8897 155.697 96.9632 155.779 97.0594C155.854 97.1477 155.877 97.215 155.878 97.2181C155.878 97.2184 155.864 97.174 155.859 97.0733L151.22 97.3201ZM155.468 101.47C156.299 101.47 157.202 101.265 157.985 100.683C158.784 100.09 159.251 99.2582 159.457 98.3898L154.936 97.3192C154.937 97.3171 154.949 97.2654 154.997 97.1884C155.047 97.1083 155.12 97.0246 155.215 96.9544C155.412 96.8075 155.551 96.8251 155.468 96.8251V101.47ZM157.196 100.177H158.111V95.5318H157.196V100.177ZM155.856 97.2981C155.84 97.3624 155.817 97.4233 155.792 97.472C155.768 97.5192 155.749 97.539 155.745 97.5431C155.743 97.5448 155.743 97.5446 155.744 97.5439C155.745 97.5431 155.743 97.5452 155.733 97.549C155.719 97.5548 155.642 97.5832 155.468 97.5832V102.229C156.931 102.229 158.13 101.71 158.996 100.861C159.808 100.066 160.191 99.117 160.366 98.411L155.856 97.2981ZM155.468 97.5832C155.238 97.5832 155.131 97.5444 155.101 97.5319C155.086 97.5252 155.081 97.5214 155.083 97.5229C155.085 97.5244 155.087 97.5258 155.086 97.5248C155.083 97.5222 154.97 97.3746 154.97 96.9514H150.325C150.325 98.1226 150.63 99.4523 151.542 100.528C152.506 101.666 153.902 102.229 155.468 102.229V97.5832ZM153.54 98.8282H157.029V94.1828H153.54V98.8282ZM159.352 96.5055C159.352 95.5443 159.026 94.5232 158.242 93.7355C157.448 92.9376 156.394 92.5885 155.334 92.5885V97.2339C155.379 97.2339 155.172 97.2359 154.949 97.0123C154.737 96.7987 154.706 96.5747 154.706 96.5055H159.352ZM155.334 92.5885C153.146 92.5885 151.217 94.1514 151.217 96.5055H155.862C155.862 96.6938 155.777 96.9204 155.6 97.0835C155.428 97.2412 155.291 97.2339 155.334 97.2339V92.5885ZM165.057 99.7944V102.117H167.379V99.7944H165.057ZM164.142 99.7944H161.82V102.117H164.142V99.7944ZM164.142 98.9806L161.889 98.4172L161.82 98.6946V98.9806H164.142ZM164.298 98.3562L166.552 98.9196L167.273 96.0335H164.298V98.3562ZM164.031 98.3562V96.0335H162.257L161.79 97.7451L164.031 98.3562ZM164.031 95.7028L161.788 96.3066L162.251 98.0255H164.031V95.7028ZM164.298 95.7028V98.0255H167.261L166.554 95.1487L164.298 95.7028ZM164.142 95.0673H161.82V95.3483L161.887 95.6213L164.142 95.0673ZM164.142 91.5999V89.2772H161.82V91.5999H164.142ZM165.057 91.5999H167.379V89.2772H165.057V91.5999ZM165.057 97.4717H164.142V102.117H165.057V97.4717ZM166.465 99.7944V98.9806H161.82V99.7944H166.465ZM166.396 99.5439L166.552 98.9196L162.045 97.7929L161.889 98.4172L166.396 99.5439ZM164.298 96.0335H164.031V100.679H164.298V96.0335ZM161.79 97.7451C161.793 97.7335 161.802 97.7098 161.821 97.6797C161.842 97.6484 161.87 97.6184 161.901 97.5948C161.933 97.5709 161.953 97.5651 161.947 97.5671C161.94 97.5694 161.892 97.5832 161.79 97.5832V102.229C164.063 102.229 165.753 100.869 166.272 98.9674L161.79 97.7451ZM161.79 97.5832C161.691 97.5832 161.645 97.5651 161.633 97.56C161.622 97.555 161.613 97.5492 161.6 97.5349C161.576 97.5075 161.47 97.3632 161.47 97.0183H156.825C156.825 98.3235 157.238 99.623 158.133 100.627C159.051 101.656 160.351 102.229 161.79 102.229V97.5832ZM161.47 97.0183C161.47 96.6827 161.573 96.5413 161.598 96.5139C161.611 96.4995 161.62 96.4934 161.632 96.488C161.645 96.4827 161.691 96.4646 161.79 96.4646V91.8192C160.351 91.8192 159.052 92.3919 158.135 93.4172C157.24 94.4182 156.825 95.7151 156.825 97.0183H161.47ZM161.79 96.4646C161.892 96.4646 161.939 96.4784 161.946 96.4805C161.951 96.4821 161.93 96.4758 161.897 96.4511C161.865 96.4266 161.837 96.3962 161.816 96.3653C161.797 96.3358 161.79 96.314 161.788 96.3066L166.274 95.0989C165.758 93.1851 164.068 91.8192 161.79 91.8192V96.4646ZM164.031 98.0255H164.298V93.38H164.031V98.0255ZM166.554 95.1487L166.398 94.5132L161.887 95.6213L162.043 96.2568L166.554 95.1487ZM166.465 95.0673V91.5999H161.82V95.0673H166.465ZM164.142 93.9226H165.057V89.2772H164.142V93.9226ZM162.734 91.5999V99.7944H167.379V91.5999H162.734ZM166.465 97.0183C166.465 95.7653 166.047 94.5592 165.085 93.6923C164.164 92.8637 163.027 92.5996 162.057 92.5996V97.245C162.138 97.245 162.164 97.2564 162.146 97.2505C162.124 97.2433 162.055 97.2158 161.976 97.1446C161.893 97.0697 161.843 96.9866 161.82 96.9294C161.8 96.8794 161.82 96.8958 161.82 97.0183H166.465ZM162.057 92.5996C161.082 92.5996 159.935 92.8677 159.023 93.7403C158.091 94.6324 157.739 95.835 157.739 97.0183H162.384C162.384 96.8699 162.406 96.8334 162.393 96.8698C162.376 96.9148 162.33 97.0057 162.235 97.0967C162.142 97.1856 162.052 97.2274 162.006 97.243C161.966 97.2565 161.976 97.245 162.057 97.245V92.5996ZM157.739 97.0183C157.739 98.2023 158.088 99.4076 159.02 100.303C159.933 101.18 161.082 101.448 162.057 101.448V96.8028C161.976 96.8028 161.966 96.7913 162.007 96.8051C162.054 96.8211 162.145 96.8636 162.238 96.9531C162.333 97.0445 162.379 97.1349 162.394 97.1774C162.407 97.2114 162.384 97.1714 162.384 97.0183H157.739ZM162.057 101.448C163.028 101.448 164.167 101.184 165.088 100.351C166.051 99.4806 166.465 98.2716 166.465 97.0183H161.82C161.82 97.1457 161.8 97.1657 161.818 97.118C161.84 97.0632 161.889 96.9804 161.973 96.905C162.052 96.8333 162.121 96.8051 162.144 96.7976C162.163 96.7914 162.138 96.8028 162.057 96.8028V101.448Z" fill="url(#paint5_linear_850_10)" mask="url(#path-6-inside-1_850_10)"/>
<path d="M625.368 336.016L355.327 65.9751L267.135 153.647L542.177 426.81L625.368 336.016Z" fill="url(#paint6_linear_850_10)"/>
<path d="M636.379 394.374L354.028 112.023H339.98L268.177 154.688L523.623 408.271L636.379 394.374Z" fill="url(#paint7_linear_850_10)"/>
<path d="M312.922 25.6509H268.176L226.551 66.4952V113.063L268.176 154.688H312.922L354.547 113.063V66.4952L312.922 25.6509Z" fill="white" stroke="url(#paint8_linear_850_10)" stroke-width="2.32271"/>
<path d="M258.288 81.3648C258.288 77.7079 261.261 76.6674 264.442 76.3106V75.1214C262.094 74.9132 259.477 74.0213 259.477 70.8401C259.477 67.0346 263.818 65.994 267.951 65.994C272.053 65.994 276.394 67.0346 276.394 70.8401C276.394 74.0213 273.778 74.9132 271.429 75.1214V76.3106C274.61 76.6674 277.583 78.0052 277.583 81.3648C277.583 85.7947 273.689 87.5488 267.951 87.5488C262.183 87.5488 258.288 85.7947 258.288 81.3648ZM264.234 71.9104C264.234 73.1889 265.394 73.6646 267.951 73.6646C270.478 73.6646 271.637 73.1889 271.637 71.9104C271.637 70.6618 270.478 70.1563 267.951 70.1563C265.394 70.1563 264.234 70.6618 264.234 71.9104ZM263.045 80.6215C263.045 82.4946 264.502 83.3865 267.951 83.3865C271.37 83.3865 272.826 82.4946 272.826 80.6215C272.826 78.7782 271.37 77.8268 267.951 77.8268C264.502 77.8268 263.045 78.7782 263.045 80.6215ZM289.199 65.994C295.531 65.994 299.277 70.3645 299.277 76.7565C299.277 83.1784 295.531 87.5488 289.199 87.5488C282.836 87.5488 279.09 83.1784 279.09 76.7565C279.09 70.3645 282.836 65.994 289.199 65.994ZM289.199 70.1563C285.839 70.1563 283.847 72.4456 283.847 76.7565C283.847 77.7971 283.966 78.689 284.174 79.4918L292.172 70.9591C291.369 70.4239 290.358 70.1563 289.199 70.1563ZM289.199 83.3865C292.558 83.3865 294.521 81.0972 294.521 76.7565C294.521 75.7457 294.402 74.8241 294.194 74.0213L286.196 82.554C287.028 83.1189 288.039 83.3865 289.199 83.3865ZM311.758 65.994C318.091 65.994 321.837 70.3645 321.837 76.7565C321.837 83.1784 318.091 87.5488 311.758 87.5488C305.396 87.5488 301.65 83.1784 301.65 76.7565C301.65 70.3645 305.396 65.994 311.758 65.994ZM311.758 70.1563C308.399 70.1563 306.407 72.4456 306.407 76.7565C306.407 77.7971 306.525 78.689 306.734 79.4918L314.731 70.9591C313.928 70.4239 312.918 70.1563 311.758 70.1563ZM311.758 83.3865C315.118 83.3865 317.08 81.0972 317.08 76.7565C317.08 75.7457 316.961 74.8241 316.753 74.0213L308.755 82.554C309.588 83.1189 310.599 83.3865 311.758 83.3865ZM269.776 101.251V93.3914H271.616L273.846 100.995H274.102L276.343 93.3914H278.171V101.251H277.257V94.3056L277.413 93.6478H277.146L274.894 101.251H273.054L270.802 93.6478H270.545L270.69 94.3056V101.251H269.776ZM281.29 94.8296C280.833 94.8296 280.487 94.4952 280.487 94.0492C280.487 93.6256 280.833 93.2799 281.29 93.2799C281.736 93.2799 282.093 93.6256 282.093 94.0492C282.093 94.4952 281.736 94.8296 281.29 94.8296ZM279.439 101.251V100.471H281V96.3905L279.852 96.4908V95.7104L281.134 95.5989C281.658 95.5543 281.859 95.8442 281.859 96.2679V100.471H283.419V101.251H279.439ZM284.271 101.251V100.471H285.832V93.737L284.683 93.8374V93.057L285.977 92.9455C286.489 92.9009 286.735 93.1907 286.735 93.7147V100.471H288.284V101.251H284.271ZM289.138 101.251V100.471H290.698V93.737L289.55 93.8374V93.057L290.843 92.9455C291.356 92.9009 291.602 93.1907 291.602 93.7147V100.471H293.151V101.251H289.138ZM295.945 94.8296C295.488 94.8296 295.142 94.4952 295.142 94.0492C295.142 93.6256 295.488 93.2799 295.945 93.2799C296.391 93.2799 296.748 93.6256 296.748 94.0492C296.748 94.4952 296.391 94.8296 295.945 94.8296ZM294.094 101.251V100.471H295.655V96.3905L294.507 96.4908V95.7104L295.789 95.5989C296.313 95.5543 296.513 95.8442 296.513 96.2679V100.471H298.074V101.251H294.094ZM298.7 98.4754C298.7 96.8699 299.859 95.5989 301.632 95.5989C303.393 95.5989 304.542 96.8699 304.542 98.4754C304.542 100.092 303.393 101.363 301.632 101.363C299.859 101.363 298.7 100.092 298.7 98.4754ZM299.614 98.4754C299.614 99.6349 300.316 100.583 301.632 100.583C302.936 100.583 303.639 99.6349 303.639 98.4754C303.639 97.327 302.936 96.3794 301.632 96.3794C300.316 96.3794 299.614 97.327 299.614 98.4754ZM308.724 96.3794C307.554 96.3794 306.729 97.3047 306.729 98.7987V101.251H305.814V95.7104H306.729V96.6692L306.584 97.3047H306.84C307.063 96.3013 307.766 95.5989 308.97 95.5989C310.218 95.5989 311.032 96.3236 311.032 97.8622V101.251H310.129V97.9848C310.129 96.8253 309.672 96.3794 308.724 96.3794ZM277.947 113.267C277.947 114.438 277.244 115.363 274.925 115.363C272.183 115.363 271.369 114.148 271.369 112.308H272.283C272.283 114.17 273.275 114.583 274.925 114.583C276.263 114.583 277.033 114.259 277.033 113.312C277.033 112.119 275.65 111.873 274.401 111.505C272.852 111.037 271.726 110.613 271.726 109.22C271.726 108.016 272.573 107.28 274.513 107.28C276.832 107.28 277.623 108.696 277.623 109.978H276.709C276.709 108.64 275.717 108.06 274.513 108.06C273.431 108.06 272.64 108.328 272.64 109.198C272.64 110.023 273.331 110.324 274.624 110.725C276.163 111.204 277.947 111.628 277.947 113.267ZM281.412 114.583C282.583 114.583 283.408 113.657 283.408 112.174V109.71H284.311V115.251H283.408V114.293L283.553 113.657H283.297C283.074 114.661 282.371 115.363 281.167 115.363C279.907 115.363 279.093 114.638 279.093 113.1V109.71H280.008V112.977C280.008 114.137 280.454 114.583 281.412 114.583ZM285.781 109.71H286.695V110.524L286.55 111.16H286.807C287.041 110.29 287.777 109.599 289.048 109.599C290.653 109.599 291.69 110.836 291.69 112.487C291.69 114.125 290.653 115.363 289.048 115.363C287.777 115.363 287.041 114.672 286.807 113.813H286.55L286.695 114.438V117.281H285.781V109.71ZM286.695 112.487C286.695 113.958 287.643 114.583 288.78 114.583C289.929 114.583 290.776 113.936 290.776 112.487C290.776 111.026 289.929 110.379 288.78 110.379C287.643 110.379 286.695 111.004 286.695 112.487ZM293.021 109.71H293.936V110.524L293.791 111.16H294.047C294.281 110.29 295.017 109.599 296.288 109.599C297.894 109.599 298.93 110.836 298.93 112.487C298.93 114.125 297.894 115.363 296.288 115.363C295.017 115.363 294.281 114.672 294.047 113.813H293.791L293.936 114.438V117.281H293.021V109.71ZM293.936 112.487C293.936 113.958 294.883 114.583 296.021 114.583C297.169 114.583 298.016 113.936 298.016 112.487C298.016 111.026 297.169 110.379 296.021 110.379C294.883 110.379 293.936 111.004 293.936 112.487ZM299.481 115.251V114.471H301.042V107.737L299.893 107.837V107.057L301.187 106.945C301.7 106.901 301.945 107.191 301.945 107.715V114.471H303.495V115.251H299.481ZM308.466 109.71H309.458L307.05 115.196V116.745C307.05 117.169 306.804 117.426 306.28 117.403L304.14 117.303V116.522L306.136 116.623V115.196L303.716 109.71H304.72L306.459 114.025V114.449H306.726V114.025L308.466 109.71Z" fill="url(#paint9_linear_850_10)"/>
<path d="M599.683 494.75L283.074 177.101L187.857 255.408L505.767 580.081L599.683 494.75Z" fill="url(#paint10_linear_850_10)"/>
<path d="M622.315 563.171L283.073 223.929H278.391L200.084 267.375L376.209 447.142L556.756 620.405L622.315 563.171Z" fill="url(#paint11_linear_850_10)"/>
<path d="M242.751 136.777H198.005L156.38 177.621V224.189L198.005 265.814H242.751L284.376 224.189V177.621L242.751 136.777Z" fill="white" stroke="url(#paint12_linear_850_10)" stroke-width="2.32271"/>
<path d="M208.55 190.856C208.55 197.396 205.666 202.421 198.174 201.797L191.128 201.202V197.04L198.174 197.634C201.98 197.961 204.299 196.861 205.191 192.937L206.38 190.261H205.191C204.834 193.769 201.653 195.85 197.728 195.85C192.525 195.85 189.433 192.967 189.433 188.18C189.433 183.512 193.031 180.242 198.977 180.242C204.745 180.242 208.55 183.601 208.55 190.856ZM203.793 187.883C203.793 186.069 202.307 184.404 198.977 184.404C195.707 184.404 194.19 185.385 194.19 188.18C194.19 190.618 195.647 191.688 198.858 191.688C202.336 191.688 203.793 190.35 203.793 187.883ZM221.034 180.242C227.366 180.242 231.113 184.612 231.113 191.004C231.113 197.426 227.366 201.797 221.034 201.797C214.671 201.797 210.925 197.426 210.925 191.004C210.925 184.612 214.671 180.242 221.034 180.242ZM221.034 184.404C217.674 184.404 215.682 186.693 215.682 191.004C215.682 192.045 215.801 192.937 216.009 193.74L224.007 185.207C223.204 184.672 222.193 184.404 221.034 184.404ZM221.034 197.634C224.393 197.634 226.356 195.345 226.356 191.004C226.356 189.994 226.237 189.072 226.029 188.269L218.031 196.802C218.863 197.367 219.874 197.634 221.034 197.634ZM245.882 201.499L242.136 195.702L238.836 197.248V201.499H234.079V179.647H238.836V192.342L245.704 189.191L245.645 186.485H250.401V189.756C250.401 191.183 249.837 192.104 248.528 192.729L246.209 193.799L251.293 201.499H245.882ZM209.228 215.499L208.235 212.422H205.08L204.099 215.499H203.185L205.727 207.639H207.6L210.131 215.499H209.228ZM205.337 211.642H207.99L206.786 207.896H206.53L205.337 211.642ZM210.844 212.723C210.844 211.129 211.881 209.847 213.676 209.847C214.746 209.847 216.118 210.449 216.263 212.054H215.337C215.181 210.995 214.479 210.627 213.676 210.627C212.36 210.627 211.758 211.586 211.758 212.723C211.758 213.872 212.36 214.83 213.676 214.83C214.479 214.83 215.181 214.462 215.337 213.403H216.263C216.118 215.009 214.746 215.611 213.676 215.611C211.881 215.611 210.844 214.329 210.844 212.723ZM218.9 214.841L220.851 214.719V215.499L218.755 215.611C218.231 215.644 217.997 215.365 217.997 214.853V210.739H216.77V209.958H217.997V208.531L218.9 208.252V209.958H220.628V210.739H218.9V214.841ZM223.67 209.077C223.213 209.077 222.867 208.743 222.867 208.297C222.867 207.873 223.213 207.528 223.67 207.528C224.116 207.528 224.472 207.873 224.472 208.297C224.472 208.743 224.116 209.077 223.67 209.077ZM221.819 215.499V214.719H223.38V210.638L222.232 210.739V209.958L223.514 209.847C224.038 209.802 224.238 210.092 224.238 210.516V214.719H225.799V215.499H221.819ZM230.368 209.958H231.249L229.443 215.499H227.592L225.763 209.958H226.655L228.383 215.243H228.651L230.368 209.958ZM231.857 212.656C231.857 210.872 232.972 209.847 234.544 209.847C236.105 209.847 237.131 210.839 237.131 212.545V212.902H232.749C232.805 213.95 233.307 214.853 234.678 214.853C235.592 214.853 236.206 214.407 236.406 213.559H237.32C237.109 214.418 236.44 215.611 234.678 215.611C232.694 215.611 231.857 214.251 231.857 212.656ZM232.749 212.21H236.239C236.239 211.318 235.648 210.616 234.544 210.616C233.452 210.616 232.749 211.318 232.749 212.21ZM206.005 226.578V221.639H206.919V226.433C206.919 228.028 207.476 228.83 209.115 228.83C210.754 228.83 211.323 228.028 211.323 226.433V221.639H212.237V226.578C212.237 228.54 211.267 229.611 209.115 229.611C206.975 229.611 206.005 228.54 206.005 226.578ZM218.002 228.061C218.002 228.897 217.478 229.611 215.817 229.611C214.022 229.611 213.286 228.775 213.286 227.459H214.2C214.2 228.418 214.758 228.864 215.828 228.864C216.686 228.864 217.088 228.663 217.088 228.094C217.088 227.37 216.341 227.247 215.438 226.968C214.39 226.634 213.542 226.311 213.542 225.307C213.542 224.426 214.289 223.847 215.56 223.847C217.288 223.847 217.812 224.794 217.812 225.709H216.898C216.898 224.962 216.441 224.594 215.56 224.594C214.947 224.594 214.457 224.772 214.457 225.274C214.457 225.809 214.836 225.976 215.728 226.266C216.82 226.623 218.002 226.868 218.002 228.061ZM218.939 226.656C218.939 224.872 220.054 223.847 221.626 223.847C223.187 223.847 224.213 224.839 224.213 226.545V226.902H219.831C219.887 227.95 220.389 228.853 221.76 228.853C222.674 228.853 223.287 228.407 223.488 227.559H224.402C224.19 228.418 223.521 229.611 221.76 229.611C219.775 229.611 218.939 228.251 218.939 226.656ZM219.831 226.21H223.321C223.321 225.318 222.73 224.616 221.626 224.616C220.534 224.616 219.831 225.318 219.831 226.21ZM225.662 229.499V224.616C225.662 224.092 225.907 223.836 226.431 223.858L229.509 223.958V224.739L226.576 224.638V229.499H225.662ZM234.943 228.061C234.943 228.897 234.419 229.611 232.758 229.611C230.963 229.611 230.227 228.775 230.227 227.459H231.141C231.141 228.418 231.699 228.864 232.769 228.864C233.628 228.864 234.029 228.663 234.029 228.094C234.029 227.37 233.282 227.247 232.379 226.968C231.331 226.634 230.484 226.311 230.484 225.307C230.484 224.426 231.231 223.847 232.502 223.847C234.23 223.847 234.754 224.794 234.754 225.709H233.839C233.839 224.962 233.382 224.594 232.502 224.594C231.888 224.594 231.398 224.772 231.398 225.274C231.398 225.809 231.777 225.976 232.669 226.266C233.761 226.623 234.943 226.868 234.943 228.061Z" fill="url(#paint13_linear_850_10)"/>
<path d="M501.537 620.903L398.516 501.752L185.368 267.038L182.301 264.218L72.8018 280.776V328.749L427.393 710.657L501.537 620.903Z" fill="url(#paint14_linear_850_10)"/>
<path d="M183.37 314.754L510.125 665.183L493.475 775.749L97.2588 355.859L183.37 314.754Z" fill="url(#paint15_linear_850_10)"/>
<path d="M142.523 226.508H97.7762L56.1514 267.352V313.92L97.7762 355.545H142.523L184.148 313.92V267.352L142.523 226.508Z" fill="white" stroke="url(#paint16_linear_850_10)" stroke-width="2.32271"/>
<path d="M90.0217 285.091H94.7786C94.7786 287.618 96.1759 288.926 99.8923 288.926C103.252 288.926 104.352 287.618 104.352 285.002C104.352 282.772 103.252 281.642 101.022 281.642C99.2679 281.642 97.8706 282.356 96.6814 283.872L91.3298 280.78V271.831H107.444V275.993H96.0868V278.996L95.1948 281.672L96.1759 282.237C97.3057 278.967 99.5058 277.48 102.449 277.48C106.136 277.48 109.109 280.067 109.109 284.883C109.109 290.651 105.422 293.089 99.8923 293.089C94.3624 293.089 90.0217 290.799 90.0217 285.091ZM121.325 271.534C127.657 271.534 131.404 275.904 131.404 282.296C131.404 288.718 127.657 293.089 121.325 293.089C114.962 293.089 111.216 288.718 111.216 282.296C111.216 275.904 114.962 271.534 121.325 271.534ZM121.325 275.696C117.965 275.696 115.973 277.985 115.973 282.296C115.973 283.337 116.092 284.229 116.3 285.032L124.298 276.499C123.495 275.964 122.484 275.696 121.325 275.696ZM121.325 288.926C124.684 288.926 126.647 286.637 126.647 282.296C126.647 281.285 126.528 280.364 126.32 279.561L118.322 288.094C119.154 288.659 120.165 288.926 121.325 288.926ZM146.173 292.791L142.427 286.994L139.127 288.54V292.791H134.37V270.939H139.127V283.634L145.995 280.483L145.936 277.777H150.692V281.048C150.692 282.475 150.128 283.396 148.819 284.021L146.5 285.091L151.584 292.791H146.173ZM94.2241 299.712H92.4737V306.011H94.2241V306.791H89.798V306.011H91.5595V299.712H89.798V298.931H94.2241V299.712ZM98.4374 301.919C97.2668 301.919 96.4417 302.845 96.4417 304.338V306.791H95.5275V301.25H96.4417V302.209L96.2968 302.845H96.5532C96.7762 301.841 97.4786 301.139 98.6827 301.139C99.9314 301.139 100.745 301.863 100.745 303.402V306.791H99.8422V303.525C99.8422 302.365 99.3851 301.919 98.4374 301.919ZM105.98 306.791V298.931H108.589C110.462 298.931 111.655 299.366 111.655 301.128C111.655 302.309 111.041 302.833 110.194 302.978V303.246H111.131C111.576 303.246 111.755 303.424 111.755 303.837V306.791H110.841V303.636H106.894V306.791H105.98ZM106.894 302.856H108.589C109.926 302.856 110.74 302.722 110.74 301.284C110.74 299.834 109.926 299.712 108.589 299.712H106.894V302.856ZM112.997 303.948C112.997 302.164 114.112 301.139 115.684 301.139C117.245 301.139 118.271 302.131 118.271 303.837V304.194H113.889C113.945 305.242 114.446 306.145 115.818 306.145C116.732 306.145 117.345 305.699 117.546 304.851H118.46C118.248 305.71 117.579 306.903 115.818 306.903C113.833 306.903 112.997 305.543 112.997 303.948ZM113.889 303.502H117.379C117.379 302.61 116.788 301.908 115.684 301.908C114.591 301.908 113.889 302.61 113.889 303.502ZM119.054 301.25H119.923L121.261 306.535H121.529L122.644 301.25H124.528L125.654 306.535H125.91L127.259 301.25H128.118L126.713 306.791H124.851L123.725 301.518H123.457L122.331 306.791H120.458L119.054 301.25ZM128.839 305.253C128.839 304.372 129.363 303.77 130.656 303.636L132.863 303.424C132.808 302.41 132.261 301.908 131.303 301.908C130.5 301.908 129.753 302.265 129.753 303.313H128.861C128.861 302.164 129.731 301.139 131.303 301.139C132.852 301.139 133.778 302.164 133.778 303.647V306.011H134.592V306.791H133.61C133.187 306.791 132.953 306.557 132.953 306.145V305.844L133.098 305.264H132.83C132.618 306.111 132.027 306.903 130.689 306.903C129.084 306.903 128.839 305.832 128.839 305.253ZM129.753 305.141C129.753 305.777 130.154 306.122 130.801 306.122C132.061 306.122 132.863 305.253 132.863 304.104L130.812 304.316C130.11 304.383 129.753 304.595 129.753 305.141ZM135.638 306.791V301.908C135.638 301.384 135.883 301.128 136.407 301.15L139.484 301.25V302.031L136.552 301.93V306.791H135.638ZM145.853 306.791H144.939V305.977L145.095 305.353H144.827C144.593 306.212 143.846 306.903 142.586 306.903C140.981 306.903 139.944 305.665 139.944 304.015C139.944 302.376 140.981 301.139 142.586 301.139C143.846 301.139 144.593 301.83 144.827 302.7H145.095L144.939 302.064V298.597H145.853V306.791ZM144.939 304.015C144.939 302.543 144.002 301.919 142.854 301.919C141.706 301.919 140.858 302.543 140.858 304.015C140.858 305.498 141.706 306.122 142.854 306.122C144.002 306.122 144.939 305.498 144.939 304.015ZM151.843 305.353C151.843 306.189 151.319 306.903 149.658 306.903C147.863 306.903 147.127 306.067 147.127 304.751H148.042C148.042 305.71 148.599 306.156 149.669 306.156C150.528 306.156 150.929 305.955 150.929 305.386C150.929 304.662 150.182 304.539 149.279 304.26C148.231 303.926 147.384 303.603 147.384 302.599C147.384 301.718 148.131 301.139 149.402 301.139C151.13 301.139 151.654 302.086 151.654 303.001H150.74C150.74 302.254 150.282 301.886 149.402 301.886C148.789 301.886 148.298 302.064 148.298 302.566C148.298 303.101 148.677 303.268 149.569 303.558C150.662 303.915 151.843 304.16 151.843 305.353Z" fill="url(#paint17_linear_850_10)"/>
<path d="M657.776 243.197L466.014 40.6355L370.618 59.5067L377.395 126.068L520.386 269.342L666.509 416.598L744.926 353.01L657.776 243.197Z" fill="url(#paint18_linear_850_10)"/>
<path d="M697.503 318.044L464.248 84.7887L454.508 65.5644L464.248 38.9067L600.612 180.398L641.112 205.005L697.503 318.044Z" fill="url(#paint19_linear_850_10)"/>
<path d="M339.598 41.5471L380.533 1.37972H424.301L465.236 41.5471V87.1183L424.294 128.06H380.54L339.598 87.1183V41.5471Z" fill="white" stroke="url(#paint20_linear_850_10)" stroke-width="2.6066"/>
<path d="M368.044 52.9486C368.044 45.6085 371.281 39.9699 379.689 40.6705L387.596 41.3378V46.0088L379.689 45.3415C375.418 44.9745 372.816 46.209 371.815 50.6131L370.48 53.6159H371.815C372.215 49.6789 375.785 47.3434 380.189 47.3434C386.028 47.3434 389.498 50.5798 389.498 55.9515C389.498 61.1897 385.461 64.8598 378.788 64.8598C372.315 64.8598 368.044 61.0896 368.044 52.9486ZM373.383 56.2851C373.383 58.3203 375.051 60.1887 378.788 60.1887C382.458 60.1887 384.159 59.0877 384.159 55.9515C384.159 53.2156 382.525 52.0144 378.921 52.0144C375.018 52.0144 373.383 53.5158 373.383 56.2851ZM403.166 40.6705C410.272 40.6705 414.476 45.5751 414.476 52.7485C414.476 59.9552 410.272 64.8598 403.166 64.8598C396.026 64.8598 391.822 59.9552 391.822 52.7485C391.822 45.5751 396.026 40.6705 403.166 40.6705ZM403.166 45.3415C399.396 45.3415 397.16 47.9106 397.16 52.7485C397.16 53.9162 397.294 54.9172 397.527 55.818L406.502 46.2424C405.601 45.6418 404.467 45.3415 403.166 45.3415ZM403.166 60.1887C406.936 60.1887 409.138 57.6197 409.138 52.7485C409.138 51.6141 409.005 50.5798 408.771 49.6789L399.796 59.2545C400.73 59.8885 401.865 60.1887 403.166 60.1887ZM436.156 53.5158V57.5196H429.15V64.5261H425.146V57.5196H418.139V53.5158H425.146V46.5093H429.15V53.5158H436.156ZM379.333 80.5261V71.7054H381.397L383.9 80.2384H384.187L386.702 71.7054H388.754V80.5261H387.728V72.7313L387.903 71.9932H387.603L385.076 80.5261H383.011L380.484 71.9932H380.196L380.359 72.7313V80.5261H379.333ZM392.254 73.3194C391.741 73.3194 391.353 72.944 391.353 72.4436C391.353 71.9681 391.741 71.5803 392.254 71.5803C392.754 71.5803 393.155 71.9681 393.155 72.4436C393.155 72.944 392.754 73.3194 392.254 73.3194ZM390.177 80.5261V79.6503H391.929V75.071L390.64 75.1836V74.3078L392.079 74.1827C392.667 74.1327 392.892 74.458 392.892 74.9334V79.6503H394.644V80.5261H390.177ZM395.599 80.5261V79.6503H397.351V72.0933L396.062 72.2059V71.33L397.513 71.2049C398.089 71.1549 398.364 71.4802 398.364 72.0682V79.6503H400.103V80.5261H395.599ZM401.061 80.5261V79.6503H402.812V72.0933L401.524 72.2059V71.33L402.975 71.2049C403.55 71.1549 403.826 71.4802 403.826 72.0682V79.6503H405.565V80.5261H401.061ZM408.7 73.3194C408.187 73.3194 407.799 72.944 407.799 72.4436C407.799 71.9681 408.187 71.5803 408.7 71.5803C409.2 71.5803 409.601 71.9681 409.601 72.4436C409.601 72.944 409.2 73.3194 408.7 73.3194ZM406.623 80.5261V79.6503H408.375V75.071L407.086 75.1836V74.3078L408.525 74.1827C409.113 74.1327 409.338 74.458 409.338 74.9334V79.6503H411.09V80.5261H406.623ZM411.791 77.4107C411.791 75.609 413.093 74.1827 415.082 74.1827C417.059 74.1827 418.347 75.609 418.347 77.4107C418.347 79.2249 417.059 80.6512 415.082 80.6512C413.093 80.6512 411.791 79.2249 411.791 77.4107ZM412.817 77.4107C412.817 78.7119 413.606 79.7754 415.082 79.7754C416.546 79.7754 417.334 78.7119 417.334 77.4107C417.334 76.122 416.546 75.0585 415.082 75.0585C413.606 75.0585 412.817 76.122 412.817 77.4107ZM423.041 75.0585C421.728 75.0585 420.802 76.097 420.802 77.7736V80.5261H419.776V74.3078H420.802V75.3838L420.639 76.097H420.927C421.177 74.9709 421.965 74.1827 423.317 74.1827C424.718 74.1827 425.631 74.996 425.631 76.7226V80.5261H424.618V76.8602C424.618 75.559 424.105 75.0585 423.041 75.0585Z" fill="#5852F2"/>
<path d="M380.953 86.1283V86.7122H378.917V92.0088H378.242V86.7122H376.19V86.1283H380.953ZM380.847 92.0088V88.3554C380.847 87.9633 381.03 87.7715 381.422 87.7882L383.724 87.8633V88.4471L381.531 88.3721V92.0088H380.847ZM384.337 90.8577C384.337 90.1988 384.729 89.7483 385.697 89.6483L387.348 89.4898C387.307 88.7307 386.898 88.3554 386.181 88.3554C385.58 88.3554 385.021 88.6223 385.021 89.4064H384.354C384.354 88.5472 385.005 87.7798 386.181 87.7798C387.34 87.7798 388.032 88.5472 388.032 89.6566V91.4249H388.641V92.0088H387.907C387.59 92.0088 387.415 91.8336 387.415 91.525V91.2998L387.524 90.8661H387.323C387.165 91.5 386.723 92.0922 385.722 92.0922C384.521 92.0922 384.337 91.2915 384.337 90.8577ZM385.021 90.7743C385.021 91.2497 385.322 91.5083 385.805 91.5083C386.748 91.5083 387.348 90.8577 387.348 89.9986L385.814 90.1571C385.288 90.2071 385.021 90.3656 385.021 90.7743ZM391.601 88.3637C390.725 88.3637 390.108 89.056 390.108 90.1737V92.0088H389.424V87.8633H390.108V88.5806L390 89.056H390.191C390.358 88.3053 390.884 87.7798 391.785 87.7798C392.719 87.7798 393.328 88.322 393.328 89.4731V92.0088H392.652V89.5648C392.652 88.6974 392.31 88.3637 391.601 88.3637ZM397.712 90.9328C397.712 91.5584 397.32 92.0922 396.077 92.0922C394.734 92.0922 394.183 91.4666 394.183 90.4824H394.867C394.867 91.1997 395.284 91.5333 396.085 91.5333C396.727 91.5333 397.028 91.3832 397.028 90.9578C397.028 90.4156 396.469 90.3239 395.793 90.1154C395.009 89.8651 394.375 89.6232 394.375 88.8725C394.375 88.2136 394.934 87.7798 395.885 87.7798C397.178 87.7798 397.57 88.4888 397.57 89.1728H396.886C396.886 88.614 396.544 88.3387 395.885 88.3387C395.426 88.3387 395.059 88.4722 395.059 88.8475C395.059 89.2479 395.343 89.373 396.01 89.5899C396.828 89.8568 397.712 90.0403 397.712 90.9328ZM398.348 90.8577C398.348 90.1988 398.74 89.7483 399.707 89.6483L401.359 89.4898C401.317 88.7307 400.909 88.3554 400.191 88.3554C399.591 88.3554 399.032 88.6223 399.032 89.4064H398.364C398.364 88.5472 399.015 87.7798 400.191 87.7798C401.351 87.7798 402.043 88.5472 402.043 89.6566V91.4249H402.652V92.0088H401.918C401.601 92.0088 401.426 91.8336 401.426 91.525V91.2998L401.534 90.8661H401.334C401.175 91.5 400.733 92.0922 399.732 92.0922C398.531 92.0922 398.348 91.2915 398.348 90.8577ZM399.032 90.7743C399.032 91.2497 399.332 91.5083 399.816 91.5083C400.758 91.5083 401.359 90.8577 401.359 89.9986L399.824 90.1571C399.299 90.2071 399.032 90.3656 399.032 90.7743ZM403.121 89.9319C403.121 88.7391 403.897 87.7798 405.24 87.7798C406.041 87.7798 407.066 88.2303 407.175 89.4314H406.483C406.366 88.639 405.84 88.3637 405.24 88.3637C404.256 88.3637 403.805 89.0811 403.805 89.9319C403.805 90.791 404.256 91.5083 405.24 91.5083C405.84 91.5083 406.366 91.2331 406.483 90.4407H407.175C407.066 91.6418 406.041 92.0922 405.24 92.0922C403.897 92.0922 403.121 91.133 403.121 89.9319ZM409.148 91.5167L410.607 91.4249V92.0088L409.039 92.0922C408.647 92.1172 408.472 91.9087 408.472 91.525V88.4471H407.555V87.8633H408.472V86.7956L409.148 86.5871V87.8633H410.441V88.4471H409.148V91.5167ZM412.717 87.2043C412.375 87.2043 412.116 86.9541 412.116 86.6204C412.116 86.3035 412.375 86.0449 412.717 86.0449C413.05 86.0449 413.317 86.3035 413.317 86.6204C413.317 86.9541 413.05 87.2043 412.717 87.2043ZM411.332 92.0088V91.4249H412.5V88.3721L411.641 88.4471V87.8633L412.6 87.7798C412.992 87.7465 413.142 87.9633 413.142 88.2803V91.4249H414.31V92.0088H411.332ZM414.778 89.9319C414.778 88.7307 415.645 87.7798 416.971 87.7798C418.289 87.7798 419.148 88.7307 419.148 89.9319C419.148 91.1413 418.289 92.0922 416.971 92.0922C415.645 92.0922 414.778 91.1413 414.778 89.9319ZM415.461 89.9319C415.461 90.7993 415.987 91.5083 416.971 91.5083C417.947 91.5083 418.473 90.7993 418.473 89.9319C418.473 89.0727 417.947 88.3637 416.971 88.3637C415.987 88.3637 415.461 89.0727 415.461 89.9319ZM422.278 88.3637C421.402 88.3637 420.784 89.056 420.784 90.1737V92.0088H420.101V87.8633H420.784V88.5806L420.676 89.056H420.868C421.035 88.3053 421.56 87.7798 422.461 87.7798C423.395 87.7798 424.004 88.322 424.004 89.4731V92.0088H423.329V89.5648C423.329 88.6974 422.987 88.3637 422.278 88.3637ZM428.388 90.9328C428.388 91.5584 427.996 92.0922 426.753 92.0922C425.41 92.0922 424.86 91.4666 424.86 90.4824H425.544C425.544 91.1997 425.961 91.5333 426.762 91.5333C427.404 91.5333 427.704 91.3832 427.704 90.9578C427.704 90.4156 427.145 90.3239 426.47 90.1154C425.686 89.8651 425.052 89.6232 425.052 88.8725C425.052 88.2136 425.611 87.7798 426.561 87.7798C427.854 87.7798 428.246 88.4888 428.246 89.1728H427.562C427.562 88.614 427.22 88.3387 426.561 88.3387C426.103 88.3387 425.736 88.4722 425.736 88.8475C425.736 89.2479 426.019 89.373 426.687 89.5899C427.504 89.8568 428.388 90.0403 428.388 90.9328Z" fill="#5852F2"/>
<defs>
<linearGradient id="paint0_linear_850_10" x1="29.1357" y1="174.434" x2="653.109" y2="117.389" gradientUnits="userSpaceOnUse">
<stop stop-color="#5852F2"/>
<stop offset="0.443709" stop-color="#A0A1F1"/>
<stop offset="0.653159" stop-color="#C7CCF1"/>
<stop offset="0.786458" stop-color="#98BCEF"/>
<stop offset="1" stop-color="#0C8BE8"/>
</linearGradient>
<linearGradient id="paint1_linear_850_10" x1="0.000978188" y1="113.203" x2="141.001" y2="100.575" gradientUnits="userSpaceOnUse">
<stop stop-color="#5852F2"/>
<stop offset="0.443709" stop-color="#A0A1F1"/>
<stop offset="0.653159" stop-color="#C7CCF1"/>
<stop offset="0.786458" stop-color="#98BCEF"/>
<stop offset="1" stop-color="#0C8BE8"/>
</linearGradient>
<linearGradient id="paint2_linear_850_10" x1="55.7196" y1="196.635" x2="39.9746" y2="100.267" gradientUnits="userSpaceOnUse">
<stop stop-color="#5852F2"/>
<stop offset="0.452768" stop-color="#C7CCF1"/>
<stop offset="0.932865" stop-color="#0C8BE8"/>
</linearGradient>
<linearGradient id="paint3_linear_850_10" x1="66.502" y1="190.5" x2="222.888" y2="-38.3344" gradientUnits="userSpaceOnUse">
<stop stop-color="#5852F2"/>
<stop offset="0.452768" stop-color="#C7CCF1"/>
<stop offset="1" stop-color="#0C8BE8"/>
</linearGradient>
<linearGradient id="paint4_linear_850_10" x1="78.8584" y1="17.6567" x2="219.858" y2="5.02866" gradientUnits="userSpaceOnUse">
<stop stop-color="#5852F2"/>
<stop offset="0.443709" stop-color="#A0A1F1"/>
<stop offset="0.653159" stop-color="#C7CCF1"/>
<stop offset="0.786458" stop-color="#98BCEF"/>
<stop offset="1" stop-color="#0C8BE8"/>
</linearGradient>
<linearGradient id="paint5_linear_850_10" x1="108.251" y1="48.512" x2="180.992" y2="42.0009" gradientUnits="userSpaceOnUse">
<stop stop-color="#5852F2"/>
<stop offset="0.443709" stop-color="#A0A1F1"/>
<stop offset="0.653159" stop-color="#C7CCF1"/>
<stop offset="0.786458" stop-color="#98BCEF"/>
<stop offset="1" stop-color="#0C8BE8"/>
</linearGradient>
<linearGradient id="paint6_linear_850_10" x1="475.259" y1="83.6656" x2="65.3733" y2="299.03" gradientUnits="userSpaceOnUse">
<stop stop-color="#9F9BFF"/>
<stop offset="0.452768" stop-color="#C7CCF1"/>
<stop offset="1" stop-color="#0C8BE8"/>
</linearGradient>
<linearGradient id="paint7_linear_850_10" x1="306.465" y1="188.654" x2="768.26" y2="265.806" gradientUnits="userSpaceOnUse">
<stop stop-color="#5852F2"/>
<stop offset="0.452768" stop-color="#C7CCF1"/>
<stop offset="1" stop-color="#0C8BE8"/>
</linearGradient>
<linearGradient id="paint8_linear_850_10" x1="226.551" y1="32.8529" x2="367.55" y2="20.225" gradientUnits="userSpaceOnUse">
<stop stop-color="#5852F2"/>
<stop offset="0.443709" stop-color="#A0A1F1"/>
<stop offset="0.653159" stop-color="#C7CCF1"/>
<stop offset="0.786458" stop-color="#98BCEF"/>
<stop offset="1" stop-color="#0C8BE8"/>
</linearGradient>
<linearGradient id="paint9_linear_850_10" x1="317.983" y1="59.9872" x2="267.244" y2="142.374" gradientUnits="userSpaceOnUse">
<stop stop-color="#5852F2"/>
<stop offset="0.452768" stop-color="#C7CCF1"/>
<stop offset="1" stop-color="#0C8BE8"/>
</linearGradient>
<linearGradient id="paint10_linear_850_10" x1="187.857" y1="199.593" x2="641.299" y2="157.754" gradientUnits="userSpaceOnUse">
<stop stop-color="#5852F2"/>
<stop offset="0.443709" stop-color="#A0A1F1"/>
<stop offset="0.653159" stop-color="#C7CCF1"/>
<stop offset="0.786458" stop-color="#98BCEF"/>
<stop offset="1" stop-color="#0C8BE8"/>
</linearGradient>
<linearGradient id="paint11_linear_850_10" x1="200.084" y1="246.058" x2="664.647" y2="201.388" gradientUnits="userSpaceOnUse">
<stop stop-color="#5852F2"/>
<stop offset="0.443709" stop-color="#A0A1F1"/>
<stop offset="0.653159" stop-color="#C7CCF1"/>
<stop offset="0.786458" stop-color="#98BCEF"/>
<stop offset="1" stop-color="#0C8BE8"/>
</linearGradient>
<linearGradient id="paint12_linear_850_10" x1="156.38" y1="143.979" x2="297.38" y2="131.351" gradientUnits="userSpaceOnUse">
<stop stop-color="#5852F2"/>
<stop offset="0.443709" stop-color="#A0A1F1"/>
<stop offset="0.653159" stop-color="#C7CCF1"/>
<stop offset="0.786458" stop-color="#98BCEF"/>
<stop offset="1" stop-color="#0C8BE8"/>
</linearGradient>
<linearGradient id="paint13_linear_850_10" x1="225.863" y1="249.299" x2="155.972" y2="218.909" gradientUnits="userSpaceOnUse">
<stop stop-color="#5852F2"/>
<stop offset="0.452768" stop-color="#C7CCF1"/>
<stop offset="1" stop-color="#0C8BE8"/>
</linearGradient>
<linearGradient id="paint14_linear_850_10" x1="299.917" y1="567.051" x2="-90.1048" y2="323.973" gradientUnits="userSpaceOnUse">
<stop stop-color="#5852F2"/>
<stop offset="0.452768" stop-color="#C7CCF1"/>
<stop offset="1" stop-color="#0C8BE8"/>
</linearGradient>
<linearGradient id="paint15_linear_850_10" x1="97.2588" y1="340.484" x2="552.738" y2="303.653" gradientUnits="userSpaceOnUse">
<stop stop-color="#5852F2"/>
<stop offset="0.443709" stop-color="#A0A1F1"/>
<stop offset="0.653159" stop-color="#C7CCF1"/>
<stop offset="0.786458" stop-color="#98BCEF"/>
<stop offset="1" stop-color="#0C8BE8"/>
</linearGradient>
<linearGradient id="paint16_linear_850_10" x1="56.1514" y1="233.71" x2="197.151" y2="221.082" gradientUnits="userSpaceOnUse">
<stop stop-color="#5852F2"/>
<stop offset="0.443709" stop-color="#A0A1F1"/>
<stop offset="0.653159" stop-color="#C7CCF1"/>
<stop offset="0.786458" stop-color="#98BCEF"/>
<stop offset="1" stop-color="#0C8BE8"/>
</linearGradient>
<linearGradient id="paint17_linear_850_10" x1="84.7666" y1="268.611" x2="163.177" y2="258.555" gradientUnits="userSpaceOnUse">
<stop stop-color="#5852F2"/>
<stop offset="0.443709" stop-color="#A0A1F1"/>
<stop offset="0.653159" stop-color="#C7CCF1"/>
<stop offset="0.786458" stop-color="#98BCEF"/>
<stop offset="1" stop-color="#0C8BE8"/>
</linearGradient>
<linearGradient id="paint18_linear_850_10" x1="442.207" y1="92.9914" x2="787.15" y2="108.935" gradientUnits="userSpaceOnUse">
<stop stop-color="#5852F2"/>
<stop offset="0.445711" stop-color="#C7CCF1"/>
<stop offset="1" stop-color="#0C8BE8"/>
</linearGradient>
<linearGradient id="paint19_linear_850_10" x1="454.508" y1="54.4865" x2="722.68" y2="33.4086" gradientUnits="userSpaceOnUse">
<stop stop-color="#5852F2"/>
<stop offset="0.443709" stop-color="#A0A1F1"/>
<stop offset="0.653159" stop-color="#C7CCF1"/>
<stop offset="0.786458" stop-color="#98BCEF"/>
<stop offset="1" stop-color="#0C8BE8"/>
</linearGradient>
<linearGradient id="paint20_linear_850_10" x1="338.295" y1="7.29246" x2="479.568" y2="-5.36005" gradientUnits="userSpaceOnUse">
<stop stop-color="#5852F2"/>
<stop offset="0.443709" stop-color="#A0A1F1"/>
<stop offset="0.653159" stop-color="#C7CCF1"/>
<stop offset="0.786458" stop-color="#98BCEF"/>
<stop offset="1" stop-color="#0C8BE8"/>
</linearGradient>
</defs>
</svg>
