<svg width="712" height="567" viewBox="0 0 712 567" fill="none" xmlns="http://www.w3.org/2000/svg">
<path d="M585.415 554.863L125.432 132.022L120.646 128.792L28.6289 199.961L500.798 632.352L585.415 554.863Z" fill="url(#paint0_linear_850_11)"/>
<path d="M1.16135 132.589L41.3477 96.4787H84.4277L124.614 132.589V173.465L84.4214 210.272H41.354L1.16135 173.465V132.589Z" fill="white" stroke="url(#paint1_linear_850_11)" stroke-width="2.32271"/>
<path d="M40.278 147.566C40.278 143.91 43.251 142.869 46.4322 142.512V141.323C44.0835 141.115 41.4672 140.223 41.4672 137.042C41.4672 133.236 45.8079 132.196 49.9404 132.196C54.0433 132.196 58.3839 133.236 58.3839 137.042C58.3839 140.223 55.7676 141.115 53.4189 141.323V142.512C56.6001 142.869 59.5732 144.207 59.5732 147.566C59.5732 151.996 55.6785 153.75 49.9404 153.75C44.1727 153.75 40.278 151.996 40.278 147.566ZM46.2241 138.112C46.2241 139.391 47.3836 139.866 49.9404 139.866C52.4675 139.866 53.627 139.391 53.627 138.112C53.627 136.863 52.4675 136.358 49.9404 136.358C47.3836 136.358 46.2241 136.863 46.2241 138.112ZM45.0349 146.823C45.0349 148.696 46.4917 149.588 49.9404 149.588C53.3595 149.588 54.8163 148.696 54.8163 146.823C54.8163 144.98 53.3595 144.029 49.9404 144.029C46.4917 144.029 45.0349 144.98 45.0349 146.823ZM61.9651 153.453V132.493H71.3302L74.3925 152.264H75.5817L78.644 132.493H88.0091V153.453H83.2522V136.655L84.1442 133.682H82.9549L79.5954 153.453H70.3789L67.0193 133.682H65.8301L66.722 136.655V153.453H61.9651ZM44.1591 167.453V159.593H45.9987L48.2285 167.197H48.4849L50.7259 159.593H52.5543V167.453H51.6401V160.507L51.7962 159.85H51.5286L49.2765 167.453H47.4369L45.1848 159.85H44.9284L45.0733 160.507V167.453H44.1591ZM55.6729 161.031C55.2158 161.031 54.8702 160.697 54.8702 160.251C54.8702 159.827 55.2158 159.482 55.6729 159.482C56.1189 159.482 56.4756 159.827 56.4756 160.251C56.4756 160.697 56.1189 161.031 55.6729 161.031ZM53.8222 167.453V166.673H55.383V162.592L54.2347 162.693V161.912L55.5168 161.801C56.0408 161.756 56.2415 162.046 56.2415 162.47V166.673H57.8024V167.453H53.8222ZM58.6537 167.453V166.673H60.2146V159.939L59.0662 160.039V159.259L60.3595 159.147C60.8723 159.103 61.1176 159.392 61.1176 159.916V166.673H62.6673V167.453H58.6537ZM63.5205 167.453V166.673H65.0814V159.939L63.933 160.039V159.259L65.2263 159.147C65.7391 159.103 65.9844 159.392 65.9844 159.916V166.673H67.5341V167.453H63.5205ZM70.3277 161.031C69.8706 161.031 69.525 160.697 69.525 160.251C69.525 159.827 69.8706 159.482 70.3277 159.482C70.7737 159.482 71.1305 159.827 71.1305 160.251C71.1305 160.697 70.7737 161.031 70.3277 161.031ZM68.477 167.453V166.673H70.0379V162.592L68.8895 162.693V161.912L70.1717 161.801C70.6957 161.756 70.8963 162.046 70.8963 162.47V166.673H72.4572V167.453H68.477ZM73.0825 164.677C73.0825 163.072 74.242 161.801 76.0147 161.801C77.7762 161.801 78.9246 163.072 78.9246 164.677C78.9246 166.294 77.7762 167.565 76.0147 167.565C74.242 167.565 73.0825 166.294 73.0825 164.677ZM73.9967 164.677C73.9967 165.837 74.6991 166.784 76.0147 166.784C77.3191 166.784 78.0215 165.837 78.0215 164.677C78.0215 163.529 77.3191 162.581 76.0147 162.581C74.6991 162.581 73.9967 163.529 73.9967 164.677ZM83.1073 162.581C81.9366 162.581 81.1116 163.506 81.1116 165V167.453H80.1974V161.912H81.1116V162.871L80.9667 163.506H81.2231C81.4461 162.503 82.1485 161.801 83.3526 161.801C84.6012 161.801 85.4151 162.525 85.4151 164.064V167.453H84.512V164.186C84.512 163.027 84.0549 162.581 83.1073 162.581ZM35.5354 179.469C35.5354 180.639 34.833 181.565 32.514 181.565C29.7714 181.565 28.9575 180.349 28.9575 178.51H29.8717C29.8717 180.372 30.864 180.784 32.514 180.784C33.8519 180.784 34.6212 180.461 34.6212 179.513C34.6212 178.32 33.2387 178.075 31.99 177.707C30.4403 177.239 29.3143 176.815 29.3143 175.422C29.3143 174.217 30.1616 173.482 32.1015 173.482C34.4205 173.482 35.2121 174.898 35.2121 176.18H34.2979C34.2979 174.842 33.3056 174.262 32.1015 174.262C31.0201 174.262 30.2285 174.53 30.2285 175.399C30.2285 176.224 30.9197 176.525 32.213 176.927C33.7516 177.406 35.5354 177.83 35.5354 179.469ZM39.0011 180.784C40.1718 180.784 40.9968 179.859 40.9968 178.376V175.912H41.8998V181.453H40.9968V180.494L41.1417 179.859H40.8853C40.6623 180.862 39.9599 181.565 38.7558 181.565C37.496 181.565 36.6821 180.84 36.6821 179.301V175.912H37.5963V179.179C37.5963 180.338 38.0423 180.784 39.0011 180.784ZM43.3698 175.912H44.284V176.726L44.1391 177.361H44.3955C44.6296 176.492 45.3654 175.801 46.6364 175.801C48.2419 175.801 49.2787 177.038 49.2787 178.688C49.2787 180.327 48.2419 181.565 46.6364 181.565C45.3654 181.565 44.6296 180.873 44.3955 180.015H44.1391L44.284 180.639V183.482H43.3698V175.912ZM44.284 178.688C44.284 180.16 45.2317 180.784 46.3688 180.784C47.5172 180.784 48.3645 180.138 48.3645 178.688C48.3645 177.228 47.5172 176.581 46.3688 176.581C45.2317 176.581 44.284 177.205 44.284 178.688ZM50.6101 175.912H51.5243V176.726L51.3794 177.361H51.6358C51.8699 176.492 52.6058 175.801 53.8767 175.801C55.4822 175.801 56.5191 177.038 56.5191 178.688C56.5191 180.327 55.4822 181.565 53.8767 181.565C52.6058 181.565 51.8699 180.873 51.6358 180.015H51.3794L51.5243 180.639V183.482H50.6101V175.912ZM51.5243 178.688C51.5243 180.16 52.472 180.784 53.6092 180.784C54.7575 180.784 55.6048 180.138 55.6048 178.688C55.6048 177.228 54.7575 176.581 53.6092 176.581C52.472 176.581 51.5243 177.205 51.5243 178.688ZM57.0695 181.453V180.673H58.6304V173.939L57.482 174.039V173.259L58.7753 173.147C59.2882 173.103 59.5335 173.392 59.5335 173.916V180.673H61.0832V181.453H57.0695ZM66.0543 175.912H67.0466L64.6384 181.397V182.947C64.6384 183.371 64.3931 183.627 63.8691 183.605L61.7285 183.505V182.724L63.7242 182.824V181.397L61.3048 175.912H62.3083L64.0475 180.227V180.65H64.3151V180.227L66.0543 175.912ZM71.9282 181.453V173.593H74.013C75.9307 173.593 77.0344 173.972 77.0344 175.522C77.0344 176.659 76.2763 177.127 75.4624 177.183V177.451C76.6665 177.473 77.6142 177.963 77.6142 179.368C77.6142 180.951 76.4212 181.453 74.5148 181.453H71.9282ZM72.8424 176.971H74.0465C75.3286 176.971 76.1202 176.782 76.1202 175.667C76.1202 174.452 75.3286 174.374 74.0465 174.374H72.8424V176.971ZM72.8424 180.673H74.5482C75.8861 180.673 76.7 180.45 76.7 179.212C76.7 178.064 75.8861 177.752 74.5482 177.752H72.8424V180.673ZM81.082 180.784C82.2527 180.784 83.0777 179.859 83.0777 178.376V175.912H83.9808V181.453H83.0777V180.494L83.2226 179.859H82.9662C82.7432 180.862 82.0408 181.565 80.8368 181.565C79.5769 181.565 78.763 180.84 78.763 179.301V175.912H79.6773V179.179C79.6773 180.338 80.1232 180.784 81.082 180.784ZM85.4507 181.453V176.57C85.4507 176.046 85.696 175.789 86.22 175.812L89.2971 175.912V176.693L86.3649 176.592V181.453H85.4507ZM93.26 176.581C92.0894 176.581 91.2644 177.506 91.2644 179V181.453H90.3502V175.912H91.2644V176.871L91.1194 177.506H91.3759C91.5988 176.503 92.3012 175.801 93.5053 175.801C94.754 175.801 95.5679 176.525 95.5679 178.064V181.453H94.6648V178.186C94.6648 177.027 94.2077 176.581 93.26 176.581ZM98.5637 180.795L100.515 180.673V181.453L98.4187 181.565C97.8947 181.598 97.6606 181.319 97.6606 180.806V176.693H96.4342V175.912H97.6606V174.485L98.5637 174.206V175.912H100.292V176.693H98.5637V180.795Z" fill="url(#paint2_linear_850_11)"/>
<path d="M432.572 272.94L199.784 42.9011L112.51 74.0912L110.871 118.095L460.949 460.926L533.806 380.16L432.572 272.94Z" fill="url(#paint3_linear_850_11)"/>
<path d="M78.6506 46.611L118.837 10.5002H161.917L202.103 46.611V87.4866L161.911 124.293H118.843L78.6506 87.4866V46.611Z" fill="white" stroke="url(#paint4_linear_850_11)" stroke-width="2.32271"/>
<mask id="path-6-inside-1_850_11" fill="white">
<path d="M110.252 54.6047C114.117 53.0884 115.574 51.0668 115.574 46.2801H124.82V67.2402H120.063V50.1451L120.955 47.4693H119.766C119.409 52.8803 118.369 56.9237 111.917 58.9157L110.252 54.6047ZM127.796 59.54H132.553C132.553 62.0671 133.95 63.3752 137.666 63.3752C141.026 63.3752 142.126 62.0671 142.126 59.4508C142.126 57.221 141.026 56.0912 138.796 56.0912C137.042 56.0912 135.645 56.8048 134.455 58.321L129.104 55.229V46.2801H145.218V50.4424H133.861V53.4452L132.969 56.121L133.95 56.6859C135.08 53.4155 137.28 51.9289 140.223 51.9289C143.91 51.9289 146.883 54.5155 146.883 59.3319C146.883 65.0996 143.196 67.5375 137.666 67.5375C132.136 67.5375 127.796 65.2483 127.796 59.54ZM161.969 67.2402L158.223 61.4428L154.923 62.9888V67.2402H150.166V45.3882H154.923V58.0832L161.79 54.9317L161.731 52.2263H166.488V55.4966C166.488 56.9237 165.923 57.8453 164.615 58.4697L162.296 59.54L167.38 67.2402H161.969ZM124.381 81.3517C123.946 81.3629 123.7 81.1064 123.7 80.6828V73.3802H124.615V80.5713L128.573 80.4598V81.2402L124.381 81.3517ZM131.382 74.8184C130.925 74.8184 130.579 74.4839 130.579 74.038C130.579 73.6143 130.925 73.2687 131.382 73.2687C131.828 73.2687 132.184 73.6143 132.184 74.038C132.184 74.4839 131.828 74.8184 131.382 74.8184ZM129.531 81.2402V80.4598H131.092V76.3793L129.944 76.4796V75.6992L131.226 75.5877C131.75 75.5431 131.95 75.833 131.95 76.2566V80.4598H133.511V81.2402H129.531ZM138.08 75.6992H138.961L137.155 81.2402H135.304L133.475 75.6992H134.367L136.095 80.9838H136.363L138.08 75.6992ZM139.569 78.3972C139.569 76.6134 140.684 75.5877 142.256 75.5877C143.817 75.5877 144.843 76.58 144.843 78.2858V78.6425H140.461C140.517 79.6905 141.019 80.5936 142.39 80.5936C143.304 80.5936 143.918 80.1476 144.118 79.3003H145.032C144.821 80.1588 144.152 81.3517 142.39 81.3517C140.406 81.3517 139.569 79.9915 139.569 78.3972ZM140.461 77.9513H143.951C143.951 77.0594 143.36 76.357 142.256 76.357C141.164 76.357 140.461 77.0594 140.461 77.9513ZM150.674 79.802C150.674 80.6382 150.15 81.3517 148.489 81.3517C146.694 81.3517 145.958 80.5155 145.958 79.2H146.872C146.872 80.1588 147.43 80.6047 148.5 80.6047C149.358 80.6047 149.76 80.4041 149.76 79.8355C149.76 79.1108 149.013 78.9881 148.11 78.7094C147.062 78.3749 146.214 78.0516 146.214 77.0482C146.214 76.1674 146.961 75.5877 148.232 75.5877C149.96 75.5877 150.484 76.5354 150.484 77.4496H149.57C149.57 76.7026 149.113 76.3347 148.232 76.3347C147.619 76.3347 147.129 76.5131 147.129 77.0148C147.129 77.5499 147.508 77.7172 148.4 78.007C149.492 78.3638 150.674 78.6091 150.674 79.802ZM114.901 91.3046C114.901 89.0191 116.272 87.2687 118.58 87.2687C120.587 87.2687 121.902 88.4728 122.136 90.4127H121.222C121.044 88.9076 120.118 88.0491 118.58 88.0491C116.751 88.0491 115.815 89.4093 115.815 91.3046C115.815 93.2111 116.751 94.5713 118.58 94.5713C120.118 94.5713 121.044 93.7017 121.222 92.1966H122.136C121.902 94.1476 120.587 95.3517 118.58 95.3517C116.272 95.3517 114.901 93.6013 114.901 91.3046ZM126.551 89.5877C127.799 89.5877 128.613 90.3124 128.613 91.8509V95.2402H127.71V91.9736C127.71 90.8141 127.253 90.3681 126.305 90.3681C125.135 90.3681 124.31 91.2935 124.31 92.7875V95.2402H123.396V87.0457H124.31V90.658L124.165 91.2935H124.421C124.644 90.2901 125.347 89.5877 126.551 89.5877ZM129.89 93.7017C129.89 92.8209 130.414 92.2189 131.708 92.0851L133.915 91.8732C133.859 90.8587 133.313 90.357 132.354 90.357C131.551 90.357 130.805 90.7137 130.805 91.7617H129.913C129.913 90.6134 130.782 89.5877 132.354 89.5877C133.904 89.5877 134.829 90.6134 134.829 92.0962V94.4598H135.643V95.2402H134.662C134.238 95.2402 134.004 95.0061 134.004 94.5936V94.2926L134.149 93.7128H133.882C133.67 94.5601 133.079 95.3517 131.741 95.3517C130.136 95.3517 129.89 94.2814 129.89 93.7017ZM130.805 93.5902C130.805 94.2257 131.206 94.5713 131.853 94.5713C133.112 94.5713 133.915 93.7017 133.915 92.5533L131.864 92.7652C131.161 92.8321 130.805 93.0439 130.805 93.5902ZM139.599 90.3681C138.429 90.3681 137.604 91.2935 137.604 92.7875V95.2402H136.689V89.6992H137.604V90.658L137.459 91.2935H137.715C137.938 90.2901 138.641 89.5877 139.845 89.5877C141.093 89.5877 141.907 90.3124 141.907 91.8509V95.2402H141.004V91.9736C141.004 90.8141 140.547 90.3681 139.599 90.3681ZM149.074 89.6992H149.565V90.4796H149.096C148.784 90.4796 148.583 90.5465 148.372 90.7026C148.606 90.9925 148.751 91.3938 148.751 91.8732C148.751 93.0662 147.814 93.8132 146.142 94.4264C147.435 94.2145 148.684 94.3929 148.684 95.6193C148.684 97.091 147.167 97.2805 143.455 97.2805V96.5001C146.632 96.5001 147.77 96.422 147.77 95.5524C147.77 94.326 145.328 94.9169 143.957 95.3294L143.767 94.6939C144.659 94.4487 145.54 94.1922 146.398 93.9247V93.6682C144.614 94.1253 143.054 93.5456 143.054 91.8286C143.054 90.3012 144.302 89.5877 145.897 89.5877C146.565 89.5877 147.257 89.7549 147.781 90.1228C148.36 89.7549 148.572 89.6992 149.074 89.6992ZM145.908 93.3449C147.078 93.3449 147.836 92.9324 147.836 91.8509C147.836 90.7806 147.078 90.3681 145.908 90.3681C144.748 90.3681 143.968 90.7806 143.968 91.8509C143.968 92.9324 144.748 93.3449 145.908 93.3449ZM150.196 92.3972C150.196 90.6134 151.311 89.5877 152.883 89.5877C154.444 89.5877 155.469 90.58 155.469 92.2858V92.6425H151.088C151.144 93.6905 151.645 94.5936 153.017 94.5936C153.931 94.5936 154.544 94.1476 154.745 93.3003H155.659C155.447 94.1588 154.778 95.3517 153.017 95.3517C151.032 95.3517 150.196 93.9915 150.196 92.3972ZM151.088 91.9513H154.577C154.577 91.0594 153.986 90.357 152.883 90.357C151.79 90.357 151.088 91.0594 151.088 91.9513ZM162.605 95.2402H161.691V94.4264L161.847 93.802H161.579C161.345 94.6605 160.598 95.3517 159.338 95.3517C157.733 95.3517 156.696 94.1142 156.696 92.4641C156.696 90.8252 157.733 89.5877 159.338 89.5877C160.598 89.5877 161.345 90.2789 161.579 91.1486H161.847L161.691 90.5131V87.0457H162.605V95.2402ZM161.691 92.4641C161.691 90.9925 160.754 90.3681 159.606 90.3681C158.457 90.3681 157.61 90.9925 157.61 92.4641C157.61 93.947 158.457 94.5713 159.606 94.5713C160.754 94.5713 161.691 93.947 161.691 92.4641Z"/>
</mask>
<path d="M110.252 54.6047C114.117 53.0884 115.574 51.0668 115.574 46.2801H124.82V67.2402H120.063V50.1451L120.955 47.4693H119.766C119.409 52.8803 118.369 56.9237 111.917 58.9157L110.252 54.6047ZM127.796 59.54H132.553C132.553 62.0671 133.95 63.3752 137.666 63.3752C141.026 63.3752 142.126 62.0671 142.126 59.4508C142.126 57.221 141.026 56.0912 138.796 56.0912C137.042 56.0912 135.645 56.8048 134.455 58.321L129.104 55.229V46.2801H145.218V50.4424H133.861V53.4452L132.969 56.121L133.95 56.6859C135.08 53.4155 137.28 51.9289 140.223 51.9289C143.91 51.9289 146.883 54.5155 146.883 59.3319C146.883 65.0996 143.196 67.5375 137.666 67.5375C132.136 67.5375 127.796 65.2483 127.796 59.54ZM161.969 67.2402L158.223 61.4428L154.923 62.9888V67.2402H150.166V45.3882H154.923V58.0832L161.79 54.9317L161.731 52.2263H166.488V55.4966C166.488 56.9237 165.923 57.8453 164.615 58.4697L162.296 59.54L167.38 67.2402H161.969ZM124.381 81.3517C123.946 81.3629 123.7 81.1064 123.7 80.6828V73.3802H124.615V80.5713L128.573 80.4598V81.2402L124.381 81.3517ZM131.382 74.8184C130.925 74.8184 130.579 74.4839 130.579 74.038C130.579 73.6143 130.925 73.2687 131.382 73.2687C131.828 73.2687 132.184 73.6143 132.184 74.038C132.184 74.4839 131.828 74.8184 131.382 74.8184ZM129.531 81.2402V80.4598H131.092V76.3793L129.944 76.4796V75.6992L131.226 75.5877C131.75 75.5431 131.95 75.833 131.95 76.2566V80.4598H133.511V81.2402H129.531ZM138.08 75.6992H138.961L137.155 81.2402H135.304L133.475 75.6992H134.367L136.095 80.9838H136.363L138.08 75.6992ZM139.569 78.3972C139.569 76.6134 140.684 75.5877 142.256 75.5877C143.817 75.5877 144.843 76.58 144.843 78.2858V78.6425H140.461C140.517 79.6905 141.019 80.5936 142.39 80.5936C143.304 80.5936 143.918 80.1476 144.118 79.3003H145.032C144.821 80.1588 144.152 81.3517 142.39 81.3517C140.406 81.3517 139.569 79.9915 139.569 78.3972ZM140.461 77.9513H143.951C143.951 77.0594 143.36 76.357 142.256 76.357C141.164 76.357 140.461 77.0594 140.461 77.9513ZM150.674 79.802C150.674 80.6382 150.15 81.3517 148.489 81.3517C146.694 81.3517 145.958 80.5155 145.958 79.2H146.872C146.872 80.1588 147.43 80.6047 148.5 80.6047C149.358 80.6047 149.76 80.4041 149.76 79.8355C149.76 79.1108 149.013 78.9881 148.11 78.7094C147.062 78.3749 146.214 78.0516 146.214 77.0482C146.214 76.1674 146.961 75.5877 148.232 75.5877C149.96 75.5877 150.484 76.5354 150.484 77.4496H149.57C149.57 76.7026 149.113 76.3347 148.232 76.3347C147.619 76.3347 147.129 76.5131 147.129 77.0148C147.129 77.5499 147.508 77.7172 148.4 78.007C149.492 78.3638 150.674 78.6091 150.674 79.802ZM114.901 91.3046C114.901 89.0191 116.272 87.2687 118.58 87.2687C120.587 87.2687 121.902 88.4728 122.136 90.4127H121.222C121.044 88.9076 120.118 88.0491 118.58 88.0491C116.751 88.0491 115.815 89.4093 115.815 91.3046C115.815 93.2111 116.751 94.5713 118.58 94.5713C120.118 94.5713 121.044 93.7017 121.222 92.1966H122.136C121.902 94.1476 120.587 95.3517 118.58 95.3517C116.272 95.3517 114.901 93.6013 114.901 91.3046ZM126.551 89.5877C127.799 89.5877 128.613 90.3124 128.613 91.8509V95.2402H127.71V91.9736C127.71 90.8141 127.253 90.3681 126.305 90.3681C125.135 90.3681 124.31 91.2935 124.31 92.7875V95.2402H123.396V87.0457H124.31V90.658L124.165 91.2935H124.421C124.644 90.2901 125.347 89.5877 126.551 89.5877ZM129.89 93.7017C129.89 92.8209 130.414 92.2189 131.708 92.0851L133.915 91.8732C133.859 90.8587 133.313 90.357 132.354 90.357C131.551 90.357 130.805 90.7137 130.805 91.7617H129.913C129.913 90.6134 130.782 89.5877 132.354 89.5877C133.904 89.5877 134.829 90.6134 134.829 92.0962V94.4598H135.643V95.2402H134.662C134.238 95.2402 134.004 95.0061 134.004 94.5936V94.2926L134.149 93.7128H133.882C133.67 94.5601 133.079 95.3517 131.741 95.3517C130.136 95.3517 129.89 94.2814 129.89 93.7017ZM130.805 93.5902C130.805 94.2257 131.206 94.5713 131.853 94.5713C133.112 94.5713 133.915 93.7017 133.915 92.5533L131.864 92.7652C131.161 92.8321 130.805 93.0439 130.805 93.5902ZM139.599 90.3681C138.429 90.3681 137.604 91.2935 137.604 92.7875V95.2402H136.689V89.6992H137.604V90.658L137.459 91.2935H137.715C137.938 90.2901 138.641 89.5877 139.845 89.5877C141.093 89.5877 141.907 90.3124 141.907 91.8509V95.2402H141.004V91.9736C141.004 90.8141 140.547 90.3681 139.599 90.3681ZM149.074 89.6992H149.565V90.4796H149.096C148.784 90.4796 148.583 90.5465 148.372 90.7026C148.606 90.9925 148.751 91.3938 148.751 91.8732C148.751 93.0662 147.814 93.8132 146.142 94.4264C147.435 94.2145 148.684 94.3929 148.684 95.6193C148.684 97.091 147.167 97.2805 143.455 97.2805V96.5001C146.632 96.5001 147.77 96.422 147.77 95.5524C147.77 94.326 145.328 94.9169 143.957 95.3294L143.767 94.6939C144.659 94.4487 145.54 94.1922 146.398 93.9247V93.6682C144.614 94.1253 143.054 93.5456 143.054 91.8286C143.054 90.3012 144.302 89.5877 145.897 89.5877C146.565 89.5877 147.257 89.7549 147.781 90.1228C148.36 89.7549 148.572 89.6992 149.074 89.6992ZM145.908 93.3449C147.078 93.3449 147.836 92.9324 147.836 91.8509C147.836 90.7806 147.078 90.3681 145.908 90.3681C144.748 90.3681 143.968 90.7806 143.968 91.8509C143.968 92.9324 144.748 93.3449 145.908 93.3449ZM150.196 92.3972C150.196 90.6134 151.311 89.5877 152.883 89.5877C154.444 89.5877 155.469 90.58 155.469 92.2858V92.6425H151.088C151.144 93.6905 151.645 94.5936 153.017 94.5936C153.931 94.5936 154.544 94.1476 154.745 93.3003H155.659C155.447 94.1588 154.778 95.3517 153.017 95.3517C151.032 95.3517 150.196 93.9915 150.196 92.3972ZM151.088 91.9513H154.577C154.577 91.0594 153.986 90.357 152.883 90.357C151.79 90.357 151.088 91.0594 151.088 91.9513ZM162.605 95.2402H161.691V94.4264L161.847 93.802H161.579C161.345 94.6605 160.598 95.3517 159.338 95.3517C157.733 95.3517 156.696 94.1142 156.696 92.4641C156.696 90.8252 157.733 89.5877 159.338 89.5877C160.598 89.5877 161.345 90.2789 161.579 91.1486H161.847L161.691 90.5131V87.0457H162.605V95.2402ZM161.691 92.4641C161.691 90.9925 160.754 90.3681 159.606 90.3681C158.457 90.3681 157.61 90.9925 157.61 92.4641C157.61 93.947 158.457 94.5713 159.606 94.5713C160.754 94.5713 161.691 93.947 161.691 92.4641Z" fill="#5852F2"/>
<path d="M110.252 54.6047L109.404 52.4424L107.253 53.2862L108.086 55.4415L110.252 54.6047ZM115.574 46.2801V43.9574H113.251V46.2801H115.574ZM124.82 46.2801H127.143V43.9574H124.82V46.2801ZM124.82 67.2402V69.5629H127.143V67.2402H124.82ZM120.063 67.2402H117.741V69.5629H120.063V67.2402ZM120.063 50.1451L117.86 49.4106L117.741 49.7682V50.1451H120.063ZM120.955 47.4693L123.159 48.2039L124.178 45.1466H120.955V47.4693ZM119.766 47.4693V45.1466H117.592L117.448 47.3165L119.766 47.4693ZM111.917 58.9157L109.751 59.7525L110.531 61.7744L112.602 61.135L111.917 58.9157ZM111.101 56.767C113.246 55.9253 115.083 54.8073 116.305 52.9417C117.512 51.1005 117.897 48.8678 117.897 46.2801H113.251C113.251 48.4791 112.908 49.6505 112.42 50.3959C111.947 51.1169 111.124 51.7678 109.404 52.4424L111.101 56.767ZM115.574 48.6028H124.82V43.9574H115.574V48.6028ZM122.498 46.2801V67.2402H127.143V46.2801H122.498ZM124.82 64.9175H120.063V69.5629H124.82V64.9175ZM122.386 67.2402V50.1451H117.741V67.2402H122.386ZM122.267 50.8796L123.159 48.2039L118.752 46.7348L117.86 49.4106L122.267 50.8796ZM120.955 45.1466H119.766V49.7921H120.955V45.1466ZM117.448 47.3165C117.273 49.9846 116.939 51.8792 116.113 53.3185C115.357 54.6351 114.03 55.8324 111.232 56.6963L112.602 61.135C116.256 60.0069 118.675 58.1866 120.142 55.6308C121.538 53.1977 121.903 50.3651 122.084 47.6222L117.448 47.3165ZM114.084 58.0788L112.419 53.7679L108.086 55.4415L109.751 59.7525L114.084 58.0788ZM127.796 59.54V57.2173H125.473V59.54H127.796ZM132.553 59.54H134.875V57.2173H132.553V59.54ZM134.455 58.321L133.293 60.3322L135.039 61.3407L136.283 59.7545L134.455 58.321ZM129.104 55.229H126.781V56.5696L127.942 57.2402L129.104 55.229ZM129.104 46.2801V43.9574H126.781V46.2801H129.104ZM145.218 46.2801H147.541V43.9574H145.218V46.2801ZM145.218 50.4424V52.7651H147.541V50.4424H145.218ZM133.861 50.4424V48.1197H131.538V50.4424H133.861ZM133.861 53.4452L136.064 54.1797L136.183 53.8221V53.4452H133.861ZM132.969 56.121L130.765 55.3865L130.165 57.1869L131.81 58.1339L132.969 56.121ZM133.95 56.6859L132.791 58.6988L135.227 60.1015L136.145 57.4443L133.95 56.6859ZM127.796 61.8627H132.553V57.2173H127.796V61.8627ZM130.23 59.54C130.23 61.2385 130.719 62.998 132.276 64.2279C133.703 65.3554 135.623 65.698 137.666 65.698V61.0525C135.993 61.0525 135.356 60.741 135.156 60.5827C135.085 60.5267 134.875 60.3686 134.875 59.54H130.23ZM137.666 65.698C139.56 65.698 141.409 65.3456 142.748 64.0855C144.127 62.7873 144.449 61.0209 144.449 59.4508H139.803C139.803 60.497 139.575 60.6929 139.564 60.7027C139.513 60.7508 139.132 61.0525 137.666 61.0525V65.698ZM144.449 59.4508C144.449 57.9857 144.087 56.4549 142.95 55.3034C141.809 54.1463 140.277 53.7685 138.796 53.7685V58.4139C139.164 58.4139 139.39 58.4614 139.514 58.5032C139.573 58.5233 139.607 58.5413 139.623 58.5509C139.638 58.5601 139.643 58.5653 139.644 58.5663C139.645 58.5673 139.651 58.5735 139.662 58.5912C139.673 58.6098 139.692 58.647 139.713 58.7109C139.756 58.8433 139.803 59.0773 139.803 59.4508H144.449ZM138.796 53.7685C136.257 53.7685 134.211 54.8684 132.628 56.8876L136.283 59.7545C137.078 58.7411 137.827 58.4139 138.796 58.4139V53.7685ZM135.617 56.3099L130.266 53.2179L127.942 57.2402L133.293 60.3322L135.617 56.3099ZM131.427 55.229V46.2801H126.781V55.229H131.427ZM129.104 48.6028H145.218V43.9574H129.104V48.6028ZM142.895 46.2801V50.4424H147.541V46.2801H142.895ZM145.218 48.1197H133.861V52.7651H145.218V48.1197ZM131.538 50.4424V53.4452H136.183V50.4424H131.538ZM131.657 52.7107L130.765 55.3865L135.172 56.8555L136.064 54.1797L131.657 52.7107ZM131.81 58.1339L132.791 58.6988L135.109 54.6729L134.128 54.1081L131.81 58.1339ZM136.145 57.4443C136.593 56.1477 137.185 55.3923 137.784 54.9509C138.376 54.5153 139.155 54.2517 140.223 54.2517V49.6062C138.348 49.6062 136.556 50.0859 135.029 51.2111C133.509 52.3306 132.436 53.9536 131.755 55.9274L136.145 57.4443ZM140.223 54.2517C141.513 54.2517 142.548 54.6949 143.263 55.4365C143.977 56.1761 144.56 57.4102 144.56 59.3319H149.206C149.206 56.4372 148.302 53.9698 146.607 52.212C144.914 50.4563 142.619 49.6062 140.223 49.6062V54.2517ZM144.56 59.3319C144.56 61.6901 143.831 63.0133 142.87 63.8058C141.83 64.6635 140.138 65.2148 137.666 65.2148V69.8602C140.724 69.8602 143.64 69.1926 145.826 67.3894C148.091 65.5211 149.206 62.7414 149.206 59.3319H144.56ZM137.666 65.2148C135.169 65.2148 133.251 64.6896 132.019 63.7979C130.903 62.99 130.118 61.7223 130.118 59.54H125.473C125.473 63.066 126.859 65.7971 129.295 67.5609C131.616 69.2408 134.634 69.8602 137.666 69.8602V65.2148ZM161.969 67.2402L160.018 68.5008L160.704 69.5629H161.969V67.2402ZM158.223 61.4428L160.174 60.1822L159.073 58.4793L157.237 59.3394L158.223 61.4428ZM154.923 62.9888L153.937 60.8854L152.6 61.5119V62.9888H154.923ZM154.923 67.2402V69.5629H157.245V67.2402H154.923ZM150.166 67.2402H147.843V69.5629H150.166V67.2402ZM150.166 45.3882V43.0655H147.843V45.3882H150.166ZM154.923 45.3882H157.245V43.0655H154.923V45.3882ZM154.923 58.0832H152.6V61.7046L155.891 60.1943L154.923 58.0832ZM161.79 54.9317L162.759 57.0428L164.146 56.4064L164.113 54.8807L161.79 54.9317ZM161.731 52.2263V49.9035H159.357L159.409 52.2773L161.731 52.2263ZM166.488 52.2263H168.811V49.9035H166.488V52.2263ZM164.615 58.4697L165.588 60.5786L165.602 60.5723L165.615 60.5659L164.615 58.4697ZM162.296 59.54L161.322 57.4311L158.868 58.5639L160.357 60.8198L162.296 59.54ZM167.38 67.2402V69.5629H171.697L169.318 65.9605L167.38 67.2402ZM163.92 65.9797L160.174 60.1822L156.272 62.7033L160.018 68.5008L163.92 65.9797ZM157.237 59.3394L153.937 60.8854L155.908 65.0921L159.208 63.5461L157.237 59.3394ZM152.6 62.9888V67.2402H157.245V62.9888H152.6ZM154.923 64.9175H150.166V69.5629H154.923V64.9175ZM152.488 67.2402V45.3882H147.843V67.2402H152.488ZM150.166 47.7109H154.923V43.0655H150.166V47.7109ZM152.6 45.3882V58.0832H157.245V45.3882H152.6ZM155.891 60.1943L162.759 57.0428L160.822 52.8207L153.954 55.9721L155.891 60.1943ZM164.113 54.8807L164.053 52.1752L159.409 52.2773L159.468 54.9828L164.113 54.8807ZM161.731 54.549H166.488V49.9035H161.731V54.549ZM164.165 52.2263V55.4966H168.811V52.2263H164.165ZM164.165 55.4966C164.165 55.9021 164.087 56.0295 164.073 56.0518C164.06 56.0723 163.981 56.1983 163.614 56.3735L165.615 60.5659C166.556 60.1167 167.414 59.4698 168.011 58.5166C168.606 57.5652 168.811 56.5183 168.811 55.4966H164.165ZM163.641 56.3608L161.322 57.4311L163.269 61.6489L165.588 60.5786L163.641 56.3608ZM160.357 60.8198L165.441 68.52L169.318 65.9605L164.234 58.2602L160.357 60.8198ZM167.38 64.9175H161.969V69.5629H167.38V64.9175ZM124.381 81.3517L124.44 83.6737L124.442 83.6736L124.381 81.3517ZM123.7 73.3802V71.0575H121.378V73.3802H123.7ZM124.615 73.3802H126.937V71.0575H124.615V73.3802ZM124.615 80.5713H122.292V82.9604L124.68 82.8931L124.615 80.5713ZM128.573 80.4598H130.895V78.0707L128.507 78.138L128.573 80.4598ZM128.573 81.2402L128.634 83.5621L130.895 83.502V81.2402H128.573ZM124.321 79.0298C124.573 79.0233 125.079 79.0976 125.52 79.5379C125.951 79.9687 126.023 80.4555 126.023 80.6828H121.378C121.378 81.3337 121.573 82.1605 122.235 82.8227C122.907 83.4944 123.753 83.6913 124.44 83.6737L124.321 79.0298ZM126.023 80.6828V73.3802H121.378V80.6828H126.023ZM123.7 75.7029H124.615V71.0575H123.7V75.7029ZM122.292 73.3802V80.5713H126.937V73.3802H122.292ZM124.68 82.8931L128.638 82.7816L128.507 78.138L124.549 78.2495L124.68 82.8931ZM126.25 80.4598V81.2402H130.895V80.4598H126.25ZM128.511 78.9183L124.319 79.0298L124.442 83.6736L128.634 83.5621L128.511 78.9183ZM129.531 81.2402H127.208V83.5629H129.531V81.2402ZM129.531 80.4598V78.1371H127.208V80.4598H129.531ZM131.092 80.4598V82.7825H133.415V80.4598H131.092ZM131.092 76.3793H133.415V73.8448L130.89 74.0654L131.092 76.3793ZM129.944 76.4796H127.621V79.0141L130.146 78.7935L129.944 76.4796ZM129.944 75.6992L129.742 73.3852L127.621 73.5697V75.6992H129.944ZM131.226 75.5877L131.029 73.2733L131.024 73.2737L131.226 75.5877ZM131.95 80.4598H129.628V82.7825H131.95V80.4598ZM133.511 80.4598H135.834V78.1371H133.511V80.4598ZM133.511 81.2402V83.5629H135.834V81.2402H133.511ZM131.382 72.4957C131.731 72.4957 132.118 72.6292 132.427 72.9289C132.739 73.232 132.902 73.6403 132.902 74.038H128.256C128.256 75.831 129.707 77.1411 131.382 77.1411V72.4957ZM132.902 74.038C132.902 74.9614 132.142 75.5914 131.382 75.5914V70.946C129.707 70.946 128.256 72.2673 128.256 74.038H132.902ZM131.382 75.5914C130.632 75.5914 129.862 74.9821 129.862 74.038H134.507C134.507 72.2465 133.024 70.946 131.382 70.946V75.5914ZM129.862 74.038C129.862 73.1161 130.632 72.4957 131.382 72.4957V77.1411C133.024 77.1411 134.507 75.8518 134.507 74.038H129.862ZM131.854 81.2402V80.4598H127.208V81.2402H131.854ZM129.531 82.7825H131.092V78.1371H129.531V82.7825ZM133.415 80.4598V76.3793H128.769V80.4598H133.415ZM130.89 74.0654L129.741 74.1657L130.146 78.7935L131.294 78.6932L130.89 74.0654ZM132.266 76.4796V75.6992H127.621V76.4796H132.266ZM130.145 78.0132L131.427 77.9017L131.024 73.2737L129.742 73.3852L130.145 78.0132ZM131.423 77.902C131.244 77.9172 130.637 77.9024 130.113 77.3596C129.644 76.8738 129.628 76.354 129.628 76.2566H134.273C134.273 75.7356 134.156 74.859 133.456 74.1336C132.7 73.351 131.731 73.2136 131.029 73.2734L131.423 77.902ZM129.628 76.2566V80.4598H134.273V76.2566H129.628ZM131.95 82.7825H133.511V78.1371H131.95V82.7825ZM131.188 80.4598V81.2402H135.834V80.4598H131.188ZM133.511 78.9175H129.531V83.5629H133.511V78.9175ZM138.08 75.6992V73.3765H136.392L135.871 74.9815L138.08 75.6992ZM138.961 75.6992L141.169 76.419L142.161 73.3765H138.961V75.6992ZM137.155 81.2402V83.5629H138.84L139.363 81.9601L137.155 81.2402ZM135.304 81.2402L133.098 81.9681L133.624 83.5629H135.304V81.2402ZM133.475 75.6992V73.3765H130.263L131.27 76.427L133.475 75.6992ZM134.367 75.6992L136.575 74.9773L136.052 73.3765H134.367V75.6992ZM136.095 80.9838L133.888 81.7057L134.411 83.3065H136.095V80.9838ZM136.363 80.9838V83.3065H138.051L138.572 81.7015L136.363 80.9838ZM138.08 78.0219H138.961V73.3765H138.08V78.0219ZM136.752 74.9794L134.946 80.5204L139.363 81.9601L141.169 76.419L136.752 74.9794ZM137.155 78.9175H135.304V83.5629H137.155V78.9175ZM137.51 80.5124L135.681 74.9713L131.27 76.427L133.098 81.9681L137.51 80.5124ZM133.475 78.0219H134.367V73.3765H133.475V78.0219ZM132.16 76.4211L133.888 81.7057L138.303 80.2619L136.575 74.9773L132.16 76.4211ZM136.095 83.3065H136.363V78.6611H136.095V83.3065ZM138.572 81.7015L140.289 76.4169L135.871 74.9815L134.154 80.2661L138.572 81.7015ZM144.843 78.6425V80.9652H147.166V78.6425H144.843ZM140.461 78.6425V76.3198H138.012L138.142 78.7659L140.461 78.6425ZM144.118 79.3003V76.9776H142.281L141.858 78.765L144.118 79.3003ZM145.032 79.3003L147.288 79.8568L147.998 76.9776H145.032V79.3003ZM140.461 77.9513H138.139V80.274H140.461V77.9513ZM143.951 77.9513V80.274H146.274V77.9513H143.951ZM141.892 78.3972C141.892 78.1927 141.924 78.0724 141.945 78.0155C141.965 77.962 141.98 77.9521 141.973 77.9587C141.942 77.9902 141.982 77.9104 142.256 77.9104V73.265C140.958 73.265 139.656 73.698 138.674 74.6883C137.69 75.6811 137.247 77.0128 137.247 78.3972H141.892ZM142.256 77.9104C142.401 77.9104 142.475 77.9334 142.496 77.9412C142.512 77.9475 142.497 77.944 142.475 77.9218C142.454 77.8999 142.459 77.894 142.474 77.9354C142.491 77.981 142.52 78.0906 142.52 78.2858H147.166C147.166 76.9655 146.76 75.6584 145.795 74.6723C144.826 73.6827 143.537 73.265 142.256 73.265V77.9104ZM142.52 78.2858V78.6425H147.166V78.2858H142.52ZM144.843 76.3198H140.461V80.9652H144.843V76.3198ZM138.142 78.7659C138.185 79.5795 138.411 80.633 139.164 81.517C139.984 82.4802 141.149 82.9163 142.39 82.9163V78.2709C142.302 78.2709 142.327 78.2567 142.417 78.2944C142.515 78.3355 142.619 78.409 142.701 78.5052C142.776 78.5935 142.799 78.6608 142.8 78.6639C142.8 78.6642 142.786 78.6198 142.781 78.5191L138.142 78.7659ZM142.39 82.9163C143.221 82.9163 144.124 82.7109 144.907 82.1292C145.706 81.5357 146.173 80.704 146.378 79.8356L141.858 78.765C141.859 78.7629 141.871 78.7112 141.919 78.6342C141.969 78.5541 142.042 78.4704 142.137 78.4002C142.334 78.2533 142.473 78.2709 142.39 78.2709V82.9163ZM144.118 81.623H145.032V76.9776H144.118V81.623ZM142.777 78.7439C142.762 78.8082 142.739 78.8691 142.714 78.9178C142.69 78.965 142.671 78.9848 142.667 78.9889C142.665 78.9906 142.665 78.9904 142.666 78.9897C142.667 78.9889 142.665 78.991 142.655 78.9948C142.641 79.0006 142.564 79.029 142.39 79.029V83.6744C143.853 83.6744 145.052 83.1559 145.918 82.307C146.73 81.5113 147.113 80.5628 147.288 79.8568L142.777 78.7439ZM142.39 79.029C142.16 79.029 142.052 78.9902 142.023 78.9777C142.008 78.971 142.003 78.9672 142.005 78.9687C142.007 78.9702 142.008 78.9716 142.008 78.9706C142.005 78.968 141.892 78.8204 141.892 78.3972H137.247C137.247 79.5684 137.552 80.8981 138.464 81.9741C139.428 83.1117 140.824 83.6744 142.39 83.6744V79.029ZM140.461 80.274H143.951V75.6286H140.461V80.274ZM146.274 77.9513C146.274 76.9901 145.948 75.969 145.164 75.1813C144.37 74.3834 143.316 74.0343 142.256 74.0343V78.6797C142.301 78.6797 142.094 78.6817 141.871 78.4581C141.659 78.2445 141.628 78.0205 141.628 77.9513H146.274ZM142.256 74.0343C140.068 74.0343 138.139 75.5972 138.139 77.9513H142.784C142.784 78.1396 142.699 78.3662 142.521 78.5293C142.35 78.687 142.213 78.6797 142.256 78.6797V74.0343ZM145.958 79.2V76.8773H143.635V79.2H145.958ZM146.872 79.2H149.195V76.8773H146.872V79.2ZM148.11 78.7094L147.403 80.9222L147.414 80.9255L147.425 80.9288L148.11 78.7094ZM150.484 77.4496V79.7723H152.807V77.4496H150.484ZM149.57 77.4496H147.247V79.7723H149.57V77.4496ZM148.4 78.007L149.121 75.799L149.117 75.7981L148.4 78.007ZM148.351 79.802C148.351 79.772 148.356 79.6664 148.415 79.5213C148.479 79.3641 148.585 79.217 148.715 79.1079C148.959 78.9043 149.037 79.029 148.489 79.029V83.6744C149.602 83.6744 150.772 83.4423 151.693 82.673C152.687 81.8433 152.997 80.725 152.997 79.802H148.351ZM148.489 79.029C148.213 79.029 148.07 78.9962 148.019 78.9806C147.977 78.9676 148.033 78.9775 148.118 79.0553C148.158 79.0922 148.195 79.1349 148.224 79.1803C148.254 79.225 148.271 79.2633 148.28 79.2883C148.298 79.335 148.281 79.3178 148.281 79.2H143.635C143.635 80.2852 143.949 81.538 144.983 82.4831C145.979 83.3941 147.271 83.6744 148.489 83.6744V79.029ZM145.958 81.5227H146.872V76.8773H145.958V81.5227ZM144.549 79.2C144.549 80.1377 144.839 81.2347 145.784 82.0343C146.652 82.7699 147.701 82.9274 148.5 82.9274V78.282C148.229 78.282 148.464 78.2166 148.786 78.4895C148.957 78.6347 149.075 78.8134 149.14 78.979C149.198 79.1297 149.195 79.2202 149.195 79.2H144.549ZM148.5 82.9274C149 82.9274 149.85 82.8903 150.623 82.4391C151.067 82.1797 151.473 81.7914 151.747 81.2619C152.01 80.7529 152.082 80.2459 152.082 79.8355H147.437C147.437 79.7093 147.459 79.4406 147.62 79.1292C147.792 78.7972 148.044 78.5657 148.281 78.4275C148.489 78.3056 148.646 78.2788 148.659 78.2765C148.677 78.2734 148.634 78.282 148.5 78.282V82.9274ZM152.082 79.8355C152.082 79.2236 151.914 78.5959 151.519 78.0427C151.149 77.5258 150.688 77.2232 150.346 77.0452C149.798 76.7596 149.01 76.5566 148.795 76.49L147.425 80.9288C147.555 80.9691 147.681 81.006 147.784 81.0363C147.893 81.0685 147.976 81.0931 148.051 81.1166C148.215 81.1681 148.236 81.1837 148.2 81.1652C148.158 81.1433 147.94 81.0247 147.739 80.7433C147.512 80.4256 147.437 80.0849 147.437 79.8355H152.082ZM148.816 76.4967C148.559 76.4148 148.387 76.3557 148.253 76.3009C148.118 76.2457 148.098 76.224 148.131 76.2479C148.175 76.2804 148.3 76.3835 148.405 76.5766C148.514 76.778 148.537 76.958 148.537 77.0482H143.892C143.892 78.3791 144.532 79.3783 145.407 80.0114C146.1 80.5126 146.936 80.7731 147.403 80.9222L148.816 76.4967ZM148.537 77.0482C148.537 77.1632 148.511 77.324 148.425 77.4945C148.339 77.6649 148.224 77.7844 148.126 77.8566C147.95 77.9867 147.916 77.9104 148.232 77.9104V73.265C147.278 73.265 146.235 73.4786 145.368 74.1187C144.428 74.8124 143.892 75.8717 143.892 77.0482H148.537ZM148.232 77.9104C148.456 77.9104 148.543 77.9415 148.54 77.9403C148.528 77.9359 148.447 77.9023 148.354 77.8083C148.263 77.716 148.21 77.6156 148.183 77.5406C148.16 77.4727 148.162 77.4381 148.162 77.4496H152.807C152.807 76.5696 152.552 75.447 151.659 74.5433C150.751 73.6251 149.515 73.265 148.232 73.265V77.9104ZM150.484 75.1269H149.57V79.7723H150.484V75.1269ZM151.893 77.4496C151.893 76.5814 151.605 75.5602 150.711 74.8213C149.9 74.1512 148.94 74.012 148.232 74.012V78.6574C148.405 78.6574 148.115 78.7021 147.752 78.4027C147.559 78.2432 147.417 78.0407 147.333 77.8335C147.254 77.6399 147.247 77.4955 147.247 77.4496H151.893ZM148.232 74.012C147.769 74.012 147.043 74.0682 146.349 74.4415C145.491 74.9039 144.806 75.8089 144.806 77.0148H149.451C149.451 77.2851 149.379 77.6217 149.174 77.9444C148.976 78.2556 148.728 78.4366 148.552 78.5317C148.257 78.6903 148.083 78.6574 148.232 78.6574V74.012ZM144.806 77.0148C144.806 77.4281 144.881 77.9245 145.14 78.4236C145.399 78.9241 145.761 79.2693 146.094 79.5033C146.641 79.8874 147.32 80.0985 147.682 80.216L149.117 75.7981C148.899 75.727 148.773 75.683 148.692 75.6503C148.605 75.6152 148.659 75.6282 148.765 75.7025C148.892 75.7915 149.103 75.9765 149.264 76.2861C149.424 76.5942 149.451 76.869 149.451 77.0148H144.806ZM147.679 80.215C147.83 80.2644 147.988 80.3137 148.112 80.3528C148.245 80.3948 148.355 80.43 148.454 80.4645C148.664 80.5374 148.746 80.5794 148.766 80.5911C148.777 80.5976 148.65 80.5261 148.526 80.3361C148.464 80.2404 148.416 80.1356 148.386 80.0302C148.357 79.9268 148.351 79.8463 148.351 79.802H152.997C152.997 79.095 152.814 78.4075 152.419 77.8008C152.039 77.2182 151.548 76.8393 151.127 76.5908C150.408 76.1662 149.45 75.9065 149.121 75.799L147.679 80.215ZM122.136 90.4127V92.7354H124.756L124.442 90.1344L122.136 90.4127ZM121.222 90.4127L118.915 90.6861L119.158 92.7354H121.222V90.4127ZM121.222 92.1966V89.8739H119.158L118.915 91.9232L121.222 92.1966ZM122.136 92.1966L124.442 92.4733L124.754 89.8739H122.136V92.1966ZM117.223 91.3046C117.223 90.6135 117.429 90.181 117.625 89.957C117.79 89.7675 118.058 89.5914 118.58 89.5914V84.946C116.794 84.946 115.222 85.6451 114.125 86.9022C113.058 88.1247 112.578 89.7102 112.578 91.3046H117.223ZM118.58 89.5914C119.108 89.5914 119.359 89.7414 119.476 89.8462C119.596 89.9531 119.769 90.1854 119.83 90.691L124.442 90.1344C124.269 88.7001 123.667 87.3604 122.569 86.3803C121.469 85.398 120.058 84.946 118.58 84.946V89.5914ZM122.136 88.09H121.222V92.7354H122.136V88.09ZM123.529 90.1393C123.39 88.9733 122.928 87.8097 121.968 86.9427C121.003 86.071 119.786 85.7264 118.58 85.7264V90.3718C118.75 90.3718 118.839 90.3957 118.869 90.4059C118.894 90.4143 118.88 90.4133 118.854 90.3903C118.829 90.3677 118.83 90.3569 118.844 90.388C118.861 90.4237 118.895 90.5152 118.915 90.6861L123.529 90.1393ZM118.58 85.7264C117.031 85.7264 115.645 86.3339 114.7 87.513C113.81 88.6228 113.492 90.0074 113.492 91.3046H118.137C118.137 90.7066 118.288 90.4634 118.324 90.4193C118.335 90.4051 118.336 90.4065 118.339 90.405C118.346 90.4017 118.414 90.3718 118.58 90.3718V85.7264ZM113.492 91.3046C113.492 92.6047 113.808 93.9919 114.698 95.1039C115.644 96.2861 117.031 96.894 118.58 96.894V92.2486C118.414 92.2486 118.347 92.2187 118.34 92.2157C118.337 92.2144 118.337 92.2162 118.325 92.2019C118.29 92.1572 118.137 91.911 118.137 91.3046H113.492ZM118.58 96.894C119.794 96.894 121.011 96.5423 121.974 95.6668C122.929 94.7979 123.391 93.6346 123.529 92.4699L118.915 91.9232C118.895 92.0944 118.861 92.1877 118.843 92.2259C118.827 92.2596 118.825 92.251 118.848 92.2299C118.872 92.2082 118.886 92.207 118.862 92.2151C118.834 92.2249 118.747 92.2486 118.58 92.2486V96.894ZM121.222 94.5193H122.136V89.8739H121.222V94.5193ZM119.83 91.9198C119.768 92.4336 119.593 92.668 119.474 92.7748C119.357 92.8791 119.108 93.029 118.58 93.029V97.6744C120.059 97.6744 121.47 97.2223 122.572 96.2368C123.67 95.2538 124.27 93.9106 124.442 92.4733L119.83 91.9198ZM118.58 93.029C118.058 93.029 117.791 92.8531 117.626 92.6637C117.43 92.4392 117.223 92.0039 117.223 91.3046H112.578C112.578 92.9021 113.056 94.4903 114.123 95.7151C115.221 96.9751 116.794 97.6744 118.58 97.6744V93.029ZM128.613 95.2402V97.5629H130.936V95.2402H128.613ZM127.71 95.2402H125.388V97.5629H127.71V95.2402ZM124.31 95.2402V97.5629H126.632V95.2402H124.31ZM123.396 95.2402H121.073V97.5629H123.396V95.2402ZM123.396 87.0457V84.723H121.073V87.0457H123.396ZM124.31 87.0457H126.632V84.723H124.31V87.0457ZM124.31 90.658L126.574 91.1745L126.632 90.9195V90.658H124.31ZM124.165 91.2935L121.9 90.777L121.253 93.6162H124.165V91.2935ZM124.421 91.2935V93.6162H126.284L126.689 91.7974L124.421 91.2935ZM126.551 91.9104C126.642 91.9104 126.65 91.9239 126.603 91.9068C126.548 91.8866 126.46 91.8394 126.377 91.7532C126.295 91.6682 126.268 91.5968 126.266 91.59C126.265 91.5895 126.272 91.6083 126.278 91.6516C126.285 91.695 126.291 91.7604 126.291 91.8509H130.936C130.936 90.6889 130.625 89.4674 129.724 88.5315C128.812 87.5846 127.62 87.265 126.551 87.265V91.9104ZM126.291 91.8509V95.2402H130.936V91.8509H126.291ZM128.613 92.9175H127.71V97.5629H128.613V92.9175ZM130.033 95.2402V91.9736H125.388V95.2402H130.033ZM130.033 91.9736C130.033 91.1668 129.888 90.0617 129.083 89.175C128.228 88.2332 127.103 88.0454 126.305 88.0454V92.6908C126.455 92.6908 126.033 92.7261 125.643 92.2971C125.473 92.1089 125.408 91.933 125.388 91.8629C125.372 91.8041 125.388 91.8251 125.388 91.9736H130.033ZM126.305 88.0454C125.063 88.0454 123.905 88.5578 123.093 89.5201C122.309 90.4494 121.987 91.6265 121.987 92.7875H126.632C126.632 92.4545 126.723 92.4219 126.644 92.515C126.605 92.5618 126.542 92.6136 126.462 92.6502C126.382 92.6864 126.323 92.6908 126.305 92.6908V88.0454ZM121.987 92.7875V95.2402H126.632V92.7875H121.987ZM124.31 92.9175H123.396V97.5629H124.31V92.9175ZM125.718 95.2402V87.0457H121.073V95.2402H125.718ZM123.396 89.3684H124.31V84.723H123.396V89.3684ZM121.987 87.0457V90.658H126.632V87.0457H121.987ZM122.045 90.1415L121.9 90.777L126.429 91.81L126.574 91.1745L122.045 90.1415ZM124.165 93.6162H124.421V88.9708H124.165V93.6162ZM126.689 91.7974C126.701 91.7413 126.712 91.7263 126.705 91.7395C126.696 91.755 126.671 91.7927 126.623 91.8337C126.573 91.876 126.524 91.9003 126.492 91.9111C126.463 91.921 126.476 91.9104 126.551 91.9104V87.265C125.476 87.265 124.444 87.5887 123.613 88.2949C122.8 88.9869 122.352 89.8992 122.154 90.7896L126.689 91.7974ZM131.708 92.0851L131.486 89.773L131.477 89.7738L131.469 89.7747L131.708 92.0851ZM133.915 91.8732L134.137 94.1853L136.357 93.9723L136.234 91.7458L133.915 91.8732ZM130.805 91.7617V94.0845H133.127V91.7617H130.805ZM129.913 91.7617H127.59V94.0845H129.913V91.7617ZM134.829 94.4598H132.507V96.7825H134.829V94.4598ZM135.643 94.4598H137.966V92.1371H135.643V94.4598ZM135.643 95.2402V97.5629H137.966V95.2402H135.643ZM134.004 94.2926L131.751 93.7292L131.682 94.0066V94.2926H134.004ZM134.149 93.7128L136.403 94.2762L137.124 91.3901H134.149V93.7128ZM133.882 93.7128V91.3901H132.068L131.628 93.1495L133.882 93.7128ZM133.915 92.5533H136.238V89.9784L133.677 90.2429L133.915 92.5533ZM131.864 92.7652L132.084 95.0774L132.093 95.0765L132.102 95.0756L131.864 92.7652ZM132.213 93.7017C132.213 93.7099 132.212 93.7945 132.164 93.9216C132.112 94.0581 132.024 94.1923 131.912 94.2992C131.697 94.5026 131.586 94.4328 131.947 94.3954L131.469 89.7747C130.536 89.8711 129.516 90.1693 128.716 90.9273C127.861 91.7377 127.568 92.7753 127.568 93.7017H132.213ZM131.929 94.3972L134.137 94.1853L133.693 89.5612L131.486 89.773L131.929 94.3972ZM136.234 91.7458C136.186 90.8603 135.9 89.8423 135.08 89.0571C134.256 88.268 133.227 88.0343 132.354 88.0343V92.6797C132.44 92.6797 132.164 92.6968 131.867 92.4122C131.574 92.1314 131.589 91.8716 131.596 92.0007L136.234 91.7458ZM132.354 88.0343C131.66 88.0343 130.702 88.1813 129.865 88.8233C128.925 89.544 128.482 90.6218 128.482 91.7617H133.127C133.127 91.7769 133.124 91.896 133.047 92.0649C132.966 92.2416 132.839 92.3964 132.692 92.5094C132.429 92.711 132.246 92.6797 132.354 92.6797V88.0343ZM130.805 89.439H129.913V94.0845H130.805V89.439ZM132.235 91.7617C132.235 91.7683 132.234 91.7902 132.221 91.822C132.207 91.855 132.185 91.888 132.158 91.9144C132.13 91.9415 132.113 91.9452 132.129 91.9392C132.146 91.9328 132.215 91.9104 132.354 91.9104V87.265C131.047 87.265 129.832 87.7023 128.93 88.5738C128.038 89.436 127.59 90.594 127.59 91.7617H132.235ZM132.354 91.9104C132.485 91.9104 132.542 91.9317 132.548 91.9339C132.55 91.9347 132.526 91.9245 132.499 91.8963C132.473 91.8693 132.471 91.8537 132.478 91.8736C132.486 91.8963 132.507 91.966 132.507 92.0962H137.152C137.152 90.8718 136.763 89.6278 135.847 88.6755C134.918 87.7105 133.66 87.265 132.354 87.265V91.9104ZM132.507 92.0962V94.4598H137.152V92.0962H132.507ZM134.829 96.7825H135.643V92.1371H134.829V96.7825ZM133.32 94.4598V95.2402H137.966V94.4598H133.32ZM135.643 92.9175H134.662V97.5629H135.643V92.9175ZM134.662 92.9175C134.867 92.9175 135.362 92.9803 135.806 93.4189C136.255 93.8616 136.327 94.3667 136.327 94.5936H131.682C131.682 95.233 131.871 96.0614 132.542 96.7243C133.209 97.3831 134.033 97.5629 134.662 97.5629V92.9175ZM136.327 94.5936V94.2926H131.682V94.5936H136.327ZM136.258 94.8559L136.403 94.2762L131.896 93.1495L131.751 93.7292L136.258 94.8559ZM134.149 91.3901H133.882V96.0355H134.149V91.3901ZM131.628 93.1495C131.616 93.2003 131.605 93.2172 131.61 93.2091C131.615 93.1984 131.639 93.1596 131.69 93.1148C131.714 93.0929 131.741 93.0733 131.769 93.057C131.796 93.0407 131.819 93.0308 131.834 93.0254C131.867 93.014 131.845 93.029 131.741 93.029V97.6744C132.9 97.6744 133.955 97.3168 134.778 96.5853C135.564 95.8858 135.952 95.0101 136.135 94.2762L131.628 93.1495ZM131.741 93.029C131.596 93.029 131.609 93.005 131.71 93.0492C131.822 93.0988 131.951 93.1928 132.054 93.3265C132.148 93.4485 132.185 93.5568 132.199 93.6104C132.213 93.6612 132.213 93.691 132.213 93.7017H127.568C127.568 94.2529 127.674 95.2532 128.374 96.1617C129.162 97.1845 130.372 97.6744 131.741 97.6744V93.029ZM128.482 93.5902C128.482 94.4137 128.758 95.3368 129.518 96.0323C130.247 96.7 131.135 96.894 131.853 96.894V92.2486C131.923 92.2486 132.287 92.2698 132.654 92.6058C133.052 92.9696 133.127 93.4022 133.127 93.5902H128.482ZM131.853 96.894C133.035 96.894 134.166 96.4742 135.005 95.629C135.837 94.7904 136.238 93.6777 136.238 92.5533H131.592C131.592 92.5692 131.59 92.5504 131.607 92.5079C131.624 92.4642 131.656 92.4091 131.707 92.3569C131.76 92.3042 131.814 92.2724 131.855 92.2565C131.894 92.2411 131.899 92.2486 131.853 92.2486V96.894ZM133.677 90.2429L131.625 90.4547L132.102 95.0756L134.154 94.8637L133.677 90.2429ZM131.643 90.4529C131.189 90.4962 130.399 90.6109 129.698 91.1239C128.809 91.7749 128.482 92.7312 128.482 93.5902H133.127C133.127 93.7034 133.109 93.9308 132.986 94.2014C132.855 94.4885 132.656 94.7158 132.443 94.8719C132.249 95.0137 132.088 95.065 132.04 95.0787C131.992 95.0925 131.996 95.0858 132.084 95.0774L131.643 90.4529ZM137.604 95.2402V97.5629H139.926V95.2402H137.604ZM136.689 95.2402H134.367V97.5629H136.689V95.2402ZM136.689 89.6992V87.3765H134.367V89.6992H136.689ZM137.604 89.6992H139.926V87.3765H137.604V89.6992ZM137.604 90.658L139.868 91.1745L139.926 90.9195V90.658H137.604ZM137.459 91.2935L135.194 90.777L134.547 93.6162H137.459V91.2935ZM137.715 91.2935V93.6162H139.578L139.983 91.7974L137.715 91.2935ZM141.907 95.2402V97.5629H144.23V95.2402H141.907ZM141.004 95.2402H138.681V97.5629H141.004V95.2402ZM139.599 88.0454C138.357 88.0454 137.198 88.5578 136.387 89.5201C135.603 90.4494 135.281 91.6265 135.281 92.7875H139.926C139.926 92.4545 140.017 92.4219 139.938 92.515C139.899 92.5618 139.836 92.6136 139.756 92.6502C139.676 92.6864 139.617 92.6908 139.599 92.6908V88.0454ZM135.281 92.7875V95.2402H139.926V92.7875H135.281ZM137.604 92.9175H136.689V97.5629H137.604V92.9175ZM139.012 95.2402V89.6992H134.367V95.2402H139.012ZM136.689 92.0219H137.604V87.3765H136.689V92.0219ZM135.281 89.6992V90.658H139.926V89.6992H135.281ZM135.339 90.1415L135.194 90.777L139.723 91.81L139.868 91.1745L135.339 90.1415ZM137.459 93.6162H137.715V88.9708H137.459V93.6162ZM139.983 91.7974C139.995 91.7413 140.006 91.7263 139.999 91.7395C139.99 91.755 139.965 91.7927 139.917 91.8337C139.867 91.876 139.818 91.9003 139.786 91.9111C139.757 91.921 139.77 91.9104 139.845 91.9104V87.265C138.77 87.265 137.738 87.5887 136.907 88.2949C136.094 88.9869 135.646 89.8992 135.448 90.7896L139.983 91.7974ZM139.845 91.9104C139.936 91.9104 139.944 91.9239 139.897 91.9068C139.842 91.8866 139.754 91.8394 139.671 91.7532C139.589 91.6682 139.562 91.5968 139.559 91.59C139.559 91.5895 139.566 91.6083 139.572 91.6516C139.578 91.695 139.584 91.7604 139.584 91.8509H144.23C144.23 90.6889 143.919 89.4674 143.017 88.5315C142.106 87.5846 140.914 87.265 139.845 87.265V91.9104ZM139.584 91.8509V95.2402H144.23V91.8509H139.584ZM141.907 92.9175H141.004V97.5629H141.907V92.9175ZM143.327 95.2402V91.9736H138.681V95.2402H143.327ZM143.327 91.9736C143.327 91.1668 143.182 90.0617 142.377 89.175C141.522 88.2332 140.397 88.0454 139.599 88.0454V92.6908C139.749 92.6908 139.327 92.7261 138.937 92.2971C138.766 92.1089 138.702 91.933 138.682 91.8629C138.665 91.8041 138.681 91.8251 138.681 91.9736H143.327ZM149.565 89.6992H151.887V87.3765H149.565V89.6992ZM149.565 90.4796V92.8023H151.887V90.4796H149.565ZM148.372 90.7026L146.994 88.8327L145.039 90.2731L146.565 92.162L148.372 90.7026ZM146.142 94.4264L145.342 92.2456L146.517 96.7185L146.142 94.4264ZM143.455 97.2805H141.132V99.6032H143.455V97.2805ZM143.455 96.5001V94.1774H141.132V96.5001H143.455ZM143.957 95.3294L141.731 95.9933L142.396 98.2243L144.626 97.5537L143.957 95.3294ZM143.767 94.6939L143.151 92.4544L140.863 93.0836L141.541 95.3578L143.767 94.6939ZM146.398 93.9247L147.089 96.1421L148.721 95.6336V93.9247H146.398ZM146.398 93.6682H148.721V90.6753L145.822 91.4182L146.398 93.6682ZM147.781 90.1228L146.446 92.0238L147.716 92.9152L149.025 92.084L147.781 90.1228ZM149.074 92.0219H149.565V87.3765H149.074V92.0219ZM147.242 89.6992V90.4796H151.887V89.6992H147.242ZM149.565 88.1569H149.096V92.8023H149.565V88.1569ZM149.096 88.1569C148.335 88.1569 147.641 88.3561 146.994 88.8327L149.749 92.5725C149.691 92.6153 149.567 92.6939 149.391 92.7491C149.224 92.8012 149.107 92.8023 149.096 92.8023V88.1569ZM146.565 92.162C146.429 91.994 146.428 91.8645 146.428 91.8732H151.073C151.073 90.9232 150.782 89.9909 150.179 89.2432L146.565 92.162ZM146.428 91.8732C146.428 91.8562 146.434 91.7927 146.468 91.7176C146.5 91.6481 146.527 91.6329 146.491 91.667C146.448 91.7065 146.348 91.7863 146.149 91.894C145.951 92.0011 145.688 92.1189 145.342 92.2456L146.941 96.6071C147.886 96.2609 148.878 95.7915 149.656 95.0674C150.518 94.2649 151.073 93.1838 151.073 91.8732H146.428ZM146.517 96.7185C146.737 96.6825 146.912 96.6706 147.037 96.6732C147.171 96.6759 147.18 96.6939 147.108 96.6677C147.022 96.6368 146.796 96.5314 146.6 96.2656C146.394 95.9872 146.361 95.7224 146.361 95.6193H151.006C151.006 94.9031 150.817 94.1561 150.337 93.5059C149.866 92.8683 149.247 92.5016 148.688 92.2993C147.655 91.9255 146.546 92.0065 145.766 92.1342L146.517 96.7185ZM146.361 95.6193C146.361 95.5638 146.388 95.2534 146.654 94.9548C146.871 94.7116 147.048 94.7068 146.847 94.7619C146.654 94.8149 146.301 94.8724 145.696 94.9095C145.106 94.9458 144.373 94.9578 143.455 94.9578V99.6032C145.231 99.6032 146.873 99.5718 148.076 99.2417C148.719 99.0654 149.506 98.7373 150.123 98.0446C150.789 97.2966 151.006 96.4106 151.006 95.6193H146.361ZM145.778 97.2805V96.5001H141.132V97.2805H145.778ZM143.455 98.8228C144.965 98.8228 146.291 98.8122 147.233 98.635C147.702 98.5469 148.412 98.3637 149.025 97.8551C149.783 97.2266 150.092 96.3653 150.092 95.5524H145.447C145.447 95.4067 145.471 95.1754 145.586 94.9127C145.705 94.6407 145.88 94.4283 146.059 94.2796C146.36 94.0302 146.587 94.0296 146.374 94.0697C146.205 94.1016 145.901 94.1336 145.382 94.1532C144.876 94.1723 144.248 94.1774 143.455 94.1774V98.8228ZM150.092 95.5524C150.092 94.9967 149.947 94.3949 149.572 93.8526C149.206 93.3232 148.727 93.004 148.305 92.8176C147.54 92.4795 146.74 92.4783 146.241 92.5076C145.167 92.5708 143.989 92.8942 143.287 93.1052L144.626 97.5537C145.296 97.3522 146.024 97.1738 146.514 97.145C146.564 97.1421 146.604 97.1413 146.633 97.1417C146.647 97.1419 146.658 97.1423 146.665 97.1427C146.673 97.1432 146.676 97.1435 146.676 97.1435C146.676 97.1435 146.67 97.1429 146.661 97.1413C146.651 97.1397 146.636 97.1369 146.617 97.1321C146.578 97.1229 146.512 97.104 146.428 97.0667C146.256 96.991 145.979 96.8236 145.752 96.495C145.515 96.1535 145.447 95.8015 145.447 95.5524H150.092ZM146.182 94.6656L145.993 94.0301L141.541 95.3578L141.731 95.9933L146.182 94.6656ZM144.383 96.9335C145.297 96.6822 146.203 96.4185 147.089 96.1421L145.707 91.7072C144.877 91.966 144.021 92.2151 143.151 92.4544L144.383 96.9335ZM148.721 93.9247V93.6682H144.076V93.9247H148.721ZM145.822 91.4182C145.564 91.4843 145.36 91.5004 145.222 91.4945C145.08 91.4884 145.047 91.4619 145.084 91.4806C145.136 91.5059 145.236 91.5763 145.314 91.7046C145.389 91.8298 145.376 91.8996 145.376 91.8286H140.731C140.731 93.5224 141.58 94.932 143.03 95.6468C144.306 96.2765 145.757 96.2303 146.975 95.9182L145.822 91.4182ZM145.376 91.8286C145.376 91.7699 145.386 91.8031 145.348 91.8795C145.309 91.9569 145.258 92.0033 145.237 92.0185C145.224 92.0281 145.259 91.999 145.377 91.9677C145.494 91.9365 145.667 91.9104 145.897 91.9104V87.265C144.797 87.265 143.552 87.5049 142.517 88.2523C141.385 89.0701 140.731 90.3395 140.731 91.8286H145.376ZM145.897 91.9104C146.225 91.9104 146.412 92 146.446 92.0238L149.115 88.2219C148.101 87.5099 146.906 87.265 145.897 87.265V91.9104ZM149.025 92.084C149.083 92.0476 149.127 92.0202 149.163 91.9994C149.198 91.9787 149.219 91.9668 149.231 91.9609C149.252 91.9499 149.224 91.9665 149.162 91.9862C149.131 91.9959 149.099 92.0043 149.067 92.0109C149.036 92.0173 149.011 92.0207 148.996 92.0223C148.983 92.0239 148.98 92.0236 148.993 92.0231C149.007 92.0225 149.032 92.0219 149.074 92.0219V87.3765C148.742 87.3765 148.281 87.3913 147.752 87.5599C147.265 87.7148 146.859 87.9566 146.536 88.1617L149.025 92.084ZM145.908 95.6676C146.694 95.6676 147.747 95.542 148.655 94.8978C149.711 94.1487 150.159 93.0044 150.159 91.8509H145.514C145.514 91.8508 145.514 91.8434 145.515 91.8296C145.516 91.8158 145.519 91.7953 145.524 91.7689C145.535 91.7154 145.556 91.6411 145.596 91.5552C145.684 91.3672 145.822 91.2123 145.967 91.1092C146.098 91.0165 146.187 90.9988 146.17 91.0028C146.152 91.007 146.071 91.0222 145.908 91.0222V95.6676ZM150.159 91.8509C150.159 90.6942 149.704 89.5538 148.65 88.8102C147.744 88.1713 146.695 88.0454 145.908 88.0454V92.6908C146.071 92.6908 146.153 92.706 146.171 92.7104C146.19 92.7147 146.102 92.6976 145.972 92.6062C145.828 92.5044 145.689 92.35 145.6 92.1598C145.515 91.9815 145.514 91.8569 145.514 91.8509H150.159ZM145.908 88.0454C145.121 88.0454 144.078 88.1732 143.175 88.8024C142.124 89.5348 141.645 90.6697 141.645 91.8509H146.29C146.29 91.8662 146.287 91.9965 146.2 92.1771C146.108 92.3679 145.969 92.5176 145.831 92.6139C145.707 92.7004 145.625 92.7156 145.646 92.7107C145.667 92.7057 145.748 92.6908 145.908 92.6908V88.0454ZM141.645 91.8509C141.645 93.0287 142.117 94.1677 143.17 94.9056C144.075 95.5401 145.122 95.6676 145.908 95.6676V91.0222C145.748 91.0222 145.668 91.0073 145.647 91.0026C145.627 90.9979 145.711 91.0137 145.836 91.1014C145.975 91.1991 146.113 91.3493 146.203 91.538C146.288 91.7159 146.29 91.8418 146.29 91.8509H141.645ZM155.469 92.6425V94.9652H157.792V92.6425H155.469ZM151.088 92.6425V90.3198H148.638L148.768 92.7659L151.088 92.6425ZM154.745 93.3003V90.9776H152.908L152.484 92.765L154.745 93.3003ZM155.659 93.3003L157.914 93.8568L158.624 90.9776H155.659V93.3003ZM151.088 91.9513H148.765V94.274H151.088V91.9513ZM154.577 91.9513V94.274H156.9V91.9513H154.577ZM152.519 92.3972C152.519 92.1927 152.55 92.0724 152.572 92.0155C152.591 91.962 152.606 91.9521 152.599 91.9587C152.568 91.9902 152.609 91.9104 152.883 91.9104V87.265C151.585 87.265 150.282 87.698 149.3 88.6883C148.316 89.6811 147.873 91.0128 147.873 92.3972H152.519ZM152.883 91.9104C153.028 91.9104 153.101 91.9334 153.122 91.9412C153.138 91.9475 153.123 91.944 153.101 91.9218C153.08 91.8999 153.086 91.894 153.101 91.9354C153.117 91.981 153.147 92.0906 153.147 92.2858H157.792C157.792 90.9655 157.386 89.6584 156.421 88.6723C155.453 87.6827 154.163 87.265 152.883 87.265V91.9104ZM153.147 92.2858V92.6425H157.792V92.2858H153.147ZM155.469 90.3198H151.088V94.9652H155.469V90.3198ZM148.768 92.7659C148.812 93.5795 149.038 94.633 149.79 95.517C150.611 96.4802 151.775 96.9163 153.017 96.9163V92.2709C152.928 92.2709 152.954 92.2567 153.043 92.2944C153.141 92.3355 153.245 92.409 153.327 92.5052C153.402 92.5935 153.425 92.6608 153.426 92.6639C153.426 92.6642 153.413 92.6198 153.407 92.5191L148.768 92.7659ZM153.017 96.9163C153.848 96.9163 154.75 96.7109 155.533 96.1292C156.332 95.5357 156.799 94.704 157.005 93.8356L152.484 92.765C152.485 92.7629 152.498 92.7112 152.546 92.6342C152.595 92.5541 152.669 92.4704 152.763 92.4002C152.961 92.2533 153.1 92.2709 153.017 92.2709V96.9163ZM154.745 95.623H155.659V90.9776H154.745V95.623ZM153.404 92.7439C153.388 92.8082 153.365 92.8691 153.34 92.9178C153.316 92.965 153.297 92.9848 153.293 92.9889C153.292 92.9906 153.292 92.9904 153.293 92.9897C153.294 92.9889 153.291 92.991 153.282 92.9948C153.267 93.0006 153.19 93.029 153.017 93.029V97.6744C154.479 97.6744 155.678 97.1559 156.544 96.307C157.357 95.5113 157.74 94.5628 157.914 93.8568L153.404 92.7439ZM153.017 93.029C152.787 93.029 152.679 92.9902 152.65 92.9777C152.634 92.971 152.63 92.9672 152.632 92.9687C152.634 92.9702 152.635 92.9716 152.634 92.9706C152.632 92.968 152.519 92.8204 152.519 92.3972H147.873C147.873 93.5684 148.178 94.8981 149.09 95.9741C150.054 97.1117 151.45 97.6744 153.017 97.6744V93.029ZM151.088 94.274H154.577V89.6286H151.088V94.274ZM156.9 91.9513C156.9 90.9901 156.574 89.969 155.79 89.1813C154.996 88.3834 153.942 88.0343 152.883 88.0343V92.6797C152.927 92.6797 152.72 92.6817 152.498 92.4581C152.285 92.2445 152.255 92.0205 152.255 91.9513H156.9ZM152.883 88.0343C150.694 88.0343 148.765 89.5972 148.765 91.9513H153.41C153.41 92.1396 153.325 92.3662 153.148 92.5293C152.976 92.687 152.84 92.6797 152.883 92.6797V88.0343ZM162.605 95.2402V97.5629H164.927V95.2402H162.605ZM161.691 95.2402H159.368V97.5629H161.691V95.2402ZM161.691 94.4264L159.437 93.863L159.368 94.1404V94.4264H161.691ZM161.847 93.802L164.1 94.3654L164.821 91.4793H161.847V93.802ZM161.579 93.802V91.4793H159.805L159.338 93.1909L161.579 93.802ZM161.579 91.1486L159.336 91.7524L159.799 93.4713H161.579V91.1486ZM161.847 91.1486V93.4713H164.809L164.102 90.5945L161.847 91.1486ZM161.691 90.5131H159.368V90.7941L159.435 91.0671L161.691 90.5131ZM161.691 87.0457V84.723H159.368V87.0457H161.691ZM162.605 87.0457H164.927V84.723H162.605V87.0457ZM162.605 92.9175H161.691V97.5629H162.605V92.9175ZM164.013 95.2402V94.4264H159.368V95.2402H164.013ZM163.944 94.9897L164.1 94.3654L159.593 93.2387L159.437 93.863L163.944 94.9897ZM161.847 91.4793H161.579V96.1247H161.847V91.4793ZM159.338 93.1909C159.341 93.1793 159.35 93.1556 159.37 93.1255C159.39 93.0942 159.418 93.0642 159.45 93.0406C159.482 93.0167 159.502 93.0109 159.495 93.0129C159.488 93.0152 159.44 93.029 159.338 93.029V97.6744C161.611 97.6744 163.301 96.3149 163.82 94.4132L159.338 93.1909ZM159.338 93.029C159.239 93.029 159.193 93.0109 159.182 93.0058C159.17 93.0008 159.161 92.995 159.148 92.9807C159.124 92.9533 159.019 92.809 159.019 92.4641H154.373C154.373 93.7693 154.786 95.0688 155.681 96.0727C156.599 97.1014 157.899 97.6744 159.338 97.6744V93.029ZM159.019 92.4641C159.019 92.1285 159.122 91.9871 159.146 91.9597C159.159 91.9452 159.169 91.9392 159.181 91.9338C159.193 91.9285 159.239 91.9104 159.338 91.9104V87.265C157.899 87.265 156.6 87.8377 155.684 88.863C154.788 89.864 154.373 91.1609 154.373 92.4641H159.019ZM159.338 91.9104C159.44 91.9104 159.487 91.9242 159.494 91.9263C159.499 91.9279 159.478 91.9216 159.445 91.8969C159.413 91.8724 159.385 91.842 159.365 91.8111C159.345 91.7816 159.338 91.7598 159.336 91.7524L163.822 90.5447C163.307 88.6309 161.617 87.265 159.338 87.265V91.9104ZM161.579 93.4713H161.847V88.8258H161.579V93.4713ZM164.102 90.5945L163.946 89.959L159.435 91.0671L159.591 91.7026L164.102 90.5945ZM164.013 90.5131V87.0457H159.368V90.5131H164.013ZM161.691 89.3684H162.605V84.723H161.691V89.3684ZM160.282 87.0457V95.2402H164.927V87.0457H160.282ZM164.013 92.4641C164.013 91.2111 163.596 90.005 162.633 89.1381C161.713 88.3095 160.576 88.0454 159.606 88.0454V92.6908C159.686 92.6908 159.712 92.7022 159.694 92.6963C159.672 92.6891 159.604 92.6616 159.525 92.5904C159.441 92.5155 159.391 92.4324 159.368 92.3752C159.348 92.3252 159.368 92.3416 159.368 92.4641H164.013ZM159.606 88.0454C158.631 88.0454 157.483 88.3135 156.571 89.1861C155.639 90.0782 155.287 91.2808 155.287 92.4641H159.933C159.933 92.3157 159.954 92.2792 159.941 92.3156C159.924 92.3606 159.878 92.4515 159.783 92.5425C159.69 92.6314 159.6 92.6732 159.554 92.6888C159.514 92.7023 159.525 92.6908 159.606 92.6908V88.0454ZM155.287 92.4641C155.287 93.6481 155.636 94.8534 156.568 95.7487C157.481 96.6257 158.63 96.894 159.606 96.894V92.2486C159.525 92.2486 159.515 92.2371 159.555 92.2509C159.603 92.2669 159.693 92.3094 159.786 92.3989C159.882 92.4903 159.927 92.5807 159.943 92.6232C159.955 92.6572 159.933 92.6172 159.933 92.4641H155.287ZM159.606 96.894C160.576 96.894 161.715 96.6298 162.636 95.7967C163.599 94.9264 164.013 93.7174 164.013 92.4641H159.368C159.368 92.5915 159.348 92.6115 159.367 92.5638C159.388 92.509 159.438 92.4262 159.521 92.3508C159.6 92.2791 159.67 92.2509 159.693 92.2434C159.711 92.2372 159.686 92.2486 159.606 92.2486V96.894Z" fill="url(#paint5_linear_850_11)" mask="url(#path-6-inside-1_850_11)"/>
<path d="M614.517 302.3L349.161 59.2998L262.499 138.193L532.769 384.002L614.517 302.3Z" fill="url(#paint6_linear_850_11)"/>
<path d="M625.336 354.814L347.884 100.737H334.079L263.522 139.13L514.537 367.32L625.336 354.814Z" fill="url(#paint7_linear_850_11)"/>
<path d="M307.492 23.0137H263.522L222.619 59.768V101.673L263.522 139.129H307.492L348.395 101.673V59.768L307.492 23.0137Z" fill="white" stroke="url(#paint8_linear_850_11)" stroke-width="2.32271"/>
<path d="M253.249 75.2627C253.249 71.6059 256.222 70.5653 259.403 70.2085V69.0193C257.055 68.8112 254.438 67.9193 254.438 64.7381C254.438 60.9326 258.779 59.892 262.912 59.892C267.015 59.892 271.355 60.9326 271.355 64.7381C271.355 67.9193 268.739 68.8112 266.39 69.0193V70.2085C269.571 70.5653 272.544 71.9032 272.544 75.2627C272.544 79.6926 268.65 81.4467 262.912 81.4467C257.144 81.4467 253.249 79.6926 253.249 75.2627ZM259.195 65.8084C259.195 67.0868 260.355 67.5625 262.912 67.5625C265.439 67.5625 266.598 67.0868 266.598 65.8084C266.598 64.5597 265.439 64.0543 262.912 64.0543C260.355 64.0543 259.195 64.5597 259.195 65.8084ZM258.006 74.5195C258.006 76.3925 259.463 77.2844 262.912 77.2844C266.331 77.2844 267.788 76.3925 267.788 74.5195C267.788 72.6762 266.331 71.7248 262.912 71.7248C259.463 71.7248 258.006 72.6762 258.006 74.5195ZM284.16 59.892C290.492 59.892 294.239 64.2624 294.239 70.6545C294.239 77.0763 290.492 81.4467 284.16 81.4467C277.797 81.4467 274.051 77.0763 274.051 70.6545C274.051 64.2624 277.797 59.892 284.16 59.892ZM284.16 64.0543C280.8 64.0543 278.808 66.3435 278.808 70.6545C278.808 71.6951 278.927 72.587 279.135 73.3897L287.133 64.857C286.33 64.3219 285.319 64.0543 284.16 64.0543ZM284.16 77.2844C287.519 77.2844 289.482 74.9952 289.482 70.6545C289.482 69.6437 289.363 68.722 289.155 67.9193L281.157 76.452C281.989 77.0169 283 77.2844 284.16 77.2844ZM306.719 59.892C313.052 59.892 316.798 64.2624 316.798 70.6545C316.798 77.0763 313.052 81.4467 306.719 81.4467C300.357 81.4467 296.611 77.0763 296.611 70.6545C296.611 64.2624 300.357 59.892 306.719 59.892ZM306.719 64.0543C303.36 64.0543 301.368 66.3435 301.368 70.6545C301.368 71.6951 301.487 72.587 301.695 73.3897L309.692 64.857C308.889 64.3219 307.879 64.0543 306.719 64.0543ZM306.719 77.2844C310.079 77.2844 312.041 74.9952 312.041 70.6545C312.041 69.6437 311.922 68.722 311.714 67.9193L303.716 76.452C304.549 77.0169 305.56 77.2844 306.719 77.2844ZM264.737 95.1494V87.2894H266.577L268.807 94.893H269.063L271.304 87.2894H273.132V95.1494H272.218V88.2036L272.374 87.5458H272.107L269.855 95.1494H268.015L265.763 87.5458H265.507L265.651 88.2036V95.1494H264.737ZM276.251 88.7276C275.794 88.7276 275.448 88.3931 275.448 87.9472C275.448 87.5235 275.794 87.1779 276.251 87.1779C276.697 87.1779 277.054 87.5235 277.054 87.9472C277.054 88.3931 276.697 88.7276 276.251 88.7276ZM274.4 95.1494V94.369H275.961V90.2885L274.813 90.3888V89.6084L276.095 89.4969C276.619 89.4523 276.82 89.7422 276.82 90.1658V94.369H278.38V95.1494H274.4ZM279.232 95.1494V94.369H280.793V87.635L279.644 87.7353V86.9549L280.938 86.8434C281.45 86.7988 281.696 87.0887 281.696 87.6127V94.369H283.245V95.1494H279.232ZM284.099 95.1494V94.369H285.659V87.635L284.511 87.7353V86.9549L285.804 86.8434C286.317 86.7988 286.563 87.0887 286.563 87.6127V94.369H288.112V95.1494H284.099ZM290.906 88.7276C290.449 88.7276 290.103 88.3931 290.103 87.9472C290.103 87.5235 290.449 87.1779 290.906 87.1779C291.352 87.1779 291.709 87.5235 291.709 87.9472C291.709 88.3931 291.352 88.7276 290.906 88.7276ZM289.055 95.1494V94.369H290.616V90.2885L289.468 90.3888V89.6084L290.75 89.4969C291.274 89.4523 291.474 89.7422 291.474 90.1658V94.369H293.035V95.1494H289.055ZM293.661 92.3733C293.661 90.7679 294.82 89.4969 296.593 89.4969C298.354 89.4969 299.503 90.7679 299.503 92.3733C299.503 93.9899 298.354 95.2609 296.593 95.2609C294.82 95.2609 293.661 93.9899 293.661 92.3733ZM294.575 92.3733C294.575 93.5328 295.277 94.4805 296.593 94.4805C297.897 94.4805 298.6 93.5328 298.6 92.3733C298.6 91.225 297.897 90.2773 296.593 90.2773C295.277 90.2773 294.575 91.225 294.575 92.3733ZM303.685 90.2773C302.515 90.2773 301.69 91.2027 301.69 92.6966V95.1494H300.776V89.6084H301.69V90.5672L301.545 91.2027H301.801C302.024 90.1993 302.727 89.4969 303.931 89.4969C305.179 89.4969 305.993 90.2216 305.993 91.7601V95.1494H305.09V91.8828C305.09 90.7233 304.633 90.2773 303.685 90.2773ZM272.908 107.165C272.908 108.336 272.205 109.261 269.886 109.261C267.144 109.261 266.33 108.046 266.33 106.206H267.244C267.244 108.068 268.236 108.48 269.886 108.48C271.224 108.48 271.994 108.157 271.994 107.209C271.994 106.017 270.611 105.771 269.362 105.403C267.813 104.935 266.687 104.511 266.687 103.118C266.687 101.914 267.534 101.178 269.474 101.178C271.793 101.178 272.584 102.594 272.584 103.876H271.67C271.67 102.538 270.678 101.958 269.474 101.958C268.392 101.958 267.601 102.226 267.601 103.096C267.601 103.921 268.292 104.222 269.585 104.623C271.124 105.102 272.908 105.526 272.908 107.165ZM276.373 108.48C277.544 108.48 278.369 107.555 278.369 106.072V103.608H279.272V109.149H278.369V108.191L278.514 107.555H278.258C278.035 108.559 277.332 109.261 276.128 109.261C274.868 109.261 274.055 108.536 274.055 106.998V103.608H274.969V106.875C274.969 108.035 275.415 108.48 276.373 108.48ZM280.742 103.608H281.656V104.422L281.511 105.058H281.768C282.002 104.188 282.738 103.497 284.009 103.497C285.614 103.497 286.651 104.734 286.651 106.384C286.651 108.023 285.614 109.261 284.009 109.261C282.738 109.261 282.002 108.57 281.768 107.711H281.511L281.656 108.336V111.179H280.742V103.608ZM281.656 106.384C281.656 107.856 282.604 108.48 283.741 108.48C284.89 108.48 285.737 107.834 285.737 106.384C285.737 104.924 284.89 104.277 283.741 104.277C282.604 104.277 281.656 104.902 281.656 106.384ZM287.982 103.608H288.897V104.422L288.752 105.058H289.008C289.242 104.188 289.978 103.497 291.249 103.497C292.855 103.497 293.891 104.734 293.891 106.384C293.891 108.023 292.855 109.261 291.249 109.261C289.978 109.261 289.242 108.57 289.008 107.711H288.752L288.897 108.336V111.179H287.982V103.608ZM288.897 106.384C288.897 107.856 289.844 108.48 290.982 108.48C292.13 108.48 292.977 107.834 292.977 106.384C292.977 104.924 292.13 104.277 290.982 104.277C289.844 104.277 288.897 104.902 288.897 106.384ZM294.442 109.149V108.369H296.003V101.635L294.854 101.735V100.955L296.148 100.843C296.661 100.799 296.906 101.089 296.906 101.613V108.369H298.456V109.149H294.442ZM303.427 103.608H304.419L302.011 109.094V110.643C302.011 111.067 301.766 111.323 301.242 111.301L299.101 111.201V110.42L301.097 110.521V109.094L298.677 103.608H299.681L301.42 107.923V108.347H301.687V107.923L303.427 103.608Z" fill="url(#paint9_linear_850_11)"/>
<path d="M589.277 445.139L278.161 159.298L184.597 229.763L496.99 521.925L589.277 445.139Z" fill="url(#paint10_linear_850_11)"/>
<path d="M611.517 506.709L278.161 201.437H273.559L196.611 240.532L369.68 402.298L547.095 558.211L611.517 506.709Z" fill="url(#paint11_linear_850_11)"/>
<path d="M238.538 123.012H194.568L153.665 159.766V201.671L194.568 239.128H238.538L279.44 201.671V159.766L238.538 123.012Z" fill="white" stroke="url(#paint12_linear_850_11)" stroke-width="2.32271"/>
<path d="M204.725 173.313C204.725 179.854 201.842 184.879 194.349 184.254L187.303 183.66V179.497L194.349 180.092C198.155 180.419 200.474 179.319 201.366 175.395L202.555 172.719H201.366C201.009 176.227 197.828 178.308 193.903 178.308C188.701 178.308 185.609 175.424 185.609 170.638C185.609 165.97 189.206 162.7 195.152 162.7C200.92 162.7 204.725 166.059 204.725 173.313ZM199.968 170.34C199.968 168.527 198.482 166.862 195.152 166.862C191.882 166.862 190.365 167.843 190.365 170.638C190.365 173.076 191.822 174.146 195.033 174.146C198.512 174.146 199.968 172.808 199.968 170.34ZM217.209 162.7C223.542 162.7 227.288 167.07 227.288 173.462C227.288 179.884 223.542 184.254 217.209 184.254C210.847 184.254 207.101 179.884 207.101 173.462C207.101 167.07 210.847 162.7 217.209 162.7ZM217.209 166.862C213.849 166.862 211.857 169.151 211.857 173.462C211.857 174.503 211.976 175.395 212.185 176.197L220.182 167.665C219.379 167.129 218.369 166.862 217.209 166.862ZM217.209 180.092C220.569 180.092 222.531 177.803 222.531 173.462C222.531 172.451 222.412 171.53 222.204 170.727L214.206 179.26C215.039 179.824 216.05 180.092 217.209 180.092ZM242.058 183.957L238.312 178.16L235.011 179.706V183.957H230.254V162.105H235.011V174.8L241.879 171.649L241.82 168.943H246.577V172.213C246.577 173.64 246.012 174.562 244.704 175.186L242.385 176.257L247.469 183.957H242.058ZM205.403 197.957L204.411 194.88H201.255L200.274 197.957H199.36L201.902 190.097H203.775L206.306 197.957H205.403ZM201.512 194.099H204.165L202.961 190.353H202.705L201.512 194.099ZM207.019 195.181C207.019 193.587 208.056 192.304 209.851 192.304C210.922 192.304 212.293 192.907 212.438 194.512H211.512C211.356 193.453 210.654 193.085 209.851 193.085C208.536 193.085 207.934 194.044 207.934 195.181C207.934 196.329 208.536 197.288 209.851 197.288C210.654 197.288 211.356 196.92 211.512 195.861H212.438C212.293 197.466 210.922 198.069 209.851 198.069C208.056 198.069 207.019 196.786 207.019 195.181ZM215.075 197.299L217.026 197.177V197.957L214.93 198.069C214.406 198.102 214.172 197.823 214.172 197.31V193.196H212.945V192.416H214.172V190.989L215.075 190.71V192.416H216.803V193.196H215.075V197.299ZM219.845 191.535C219.388 191.535 219.042 191.201 219.042 190.755C219.042 190.331 219.388 189.985 219.845 189.985C220.291 189.985 220.648 190.331 220.648 190.755C220.648 191.201 220.291 191.535 219.845 191.535ZM217.994 197.957V197.177H219.555V193.096L218.407 193.196V192.416L219.689 192.304C220.213 192.26 220.414 192.55 220.414 192.973V197.177H221.974V197.957H217.994ZM226.543 192.416H227.424L225.618 197.957H223.767L221.939 192.416H222.831L224.559 197.701H224.826L226.543 192.416ZM228.033 195.114C228.033 193.33 229.148 192.304 230.72 192.304C232.28 192.304 233.306 193.297 233.306 195.003V195.359H228.925C228.98 196.407 229.482 197.31 230.853 197.31C231.768 197.31 232.381 196.864 232.581 196.017H233.496C233.284 196.876 232.615 198.069 230.853 198.069C228.869 198.069 228.033 196.708 228.033 195.114ZM228.925 194.668H232.414C232.414 193.776 231.823 193.074 230.72 193.074C229.627 193.074 228.925 193.776 228.925 194.668ZM202.18 209.036V204.097H203.094V208.891C203.094 210.485 203.652 211.288 205.29 211.288C206.929 211.288 207.498 210.485 207.498 208.891V204.097H208.412V209.036C208.412 210.998 207.442 212.069 205.29 212.069C203.15 212.069 202.18 210.998 202.18 209.036ZM214.177 210.519C214.177 211.355 213.653 212.069 211.992 212.069C210.197 212.069 209.461 211.232 209.461 209.917H210.375C210.375 210.876 210.933 211.322 212.003 211.322C212.862 211.322 213.263 211.121 213.263 210.552C213.263 209.828 212.516 209.705 211.613 209.426C210.565 209.092 209.718 208.768 209.718 207.765C209.718 206.884 210.465 206.304 211.735 206.304C213.464 206.304 213.988 207.252 213.988 208.166H213.073C213.073 207.419 212.616 207.051 211.735 207.051C211.122 207.051 210.632 207.23 210.632 207.732C210.632 208.267 211.011 208.434 211.903 208.724C212.995 209.081 214.177 209.326 214.177 210.519ZM215.114 209.114C215.114 207.33 216.229 206.304 217.801 206.304C219.362 206.304 220.388 207.297 220.388 209.003V209.359H216.006C216.062 210.407 216.564 211.31 217.935 211.31C218.849 211.31 219.463 210.864 219.663 210.017H220.577C220.366 210.876 219.697 212.069 217.935 212.069C215.951 212.069 215.114 210.708 215.114 209.114ZM216.006 208.668H219.496C219.496 207.776 218.905 207.074 217.801 207.074C216.709 207.074 216.006 207.776 216.006 208.668ZM221.837 211.957V207.074C221.837 206.55 222.083 206.293 222.607 206.316L225.684 206.416V207.196L222.752 207.096V211.957H221.837ZM231.118 210.519C231.118 211.355 230.594 212.069 228.933 212.069C227.138 212.069 226.402 211.232 226.402 209.917H227.317C227.317 210.876 227.874 211.322 228.944 211.322C229.803 211.322 230.204 211.121 230.204 210.552C230.204 209.828 229.457 209.705 228.554 209.426C227.506 209.092 226.659 208.768 226.659 207.765C226.659 206.884 227.406 206.304 228.677 206.304C230.405 206.304 230.929 207.252 230.929 208.166H230.015C230.015 207.419 229.558 207.051 228.677 207.051C228.064 207.051 227.573 207.23 227.573 207.732C227.573 208.267 227.952 208.434 228.844 208.724C229.937 209.081 231.118 209.326 231.118 210.519Z" fill="url(#paint13_linear_850_11)"/>
<path d="M492.835 558.66L391.601 451.44L182.152 240.229L179.138 237.692L71.5381 252.591V295.761L419.977 639.426L492.835 558.66Z" fill="url(#paint14_linear_850_11)"/>
<path d="M180.188 283.167L501.274 598.506L484.913 698L95.5713 320.156L180.188 283.167Z" fill="url(#paint15_linear_850_11)"/>
<path d="M140.05 203.758H96.0793L55.1768 240.512V282.417L96.0793 319.873H140.05L180.952 282.417V240.512L140.05 203.758Z" fill="white" stroke="url(#paint16_linear_850_11)" stroke-width="2.32271"/>
<path d="M87.9283 258.407H92.6852C92.6852 260.934 94.0826 262.242 97.7989 262.242C101.158 262.242 102.259 260.934 102.259 258.318C102.259 256.088 101.158 254.958 98.9287 254.958C97.1746 254.958 95.7772 255.672 94.588 257.188L89.2365 254.096V245.147H105.351V249.309H93.9934V252.312L93.1015 254.988L94.0826 255.553C95.2124 252.282 97.4124 250.796 100.356 250.796C104.042 250.796 107.015 253.382 107.015 258.199C107.015 263.967 103.329 266.404 97.7989 266.404C92.269 266.404 87.9283 264.115 87.9283 258.407ZM119.231 244.85C125.564 244.85 129.31 249.22 129.31 255.612C129.31 262.034 125.564 266.404 119.231 266.404C112.869 266.404 109.123 262.034 109.123 255.612C109.123 249.22 112.869 244.85 119.231 244.85ZM119.231 249.012C115.872 249.012 113.88 251.301 113.88 255.612C113.88 256.653 113.999 257.545 114.207 258.347L122.205 249.815C121.402 249.28 120.391 249.012 119.231 249.012ZM119.231 262.242C122.591 262.242 124.553 259.953 124.553 255.612C124.553 254.601 124.434 253.68 124.226 252.877L116.229 261.41C117.061 261.975 118.072 262.242 119.231 262.242ZM144.08 266.107L140.334 260.31L137.034 261.856V266.107H132.277V244.255H137.034V256.95L143.902 253.799L143.842 251.093H148.599V254.364C148.599 255.791 148.034 256.712 146.726 257.337L144.407 258.407L149.491 266.107H144.08ZM92.1308 273.028H90.3804V279.327H92.1308V280.107H87.7046V279.327H89.4662V273.028H87.7046V272.247H92.1308V273.028ZM96.344 275.235C95.1734 275.235 94.3484 276.16 94.3484 277.654V280.107H93.4342V274.566H94.3484V275.525L94.2034 276.16H94.4599C94.6828 275.157 95.3852 274.455 96.5893 274.455C97.838 274.455 98.6519 275.179 98.6519 276.718V280.107H97.7488V276.841C97.7488 275.681 97.2917 275.235 96.344 275.235ZM103.886 280.107V272.247H106.495C108.368 272.247 109.561 272.682 109.561 274.443C109.561 275.625 108.948 276.149 108.101 276.294V276.562H109.037C109.483 276.562 109.662 276.74 109.662 277.153V280.107H108.747V276.952H104.801V280.107H103.886ZM104.801 276.172H106.495C107.833 276.172 108.647 276.038 108.647 274.6C108.647 273.15 107.833 273.028 106.495 273.028H104.801V276.172ZM110.904 277.264C110.904 275.48 112.019 274.455 113.591 274.455C115.151 274.455 116.177 275.447 116.177 277.153V277.509H111.796C111.851 278.557 112.353 279.461 113.724 279.461C114.639 279.461 115.252 279.015 115.452 278.167H116.367C116.155 279.026 115.486 280.219 113.724 280.219C111.74 280.219 110.904 278.858 110.904 277.264ZM111.796 276.818H115.285C115.285 275.926 114.694 275.224 113.591 275.224C112.498 275.224 111.796 275.926 111.796 276.818ZM116.96 274.566H117.83L119.168 279.851H119.435L120.55 274.566H122.434L123.56 279.851H123.817L125.166 274.566H126.024L124.62 280.107H122.758L121.632 274.834H121.364L120.238 280.107H118.365L116.96 274.566ZM126.745 278.569C126.745 277.688 127.269 277.086 128.563 276.952L130.77 276.74C130.714 275.726 130.168 275.224 129.209 275.224C128.406 275.224 127.659 275.581 127.659 276.629H126.768C126.768 275.48 127.637 274.455 129.209 274.455C130.759 274.455 131.684 275.48 131.684 276.963V279.327H132.498V280.107H131.517C131.093 280.107 130.859 279.873 130.859 279.461V279.16L131.004 278.58H130.737C130.525 279.427 129.934 280.219 128.596 280.219C126.991 280.219 126.745 279.148 126.745 278.569ZM127.659 278.457C127.659 279.093 128.061 279.438 128.707 279.438C129.967 279.438 130.77 278.569 130.77 277.42L128.719 277.632C128.016 277.699 127.659 277.911 127.659 278.457ZM133.544 280.107V275.224C133.544 274.7 133.79 274.443 134.314 274.466L137.391 274.566V275.347L134.459 275.246V280.107H133.544ZM143.76 280.107H142.845V279.293L143.002 278.669H142.734C142.5 279.527 141.753 280.219 140.493 280.219C138.888 280.219 137.851 278.981 137.851 277.331C137.851 275.692 138.888 274.455 140.493 274.455C141.753 274.455 142.5 275.146 142.734 276.015H143.002L142.845 275.38V271.913H143.76V280.107ZM142.845 277.331C142.845 275.859 141.909 275.235 140.761 275.235C139.612 275.235 138.765 275.859 138.765 277.331C138.765 278.814 139.612 279.438 140.761 279.438C141.909 279.438 142.845 278.814 142.845 277.331ZM149.75 278.669C149.75 279.505 149.226 280.219 147.565 280.219C145.77 280.219 145.034 279.382 145.034 278.067H145.948C145.948 279.026 146.506 279.472 147.576 279.472C148.434 279.472 148.836 279.271 148.836 278.702C148.836 277.978 148.089 277.855 147.186 277.576C146.138 277.242 145.29 276.919 145.29 275.915C145.29 275.034 146.037 274.455 147.308 274.455C149.036 274.455 149.56 275.402 149.56 276.317H148.646C148.646 275.57 148.189 275.202 147.308 275.202C146.695 275.202 146.205 275.38 146.205 275.882C146.205 276.417 146.584 276.584 147.476 276.874C148.568 277.231 149.75 277.476 149.75 278.669Z" fill="url(#paint17_linear_850_11)"/>
<path d="M646.362 218.776L457.928 36.4976L364.187 53.4791L370.846 113.376L511.356 242.303L654.943 374.813L732 317.592L646.362 218.776Z" fill="url(#paint18_linear_850_11)"/>
<path d="M685.399 286.127L456.191 76.2297L446.62 58.9305L456.191 34.9421L590.19 162.265L629.986 184.408L685.399 286.127Z" fill="url(#paint19_linear_850_11)"/>
<path d="M333.727 37.4068L373.905 1.3033H416.962L457.14 37.4068V78.238L416.955 115.038H373.912L333.727 78.238V37.4068Z" fill="white" stroke="url(#paint20_linear_850_11)" stroke-width="2.6066"/>
<path d="M361.061 49.3224C361.061 41.9822 364.297 36.3436 372.705 37.0443L380.612 37.7116V42.3826L372.705 41.7153C368.434 41.3483 365.832 42.5828 364.831 46.9869L363.496 49.9897H364.831C365.231 46.0527 368.801 43.7172 373.205 43.7172C379.044 43.7172 382.514 46.9535 382.514 52.3252C382.514 57.5635 378.477 61.2335 371.804 61.2335C365.331 61.2335 361.061 57.4634 361.061 49.3224ZM366.399 52.6589C366.399 54.6941 368.067 56.5625 371.804 56.5625C375.474 56.5625 377.176 55.4615 377.176 52.3252C377.176 49.5893 375.541 48.3882 371.937 48.3882C368.034 48.3882 366.399 49.8896 366.399 52.6589ZM396.182 37.0443C403.288 37.0443 407.492 41.9489 407.492 49.1222C407.492 56.329 403.288 61.2335 396.182 61.2335C389.042 61.2335 384.838 56.329 384.838 49.1222C384.838 41.9489 389.042 37.0443 396.182 37.0443ZM396.182 41.7153C392.412 41.7153 390.176 44.2844 390.176 49.1222C390.176 50.29 390.31 51.2909 390.543 52.1918L399.518 42.6162C398.617 42.0156 397.483 41.7153 396.182 41.7153ZM396.182 56.5625C399.952 56.5625 402.154 53.9935 402.154 49.1222C402.154 47.9878 402.021 46.9535 401.787 46.0527L392.812 55.6283C393.746 56.2622 394.881 56.5625 396.182 56.5625ZM429.172 49.8896V53.8934H422.166V60.8999H418.162V53.8934H411.155V49.8896H418.162V42.8831H422.166V49.8896H429.172ZM372.349 76.8999V68.0792H374.413L376.916 76.6121H377.203L379.718 68.0792H381.77V76.8999H380.744V69.1051L380.919 68.3669H380.619L378.092 76.8999H376.027L373.5 68.3669H373.212L373.375 69.1051V76.8999H372.349ZM385.27 69.6932C384.757 69.6932 384.369 69.3178 384.369 68.8174C384.369 68.3419 384.757 67.9541 385.27 67.9541C385.77 67.9541 386.171 68.3419 386.171 68.8174C386.171 69.3178 385.77 69.6932 385.27 69.6932ZM383.193 76.8999V76.0241H384.945V71.4448L383.656 71.5574V70.6816L385.095 70.5565C385.683 70.5064 385.908 70.8317 385.908 71.3072V76.0241H387.66V76.8999H383.193ZM388.615 76.8999V76.0241H390.367V68.467L389.078 68.5796V67.7038L390.529 67.5787C391.105 67.5287 391.38 67.854 391.38 68.442V76.0241H393.119V76.8999H388.615ZM394.077 76.8999V76.0241H395.828V68.467L394.54 68.5796V67.7038L395.991 67.5787C396.567 67.5287 396.842 67.854 396.842 68.442V76.0241H398.581V76.8999H394.077ZM401.716 69.6932C401.203 69.6932 400.815 69.3178 400.815 68.8174C400.815 68.3419 401.203 67.9541 401.716 67.9541C402.216 67.9541 402.617 68.3419 402.617 68.8174C402.617 69.3178 402.216 69.6932 401.716 69.6932ZM399.639 76.8999V76.0241H401.391V71.4448L400.102 71.5574V70.6816L401.541 70.5565C402.129 70.5064 402.354 70.8317 402.354 71.3072V76.0241H404.106V76.8999H399.639ZM404.807 73.7845C404.807 71.9828 406.109 70.5565 408.098 70.5565C410.075 70.5565 411.364 71.9828 411.364 73.7845C411.364 75.5987 410.075 77.025 408.098 77.025C406.109 77.025 404.807 75.5987 404.807 73.7845ZM405.833 73.7845C405.833 75.0857 406.622 76.1492 408.098 76.1492C409.562 76.1492 410.35 75.0857 410.35 73.7845C410.35 72.4958 409.562 71.4323 408.098 71.4323C406.622 71.4323 405.833 72.4958 405.833 73.7845ZM416.058 71.4323C414.744 71.4323 413.818 72.4708 413.818 74.1473V76.8999H412.792V70.6816H413.818V71.7576L413.655 72.4708H413.943C414.193 71.3447 414.982 70.5565 416.333 70.5565C417.734 70.5565 418.647 71.3697 418.647 73.0964V76.8999H417.634V73.234C417.634 71.9328 417.121 71.4323 416.058 71.4323Z" fill="#5852F2"/>
<path d="M374.43 77.6473V78.2312H372.395V83.5278H371.719V78.2312H369.667V77.6473H374.43ZM374.324 83.5278V79.8744C374.324 79.4824 374.508 79.2905 374.9 79.3072L377.202 79.3823V79.9662L375.008 79.8911V83.5278H374.324ZM377.815 82.3768C377.815 81.7178 378.207 81.2674 379.174 81.1673L380.826 81.0088C380.784 80.2498 380.376 79.8744 379.658 79.8744C379.058 79.8744 378.499 80.1413 378.499 80.9254H377.832C377.832 80.0663 378.482 79.2989 379.658 79.2989C380.818 79.2989 381.51 80.0663 381.51 81.1756V82.944H382.119V83.5278H381.385C381.068 83.5278 380.893 83.3527 380.893 83.044V82.8188L381.001 82.3851H380.801C380.642 83.019 380.2 83.6112 379.199 83.6112C377.998 83.6112 377.815 82.8105 377.815 82.3768ZM378.499 82.2933C378.499 82.7688 378.799 83.0274 379.283 83.0274C380.225 83.0274 380.826 82.3768 380.826 81.5176L379.291 81.6761C378.766 81.7262 378.499 81.8846 378.499 82.2933ZM385.079 79.8828C384.203 79.8828 383.586 80.5751 383.586 81.6928V83.5278H382.902V79.3823H383.586V80.0996L383.477 80.5751H383.669C383.836 79.8244 384.361 79.2989 385.262 79.2989C386.196 79.2989 386.805 79.8411 386.805 80.9921V83.5278H386.13V81.0839C386.13 80.2164 385.788 79.8828 385.079 79.8828ZM391.189 82.4518C391.189 83.0774 390.797 83.6112 389.554 83.6112C388.211 83.6112 387.661 82.9857 387.661 82.0014H388.345C388.345 82.7187 388.762 83.0524 389.563 83.0524C390.205 83.0524 390.505 82.9022 390.505 82.4769C390.505 81.9347 389.946 81.8429 389.271 81.6344C388.487 81.3842 387.853 81.1423 387.853 80.3916C387.853 79.7326 388.412 79.2989 389.363 79.2989C390.655 79.2989 391.047 80.0079 391.047 80.6919H390.363C390.363 80.133 390.021 79.8577 389.363 79.8577C388.904 79.8577 388.537 79.9912 388.537 80.3665C388.537 80.7669 388.82 80.892 389.488 81.1089C390.305 81.3758 391.189 81.5593 391.189 82.4518ZM391.825 82.3768C391.825 81.7178 392.217 81.2674 393.185 81.1673L394.836 81.0088C394.795 80.2498 394.386 79.8744 393.669 79.8744C393.068 79.8744 392.509 80.1413 392.509 80.9254H391.842C391.842 80.0663 392.493 79.2989 393.669 79.2989C394.828 79.2989 395.52 80.0663 395.52 81.1756V82.944H396.129V83.5278H395.395C395.078 83.5278 394.903 83.3527 394.903 83.044V82.8188L395.012 82.3851H394.811C394.653 83.019 394.211 83.6112 393.21 83.6112C392.009 83.6112 391.825 82.8105 391.825 82.3768ZM392.509 82.2933C392.509 82.7688 392.81 83.0274 393.293 83.0274C394.236 83.0274 394.836 82.3768 394.836 81.5176L393.302 81.6761C392.776 81.7262 392.509 81.8846 392.509 82.2933ZM396.599 81.4509C396.599 80.2581 397.374 79.2989 398.717 79.2989C399.518 79.2989 400.544 79.7493 400.652 80.9504H399.96C399.843 80.158 399.318 79.8828 398.717 79.8828C397.733 79.8828 397.283 80.6001 397.283 81.4509C397.283 82.31 397.733 83.0274 398.717 83.0274C399.318 83.0274 399.843 82.7521 399.96 81.9597H400.652C400.544 83.1608 399.518 83.6112 398.717 83.6112C397.374 83.6112 396.599 82.652 396.599 81.4509ZM402.625 83.0357L404.085 82.944V83.5278L402.517 83.6112C402.125 83.6363 401.95 83.4277 401.95 83.044V79.9662H401.032V79.3823H401.95V78.3146L402.625 78.1061V79.3823H403.918V79.9662H402.625V83.0357ZM406.194 78.7233C405.852 78.7233 405.594 78.4731 405.594 78.1395C405.594 77.8225 405.852 77.5639 406.194 77.5639C406.528 77.5639 406.795 77.8225 406.795 78.1395C406.795 78.4731 406.528 78.7233 406.194 78.7233ZM404.809 83.5278V82.944H405.977V79.8911L405.118 79.9662V79.3823L406.077 79.2989C406.469 79.2655 406.619 79.4824 406.619 79.7994V82.944H407.787V83.5278H404.809ZM408.255 81.4509C408.255 80.2498 409.123 79.2989 410.449 79.2989C411.767 79.2989 412.626 80.2498 412.626 81.4509C412.626 82.6604 411.767 83.6112 410.449 83.6112C409.123 83.6112 408.255 82.6604 408.255 81.4509ZM408.939 81.4509C408.939 82.3184 409.465 83.0274 410.449 83.0274C411.425 83.0274 411.95 82.3184 411.95 81.4509C411.95 80.5918 411.425 79.8828 410.449 79.8828C409.465 79.8828 408.939 80.5918 408.939 81.4509ZM415.755 79.8828C414.879 79.8828 414.262 80.5751 414.262 81.6928V83.5278H413.578V79.3823H414.262V80.0996L414.154 80.5751H414.345C414.512 79.8244 415.038 79.2989 415.939 79.2989C416.873 79.2989 417.482 79.8411 417.482 80.9921V83.5278H416.806V81.0839C416.806 80.2164 416.464 79.8828 415.755 79.8828ZM421.866 82.4518C421.866 83.0774 421.474 83.6112 420.231 83.6112C418.888 83.6112 418.337 82.9857 418.337 82.0014H419.021C419.021 82.7187 419.438 83.0524 420.239 83.0524C420.881 83.0524 421.182 82.9022 421.182 82.4769C421.182 81.9347 420.623 81.8429 419.947 81.6344C419.163 81.3842 418.529 81.1423 418.529 80.3916C418.529 79.7326 419.088 79.2989 420.039 79.2989C421.332 79.2989 421.724 80.0079 421.724 80.6919H421.04C421.04 80.133 420.698 79.8577 420.039 79.8577C419.58 79.8577 419.213 79.9912 419.213 80.3665C419.213 80.7669 419.497 80.892 420.164 81.1089C420.982 81.3758 421.866 81.5593 421.866 82.4518Z" fill="#5852F2"/>
<defs>
<linearGradient id="paint0_linear_850_11" x1="28.6289" y1="156.898" x2="640.799" y2="95.7839" gradientUnits="userSpaceOnUse">
<stop stop-color="#5852F2"/>
<stop offset="0.443709" stop-color="#A0A1F1"/>
<stop offset="0.653159" stop-color="#C7CCF1"/>
<stop offset="0.786458" stop-color="#98BCEF"/>
<stop offset="1" stop-color="#0C8BE8"/>
</linearGradient>
<linearGradient id="paint1_linear_850_11" x1="1.59734e-06" y1="101.798" x2="138.341" y2="88.2685" gradientUnits="userSpaceOnUse">
<stop stop-color="#5852F2"/>
<stop offset="0.443709" stop-color="#A0A1F1"/>
<stop offset="0.653159" stop-color="#C7CCF1"/>
<stop offset="0.786458" stop-color="#98BCEF"/>
<stop offset="1" stop-color="#0C8BE8"/>
</linearGradient>
<linearGradient id="paint2_linear_850_11" x1="54.7515" y1="176.876" x2="41.7221" y2="89.7926" gradientUnits="userSpaceOnUse">
<stop stop-color="#5852F2"/>
<stop offset="0.452768" stop-color="#C7CCF1"/>
<stop offset="0.932865" stop-color="#0C8BE8"/>
</linearGradient>
<linearGradient id="paint3_linear_850_11" x1="65.3468" y1="171.356" x2="201.198" y2="-45.718" gradientUnits="userSpaceOnUse">
<stop stop-color="#5852F2"/>
<stop offset="0.452768" stop-color="#C7CCF1"/>
<stop offset="1" stop-color="#0C8BE8"/>
</linearGradient>
<linearGradient id="paint4_linear_850_11" x1="77.4893" y1="15.8197" x2="215.831" y2="2.29" gradientUnits="userSpaceOnUse">
<stop stop-color="#5852F2"/>
<stop offset="0.443709" stop-color="#A0A1F1"/>
<stop offset="0.653159" stop-color="#C7CCF1"/>
<stop offset="0.786458" stop-color="#98BCEF"/>
<stop offset="1" stop-color="#0C8BE8"/>
</linearGradient>
<linearGradient id="paint5_linear_850_11" x1="106.372" y1="43.5855" x2="177.742" y2="36.6095" gradientUnits="userSpaceOnUse">
<stop stop-color="#5852F2"/>
<stop offset="0.443709" stop-color="#A0A1F1"/>
<stop offset="0.653159" stop-color="#C7CCF1"/>
<stop offset="0.786458" stop-color="#98BCEF"/>
<stop offset="1" stop-color="#0C8BE8"/>
</linearGradient>
<linearGradient id="paint6_linear_850_11" x1="467.012" y1="75.2189" x2="80.3384" y2="297.079" gradientUnits="userSpaceOnUse">
<stop stop-color="#9F9BFF"/>
<stop offset="0.452768" stop-color="#C7CCF1"/>
<stop offset="1" stop-color="#0C8BE8"/>
</linearGradient>
<linearGradient id="paint7_linear_850_11" x1="301.146" y1="169.695" x2="752.57" y2="252.052" gradientUnits="userSpaceOnUse">
<stop stop-color="#5852F2"/>
<stop offset="0.452768" stop-color="#C7CCF1"/>
<stop offset="1" stop-color="#0C8BE8"/>
</linearGradient>
<linearGradient id="paint8_linear_850_11" x1="222.619" y1="29.4946" x2="360.961" y2="15.9648" gradientUnits="userSpaceOnUse">
<stop stop-color="#5852F2"/>
<stop offset="0.443709" stop-color="#A0A1F1"/>
<stop offset="0.653159" stop-color="#C7CCF1"/>
<stop offset="0.786458" stop-color="#98BCEF"/>
<stop offset="1" stop-color="#0C8BE8"/>
</linearGradient>
<linearGradient id="paint9_linear_850_11" x1="312.465" y1="53.9116" x2="268.711" y2="131.492" gradientUnits="userSpaceOnUse">
<stop stop-color="#5852F2"/>
<stop offset="0.452768" stop-color="#C7CCF1"/>
<stop offset="1" stop-color="#0C8BE8"/>
</linearGradient>
<linearGradient id="paint10_linear_850_11" x1="184.597" y1="179.538" x2="629.448" y2="134.715" gradientUnits="userSpaceOnUse">
<stop stop-color="#5852F2"/>
<stop offset="0.443709" stop-color="#A0A1F1"/>
<stop offset="0.653159" stop-color="#C7CCF1"/>
<stop offset="0.786458" stop-color="#98BCEF"/>
<stop offset="1" stop-color="#0C8BE8"/>
</linearGradient>
<linearGradient id="paint11_linear_850_11" x1="196.611" y1="221.35" x2="652.31" y2="173.502" gradientUnits="userSpaceOnUse">
<stop stop-color="#5852F2"/>
<stop offset="0.443709" stop-color="#A0A1F1"/>
<stop offset="0.653159" stop-color="#C7CCF1"/>
<stop offset="0.786458" stop-color="#98BCEF"/>
<stop offset="1" stop-color="#0C8BE8"/>
</linearGradient>
<linearGradient id="paint12_linear_850_11" x1="153.665" y1="129.493" x2="292.006" y2="115.963" gradientUnits="userSpaceOnUse">
<stop stop-color="#5852F2"/>
<stop offset="0.443709" stop-color="#A0A1F1"/>
<stop offset="0.653159" stop-color="#C7CCF1"/>
<stop offset="0.786458" stop-color="#98BCEF"/>
<stop offset="1" stop-color="#0C8BE8"/>
</linearGradient>
<linearGradient id="paint13_linear_850_11" x1="221.943" y1="224.267" x2="155.304" y2="192.625" gradientUnits="userSpaceOnUse">
<stop stop-color="#5852F2"/>
<stop offset="0.452768" stop-color="#C7CCF1"/>
<stop offset="1" stop-color="#0C8BE8"/>
</linearGradient>
<linearGradient id="paint14_linear_850_11" x1="294.713" y1="510.2" x2="-68.9608" y2="262.692" gradientUnits="userSpaceOnUse">
<stop stop-color="#5852F2"/>
<stop offset="0.452768" stop-color="#C7CCF1"/>
<stop offset="1" stop-color="#0C8BE8"/>
</linearGradient>
<linearGradient id="paint15_linear_850_11" x1="95.5713" y1="306.321" x2="542.589" y2="266.849" gradientUnits="userSpaceOnUse">
<stop stop-color="#5852F2"/>
<stop offset="0.443709" stop-color="#A0A1F1"/>
<stop offset="0.653159" stop-color="#C7CCF1"/>
<stop offset="0.786458" stop-color="#98BCEF"/>
<stop offset="1" stop-color="#0C8BE8"/>
</linearGradient>
<linearGradient id="paint16_linear_850_11" x1="55.1768" y1="210.238" x2="193.518" y2="196.709" gradientUnits="userSpaceOnUse">
<stop stop-color="#5852F2"/>
<stop offset="0.443709" stop-color="#A0A1F1"/>
<stop offset="0.653159" stop-color="#C7CCF1"/>
<stop offset="0.786458" stop-color="#98BCEF"/>
<stop offset="1" stop-color="#0C8BE8"/>
</linearGradient>
<linearGradient id="paint17_linear_850_11" x1="83.2959" y1="241.645" x2="160.106" y2="230.888" gradientUnits="userSpaceOnUse">
<stop stop-color="#5852F2"/>
<stop offset="0.443709" stop-color="#A0A1F1"/>
<stop offset="0.653159" stop-color="#C7CCF1"/>
<stop offset="0.786458" stop-color="#98BCEF"/>
<stop offset="1" stop-color="#0C8BE8"/>
</linearGradient>
<linearGradient id="paint18_linear_850_11" x1="434.534" y1="83.6108" x2="773.352" y2="100.712" gradientUnits="userSpaceOnUse">
<stop stop-color="#5852F2"/>
<stop offset="0.445711" stop-color="#C7CCF1"/>
<stop offset="1" stop-color="#0C8BE8"/>
</linearGradient>
<linearGradient id="paint19_linear_850_11" x1="446.62" y1="48.9618" x2="709.828" y2="26.3709" gradientUnits="userSpaceOnUse">
<stop stop-color="#5852F2"/>
<stop offset="0.443709" stop-color="#A0A1F1"/>
<stop offset="0.653159" stop-color="#C7CCF1"/>
<stop offset="0.786458" stop-color="#98BCEF"/>
<stop offset="1" stop-color="#0C8BE8"/>
</linearGradient>
<linearGradient id="paint20_linear_850_11" x1="332.424" y1="6.49346" x2="471.034" y2="-7.06256" gradientUnits="userSpaceOnUse">
<stop stop-color="#5852F2"/>
<stop offset="0.443709" stop-color="#A0A1F1"/>
<stop offset="0.653159" stop-color="#C7CCF1"/>
<stop offset="0.786458" stop-color="#98BCEF"/>
<stop offset="1" stop-color="#0C8BE8"/>
</linearGradient>
</defs>
</svg>
