<svg width="60" height="47" viewBox="0 0 60 47" fill="none" xmlns="http://www.w3.org/2000/svg">
<g clip-path="url(#clip0_784_9072)">
<path d="M10.3414 35.2953C10.6979 34.9389 11.1813 34.7388 11.6854 34.7388H58.1921C59.0393 34.7388 59.4633 35.7633 58.864 36.3621L49.6744 45.5444C49.3179 45.9008 48.8345 46.1008 48.3305 46.1008H1.82375C0.97654 46.1008 0.55243 45.0764 1.15173 44.4776L10.3414 35.2953Z" fill="url(#paint0_linear_784_9072)"/>
<path d="M10.3414 0.991458C10.6979 0.635187 11.1813 0.435059 11.6854 0.435059H58.1921C59.0393 0.435059 59.4633 1.45952 58.864 2.05835L49.6744 11.2407C49.3179 11.5969 48.8345 11.7971 48.3305 11.7971H1.82375C0.97654 11.7971 0.55243 10.7726 1.15173 10.1738L10.3414 0.991458Z" fill="url(#paint1_linear_784_9072)"/>
<path d="M49.6744 18.0344C49.3179 17.678 48.8345 17.478 48.3305 17.478H1.82375C0.97654 17.478 0.552431 18.5024 1.15173 19.1012L10.3414 28.2835C10.6979 28.6399 11.1813 28.84 11.6854 28.84H58.1921C59.0393 28.84 59.4633 27.8155 58.864 27.2167L49.6744 18.0344Z" fill="url(#paint2_linear_784_9072)"/>
</g>
<defs>
<linearGradient id="paint0_linear_784_9072" x1="40.2675" y1="-12.0923" x2="8.08092" y2="49.558" gradientUnits="userSpaceOnUse">
<stop stop-color="#00FFA3"/>
<stop offset="1" stop-color="#DC1FFF"/>
</linearGradient>
<linearGradient id="paint1_linear_784_9072" x1="40.2675" y1="-12.0915" x2="8.08092" y2="49.5588" gradientUnits="userSpaceOnUse">
<stop stop-color="#00FFA3"/>
<stop offset="1" stop-color="#DC1FFF"/>
</linearGradient>
<linearGradient id="paint2_linear_784_9072" x1="40.2675" y1="-12.0916" x2="8.08092" y2="49.5587" gradientUnits="userSpaceOnUse">
<stop stop-color="#00FFA3"/>
<stop offset="1" stop-color="#DC1FFF"/>
</linearGradient>
<clipPath id="clip0_784_9072">
<rect width="58.317" height="45.7158" fill="white" transform="translate(0.873047 0.436035)"/>
</clipPath>
</defs>
</svg>
