<svg width="739" height="578" viewBox="0 0 739 578" fill="none" xmlns="http://www.w3.org/2000/svg">
<g clip-path="url(#clip0_784_8867)">
<rect width="738.213" height="577.242" fill="#1F1D55"/>
<path d="M771.046 862.684L302.941 392.789L298.071 389.201L204.429 468.289L684.935 948.795L771.046 862.684Z" fill="url(#paint0_linear_784_8867)"/>
<path d="M615.505 549.389L378.606 293.751L289.792 328.412L288.124 377.313L644.383 758.293L718.527 668.54L615.505 549.389Z" fill="url(#paint1_linear_784_8867)"/>
<path d="M800.661 582.016L530.62 311.975L442.428 399.647L717.47 672.81L800.661 582.016Z" fill="url(#paint2_linear_784_8867)"/>
<path d="M811.673 640.374L529.322 358.023H515.273L443.471 400.688L698.917 654.271L811.673 640.374Z" fill="url(#paint3_linear_784_8867)"/>
<path d="M774.976 740.75L458.367 423.101L363.15 501.407L681.06 826.081L774.976 740.75Z" fill="url(#paint4_linear_784_8867)"/>
<path d="M797.608 809.171L458.366 469.929H453.684L375.377 513.375L551.502 693.142L732.049 866.405L797.608 809.171Z" fill="url(#paint5_linear_784_8867)"/>
<path d="M676.83 866.903L573.809 747.752L360.661 513.037L357.594 510.218L248.095 526.776V574.749L602.686 956.656L676.83 866.903Z" fill="url(#paint6_linear_784_8867)"/>
<path d="M358.662 560.754L685.417 911.183L668.767 1021.75L272.551 601.859L358.662 560.754Z" fill="url(#paint7_linear_784_8867)"/>
<path d="M833.069 489.197L641.307 286.635L545.911 305.507L552.688 372.068L695.679 515.342L841.802 662.598L920.219 599.01L833.069 489.197Z" fill="url(#paint8_linear_784_8867)"/>
<path d="M872.796 564.044L639.541 330.789L629.801 311.564L639.541 284.907L775.905 426.398L816.405 451.005L872.796 564.044Z" fill="url(#paint9_linear_784_8867)"/>
<path d="M556.245 332.128V332.712H554.21V338.009H553.535V332.712H551.483V332.128H556.245ZM556.14 338.009V334.355C556.14 333.963 556.323 333.771 556.715 333.788L559.017 333.863V334.447L556.824 334.372V338.009H556.14ZM559.63 336.857C559.63 336.199 560.022 335.748 560.99 335.648L562.641 335.49C562.6 334.73 562.191 334.355 561.474 334.355C560.873 334.355 560.314 334.622 560.314 335.406H559.647C559.647 334.547 560.298 333.78 561.474 333.78C562.633 333.78 563.325 334.547 563.325 335.656V337.425H563.934V338.009H563.2C562.883 338.009 562.708 337.833 562.708 337.525V337.3L562.817 336.866H562.616C562.458 337.5 562.016 338.092 561.015 338.092C559.814 338.092 559.63 337.291 559.63 336.857ZM560.314 336.774C560.314 337.25 560.615 337.508 561.098 337.508C562.041 337.508 562.641 336.857 562.641 335.998L561.107 336.157C560.581 336.207 560.314 336.365 560.314 336.774ZM566.894 334.363C566.018 334.363 565.401 335.056 565.401 336.173V338.009H564.717V333.863H565.401V334.58L565.293 335.056H565.484C565.651 334.305 566.177 333.78 567.078 333.78C568.012 333.78 568.621 334.322 568.621 335.473V338.009H567.945V335.565C567.945 334.697 567.603 334.363 566.894 334.363ZM573.005 336.933C573.005 337.558 572.613 338.092 571.37 338.092C570.027 338.092 569.476 337.466 569.476 336.482H570.16C570.16 337.199 570.577 337.533 571.378 337.533C572.02 337.533 572.321 337.383 572.321 336.958C572.321 336.415 571.762 336.324 571.086 336.115C570.302 335.865 569.668 335.623 569.668 334.872C569.668 334.213 570.227 333.78 571.178 333.78C572.471 333.78 572.863 334.489 572.863 335.173H572.179C572.179 334.614 571.837 334.338 571.178 334.338C570.719 334.338 570.352 334.472 570.352 334.847C570.352 335.248 570.636 335.373 571.303 335.59C572.121 335.857 573.005 336.04 573.005 336.933ZM573.641 336.857C573.641 336.199 574.033 335.748 575 335.648L576.652 335.49C576.61 334.73 576.201 334.355 575.484 334.355C574.884 334.355 574.325 334.622 574.325 335.406H573.657C573.657 334.547 574.308 333.78 575.484 333.78C576.644 333.78 577.336 334.547 577.336 335.656V337.425H577.945V338.009H577.211C576.894 338.009 576.719 337.833 576.719 337.525V337.3L576.827 336.866H576.627C576.468 337.5 576.026 338.092 575.025 338.092C573.824 338.092 573.641 337.291 573.641 336.857ZM574.325 336.774C574.325 337.25 574.625 337.508 575.109 337.508C576.051 337.508 576.652 336.857 576.652 335.998L575.117 336.157C574.592 336.207 574.325 336.365 574.325 336.774ZM578.414 335.932C578.414 334.739 579.19 333.78 580.533 333.78C581.333 333.78 582.359 334.23 582.468 335.431H581.776C581.659 334.639 581.133 334.363 580.533 334.363C579.548 334.363 579.098 335.081 579.098 335.932C579.098 336.791 579.548 337.508 580.533 337.508C581.133 337.508 581.659 337.233 581.776 336.44H582.468C582.359 337.642 581.333 338.092 580.533 338.092C579.19 338.092 578.414 337.133 578.414 335.932ZM584.441 337.516L585.9 337.425V338.009L584.332 338.092C583.94 338.117 583.765 337.908 583.765 337.525V334.447H582.848V333.863H583.765V332.795L584.441 332.587V333.863H585.734V334.447H584.441V337.516ZM588.009 333.204C587.668 333.204 587.409 332.954 587.409 332.62C587.409 332.303 587.668 332.045 588.009 332.045C588.343 332.045 588.61 332.303 588.61 332.62C588.61 332.954 588.343 333.204 588.009 333.204ZM586.625 338.009V337.425H587.793V334.372L586.933 334.447V333.863L587.893 333.78C588.285 333.746 588.435 333.963 588.435 334.28V337.425H589.603V338.009H586.625ZM590.07 335.932C590.07 334.73 590.938 333.78 592.264 333.78C593.582 333.78 594.441 334.73 594.441 335.932C594.441 337.141 593.582 338.092 592.264 338.092C590.938 338.092 590.07 337.141 590.07 335.932ZM590.754 335.932C590.754 336.799 591.28 337.508 592.264 337.508C593.24 337.508 593.766 336.799 593.766 335.932C593.766 335.072 593.24 334.363 592.264 334.363C591.28 334.363 590.754 335.072 590.754 335.932ZM597.571 334.363C596.695 334.363 596.077 335.056 596.077 336.173V338.009H595.393V333.863H596.077V334.58L595.969 335.056H596.161C596.328 334.305 596.853 333.78 597.754 333.78C598.688 333.78 599.297 334.322 599.297 335.473V338.009H598.621V335.565C598.621 334.697 598.28 334.363 597.571 334.363ZM603.681 336.933C603.681 337.558 603.289 338.092 602.046 338.092C600.703 338.092 600.153 337.466 600.153 336.482H600.837C600.837 337.199 601.254 337.533 602.055 337.533C602.697 337.533 602.997 337.383 602.997 336.958C602.997 336.415 602.438 336.324 601.763 336.115C600.979 335.865 600.345 335.623 600.345 334.872C600.345 334.213 600.904 333.78 601.854 333.78C603.147 333.78 603.539 334.489 603.539 335.173H602.855C602.855 334.614 602.513 334.338 601.854 334.338C601.396 334.338 601.029 334.472 601.029 334.847C601.029 335.248 601.312 335.373 601.98 335.59C602.797 335.857 603.681 336.04 603.681 336.933Z" fill="#5852F2"/>
</g>
<defs>
<linearGradient id="paint0_linear_784_8867" x1="204.429" y1="420.434" x2="828.402" y2="363.389" gradientUnits="userSpaceOnUse">
<stop stop-color="#5852F2"/>
<stop offset="0.443709" stop-color="#A0A1F1"/>
<stop offset="0.653159" stop-color="#C7CCF1"/>
<stop offset="0.786458" stop-color="#98BCEF"/>
<stop offset="1" stop-color="#0C8BE8"/>
</linearGradient>
<linearGradient id="paint1_linear_784_8867" x1="241.796" y1="436.5" x2="398.182" y2="207.666" gradientUnits="userSpaceOnUse">
<stop stop-color="#5852F2"/>
<stop offset="0.452768" stop-color="#C7CCF1"/>
<stop offset="1" stop-color="#0C8BE8"/>
</linearGradient>
<linearGradient id="paint2_linear_784_8867" x1="650.552" y1="329.665" x2="240.666" y2="545.03" gradientUnits="userSpaceOnUse">
<stop stop-color="#9F9BFF"/>
<stop offset="0.452768" stop-color="#C7CCF1"/>
<stop offset="1" stop-color="#0C8BE8"/>
</linearGradient>
<linearGradient id="paint3_linear_784_8867" x1="481.759" y1="434.654" x2="943.554" y2="511.806" gradientUnits="userSpaceOnUse">
<stop stop-color="#5852F2"/>
<stop offset="0.452768" stop-color="#C7CCF1"/>
<stop offset="1" stop-color="#0C8BE8"/>
</linearGradient>
<linearGradient id="paint4_linear_784_8867" x1="363.15" y1="445.593" x2="816.592" y2="403.754" gradientUnits="userSpaceOnUse">
<stop stop-color="#5852F2"/>
<stop offset="0.443709" stop-color="#A0A1F1"/>
<stop offset="0.653159" stop-color="#C7CCF1"/>
<stop offset="0.786458" stop-color="#98BCEF"/>
<stop offset="1" stop-color="#0C8BE8"/>
</linearGradient>
<linearGradient id="paint5_linear_784_8867" x1="375.377" y1="492.058" x2="839.939" y2="447.388" gradientUnits="userSpaceOnUse">
<stop stop-color="#5852F2"/>
<stop offset="0.443709" stop-color="#A0A1F1"/>
<stop offset="0.653159" stop-color="#C7CCF1"/>
<stop offset="0.786458" stop-color="#98BCEF"/>
<stop offset="1" stop-color="#0C8BE8"/>
</linearGradient>
<linearGradient id="paint6_linear_784_8867" x1="475.21" y1="813.051" x2="85.1882" y2="569.973" gradientUnits="userSpaceOnUse">
<stop stop-color="#5852F2"/>
<stop offset="0.452768" stop-color="#C7CCF1"/>
<stop offset="1" stop-color="#0C8BE8"/>
</linearGradient>
<linearGradient id="paint7_linear_784_8867" x1="272.551" y1="586.484" x2="728.03" y2="549.653" gradientUnits="userSpaceOnUse">
<stop stop-color="#5852F2"/>
<stop offset="0.443709" stop-color="#A0A1F1"/>
<stop offset="0.653159" stop-color="#C7CCF1"/>
<stop offset="0.786458" stop-color="#98BCEF"/>
<stop offset="1" stop-color="#0C8BE8"/>
</linearGradient>
<linearGradient id="paint8_linear_784_8867" x1="617.5" y1="338.991" x2="962.443" y2="354.935" gradientUnits="userSpaceOnUse">
<stop stop-color="#5852F2"/>
<stop offset="0.445711" stop-color="#C7CCF1"/>
<stop offset="1" stop-color="#0C8BE8"/>
</linearGradient>
<linearGradient id="paint9_linear_784_8867" x1="629.801" y1="300.486" x2="897.973" y2="279.409" gradientUnits="userSpaceOnUse">
<stop stop-color="#5852F2"/>
<stop offset="0.443709" stop-color="#A0A1F1"/>
<stop offset="0.653159" stop-color="#C7CCF1"/>
<stop offset="0.786458" stop-color="#98BCEF"/>
<stop offset="1" stop-color="#0C8BE8"/>
</linearGradient>
<clipPath id="clip0_784_8867">
<rect width="738.213" height="577.242" fill="white"/>
</clipPath>
</defs>
</svg>
