<svg width="739" height="578" viewBox="0 0 739 578" fill="none" xmlns="http://www.w3.org/2000/svg">
<g clip-path="url(#clip0_784_8867)">
<rect width="738.213" height="577.242" fill="#1F1D55"/>
<path d="M763.045 830.002L294.94 360.107L290.07 356.519L196.428 435.607L676.934 916.113L763.045 830.002Z" fill="url(#paint0_linear_784_8867)"/>
<path d="M168.454 360.65L209.392 320.48H253.19L294.128 360.65V406.249L253.183 447.194H209.399L168.454 406.249V360.65Z" fill="white" stroke="url(#paint1_linear_784_8867)" stroke-width="2.32271"/>
<path d="M208.714 375.032C208.714 371.375 211.687 370.335 214.869 369.978V368.789C212.52 368.581 209.904 367.689 209.904 364.508C209.904 360.702 214.244 359.662 218.377 359.662C222.48 359.662 226.82 360.702 226.82 364.508C226.82 367.689 224.204 368.581 221.855 368.789V369.978C225.037 370.335 228.01 371.673 228.01 375.032C228.01 379.462 224.115 381.216 218.377 381.216C212.609 381.216 208.714 379.462 208.714 375.032ZM214.661 365.578C214.661 366.856 215.82 367.332 218.377 367.332C220.904 367.332 222.063 366.856 222.063 365.578C222.063 364.329 220.904 363.824 218.377 363.824C215.82 363.824 214.661 364.329 214.661 365.578ZM213.471 374.289C213.471 376.162 214.928 377.054 218.377 377.054C221.796 377.054 223.253 376.162 223.253 374.289C223.253 372.446 221.796 371.494 218.377 371.494C214.928 371.494 213.471 372.446 213.471 374.289ZM230.402 380.919V359.959H239.767L242.829 379.73H244.018L247.08 359.959H256.446V380.919H251.689V364.121L252.581 361.148H251.391L248.032 380.919H238.815L235.456 361.148H234.267L235.158 364.121V380.919H230.402ZM212.596 394.919V387.059H214.435L216.665 394.663H216.921L219.162 387.059H220.991V394.919H220.077V387.973L220.233 387.315H219.965L217.713 394.919H215.873L213.621 387.315H213.365L213.51 387.973V394.919H212.596ZM224.109 388.497C223.652 388.497 223.307 388.163 223.307 387.717C223.307 387.293 223.652 386.947 224.109 386.947C224.555 386.947 224.912 387.293 224.912 387.717C224.912 388.163 224.555 388.497 224.109 388.497ZM222.259 394.919V394.139H223.819V390.058L222.671 390.158V389.378L223.953 389.266C224.477 389.222 224.678 389.512 224.678 389.935V394.139H226.239V394.919H222.259ZM227.09 394.919V394.139H228.651V387.405L227.503 387.505V386.724L228.796 386.613C229.309 386.568 229.554 386.858 229.554 387.382V394.139H231.104V394.919H227.09ZM231.957 394.919V394.139H233.518V387.405L232.369 387.505V386.724L233.663 386.613C234.176 386.568 234.421 386.858 234.421 387.382V394.139H235.971V394.919H231.957ZM238.764 388.497C238.307 388.497 237.961 388.163 237.961 387.717C237.961 387.293 238.307 386.947 238.764 386.947C239.21 386.947 239.567 387.293 239.567 387.717C239.567 388.163 239.21 388.497 238.764 388.497ZM236.913 394.919V394.139H238.474V390.058L237.326 390.158V389.378L238.608 389.266C239.132 389.222 239.333 389.512 239.333 389.935V394.139H240.894V394.919H236.913ZM241.519 392.143C241.519 390.537 242.678 389.266 244.451 389.266C246.213 389.266 247.361 390.537 247.361 392.143C247.361 393.759 246.213 395.03 244.451 395.03C242.678 395.03 241.519 393.759 241.519 392.143ZM242.433 392.143C242.433 393.302 243.136 394.25 244.451 394.25C245.756 394.25 246.458 393.302 246.458 392.143C246.458 390.994 245.756 390.047 244.451 390.047C243.136 390.047 242.433 390.994 242.433 392.143ZM251.544 390.047C250.373 390.047 249.548 390.972 249.548 392.466V394.919H248.634V389.378H249.548V390.337L249.403 390.972H249.66C249.882 389.969 250.585 389.266 251.789 389.266C253.038 389.266 253.852 389.991 253.852 391.53V394.919H252.948V391.652C252.948 390.493 252.491 390.047 251.544 390.047ZM203.972 406.934C203.972 408.105 203.269 409.03 200.95 409.03C198.208 409.03 197.394 407.815 197.394 405.976H198.308C198.308 407.837 199.3 408.25 200.95 408.25C202.288 408.25 203.058 407.927 203.058 406.979C203.058 405.786 201.675 405.541 200.426 405.173C198.877 404.705 197.751 404.281 197.751 402.887C197.751 401.683 198.598 400.947 200.538 400.947C202.857 400.947 203.649 402.363 203.649 403.645H202.734C202.734 402.308 201.742 401.728 200.538 401.728C199.457 401.728 198.665 401.995 198.665 402.865C198.665 403.69 199.356 403.991 200.649 404.392C202.188 404.872 203.972 405.296 203.972 406.934ZM207.438 408.25C208.608 408.25 209.433 407.325 209.433 405.842V403.378H210.336V408.919H209.433V407.96L209.578 407.325H209.322C209.099 408.328 208.396 409.03 207.192 409.03C205.932 409.03 205.119 408.306 205.119 406.767V403.378H206.033V406.645C206.033 407.804 206.479 408.25 207.438 408.25ZM211.806 403.378H212.72V404.192L212.575 404.827H212.832C213.066 403.958 213.802 403.266 215.073 403.266C216.678 403.266 217.715 404.504 217.715 406.154C217.715 407.793 216.678 409.03 215.073 409.03C213.802 409.03 213.066 408.339 212.832 407.481H212.575L212.72 408.105V410.948H211.806V403.378ZM212.72 406.154C212.72 407.626 213.668 408.25 214.805 408.25C215.954 408.25 216.801 407.603 216.801 406.154C216.801 404.693 215.954 404.047 214.805 404.047C213.668 404.047 212.72 404.671 212.72 406.154ZM219.047 403.378H219.961V404.192L219.816 404.827H220.072C220.306 403.958 221.042 403.266 222.313 403.266C223.919 403.266 224.955 404.504 224.955 406.154C224.955 407.793 223.919 409.03 222.313 409.03C221.042 409.03 220.306 408.339 220.072 407.481H219.816L219.961 408.105V410.948H219.047V403.378ZM219.961 406.154C219.961 407.626 220.908 408.25 222.046 408.25C223.194 408.25 224.041 407.603 224.041 406.154C224.041 404.693 223.194 404.047 222.046 404.047C220.908 404.047 219.961 404.671 219.961 406.154ZM225.506 408.919V408.139H227.067V401.405L225.918 401.505V400.724L227.212 400.613C227.725 400.568 227.97 400.858 227.97 401.382V408.139H229.52V408.919H225.506ZM234.491 403.378H235.483L233.075 408.863V410.413C233.075 410.837 232.83 411.093 232.306 411.071L230.165 410.97V410.19L232.161 410.29V408.863L229.741 403.378H230.745L232.484 407.693V408.116H232.751V407.693L234.491 403.378ZM240.365 408.919V401.059H242.449C244.367 401.059 245.471 401.438 245.471 402.988C245.471 404.125 244.713 404.593 243.899 404.649V404.916C245.103 404.939 246.051 405.429 246.051 406.834C246.051 408.417 244.858 408.919 242.951 408.919H240.365ZM241.279 404.437H242.483C243.765 404.437 244.557 404.248 244.557 403.133C244.557 401.917 243.765 401.839 242.483 401.839H241.279V404.437ZM241.279 408.139H242.985C244.323 408.139 245.136 407.916 245.136 406.678C245.136 405.53 244.323 405.217 242.985 405.217H241.279V408.139ZM249.518 408.25C250.689 408.25 251.514 407.325 251.514 405.842V403.378H252.417V408.919H251.514V407.96L251.659 407.325H251.403C251.18 408.328 250.477 409.03 249.273 409.03C248.013 409.03 247.199 408.306 247.199 406.767V403.378H248.114V406.645C248.114 407.804 248.56 408.25 249.518 408.25ZM253.887 408.919V404.036C253.887 403.512 254.132 403.255 254.656 403.278L257.734 403.378V404.158L254.801 404.058V408.919H253.887ZM261.696 404.047C260.526 404.047 259.701 404.972 259.701 406.466V408.919H258.787V403.378H259.701V404.337L259.556 404.972H259.812C260.035 403.969 260.738 403.266 261.942 403.266C263.19 403.266 264.004 403.991 264.004 405.53V408.919H263.101V405.652C263.101 404.493 262.644 404.047 261.696 404.047ZM267 408.261L268.951 408.139V408.919L266.855 409.03C266.331 409.064 266.097 408.785 266.097 408.272V404.158H264.871V403.378H266.097V401.951L267 401.672V403.378H268.728V404.158H267V408.261Z" fill="url(#paint2_linear_784_8867)"/>
<path d="M607.504 516.706L370.604 261.069L281.79 295.73L280.122 344.631L636.381 725.611L710.525 635.857L607.504 516.706Z" fill="url(#paint3_linear_784_8867)"/>
<path d="M247.312 265.104L288.25 224.934H332.047L372.985 265.104V310.703L332.041 351.648H288.256L247.312 310.703V265.104Z" fill="white" stroke="url(#paint4_linear_784_8867)" stroke-width="2.32271"/>
<mask id="path-6-inside-1_784_8867" fill="white">
<path d="M279.996 272.477C283.861 270.961 285.318 268.939 285.318 264.152H294.564V285.112H289.807V268.017L290.699 265.341H289.51C289.153 270.752 288.113 274.796 281.661 276.788L279.996 272.477ZM297.539 277.412H302.296C302.296 279.939 303.694 281.247 307.41 281.247C310.77 281.247 311.87 279.939 311.87 277.323C311.87 275.093 310.77 273.963 308.54 273.963C306.786 273.963 305.388 274.677 304.199 276.193L298.848 273.101V264.152H314.962V268.314H303.605V271.317L302.713 273.993L303.694 274.558C304.823 271.288 307.024 269.801 309.967 269.801C313.653 269.801 316.627 272.388 316.627 277.204C316.627 282.972 312.94 285.41 307.41 285.41C301.88 285.41 297.539 283.12 297.539 277.412ZM331.713 285.112L327.966 279.315L324.666 280.861V285.112H319.909V263.26H324.666V275.955L331.534 272.804L331.475 270.098H336.232V273.369C336.232 274.796 335.667 275.717 334.359 276.342L332.04 277.412L337.124 285.112H331.713ZM294.124 299.224C293.689 299.235 293.444 298.979 293.444 298.555V291.252H294.358V298.443L298.316 298.332V299.112L294.124 299.224ZM301.125 292.69C300.668 292.69 300.323 292.356 300.323 291.91C300.323 291.486 300.668 291.141 301.125 291.141C301.571 291.141 301.928 291.486 301.928 291.91C301.928 292.356 301.571 292.69 301.125 292.69ZM299.275 299.112V298.332H300.836V294.251L299.687 294.352V293.571L300.969 293.46C301.493 293.415 301.694 293.705 301.694 294.129V298.332H303.255V299.112H299.275ZM307.824 293.571H308.704L306.898 299.112H305.048L303.219 293.571H304.111L305.839 298.856H306.107L307.824 293.571ZM309.313 296.269C309.313 294.485 310.428 293.46 312 293.46C313.561 293.46 314.587 294.452 314.587 296.158V296.515H310.205C310.261 297.563 310.763 298.466 312.134 298.466C313.048 298.466 313.661 298.02 313.862 297.172H314.776C314.564 298.031 313.895 299.224 312.134 299.224C310.149 299.224 309.313 297.864 309.313 296.269ZM310.205 295.823H313.695C313.695 294.931 313.104 294.229 312 294.229C310.908 294.229 310.205 294.931 310.205 295.823ZM320.418 297.674C320.418 298.51 319.894 299.224 318.232 299.224C316.437 299.224 315.702 298.388 315.702 297.072H316.616C316.616 298.031 317.173 298.477 318.244 298.477C319.102 298.477 319.503 298.276 319.503 297.708C319.503 296.983 318.756 296.86 317.853 296.581C316.805 296.247 315.958 295.924 315.958 294.92C315.958 294.04 316.705 293.46 317.976 293.46C319.704 293.46 320.228 294.407 320.228 295.322H319.314C319.314 294.575 318.857 294.207 317.976 294.207C317.363 294.207 316.872 294.385 316.872 294.887C316.872 295.422 317.251 295.589 318.143 295.879C319.236 296.236 320.418 296.481 320.418 297.674ZM284.644 309.177C284.644 306.891 286.016 305.141 288.323 305.141C290.33 305.141 291.646 306.345 291.88 308.285H290.966C290.787 306.78 289.862 305.921 288.323 305.921C286.495 305.921 285.559 307.281 285.559 309.177C285.559 311.083 286.495 312.443 288.323 312.443C289.862 312.443 290.787 311.574 290.966 310.069H291.88C291.646 312.02 290.33 313.224 288.323 313.224C286.016 313.224 284.644 311.473 284.644 309.177ZM296.294 307.46C297.543 307.46 298.357 308.184 298.357 309.723V313.112H297.454V309.846C297.454 308.686 296.997 308.24 296.049 308.24C294.879 308.24 294.054 309.166 294.054 310.66V313.112H293.139V304.918H294.054V308.53L293.909 309.166H294.165C294.388 308.162 295.09 307.46 296.294 307.46ZM299.634 311.574C299.634 310.693 300.158 310.091 301.451 309.957L303.659 309.745C303.603 308.731 303.057 308.229 302.098 308.229C301.295 308.229 300.548 308.586 300.548 309.634H299.656C299.656 308.485 300.526 307.46 302.098 307.46C303.648 307.46 304.573 308.485 304.573 309.968V312.332H305.387V313.112H304.406C303.982 313.112 303.748 312.878 303.748 312.466V312.165L303.893 311.585H303.625C303.414 312.432 302.823 313.224 301.485 313.224C299.879 313.224 299.634 312.153 299.634 311.574ZM300.548 311.462C300.548 312.098 300.95 312.443 301.596 312.443C302.856 312.443 303.659 311.574 303.659 310.425L301.607 310.637C300.905 310.704 300.548 310.916 300.548 311.462ZM309.343 308.24C308.172 308.24 307.347 309.166 307.347 310.66V313.112H306.433V307.571H307.347V308.53L307.202 309.166H307.459C307.682 308.162 308.384 307.46 309.588 307.46C310.837 307.46 311.651 308.184 311.651 309.723V313.112H310.748V309.846C310.748 308.686 310.291 308.24 309.343 308.24ZM318.818 307.571H319.308V308.352H318.84C318.528 308.352 318.327 308.419 318.115 308.575C318.349 308.865 318.494 309.266 318.494 309.745C318.494 310.938 317.558 311.685 315.886 312.298C317.179 312.087 318.427 312.265 318.427 313.491C318.427 314.963 316.911 315.153 313.199 315.153V314.372C316.376 314.372 317.513 314.294 317.513 313.424C317.513 312.198 315.072 312.789 313.7 313.201L313.511 312.566C314.403 312.321 315.283 312.064 316.142 311.797V311.54C314.358 311.997 312.797 311.418 312.797 309.701C312.797 308.173 314.046 307.46 315.64 307.46C316.309 307.46 317 307.627 317.524 307.995C318.104 307.627 318.316 307.571 318.818 307.571ZM315.651 311.217C316.822 311.217 317.58 310.804 317.58 309.723C317.58 308.653 316.822 308.24 315.651 308.24C314.492 308.24 313.711 308.653 313.711 309.723C313.711 310.804 314.492 311.217 315.651 311.217ZM319.94 310.269C319.94 308.485 321.054 307.46 322.626 307.46C324.187 307.46 325.213 308.452 325.213 310.158V310.515H320.831C320.887 311.563 321.389 312.466 322.76 312.466C323.674 312.466 324.288 312.02 324.488 311.172H325.403C325.191 312.031 324.522 313.224 322.76 313.224C320.776 313.224 319.94 311.864 319.94 310.269ZM320.831 309.823H324.321C324.321 308.931 323.73 308.229 322.626 308.229C321.534 308.229 320.831 308.931 320.831 309.823ZM332.348 313.112H331.434V312.298L331.59 311.674H331.323C331.089 312.533 330.342 313.224 329.082 313.224C327.476 313.224 326.44 311.986 326.44 310.336C326.44 308.697 327.476 307.46 329.082 307.46C330.342 307.46 331.089 308.151 331.323 309.021H331.59L331.434 308.385V304.918H332.348V313.112ZM331.434 310.336C331.434 308.865 330.498 308.24 329.349 308.24C328.201 308.24 327.354 308.865 327.354 310.336C327.354 311.819 328.201 312.443 329.349 312.443C330.498 312.443 331.434 311.819 331.434 310.336Z"/>
</mask>
<path d="M279.996 272.477C283.861 270.961 285.318 268.939 285.318 264.152H294.564V285.112H289.807V268.017L290.699 265.341H289.51C289.153 270.752 288.113 274.796 281.661 276.788L279.996 272.477ZM297.539 277.412H302.296C302.296 279.939 303.694 281.247 307.41 281.247C310.77 281.247 311.87 279.939 311.87 277.323C311.87 275.093 310.77 273.963 308.54 273.963C306.786 273.963 305.388 274.677 304.199 276.193L298.848 273.101V264.152H314.962V268.314H303.605V271.317L302.713 273.993L303.694 274.558C304.823 271.288 307.024 269.801 309.967 269.801C313.653 269.801 316.627 272.388 316.627 277.204C316.627 282.972 312.94 285.41 307.41 285.41C301.88 285.41 297.539 283.12 297.539 277.412ZM331.713 285.112L327.966 279.315L324.666 280.861V285.112H319.909V263.26H324.666V275.955L331.534 272.804L331.475 270.098H336.232V273.369C336.232 274.796 335.667 275.717 334.359 276.342L332.04 277.412L337.124 285.112H331.713ZM294.124 299.224C293.689 299.235 293.444 298.979 293.444 298.555V291.252H294.358V298.443L298.316 298.332V299.112L294.124 299.224ZM301.125 292.69C300.668 292.69 300.323 292.356 300.323 291.91C300.323 291.486 300.668 291.141 301.125 291.141C301.571 291.141 301.928 291.486 301.928 291.91C301.928 292.356 301.571 292.69 301.125 292.69ZM299.275 299.112V298.332H300.836V294.251L299.687 294.352V293.571L300.969 293.46C301.493 293.415 301.694 293.705 301.694 294.129V298.332H303.255V299.112H299.275ZM307.824 293.571H308.704L306.898 299.112H305.048L303.219 293.571H304.111L305.839 298.856H306.107L307.824 293.571ZM309.313 296.269C309.313 294.485 310.428 293.46 312 293.46C313.561 293.46 314.587 294.452 314.587 296.158V296.515H310.205C310.261 297.563 310.763 298.466 312.134 298.466C313.048 298.466 313.661 298.02 313.862 297.172H314.776C314.564 298.031 313.895 299.224 312.134 299.224C310.149 299.224 309.313 297.864 309.313 296.269ZM310.205 295.823H313.695C313.695 294.931 313.104 294.229 312 294.229C310.908 294.229 310.205 294.931 310.205 295.823ZM320.418 297.674C320.418 298.51 319.894 299.224 318.232 299.224C316.437 299.224 315.702 298.388 315.702 297.072H316.616C316.616 298.031 317.173 298.477 318.244 298.477C319.102 298.477 319.503 298.276 319.503 297.708C319.503 296.983 318.756 296.86 317.853 296.581C316.805 296.247 315.958 295.924 315.958 294.92C315.958 294.04 316.705 293.46 317.976 293.46C319.704 293.46 320.228 294.407 320.228 295.322H319.314C319.314 294.575 318.857 294.207 317.976 294.207C317.363 294.207 316.872 294.385 316.872 294.887C316.872 295.422 317.251 295.589 318.143 295.879C319.236 296.236 320.418 296.481 320.418 297.674ZM284.644 309.177C284.644 306.891 286.016 305.141 288.323 305.141C290.33 305.141 291.646 306.345 291.88 308.285H290.966C290.787 306.78 289.862 305.921 288.323 305.921C286.495 305.921 285.559 307.281 285.559 309.177C285.559 311.083 286.495 312.443 288.323 312.443C289.862 312.443 290.787 311.574 290.966 310.069H291.88C291.646 312.02 290.33 313.224 288.323 313.224C286.016 313.224 284.644 311.473 284.644 309.177ZM296.294 307.46C297.543 307.46 298.357 308.184 298.357 309.723V313.112H297.454V309.846C297.454 308.686 296.997 308.24 296.049 308.24C294.879 308.24 294.054 309.166 294.054 310.66V313.112H293.139V304.918H294.054V308.53L293.909 309.166H294.165C294.388 308.162 295.09 307.46 296.294 307.46ZM299.634 311.574C299.634 310.693 300.158 310.091 301.451 309.957L303.659 309.745C303.603 308.731 303.057 308.229 302.098 308.229C301.295 308.229 300.548 308.586 300.548 309.634H299.656C299.656 308.485 300.526 307.46 302.098 307.46C303.648 307.46 304.573 308.485 304.573 309.968V312.332H305.387V313.112H304.406C303.982 313.112 303.748 312.878 303.748 312.466V312.165L303.893 311.585H303.625C303.414 312.432 302.823 313.224 301.485 313.224C299.879 313.224 299.634 312.153 299.634 311.574ZM300.548 311.462C300.548 312.098 300.95 312.443 301.596 312.443C302.856 312.443 303.659 311.574 303.659 310.425L301.607 310.637C300.905 310.704 300.548 310.916 300.548 311.462ZM309.343 308.24C308.172 308.24 307.347 309.166 307.347 310.66V313.112H306.433V307.571H307.347V308.53L307.202 309.166H307.459C307.682 308.162 308.384 307.46 309.588 307.46C310.837 307.46 311.651 308.184 311.651 309.723V313.112H310.748V309.846C310.748 308.686 310.291 308.24 309.343 308.24ZM318.818 307.571H319.308V308.352H318.84C318.528 308.352 318.327 308.419 318.115 308.575C318.349 308.865 318.494 309.266 318.494 309.745C318.494 310.938 317.558 311.685 315.886 312.298C317.179 312.087 318.427 312.265 318.427 313.491C318.427 314.963 316.911 315.153 313.199 315.153V314.372C316.376 314.372 317.513 314.294 317.513 313.424C317.513 312.198 315.072 312.789 313.7 313.201L313.511 312.566C314.403 312.321 315.283 312.064 316.142 311.797V311.54C314.358 311.997 312.797 311.418 312.797 309.701C312.797 308.173 314.046 307.46 315.64 307.46C316.309 307.46 317 307.627 317.524 307.995C318.104 307.627 318.316 307.571 318.818 307.571ZM315.651 311.217C316.822 311.217 317.58 310.804 317.58 309.723C317.58 308.653 316.822 308.24 315.651 308.24C314.492 308.24 313.711 308.653 313.711 309.723C313.711 310.804 314.492 311.217 315.651 311.217ZM319.94 310.269C319.94 308.485 321.054 307.46 322.626 307.46C324.187 307.46 325.213 308.452 325.213 310.158V310.515H320.831C320.887 311.563 321.389 312.466 322.76 312.466C323.674 312.466 324.288 312.02 324.488 311.172H325.403C325.191 312.031 324.522 313.224 322.76 313.224C320.776 313.224 319.94 311.864 319.94 310.269ZM320.831 309.823H324.321C324.321 308.931 323.73 308.229 322.626 308.229C321.534 308.229 320.831 308.931 320.831 309.823ZM332.348 313.112H331.434V312.298L331.59 311.674H331.323C331.089 312.533 330.342 313.224 329.082 313.224C327.476 313.224 326.44 311.986 326.44 310.336C326.44 308.697 327.476 307.46 329.082 307.46C330.342 307.46 331.089 308.151 331.323 309.021H331.59L331.434 308.385V304.918H332.348V313.112ZM331.434 310.336C331.434 308.865 330.498 308.24 329.349 308.24C328.201 308.24 327.354 308.865 327.354 310.336C327.354 311.819 328.201 312.443 329.349 312.443C330.498 312.443 331.434 311.819 331.434 310.336Z" fill="#5852F2"/>
<path d="M279.996 272.477L279.148 270.315L276.997 271.158L277.829 273.314L279.996 272.477ZM285.318 264.152V261.829H282.995V264.152H285.318ZM294.564 264.152H296.887V261.829H294.564V264.152ZM294.564 285.112V287.435H296.887V285.112H294.564ZM289.807 285.112H287.484V287.435H289.807V285.112ZM289.807 268.017L287.604 267.283L287.484 267.64V268.017H289.807ZM290.699 265.341L292.903 266.076L293.922 263.019H290.699V265.341ZM289.51 265.341V263.019H287.335L287.192 265.189L289.51 265.341ZM281.661 276.788L279.494 277.625L280.275 279.647L282.346 279.007L281.661 276.788ZM280.844 274.639C282.99 273.797 284.827 272.679 286.049 270.814C287.255 268.973 287.641 266.74 287.641 264.152H282.995C282.995 266.351 282.652 267.523 282.163 268.268C281.691 268.989 280.867 269.64 279.148 270.315L280.844 274.639ZM285.318 266.475H294.564V261.829H285.318V266.475ZM292.241 264.152V285.112H296.887V264.152H292.241ZM294.564 282.79H289.807V287.435H294.564V282.79ZM292.13 285.112V268.017H287.484V285.112H292.13ZM292.011 268.752L292.903 266.076L288.496 264.607L287.604 267.283L292.011 268.752ZM290.699 263.019H289.51V267.664H290.699V263.019ZM287.192 265.189C287.016 267.857 286.682 269.751 285.856 271.191C285.101 272.507 283.774 273.704 280.976 274.568L282.346 279.007C286 277.879 288.419 276.059 289.886 273.503C291.282 271.07 291.647 268.237 291.828 265.494L287.192 265.189ZM283.828 275.951L282.163 271.64L277.829 273.314L279.494 277.625L283.828 275.951ZM297.539 277.412V275.089H295.217V277.412H297.539ZM302.296 277.412H304.619V275.089H302.296V277.412ZM304.199 276.193L303.037 278.204L304.783 279.213L306.027 277.627L304.199 276.193ZM298.848 273.101H296.525V274.442L297.686 275.112L298.848 273.101ZM298.848 264.152V261.829H296.525V264.152H298.848ZM314.962 264.152H317.284V261.829H314.962V264.152ZM314.962 268.314V270.637H317.284V268.314H314.962ZM303.605 268.314V265.992H301.282V268.314H303.605ZM303.605 271.317L305.808 272.052L305.927 271.694V271.317H303.605ZM302.713 273.993L300.509 273.259L299.909 275.059L301.554 276.006L302.713 273.993ZM303.694 274.558L302.535 276.571L304.971 277.974L305.889 275.316L303.694 274.558ZM297.539 279.735H302.296V275.089H297.539V279.735ZM299.974 277.412C299.974 279.111 300.463 280.87 302.02 282.1C303.447 283.228 305.367 283.57 307.41 283.57V278.925C305.737 278.925 305.1 278.613 304.899 278.455C304.829 278.399 304.619 278.241 304.619 277.412H299.974ZM307.41 283.57C309.304 283.57 311.153 283.218 312.492 281.958C313.871 280.659 314.192 278.893 314.192 277.323H309.547C309.547 278.369 309.318 278.565 309.308 278.575C309.257 278.623 308.876 278.925 307.41 278.925V283.57ZM314.192 277.323C314.192 275.858 313.83 274.327 312.694 273.175C311.552 272.018 310.021 271.641 308.54 271.641V276.286C308.908 276.286 309.134 276.333 309.257 276.375C309.317 276.395 309.351 276.413 309.367 276.423C309.382 276.432 309.387 276.437 309.388 276.438C309.389 276.439 309.395 276.446 309.405 276.463C309.416 276.482 309.436 276.519 309.457 276.583C309.5 276.715 309.547 276.949 309.547 277.323H314.192ZM308.54 271.641C306.001 271.641 303.955 272.74 302.372 274.76L306.027 277.627C306.822 276.613 307.57 276.286 308.54 276.286V271.641ZM305.361 274.182L300.01 271.09L297.686 275.112L303.037 278.204L305.361 274.182ZM301.17 273.101V264.152H296.525V273.101H301.17ZM298.848 266.475H314.962V261.829H298.848V266.475ZM312.639 264.152V268.314H317.284V264.152H312.639ZM314.962 265.992H303.605V270.637H314.962V265.992ZM301.282 268.314V271.317H305.927V268.314H301.282ZM301.401 270.583L300.509 273.259L304.916 274.728L305.808 272.052L301.401 270.583ZM301.554 276.006L302.535 276.571L304.853 272.545L303.872 271.98L301.554 276.006ZM305.889 275.316C306.337 274.02 306.929 273.264 307.528 272.823C308.119 272.387 308.898 272.124 309.967 272.124V267.478C308.092 267.478 306.299 267.958 304.772 269.083C303.253 270.203 302.18 271.826 301.498 273.8L305.889 275.316ZM309.967 272.124C311.257 272.124 312.292 272.567 313.007 273.309C313.72 274.048 314.304 275.282 314.304 277.204H318.949C318.949 274.309 318.046 271.842 316.351 270.084C314.658 268.328 312.363 267.478 309.967 267.478V272.124ZM314.304 277.204C314.304 279.562 313.575 280.885 312.614 281.678C311.574 282.536 309.882 283.087 307.41 283.087V287.732C310.468 287.732 313.384 287.065 315.57 285.261C317.835 283.393 318.949 280.613 318.949 277.204H314.304ZM307.41 283.087C304.912 283.087 302.995 282.562 301.763 281.67C300.647 280.862 299.862 279.594 299.862 277.412H295.217C295.217 280.938 296.602 283.669 299.039 285.433C301.36 287.113 304.378 287.732 307.41 287.732V283.087ZM331.713 285.112L329.762 286.373L330.448 287.435H331.713V285.112ZM327.966 279.315L329.917 278.054L328.817 276.351L326.981 277.211L327.966 279.315ZM324.666 280.861L323.681 278.757L322.344 279.384V280.861H324.666ZM324.666 285.112V287.435H326.989V285.112H324.666ZM319.909 285.112H317.587V287.435H319.909V285.112ZM319.909 263.26V260.938H317.587V263.26H319.909ZM324.666 263.26H326.989V260.938H324.666V263.26ZM324.666 275.955H322.344V279.577L325.635 278.066L324.666 275.955ZM331.534 272.804L332.503 274.915L333.89 274.278L333.856 272.753L331.534 272.804ZM331.475 270.098V267.776H329.1L329.153 270.149L331.475 270.098ZM336.232 270.098H338.554V267.776H336.232V270.098ZM334.359 276.342L335.332 278.451L335.346 278.444L335.359 278.438L334.359 276.342ZM332.04 277.412L331.066 275.303L328.612 276.436L330.101 278.692L332.04 277.412ZM337.124 285.112V287.435H341.44L339.062 283.833L337.124 285.112ZM333.663 283.852L329.917 278.054L326.016 280.575L329.762 286.373L333.663 283.852ZM326.981 277.211L323.681 278.757L325.652 282.964L328.952 281.418L326.981 277.211ZM322.344 280.861V285.112H326.989V280.861H322.344ZM324.666 282.79H319.909V287.435H324.666V282.79ZM322.232 285.112V263.26H317.587V285.112H322.232ZM319.909 265.583H324.666V260.938H319.909V265.583ZM322.344 263.26V275.955H326.989V263.26H322.344ZM325.635 278.066L332.503 274.915L330.565 270.693L323.698 273.844L325.635 278.066ZM333.856 272.753L333.797 270.047L329.153 270.149L329.212 272.855L333.856 272.753ZM331.475 272.421H336.232V267.776H331.475V272.421ZM333.909 270.098V273.369H338.554V270.098H333.909ZM333.909 273.369C333.909 273.774 333.831 273.902 333.817 273.924C333.804 273.944 333.725 274.07 333.358 274.246L335.359 278.438C336.3 277.989 337.158 277.342 337.754 276.389C338.35 275.437 338.554 274.39 338.554 273.369H333.909ZM333.385 274.233L331.066 275.303L333.013 279.521L335.332 278.451L333.385 274.233ZM330.101 278.692L335.185 286.392L339.062 283.833L333.978 276.132L330.101 278.692ZM337.124 282.79H331.713V287.435H337.124V282.79ZM294.124 299.224L294.184 301.546L294.186 301.546L294.124 299.224ZM293.444 291.252V288.93H291.121V291.252H293.444ZM294.358 291.252H296.681V288.93H294.358V291.252ZM294.358 298.443H292.036V300.832L294.424 300.765L294.358 298.443ZM298.316 298.332H300.639V295.943L298.251 296.01L298.316 298.332ZM298.316 299.112L298.378 301.434L300.639 301.374V299.112H298.316ZM294.065 296.902C294.317 296.895 294.823 296.97 295.264 297.41C295.694 297.841 295.767 298.328 295.767 298.555H291.121C291.121 299.206 291.317 300.033 291.979 300.695C292.65 301.366 293.497 301.563 294.184 301.546L294.065 296.902ZM295.767 298.555V291.252H291.121V298.555H295.767ZM293.444 293.575H294.358V288.93H293.444V293.575ZM292.036 291.252V298.443H296.681V291.252H292.036ZM294.424 300.765L298.382 300.654L298.251 296.01L294.293 296.122L294.424 300.765ZM295.994 298.332V299.112H300.639V298.332H295.994ZM298.255 296.79L294.062 296.902L294.186 301.546L298.378 301.434L298.255 296.79ZM299.275 299.112H296.952V301.435H299.275V299.112ZM299.275 298.332V296.009H296.952V298.332H299.275ZM300.836 298.332V300.655H303.158V298.332H300.836ZM300.836 294.251H303.158V291.717L300.633 291.937L300.836 294.251ZM299.687 294.352H297.365V296.886L299.889 296.666L299.687 294.352ZM299.687 293.571L299.486 291.257L297.365 291.442V293.571H299.687ZM300.969 293.46L300.772 291.145L300.768 291.146L300.969 293.46ZM301.694 298.332H299.371V300.655H301.694V298.332ZM303.255 298.332H305.578V296.009H303.255V298.332ZM303.255 299.112V301.435H305.578V299.112H303.255ZM301.125 290.368C301.474 290.368 301.862 290.501 302.171 290.801C302.483 291.104 302.645 291.512 302.645 291.91H298C298 293.703 299.451 295.013 301.125 295.013V290.368ZM302.645 291.91C302.645 292.833 301.886 293.463 301.125 293.463V288.818C299.451 288.818 298 290.139 298 291.91H302.645ZM301.125 293.463C300.375 293.463 299.605 292.854 299.605 291.91H304.251C304.251 290.119 302.768 288.818 301.125 288.818V293.463ZM299.605 291.91C299.605 290.988 300.375 290.368 301.125 290.368V295.013C302.768 295.013 304.251 293.724 304.251 291.91H299.605ZM301.597 299.112V298.332H296.952V299.112H301.597ZM299.275 300.655H300.836V296.009H299.275V300.655ZM303.158 298.332V294.251H298.513V298.332H303.158ZM300.633 291.937L299.485 292.038L299.889 296.666L301.038 296.565L300.633 291.937ZM302.01 294.352V293.571H297.365V294.352H302.01ZM299.888 295.885L301.171 295.774L300.768 291.146L299.486 291.257L299.888 295.885ZM301.166 295.774C300.988 295.789 300.381 295.775 299.857 295.232C299.388 294.746 299.371 294.226 299.371 294.129H304.017C304.017 293.608 303.9 292.731 303.2 292.006C302.444 291.223 301.475 291.086 300.772 291.145L301.166 295.774ZM299.371 294.129V298.332H304.017V294.129H299.371ZM301.694 300.655H303.255V296.009H301.694V300.655ZM300.932 298.332V299.112H305.578V298.332H300.932ZM303.255 296.79H299.275V301.435H303.255V296.79ZM307.824 293.571V291.249H306.136L305.615 292.854L307.824 293.571ZM308.704 293.571L310.913 294.291L311.905 291.249H308.704V293.571ZM306.898 299.112V301.435H308.584L309.107 299.832L306.898 299.112ZM305.048 299.112L302.842 299.84L303.368 301.435H305.048V299.112ZM303.219 293.571V291.249H300.007L301.013 294.299L303.219 293.571ZM304.111 293.571L306.319 292.849L305.795 291.249H304.111V293.571ZM305.839 298.856L303.631 299.578L304.155 301.179H305.839V298.856ZM306.107 298.856V301.179H307.794L308.316 299.574L306.107 298.856ZM307.824 295.894H308.704V291.249H307.824V295.894ZM306.496 292.851L304.69 298.392L309.107 299.832L310.913 294.291L306.496 292.851ZM306.898 296.79H305.048V301.435H306.898V296.79ZM307.253 298.384L305.425 292.843L301.013 294.299L302.842 299.84L307.253 298.384ZM303.219 295.894H304.111V291.249H303.219V295.894ZM301.903 294.293L303.631 299.578L308.047 298.134L306.319 292.849L301.903 294.293ZM305.839 301.179H306.107V296.533H305.839V301.179ZM308.316 299.574L310.033 294.289L305.615 292.854L303.898 298.138L308.316 299.574ZM314.587 296.515V298.837H316.909V296.515H314.587ZM310.205 296.515V294.192H307.756L307.886 296.638L310.205 296.515ZM313.862 297.172V294.85H312.025L311.602 296.637L313.862 297.172ZM314.776 297.172L317.031 297.729L317.742 294.85H314.776V297.172ZM310.205 295.823H307.882V298.146H310.205V295.823ZM313.695 295.823V298.146H316.017V295.823H313.695ZM311.636 296.269C311.636 296.065 311.668 295.945 311.689 295.888C311.709 295.834 311.723 295.824 311.717 295.831C311.685 295.862 311.726 295.782 312 295.782V291.137C310.702 291.137 309.399 291.57 308.418 292.56C307.433 293.553 306.99 294.885 306.99 296.269H311.636ZM312 295.782C312.145 295.782 312.219 295.805 312.239 295.813C312.256 295.82 312.241 295.816 312.219 295.794C312.197 295.772 312.203 295.766 312.218 295.807C312.235 295.853 312.264 295.963 312.264 296.158H316.909C316.909 294.838 316.504 293.53 315.539 292.544C314.57 291.555 313.28 291.137 312 291.137V295.782ZM312.264 296.158V296.515H316.909V296.158H312.264ZM314.587 294.192H310.205V298.837H314.587V294.192ZM307.886 296.638C307.929 297.452 308.155 298.505 308.908 299.389C309.728 300.352 310.893 300.788 312.134 300.788V296.143C312.046 296.143 312.071 296.129 312.161 296.166C312.259 296.208 312.363 296.281 312.445 296.377C312.52 296.466 312.543 296.533 312.544 296.536C312.544 296.536 312.53 296.492 312.525 296.391L307.886 296.638ZM312.134 300.788C312.965 300.788 313.868 300.583 314.651 300.001C315.45 299.408 315.916 298.576 316.122 297.708L311.602 296.637C311.602 296.635 311.615 296.583 311.663 296.506C311.713 296.426 311.786 296.342 311.88 296.272C312.078 296.125 312.217 296.143 312.134 296.143V300.788ZM313.862 299.495H314.776V294.85H313.862V299.495ZM312.521 296.616C312.505 296.68 312.483 296.741 312.458 296.79C312.433 296.837 312.415 296.857 312.411 296.861C312.409 296.863 312.409 296.862 312.41 296.862C312.411 296.861 312.408 296.863 312.399 296.867C312.384 296.873 312.308 296.901 312.134 296.901V301.547C313.596 301.547 314.795 301.028 315.662 300.179C316.474 299.383 316.857 298.435 317.031 297.729L312.521 296.616ZM312.134 296.901C311.904 296.901 311.796 296.862 311.767 296.85C311.751 296.843 311.747 296.839 311.749 296.841C311.751 296.842 311.752 296.844 311.751 296.843C311.749 296.84 311.636 296.692 311.636 296.269H306.99C306.99 297.44 307.295 298.77 308.207 299.846C309.172 300.984 310.568 301.547 312.134 301.547V296.901ZM310.205 298.146H313.695V293.501H310.205V298.146ZM316.017 295.823C316.017 294.862 315.692 293.841 314.908 293.053C314.114 292.256 313.059 291.906 312 291.906V296.552C312.045 296.552 311.837 296.554 311.615 296.33C311.402 296.117 311.372 295.893 311.372 295.823H316.017ZM312 291.906C309.812 291.906 307.882 293.469 307.882 295.823H312.528C312.528 296.012 312.443 296.238 312.265 296.401C312.094 296.559 311.957 296.552 312 296.552V291.906ZM315.702 297.072V294.749H313.379V297.072H315.702ZM316.616 297.072H318.939V294.749H316.616V297.072ZM317.853 296.581L317.147 298.794L317.158 298.798L317.168 298.801L317.853 296.581ZM320.228 295.322V297.644H322.551V295.322H320.228ZM319.314 295.322H316.991V297.644H319.314V295.322ZM318.143 295.879L318.864 293.671L318.861 293.67L318.143 295.879ZM318.095 297.674C318.095 297.644 318.099 297.539 318.158 297.393C318.222 297.236 318.328 297.089 318.459 296.98C318.703 296.776 318.781 296.901 318.232 296.901V301.547C319.345 301.547 320.516 301.314 321.437 300.545C322.43 299.715 322.74 298.597 322.74 297.674H318.095ZM318.232 296.901C317.957 296.901 317.814 296.868 317.763 296.853C317.721 296.84 317.777 296.85 317.862 296.927C317.902 296.964 317.938 297.007 317.968 297.052C317.998 297.097 318.015 297.135 318.024 297.16C318.041 297.207 318.024 297.19 318.024 297.072H313.379C313.379 298.157 313.693 299.41 314.726 300.355C315.722 301.266 317.015 301.547 318.232 301.547V296.901ZM315.702 299.395H316.616V294.749H315.702V299.395ZM314.293 297.072C314.293 298.01 314.583 299.107 315.527 299.906C316.396 300.642 317.444 300.8 318.244 300.8V296.154C317.973 296.154 318.207 296.089 318.53 296.362C318.701 296.507 318.819 296.685 318.883 296.851C318.942 297.002 318.939 297.092 318.939 297.072H314.293ZM318.244 300.8C318.743 300.8 319.594 300.762 320.367 300.311C320.811 300.052 321.217 299.663 321.491 299.134C321.754 298.625 321.826 298.118 321.826 297.708H317.181C317.181 297.581 317.203 297.313 317.364 297.001C317.535 296.669 317.788 296.438 318.024 296.3C318.233 296.178 318.389 296.151 318.402 296.149C318.42 296.145 318.378 296.154 318.244 296.154V300.8ZM321.826 297.708C321.826 297.096 321.658 296.468 321.263 295.915C320.893 295.398 320.432 295.095 320.09 294.917C319.542 294.632 318.754 294.429 318.538 294.362L317.168 298.801C317.299 298.841 317.425 298.878 317.528 298.908C317.637 298.941 317.72 298.965 317.795 298.989C317.959 299.04 317.98 299.056 317.944 299.037C317.902 299.015 317.684 298.897 317.483 298.615C317.256 298.298 317.181 297.957 317.181 297.708H321.826ZM318.56 294.369C318.303 294.287 318.13 294.228 317.997 294.173C317.862 294.118 317.841 294.096 317.874 294.12C317.919 294.152 318.044 294.256 318.149 294.449C318.258 294.65 318.281 294.83 318.281 294.92H313.635C313.635 296.251 314.276 297.25 315.151 297.883C315.844 298.385 316.68 298.645 317.147 298.794L318.56 294.369ZM318.281 294.92C318.281 295.035 318.254 295.196 318.168 295.367C318.083 295.537 317.967 295.656 317.87 295.729C317.693 295.859 317.659 295.782 317.976 295.782V291.137C317.022 291.137 315.979 291.351 315.111 291.991C314.171 292.684 313.635 293.744 313.635 294.92H318.281ZM317.976 295.782C318.2 295.782 318.287 295.814 318.284 295.812C318.271 295.808 318.191 295.774 318.098 295.68C318.007 295.588 317.953 295.488 317.927 295.413C317.903 295.345 317.905 295.31 317.905 295.322H322.551C322.551 294.442 322.295 293.319 321.402 292.415C320.495 291.497 319.259 291.137 317.976 291.137V295.782ZM320.228 292.999H319.314V297.644H320.228V292.999ZM321.637 295.322C321.637 294.453 321.349 293.432 320.455 292.693C319.643 292.023 318.684 291.884 317.976 291.884V296.529C318.149 296.529 317.858 296.574 317.496 296.275C317.303 296.115 317.161 295.913 317.076 295.706C316.998 295.512 316.991 295.368 316.991 295.322H321.637ZM317.976 291.884C317.512 291.884 316.786 291.94 316.093 292.314C315.234 292.776 314.55 293.681 314.55 294.887H319.195C319.195 295.157 319.123 295.494 318.918 295.816C318.72 296.128 318.472 296.309 318.295 296.404C318.001 296.562 317.826 296.529 317.976 296.529V291.884ZM314.55 294.887C314.55 295.3 314.625 295.797 314.883 296.296C315.143 296.796 315.505 297.141 315.838 297.375C316.384 297.759 317.064 297.971 317.425 298.088L318.861 293.67C318.642 293.599 318.517 293.555 318.436 293.522C318.349 293.487 318.403 293.5 318.509 293.575C318.636 293.664 318.847 293.849 319.008 294.158C319.167 294.466 319.195 294.741 319.195 294.887H314.55ZM317.422 298.087C317.574 298.136 317.732 298.186 317.856 298.225C317.989 298.267 318.099 298.302 318.198 298.337C318.408 298.409 318.489 298.451 318.509 298.463C318.52 298.47 318.393 298.398 318.27 298.208C318.207 298.112 318.16 298.008 318.13 297.902C318.101 297.799 318.095 297.718 318.095 297.674H322.74C322.74 296.967 322.557 296.28 322.162 295.673C321.783 295.09 321.292 294.711 320.871 294.463C320.152 294.038 319.193 293.779 318.864 293.671L317.422 298.087ZM291.88 308.285V310.607H294.5L294.186 308.006L291.88 308.285ZM290.966 308.285L288.659 308.558L288.902 310.607H290.966V308.285ZM290.966 310.069V307.746H288.902L288.659 309.795L290.966 310.069ZM291.88 310.069L294.186 310.345L294.498 307.746H291.88V310.069ZM286.967 309.177C286.967 308.486 287.173 308.053 287.368 307.829C287.534 307.64 287.802 307.463 288.323 307.463V302.818C286.538 302.818 284.966 303.517 283.869 304.774C282.802 305.997 282.322 307.582 282.322 309.177H286.967ZM288.323 307.463C288.852 307.463 289.103 307.613 289.22 307.718C289.34 307.825 289.513 308.057 289.574 308.563L294.186 308.006C294.013 306.572 293.411 305.232 292.313 304.252C291.212 303.27 289.802 302.818 288.323 302.818V307.463ZM291.88 305.962H290.966V310.607H291.88V305.962ZM293.272 308.011C293.134 306.845 292.671 305.682 291.711 304.815C290.746 303.943 289.53 303.598 288.323 303.598V308.244C288.494 308.244 288.583 308.268 288.613 308.278C288.638 308.286 288.623 308.285 288.598 308.262C288.573 308.24 288.574 308.229 288.588 308.26C288.605 308.296 288.639 308.387 288.659 308.558L293.272 308.011ZM288.323 303.598C286.775 303.598 285.389 304.206 284.443 305.385C283.553 306.495 283.236 307.879 283.236 309.177H287.881C287.881 308.579 288.032 308.335 288.067 308.291C288.079 308.277 288.08 308.279 288.083 308.277C288.09 308.274 288.157 308.244 288.323 308.244V303.598ZM283.236 309.177C283.236 310.477 283.552 311.864 284.442 312.976C285.387 314.158 286.774 314.766 288.323 314.766V310.121C288.157 310.121 288.091 310.091 288.084 310.088C288.081 310.086 288.08 310.088 288.069 310.074C288.033 310.029 287.881 309.783 287.881 309.177H283.236ZM288.323 314.766C289.538 314.766 290.755 314.414 291.717 313.539C292.673 312.67 293.134 311.507 293.272 310.342L288.659 309.795C288.639 309.966 288.604 310.06 288.587 310.098C288.571 310.132 288.569 310.123 288.592 310.102C288.616 310.08 288.63 310.079 288.606 310.087C288.577 310.097 288.491 310.121 288.323 310.121V314.766ZM290.966 312.391H291.88V307.746H290.966V312.391ZM289.574 309.792C289.512 310.306 289.337 310.54 289.218 310.647C289.101 310.751 288.851 310.901 288.323 310.901V315.547C289.802 315.547 291.214 315.094 292.315 314.109C293.414 313.126 294.014 311.783 294.186 310.345L289.574 309.792ZM288.323 310.901C287.802 310.901 287.535 310.725 287.37 310.536C287.174 310.311 286.967 309.876 286.967 309.177H282.322C282.322 310.774 282.8 312.362 283.867 313.587C284.965 314.847 286.537 315.547 288.323 315.547V310.901ZM298.357 313.112V315.435H300.68V313.112H298.357ZM297.454 313.112H295.131V315.435H297.454V313.112ZM294.054 313.112V315.435H296.376V313.112H294.054ZM293.139 313.112H290.817V315.435H293.139V313.112ZM293.139 304.918V302.595H290.817V304.918H293.139ZM294.054 304.918H296.376V302.595H294.054V304.918ZM294.054 308.53L296.318 309.047L296.376 308.792V308.53H294.054ZM293.909 309.166L291.644 308.649L290.996 311.488H293.909V309.166ZM294.165 309.166V311.488H296.028L296.432 309.669L294.165 309.166ZM296.294 309.782C296.386 309.782 296.394 309.796 296.347 309.779C296.292 309.759 296.204 309.711 296.121 309.625C296.039 309.54 296.012 309.469 296.009 309.462C296.009 309.462 296.015 309.48 296.022 309.524C296.028 309.567 296.034 309.632 296.034 309.723H300.68C300.68 308.561 300.368 307.34 299.467 306.404C298.556 305.457 297.364 305.137 296.294 305.137V309.782ZM296.034 309.723V313.112H300.68V309.723H296.034ZM298.357 310.79H297.454V315.435H298.357V310.79ZM299.777 313.112V309.846H295.131V313.112H299.777ZM299.777 309.846C299.777 309.039 299.632 307.934 298.827 307.047C297.972 306.105 296.847 305.917 296.049 305.917V310.563C296.199 310.563 295.776 310.598 295.387 310.169C295.216 309.981 295.152 309.805 295.132 309.735C295.115 309.676 295.131 309.697 295.131 309.846H299.777ZM296.049 305.917C294.807 305.917 293.648 306.43 292.837 307.392C292.053 308.321 291.731 309.499 291.731 310.66H296.376C296.376 310.327 296.466 310.294 296.388 310.387C296.348 310.434 296.286 310.486 296.205 310.522C296.126 310.558 296.066 310.563 296.049 310.563V305.917ZM291.731 310.66V313.112H296.376V310.66H291.731ZM294.054 310.79H293.139V315.435H294.054V310.79ZM295.462 313.112V304.918H290.817V313.112H295.462ZM293.139 307.24H294.054V302.595H293.139V307.24ZM291.731 304.918V308.53H296.376V304.918H291.731ZM291.789 308.014L291.644 308.649L296.173 309.682L296.318 309.047L291.789 308.014ZM293.909 311.488H294.165V306.843H293.909V311.488ZM296.432 309.669C296.445 309.613 296.456 309.598 296.449 309.612C296.44 309.627 296.415 309.665 296.367 309.706C296.317 309.748 296.268 309.772 296.236 309.783C296.207 309.793 296.22 309.782 296.294 309.782V305.137C295.22 305.137 294.188 305.461 293.357 306.167C292.543 306.859 292.095 307.771 291.898 308.662L296.432 309.669ZM301.451 309.957L301.229 307.645L301.221 307.646L301.212 307.647L301.451 309.957ZM303.659 309.745L303.881 312.057L306.1 311.844L305.978 309.618L303.659 309.745ZM300.548 309.634V311.957H302.871V309.634H300.548ZM299.656 309.634H297.334V311.957H299.656V309.634ZM304.573 312.332H302.25V314.655H304.573V312.332ZM305.387 312.332H307.71V310.009H305.387V312.332ZM305.387 313.112V315.435H307.71V313.112H305.387ZM303.748 312.165L301.495 311.601L301.425 311.879V312.165H303.748ZM303.893 311.585L306.146 312.148L306.868 309.262H303.893V311.585ZM303.625 311.585V309.262H301.812L301.372 311.022L303.625 311.585ZM303.659 310.425H305.982V307.85L303.42 308.115L303.659 310.425ZM301.607 310.637L301.828 312.949L301.837 312.949L301.846 312.948L301.607 310.637ZM301.957 311.574C301.957 311.582 301.956 311.667 301.907 311.794C301.855 311.93 301.768 312.064 301.655 312.171C301.441 312.375 301.329 312.305 301.69 312.268L301.212 307.647C300.28 307.743 299.26 308.041 298.46 308.799C297.605 309.61 297.311 310.647 297.311 311.574H301.957ZM301.673 312.269L303.881 312.057L303.437 307.433L301.229 307.645L301.673 312.269ZM305.978 309.618C305.929 308.732 305.643 307.714 304.824 306.929C304 306.14 302.971 305.906 302.098 305.906V310.552C302.184 310.552 301.908 310.569 301.611 310.284C301.317 310.004 301.333 309.744 301.34 309.873L305.978 309.618ZM302.098 305.906C301.404 305.906 300.446 306.053 299.608 306.695C298.669 307.416 298.226 308.494 298.226 309.634H302.871C302.871 309.649 302.868 309.768 302.79 309.937C302.71 310.114 302.583 310.269 302.436 310.381C302.173 310.583 301.99 310.552 302.098 310.552V305.906ZM300.548 307.311H299.656V311.957H300.548V307.311ZM301.979 309.634C301.979 309.64 301.978 309.662 301.965 309.694C301.951 309.727 301.929 309.76 301.902 309.786C301.874 309.814 301.857 309.817 301.873 309.811C301.89 309.805 301.959 309.782 302.098 309.782V305.137C300.791 305.137 299.575 305.574 298.674 306.446C297.781 307.308 297.334 308.466 297.334 309.634H301.979ZM302.098 309.782C302.229 309.782 302.286 309.804 302.291 309.806C302.294 309.807 302.27 309.797 302.243 309.768C302.217 309.741 302.215 309.726 302.222 309.746C302.23 309.768 302.25 309.838 302.25 309.968H306.896C306.896 308.744 306.507 307.5 305.59 306.548C304.662 305.583 303.403 305.137 302.098 305.137V309.782ZM302.25 309.968V312.332H306.896V309.968H302.25ZM304.573 314.655H305.387V310.009H304.573V314.655ZM303.064 312.332V313.112H307.71V312.332H303.064ZM305.387 310.79H304.406V315.435H305.387V310.79ZM304.406 310.79C304.611 310.79 305.106 310.852 305.55 311.291C305.998 311.734 306.071 312.239 306.071 312.466H301.425C301.425 313.105 301.615 313.934 302.286 314.596C302.953 315.255 303.777 315.435 304.406 315.435V310.79ZM306.071 312.466V312.165H301.425V312.466H306.071ZM306.001 312.728L306.146 312.148L301.64 311.022L301.495 311.601L306.001 312.728ZM303.893 309.262H303.625V313.908H303.893V309.262ZM301.372 311.022C301.359 311.072 301.349 311.089 301.353 311.081C301.359 311.07 301.383 311.032 301.433 310.987C301.458 310.965 301.485 310.945 301.512 310.929C301.54 310.913 301.563 310.903 301.578 310.897C301.611 310.886 301.589 310.901 301.485 310.901V315.547C302.644 315.547 303.699 315.189 304.521 314.457C305.307 313.758 305.695 312.882 305.879 312.148L301.372 311.022ZM301.485 310.901C301.34 310.901 301.353 310.877 301.453 310.921C301.566 310.971 301.694 311.065 301.797 311.199C301.891 311.321 301.929 311.429 301.943 311.482C301.956 311.533 301.957 311.563 301.957 311.574H297.311C297.311 312.125 297.417 313.125 298.117 314.034C298.905 315.057 300.116 315.547 301.485 315.547V310.901ZM298.226 311.462C298.226 312.286 298.502 313.209 299.261 313.904C299.991 314.572 300.879 314.766 301.596 314.766V310.121C301.667 310.121 302.031 310.142 302.398 310.478C302.796 310.842 302.871 311.274 302.871 311.462H298.226ZM301.596 314.766C302.779 314.766 303.91 314.346 304.749 313.501C305.581 312.662 305.982 311.55 305.982 310.425H301.336C301.336 310.441 301.334 310.423 301.35 310.38C301.367 310.336 301.399 310.281 301.451 310.229C301.504 310.176 301.558 310.144 301.598 310.129C301.638 310.113 301.643 310.121 301.596 310.121V314.766ZM303.42 308.115L301.369 308.327L301.846 312.948L303.897 312.736L303.42 308.115ZM301.387 308.325C300.933 308.368 300.143 308.483 299.442 308.996C298.553 309.647 298.226 310.603 298.226 311.462H302.871C302.871 311.576 302.852 311.803 302.729 312.073C302.599 312.361 302.4 312.588 302.187 312.744C301.993 312.886 301.832 312.937 301.784 312.951C301.736 312.965 301.739 312.958 301.828 312.949L301.387 308.325ZM307.347 313.112V315.435H309.67V313.112H307.347ZM306.433 313.112H304.11V315.435H306.433V313.112ZM306.433 307.571V305.249H304.11V307.571H306.433ZM307.347 307.571H309.67V305.249H307.347V307.571ZM307.347 308.53L309.612 309.047L309.67 308.792V308.53H307.347ZM307.202 309.166L304.938 308.649L304.29 311.488H307.202V309.166ZM307.459 309.166V311.488H309.322L309.726 309.669L307.459 309.166ZM311.651 313.112V315.435H313.974V313.112H311.651ZM310.748 313.112H308.425V315.435H310.748V313.112ZM309.343 305.917C308.101 305.917 306.942 306.43 306.131 307.392C305.347 308.321 305.025 309.499 305.025 310.66H309.67C309.67 310.327 309.76 310.294 309.682 310.387C309.642 310.434 309.58 310.486 309.499 310.522C309.42 310.558 309.36 310.563 309.343 310.563V305.917ZM305.025 310.66V313.112H309.67V310.66H305.025ZM307.347 310.79H306.433V315.435H307.347V310.79ZM308.756 313.112V307.571H304.11V313.112H308.756ZM306.433 309.894H307.347V305.249H306.433V309.894ZM305.025 307.571V308.53H309.67V307.571H305.025ZM305.083 308.014L304.938 308.649L309.467 309.682L309.612 309.047L305.083 308.014ZM307.202 311.488H307.459V306.843H307.202V311.488ZM309.726 309.669C309.739 309.613 309.75 309.598 309.742 309.612C309.734 309.627 309.709 309.665 309.66 309.706C309.611 309.748 309.562 309.772 309.53 309.783C309.501 309.793 309.514 309.782 309.588 309.782V305.137C308.514 305.137 307.481 305.461 306.651 306.167C305.837 306.859 305.389 307.771 305.191 308.662L309.726 309.669ZM309.588 309.782C309.679 309.782 309.688 309.796 309.641 309.779C309.586 309.759 309.497 309.711 309.415 309.625C309.333 309.54 309.305 309.469 309.303 309.462C309.303 309.462 309.309 309.48 309.316 309.524C309.322 309.567 309.328 309.632 309.328 309.723H313.974C313.974 308.561 313.662 307.34 312.761 306.404C311.85 305.457 310.658 305.137 309.588 305.137V309.782ZM309.328 309.723V313.112H313.974V309.723H309.328ZM311.651 310.79H310.748V315.435H311.651V310.79ZM313.071 313.112V309.846H308.425V313.112H313.071ZM313.071 309.846C313.071 309.039 312.926 307.934 312.121 307.047C311.266 306.105 310.141 305.917 309.343 305.917V310.563C309.493 310.563 309.07 310.598 308.681 310.169C308.51 309.981 308.446 309.805 308.426 309.735C308.409 309.676 308.425 309.697 308.425 309.846H313.071ZM319.308 307.571H321.631V305.249H319.308V307.571ZM319.308 308.352V310.674H321.631V308.352H319.308ZM318.115 308.575L316.737 306.705L314.783 308.145L316.308 310.034L318.115 308.575ZM315.886 312.298L315.086 310.118L316.261 314.591L315.886 312.298ZM313.199 315.153H310.876V317.475H313.199V315.153ZM313.199 314.372V312.049H310.876V314.372H313.199ZM313.7 313.201L311.474 313.865L312.14 316.096L314.369 315.426L313.7 313.201ZM313.511 312.566L312.895 310.326L310.607 310.956L311.285 313.23L313.511 312.566ZM316.142 311.797L316.833 314.014L318.465 313.506V311.797H316.142ZM316.142 311.54H318.465V308.547L315.565 309.29L316.142 311.54ZM317.524 307.995L316.19 309.896L317.459 310.787L318.769 309.956L317.524 307.995ZM318.818 309.894H319.308V305.249H318.818V309.894ZM316.986 307.571V308.352H321.631V307.571H316.986ZM319.308 306.029H318.84V310.674H319.308V306.029ZM318.84 306.029C318.078 306.029 317.384 306.228 316.737 306.705L319.493 310.445C319.435 310.487 319.31 310.566 319.134 310.621C318.968 310.673 318.85 310.674 318.84 310.674V306.029ZM316.308 310.034C316.173 309.866 316.172 309.737 316.172 309.745H320.817C320.817 308.795 320.526 307.863 319.922 307.115L316.308 310.034ZM316.172 309.745C316.172 309.728 316.178 309.665 316.212 309.59C316.244 309.52 316.271 309.505 316.235 309.539C316.192 309.579 316.092 309.658 315.893 309.766C315.695 309.873 315.431 309.991 315.086 310.118L316.685 314.479C317.629 314.133 318.622 313.664 319.4 312.939C320.262 312.137 320.817 311.056 320.817 309.745H316.172ZM316.261 314.591C316.481 314.555 316.656 314.543 316.781 314.545C316.915 314.548 316.924 314.566 316.851 314.54C316.766 314.509 316.54 314.403 316.344 314.138C316.138 313.859 316.105 313.594 316.105 313.491H320.75C320.75 312.775 320.561 312.028 320.081 311.378C319.61 310.74 318.991 310.374 318.432 310.171C317.398 309.798 316.29 309.879 315.51 310.006L316.261 314.591ZM316.105 313.491C316.105 313.436 316.132 313.125 316.398 312.827C316.615 312.584 316.791 312.579 316.591 312.634C316.397 312.687 316.045 312.744 315.44 312.782C314.849 312.818 314.117 312.83 313.199 312.83V317.475C314.975 317.475 316.617 317.444 317.82 317.114C318.462 316.937 319.25 316.609 319.867 315.917C320.533 315.169 320.75 314.283 320.75 313.491H316.105ZM315.521 315.153V314.372H310.876V315.153H315.521ZM313.199 316.695C314.709 316.695 316.035 316.684 316.977 316.507C317.445 316.419 318.156 316.236 318.769 315.727C319.527 315.099 319.836 314.237 319.836 313.424H315.191C315.191 313.279 315.215 313.048 315.33 312.785C315.449 312.513 315.624 312.3 315.803 312.152C316.104 311.902 316.331 311.902 316.118 311.942C315.948 311.974 315.645 312.006 315.126 312.025C314.62 312.044 313.991 312.049 313.199 312.049V316.695ZM319.836 313.424C319.836 312.869 319.691 312.267 319.316 311.725C318.95 311.195 318.471 310.876 318.049 310.69C317.284 310.352 316.484 310.35 315.985 310.38C314.91 310.443 313.733 310.766 313.031 310.977L314.369 315.426C315.039 315.224 315.768 315.046 316.257 315.017C316.308 315.014 316.347 315.013 316.376 315.014C316.391 315.014 316.402 315.014 316.409 315.015C316.417 315.015 316.42 315.016 316.42 315.016C316.419 315.016 316.414 315.015 316.405 315.013C316.395 315.012 316.38 315.009 316.36 315.004C316.322 314.995 316.256 314.976 316.172 314.939C316 314.863 315.723 314.696 315.495 314.367C315.259 314.026 315.191 313.674 315.191 313.424H319.836ZM315.926 312.538L315.737 311.902L311.285 313.23L311.474 313.865L315.926 312.538ZM314.127 314.806C315.04 314.554 315.947 314.291 316.833 314.014L315.451 309.579C314.62 309.838 313.765 310.087 312.895 310.326L314.127 314.806ZM318.465 311.797V311.54H313.819V311.797H318.465ZM315.565 309.29C315.307 309.356 315.104 309.372 314.966 309.367C314.824 309.361 314.79 309.334 314.828 309.353C314.879 309.378 314.98 309.448 315.058 309.577C315.133 309.702 315.12 309.772 315.12 309.701H310.475C310.475 311.394 311.324 312.804 312.773 313.519C314.05 314.149 315.501 314.102 316.719 313.79L315.565 309.29ZM315.12 309.701C315.12 309.642 315.13 309.675 315.091 309.752C315.052 309.829 315.002 309.875 314.981 309.891C314.967 309.9 315.003 309.871 315.12 309.84C315.238 309.809 315.411 309.782 315.64 309.782V305.137C314.541 305.137 313.296 305.377 312.261 306.124C311.129 306.942 310.475 308.212 310.475 309.701H315.12ZM315.64 309.782C315.969 309.782 316.156 309.872 316.19 309.896L318.859 306.094C317.845 305.382 316.649 305.137 315.64 305.137V309.782ZM318.769 309.956C318.826 309.92 318.871 309.892 318.906 309.871C318.941 309.851 318.963 309.839 318.975 309.833C318.996 309.822 318.967 309.839 318.905 309.858C318.875 309.868 318.843 309.876 318.811 309.883C318.78 309.889 318.755 309.893 318.74 309.894C318.726 309.896 318.724 309.896 318.737 309.895C318.75 309.895 318.775 309.894 318.818 309.894V305.249C318.486 305.249 318.025 305.263 317.495 305.432C317.009 305.587 316.603 305.829 316.28 306.034L318.769 309.956ZM315.651 313.54C316.438 313.54 317.491 313.414 318.399 312.77C319.455 312.021 319.903 310.876 319.903 309.723H315.257C315.257 309.723 315.257 309.715 315.259 309.702C315.26 309.688 315.263 309.667 315.268 309.641C315.279 309.587 315.3 309.513 315.34 309.427C315.428 309.239 315.565 309.084 315.711 308.981C315.841 308.889 315.931 308.871 315.914 308.875C315.896 308.879 315.815 308.894 315.651 308.894V313.54ZM319.903 309.723C319.903 308.566 319.448 307.426 318.394 306.682C317.488 306.043 316.439 305.917 315.651 305.917V310.563C315.815 310.563 315.896 310.578 315.915 310.582C315.933 310.587 315.846 310.57 315.716 310.478C315.572 310.376 315.433 310.222 315.343 310.032C315.259 309.854 315.257 309.729 315.257 309.723H319.903ZM315.651 305.917C314.865 305.917 313.822 306.045 312.919 306.674C311.868 307.407 311.389 308.542 311.389 309.723H316.034C316.034 309.738 316.031 309.869 315.943 310.049C315.851 310.24 315.713 310.39 315.574 310.486C315.45 310.572 315.368 310.588 315.389 310.583C315.411 310.578 315.492 310.563 315.651 310.563V305.917ZM311.389 309.723C311.389 310.901 311.861 312.04 312.914 312.778C313.819 313.412 314.865 313.54 315.651 313.54V308.894C315.492 308.894 315.411 308.879 315.391 308.875C315.371 308.87 315.455 308.886 315.58 308.973C315.719 309.071 315.856 309.221 315.947 309.41C316.032 309.588 316.034 309.714 316.034 309.723H311.389ZM325.213 310.515V312.837H327.536V310.515H325.213ZM320.831 310.515V308.192H318.382L318.512 310.638L320.831 310.515ZM324.488 311.172V308.85H322.652L322.228 310.637L324.488 311.172ZM325.403 311.172L327.658 311.729L328.368 308.85H325.403V311.172ZM320.831 309.823H318.509V312.146H320.831V309.823ZM324.321 309.823V312.146H326.644V309.823H324.321ZM322.262 310.269C322.262 310.065 322.294 309.945 322.315 309.888C322.335 309.834 322.35 309.824 322.343 309.831C322.312 309.862 322.352 309.782 322.626 309.782V305.137C321.328 305.137 320.026 305.57 319.044 306.56C318.06 307.553 317.617 308.885 317.617 310.269H322.262ZM322.626 309.782C322.772 309.782 322.845 309.805 322.866 309.813C322.882 309.82 322.867 309.816 322.845 309.794C322.824 309.772 322.829 309.766 322.844 309.807C322.861 309.853 322.89 309.963 322.89 310.158H327.536C327.536 308.838 327.13 307.53 326.165 306.544C325.196 305.555 323.907 305.137 322.626 305.137V309.782ZM322.89 310.158V310.515H327.536V310.158H322.89ZM325.213 308.192H320.831V312.837H325.213V308.192ZM318.512 310.638C318.555 311.452 318.781 312.505 319.534 313.389C320.354 314.352 321.519 314.788 322.76 314.788V310.143C322.672 310.143 322.697 310.129 322.787 310.166C322.885 310.208 322.989 310.281 323.071 310.377C323.146 310.466 323.169 310.533 323.17 310.536C323.17 310.536 323.156 310.492 323.151 310.391L318.512 310.638ZM322.76 314.788C323.591 314.788 324.494 314.583 325.277 314.001C326.076 313.408 326.543 312.576 326.749 311.708L322.228 310.637C322.229 310.635 322.241 310.583 322.289 310.506C322.339 310.426 322.412 310.342 322.507 310.272C322.704 310.125 322.843 310.143 322.76 310.143V314.788ZM324.488 313.495H325.403V308.85H324.488V313.495ZM323.148 310.616C323.132 310.68 323.109 310.741 323.084 310.79C323.06 310.837 323.041 310.857 323.037 310.861C323.035 310.863 323.035 310.862 323.036 310.862C323.037 310.861 323.035 310.863 323.025 310.867C323.011 310.873 322.934 310.901 322.76 310.901V315.547C324.223 315.547 325.422 315.028 326.288 314.179C327.1 313.383 327.483 312.435 327.658 311.729L323.148 310.616ZM322.76 310.901C322.53 310.901 322.423 310.862 322.393 310.85C322.378 310.843 322.373 310.839 322.375 310.841C322.377 310.842 322.379 310.844 322.378 310.843C322.375 310.84 322.262 310.692 322.262 310.269H317.617C317.617 311.44 317.922 312.77 318.834 313.846C319.798 314.984 321.194 315.547 322.76 315.547V310.901ZM320.831 312.146H324.321V307.501H320.831V312.146ZM326.644 309.823C326.644 308.862 326.318 307.841 325.534 307.053C324.74 306.256 323.686 305.906 322.626 305.906V310.552C322.671 310.552 322.464 310.554 322.241 310.33C322.029 310.117 321.998 309.893 321.998 309.823H326.644ZM322.626 305.906C320.438 305.906 318.509 307.469 318.509 309.823H323.154C323.154 310.012 323.069 310.238 322.892 310.401C322.72 310.559 322.583 310.552 322.626 310.552V305.906ZM332.348 313.112V315.435H334.671V313.112H332.348ZM331.434 313.112H329.112V315.435H331.434V313.112ZM331.434 312.298L329.181 311.735L329.112 312.012V312.298H331.434ZM331.59 311.674L333.844 312.237L334.565 309.351H331.59V311.674ZM331.323 311.674V309.351H329.549L329.082 311.063L331.323 311.674ZM331.323 309.021L329.08 309.624L329.543 311.343H331.323V309.021ZM331.59 309.021V311.343H334.553L333.846 308.467L331.59 309.021ZM331.434 308.385H329.112V308.666L329.179 308.939L331.434 308.385ZM331.434 304.918V302.595H329.112V304.918H331.434ZM332.348 304.918H334.671V302.595H332.348V304.918ZM332.348 310.79H331.434V315.435H332.348V310.79ZM333.757 313.112V312.298H329.112V313.112H333.757ZM333.688 312.862L333.844 312.237L329.337 311.111L329.181 311.735L333.688 312.862ZM331.59 309.351H331.323V313.997H331.59V309.351ZM329.082 311.063C329.085 311.051 329.094 311.028 329.113 310.998C329.134 310.966 329.162 310.936 329.193 310.913C329.225 310.889 329.245 310.883 329.239 310.885C329.232 310.887 329.184 310.901 329.082 310.901V315.547C331.355 315.547 333.045 314.187 333.564 312.285L329.082 311.063ZM329.082 310.901C328.983 310.901 328.937 310.883 328.925 310.878C328.914 310.873 328.905 310.867 328.892 310.853C328.868 310.825 328.762 310.681 328.762 310.336H324.117C324.117 311.641 324.53 312.941 325.425 313.945C326.343 314.973 327.643 315.547 329.082 315.547V310.901ZM328.762 310.336C328.762 310.001 328.865 309.859 328.89 309.832C328.903 309.817 328.912 309.811 328.924 309.806C328.937 309.801 328.983 309.782 329.082 309.782V305.137C327.643 305.137 326.344 305.71 325.427 306.735C324.532 307.736 324.117 309.033 324.117 310.336H328.762ZM329.082 309.782C329.184 309.782 329.231 309.796 329.238 309.798C329.243 309.8 329.222 309.794 329.189 309.769C329.157 309.745 329.129 309.714 329.108 309.683C329.089 309.654 329.082 309.632 329.08 309.624L333.566 308.417C333.05 306.503 331.36 305.137 329.082 305.137V309.782ZM331.323 311.343H331.59V306.698H331.323V311.343ZM333.846 308.467L333.69 307.831L329.179 308.939L329.335 309.575L333.846 308.467ZM333.757 308.385V304.918H329.112V308.385H333.757ZM331.434 307.24H332.348V302.595H331.434V307.24ZM330.026 304.918V313.112H334.671V304.918H330.026ZM333.757 310.336C333.757 309.083 333.339 307.877 332.377 307.01C331.456 306.182 330.319 305.917 329.349 305.917V310.563C329.43 310.563 329.456 310.574 329.438 310.568C329.416 310.561 329.347 310.534 329.268 310.462C329.185 310.388 329.135 310.304 329.112 310.247C329.092 310.197 329.112 310.214 329.112 310.336H333.757ZM329.349 305.917C328.374 305.917 327.227 306.186 326.315 307.058C325.383 307.95 325.031 309.153 325.031 310.336H329.676C329.676 310.188 329.698 310.151 329.685 310.188C329.668 310.233 329.622 310.324 329.527 310.415C329.434 310.503 329.344 310.545 329.298 310.561C329.258 310.574 329.268 310.563 329.349 310.563V305.917ZM325.031 310.336C325.031 311.52 325.38 312.725 326.312 313.621C327.225 314.498 328.374 314.766 329.349 314.766V310.121C329.268 310.121 329.258 310.109 329.299 310.123C329.346 310.139 329.437 310.181 329.53 310.271C329.625 310.362 329.671 310.453 329.686 310.495C329.699 310.529 329.676 310.489 329.676 310.336H325.031ZM329.349 314.766C330.319 314.766 331.459 314.502 332.38 313.669C333.343 312.798 333.757 311.589 333.757 310.336H329.112C329.112 310.464 329.092 310.484 329.11 310.436C329.132 310.381 329.181 310.298 329.265 310.223C329.344 310.151 329.413 310.123 329.436 310.115C329.455 310.109 329.43 310.121 329.349 310.121V314.766Z" fill="url(#paint5_linear_784_8867)" mask="url(#path-6-inside-1_784_8867)"/>
<path d="M792.66 549.334L522.619 279.293L434.427 366.965L709.469 640.128L792.66 549.334Z" fill="url(#paint6_linear_784_8867)"/>
<path d="M803.671 607.692L521.32 325.341H507.271L435.469 368.006L690.915 621.589L803.671 607.692Z" fill="url(#paint7_linear_784_8867)"/>
<path d="M480.214 238.969H435.468L393.843 279.813V326.381L435.468 368.006H480.214L521.839 326.381V279.813L480.214 238.969Z" fill="white" stroke="url(#paint8_linear_784_8867)" stroke-width="2.32271"/>
<path d="M425.58 294.683C425.58 291.026 428.553 289.985 431.734 289.628V288.439C429.386 288.231 426.769 287.339 426.769 284.158C426.769 280.352 431.11 279.312 435.243 279.312C439.345 279.312 443.686 280.352 443.686 284.158C443.686 287.339 441.07 288.231 438.721 288.439V289.628C441.902 289.985 444.875 291.323 444.875 294.683C444.875 299.113 440.981 300.867 435.243 300.867C429.475 300.867 425.58 299.113 425.58 294.683ZM431.526 285.228C431.526 286.507 432.686 286.982 435.243 286.982C437.77 286.982 438.929 286.507 438.929 285.228C438.929 283.98 437.77 283.474 435.243 283.474C432.686 283.474 431.526 283.98 431.526 285.228ZM430.337 293.939C430.337 295.812 431.794 296.704 435.243 296.704C438.662 296.704 440.118 295.812 440.118 293.939C440.118 292.096 438.662 291.145 435.243 291.145C431.794 291.145 430.337 292.096 430.337 293.939ZM456.491 279.312C462.823 279.312 466.569 283.682 466.569 290.074C466.569 296.496 462.823 300.867 456.491 300.867C450.128 300.867 446.382 296.496 446.382 290.074C446.382 283.682 450.128 279.312 456.491 279.312ZM456.491 283.474C453.131 283.474 451.139 285.763 451.139 290.074C451.139 291.115 451.258 292.007 451.466 292.81L459.464 284.277C458.661 283.742 457.65 283.474 456.491 283.474ZM456.491 296.704C459.85 296.704 461.813 294.415 461.813 290.074C461.813 289.064 461.694 288.142 461.486 287.339L453.488 295.872C454.32 296.437 455.331 296.704 456.491 296.704ZM479.05 279.312C485.383 279.312 489.129 283.682 489.129 290.074C489.129 296.496 485.383 300.867 479.05 300.867C472.688 300.867 468.942 296.496 468.942 290.074C468.942 283.682 472.688 279.312 479.05 279.312ZM479.05 283.474C475.691 283.474 473.699 285.763 473.699 290.074C473.699 291.115 473.817 292.007 474.026 292.81L482.023 284.277C481.22 283.742 480.21 283.474 479.05 283.474ZM479.05 296.704C482.41 296.704 484.372 294.415 484.372 290.074C484.372 289.064 484.253 288.142 484.045 287.339L476.047 295.872C476.88 296.437 477.891 296.704 479.05 296.704ZM437.068 314.569V306.709H438.908L441.138 314.313H441.394L443.635 306.709H445.463V314.569H444.549V307.624L444.705 306.966H444.438L442.186 314.569H440.346L438.094 306.966H437.837L437.982 307.624V314.569H437.068ZM448.582 308.148C448.125 308.148 447.779 307.813 447.779 307.367C447.779 306.943 448.125 306.598 448.582 306.598C449.028 306.598 449.385 306.943 449.385 307.367C449.385 307.813 449.028 308.148 448.582 308.148ZM446.731 314.569V313.789H448.292V309.708L447.144 309.809V309.028L448.426 308.917C448.95 308.872 449.151 309.162 449.151 309.586V313.789H450.711V314.569H446.731ZM451.563 314.569V313.789H453.124V307.055L451.975 307.155V306.375L453.269 306.263C453.781 306.219 454.027 306.509 454.027 307.033V313.789H455.576V314.569H451.563ZM456.43 314.569V313.789H457.99V307.055L456.842 307.155V306.375L458.135 306.263C458.648 306.219 458.893 306.509 458.893 307.033V313.789H460.443V314.569H456.43ZM463.237 308.148C462.78 308.148 462.434 307.813 462.434 307.367C462.434 306.943 462.78 306.598 463.237 306.598C463.683 306.598 464.04 306.943 464.04 307.367C464.04 307.813 463.683 308.148 463.237 308.148ZM461.386 314.569V313.789H462.947V309.708L461.799 309.809V309.028L463.081 308.917C463.605 308.872 463.805 309.162 463.805 309.586V313.789H465.366V314.569H461.386ZM465.992 311.793C465.992 310.188 467.151 308.917 468.924 308.917C470.685 308.917 471.834 310.188 471.834 311.793C471.834 313.41 470.685 314.681 468.924 314.681C467.151 314.681 465.992 313.41 465.992 311.793ZM466.906 311.793C466.906 312.953 467.608 313.9 468.924 313.9C470.228 313.9 470.931 312.953 470.931 311.793C470.931 310.645 470.228 309.697 468.924 309.697C467.608 309.697 466.906 310.645 466.906 311.793ZM476.016 309.697C474.846 309.697 474.021 310.623 474.021 312.117V314.569H473.106V309.028H474.021V309.987L473.876 310.623H474.132C474.355 309.619 475.058 308.917 476.262 308.917C477.51 308.917 478.324 309.641 478.324 311.18V314.569H477.421V311.303C477.421 310.143 476.964 309.697 476.016 309.697ZM445.239 326.585C445.239 327.755 444.536 328.681 442.217 328.681C439.475 328.681 438.661 327.466 438.661 325.626H439.575C439.575 327.488 440.567 327.9 442.217 327.9C443.555 327.9 444.325 327.577 444.325 326.629C444.325 325.436 442.942 325.191 441.693 324.823C440.144 324.355 439.018 323.931 439.018 322.538C439.018 321.334 439.865 320.598 441.805 320.598C444.124 320.598 444.915 322.014 444.915 323.296H444.001C444.001 321.958 443.009 321.378 441.805 321.378C440.723 321.378 439.932 321.646 439.932 322.515C439.932 323.34 440.623 323.641 441.916 324.043C443.455 324.522 445.239 324.946 445.239 326.585ZM448.704 327.9C449.875 327.9 450.7 326.975 450.7 325.492V323.028H451.603V328.569H450.7V327.611L450.845 326.975H450.589C450.366 327.978 449.663 328.681 448.459 328.681C447.199 328.681 446.385 327.956 446.385 326.418V323.028H447.3V326.295C447.3 327.454 447.746 327.9 448.704 327.9ZM453.073 323.028H453.987V323.842L453.842 324.478H454.099C454.333 323.608 455.069 322.917 456.34 322.917C457.945 322.917 458.982 324.154 458.982 325.804C458.982 327.443 457.945 328.681 456.34 328.681C455.069 328.681 454.333 327.99 454.099 327.131H453.842L453.987 327.755V330.598H453.073V323.028ZM453.987 325.804C453.987 327.276 454.935 327.9 456.072 327.9C457.221 327.9 458.068 327.254 458.068 325.804C458.068 324.344 457.221 323.697 456.072 323.697C454.935 323.697 453.987 324.322 453.987 325.804ZM460.313 323.028H461.228V323.842L461.083 324.478H461.339C461.573 323.608 462.309 322.917 463.58 322.917C465.186 322.917 466.222 324.154 466.222 325.804C466.222 327.443 465.186 328.681 463.58 328.681C462.309 328.681 461.573 327.99 461.339 327.131H461.083L461.228 327.755V330.598H460.313V323.028ZM461.228 325.804C461.228 327.276 462.175 327.9 463.313 327.9C464.461 327.9 465.308 327.254 465.308 325.804C465.308 324.344 464.461 323.697 463.313 323.697C462.175 323.697 461.228 324.322 461.228 325.804ZM466.773 328.569V327.789H468.334V321.055L467.185 321.155V320.375L468.479 320.263C468.992 320.219 469.237 320.509 469.237 321.033V327.789H470.787V328.569H466.773ZM475.758 323.028H476.75L474.342 328.514V330.063C474.342 330.487 474.096 330.743 473.572 330.721L471.432 330.621V329.84L473.428 329.941V328.514L471.008 323.028H472.012L473.751 327.343V327.767H474.018V327.343L475.758 323.028Z" fill="url(#paint9_linear_784_8867)"/>
<path d="M766.975 708.068L450.366 390.419L355.149 468.726L673.059 793.399L766.975 708.068Z" fill="url(#paint10_linear_784_8867)"/>
<path d="M789.607 776.489L450.365 437.247H445.683L367.376 480.692L543.501 660.459L724.048 833.723L789.607 776.489Z" fill="url(#paint11_linear_784_8867)"/>
<path d="M410.043 350.095H365.297L323.672 390.939V437.507L365.297 479.132H410.043L451.668 437.507V390.939L410.043 350.095Z" fill="white" stroke="url(#paint12_linear_784_8867)" stroke-width="2.32271"/>
<path d="M375.842 404.174C375.842 410.714 372.958 415.739 365.466 415.114L358.42 414.52V410.358L365.466 410.952C369.272 411.279 371.591 410.179 372.483 406.255L373.672 403.579H372.483C372.126 407.087 368.945 409.168 365.02 409.168C359.817 409.168 356.725 406.284 356.725 401.498C356.725 396.83 360.323 393.56 366.269 393.56C372.037 393.56 375.842 396.919 375.842 404.174ZM371.085 401.2C371.085 399.387 369.599 397.722 366.269 397.722C362.999 397.722 361.482 398.703 361.482 401.498C361.482 403.936 362.939 405.006 366.15 405.006C369.628 405.006 371.085 403.668 371.085 401.2ZM388.326 393.56C394.658 393.56 398.404 397.93 398.404 404.322C398.404 410.744 394.658 415.114 388.326 415.114C381.963 415.114 378.217 410.744 378.217 404.322C378.217 397.93 381.963 393.56 388.326 393.56ZM388.326 397.722C384.966 397.722 382.974 400.011 382.974 404.322C382.974 405.363 383.093 406.255 383.301 407.057L391.299 398.525C390.496 397.99 389.485 397.722 388.326 397.722ZM388.326 410.952C391.685 410.952 393.648 408.663 393.648 404.322C393.648 403.311 393.529 402.39 393.321 401.587L385.323 410.12C386.155 410.685 387.166 410.952 388.326 410.952ZM413.174 414.817L409.428 409.02L406.128 410.566V414.817H401.371V392.965H406.128V405.66L412.996 402.509L412.937 399.803H417.693V403.074C417.693 404.501 417.129 405.422 415.82 406.047L413.501 407.117L418.585 414.817H413.174ZM376.52 428.817L375.527 425.74H372.372L371.391 428.817H370.477L373.019 420.957H374.892L377.423 428.817H376.52ZM372.629 424.96H375.282L374.078 421.214H373.822L372.629 424.96ZM378.136 426.041C378.136 424.447 379.173 423.165 380.968 423.165C382.038 423.165 383.41 423.767 383.555 425.372H382.629C382.473 424.313 381.771 423.945 380.968 423.945C379.652 423.945 379.05 424.904 379.05 426.041C379.05 427.189 379.652 428.148 380.968 428.148C381.771 428.148 382.473 427.78 382.629 426.721H383.555C383.41 428.327 382.038 428.929 380.968 428.929C379.173 428.929 378.136 427.646 378.136 426.041ZM386.192 428.159L388.143 428.037V428.817L386.047 428.929C385.523 428.962 385.289 428.683 385.289 428.17V424.057H384.062V423.276H385.289V421.849L386.192 421.57V423.276H387.92V424.057H386.192V428.159ZM390.962 422.395C390.505 422.395 390.159 422.061 390.159 421.615C390.159 421.191 390.505 420.846 390.962 420.846C391.408 420.846 391.764 421.191 391.764 421.615C391.764 422.061 391.408 422.395 390.962 422.395ZM389.111 428.817V428.037H390.672V423.956L389.524 424.057V423.276L390.806 423.165C391.33 423.12 391.53 423.41 391.53 423.834V428.037H393.091V428.817H389.111ZM397.66 423.276H398.541L396.735 428.817H394.884L393.055 423.276H393.947L395.675 428.561H395.943L397.66 423.276ZM399.149 425.974C399.149 424.19 400.264 423.165 401.836 423.165C403.397 423.165 404.423 424.157 404.423 425.863V426.219H400.041C400.097 427.267 400.599 428.17 401.97 428.17C402.884 428.17 403.498 427.725 403.698 426.877H404.612C404.401 427.736 403.732 428.929 401.97 428.929C399.986 428.929 399.149 427.568 399.149 425.974ZM400.041 425.528H403.531C403.531 424.636 402.94 423.934 401.836 423.934C400.744 423.934 400.041 424.636 400.041 425.528ZM373.297 439.896V434.957H374.211V439.751C374.211 441.345 374.768 442.148 376.407 442.148C378.046 442.148 378.615 441.345 378.615 439.751V434.957H379.529V439.896C379.529 441.858 378.559 442.929 376.407 442.929C374.267 442.929 373.297 441.858 373.297 439.896ZM385.294 441.379C385.294 442.215 384.77 442.929 383.109 442.929C381.314 442.929 380.578 442.092 380.578 440.777H381.492C381.492 441.736 382.05 442.182 383.12 442.182C383.978 442.182 384.38 441.981 384.38 441.412C384.38 440.688 383.633 440.565 382.73 440.286C381.682 439.952 380.834 439.629 380.834 438.625C380.834 437.744 381.581 437.165 382.852 437.165C384.58 437.165 385.104 438.112 385.104 439.026H384.19C384.19 438.279 383.733 437.912 382.852 437.912C382.239 437.912 381.749 438.09 381.749 438.592C381.749 439.127 382.128 439.294 383.02 439.584C384.112 439.941 385.294 440.186 385.294 441.379ZM386.231 439.974C386.231 438.19 387.346 437.165 388.918 437.165C390.479 437.165 391.505 438.157 391.505 439.863V440.219H387.123C387.179 441.267 387.681 442.17 389.052 442.17C389.966 442.17 390.579 441.725 390.78 440.877H391.694C391.482 441.736 390.813 442.929 389.052 442.929C387.067 442.929 386.231 441.568 386.231 439.974ZM387.123 439.528H390.613C390.613 438.636 390.022 437.934 388.918 437.934C387.826 437.934 387.123 438.636 387.123 439.528ZM392.954 442.817V437.934C392.954 437.41 393.199 437.153 393.723 437.176L396.801 437.276V438.057L393.868 437.956V442.817H392.954ZM402.235 441.379C402.235 442.215 401.711 442.929 400.05 442.929C398.255 442.929 397.519 442.092 397.519 440.777H398.433C398.433 441.736 398.991 442.182 400.061 442.182C400.92 442.182 401.321 441.981 401.321 441.412C401.321 440.688 400.574 440.565 399.671 440.286C398.623 439.952 397.776 439.629 397.776 438.625C397.776 437.744 398.523 437.165 399.794 437.165C401.522 437.165 402.046 438.112 402.046 439.026H401.131C401.131 438.279 400.674 437.912 399.794 437.912C399.18 437.912 398.69 438.09 398.69 438.592C398.69 439.127 399.069 439.294 399.961 439.584C401.053 439.941 402.235 440.186 402.235 441.379Z" fill="url(#paint13_linear_784_8867)"/>
<path d="M668.829 834.221L565.808 715.07L352.66 480.355L349.593 477.536L240.094 494.094V542.067L594.685 923.974L668.829 834.221Z" fill="url(#paint14_linear_784_8867)"/>
<path d="M350.662 528.072L677.417 878.501L660.767 989.067L264.551 569.177L350.662 528.072Z" fill="url(#paint15_linear_784_8867)"/>
<path d="M309.815 439.826H265.068L223.443 480.67V527.238L265.068 568.862H309.815L351.44 527.238V480.67L309.815 439.826Z" fill="white" stroke="url(#paint16_linear_784_8867)" stroke-width="2.32271"/>
<path d="M257.314 498.409H262.071C262.071 500.936 263.468 502.244 267.184 502.244C270.544 502.244 271.644 500.936 271.644 498.32C271.644 496.09 270.544 494.96 268.314 494.96C266.56 494.96 265.163 495.674 263.973 497.19L258.622 494.098V485.149H274.736V489.311H263.379V492.314L262.487 494.99L263.468 495.555C264.598 492.284 266.798 490.798 269.741 490.798C273.428 490.798 276.401 493.384 276.401 498.201C276.401 503.969 272.714 506.406 267.184 506.406C261.654 506.406 257.314 504.117 257.314 498.409ZM288.617 484.852C294.949 484.852 298.696 489.222 298.696 495.614C298.696 502.036 294.949 506.406 288.617 506.406C282.254 506.406 278.508 502.036 278.508 495.614C278.508 489.222 282.254 484.852 288.617 484.852ZM288.617 489.014C285.257 489.014 283.265 491.303 283.265 495.614C283.265 496.655 283.384 497.547 283.592 498.349L291.59 489.817C290.787 489.282 289.776 489.014 288.617 489.014ZM288.617 502.244C291.976 502.244 293.939 499.955 293.939 495.614C293.939 494.603 293.82 493.682 293.612 492.879L285.614 501.412C286.446 501.977 287.457 502.244 288.617 502.244ZM313.465 506.109L309.719 500.312L306.419 501.858V506.109H301.662V484.257H306.419V496.952L313.287 493.801L313.228 491.095H317.984V494.366C317.984 495.793 317.42 496.714 316.111 497.339L313.792 498.409L318.876 506.109H313.465ZM261.516 513.03H259.766V519.329H261.516V520.109H257.09V519.329H258.852V513.03H257.09V512.249H261.516V513.03ZM265.729 515.237C264.559 515.237 263.734 516.162 263.734 517.656V520.109H262.82V514.568H263.734V515.527L263.589 516.162H263.845C264.068 515.159 264.771 514.457 265.975 514.457C267.223 514.457 268.037 515.181 268.037 516.72V520.109H267.134V516.842C267.134 515.683 266.677 515.237 265.729 515.237ZM273.272 520.109V512.249H275.881C277.754 512.249 278.947 512.684 278.947 514.445C278.947 515.627 278.333 516.151 277.486 516.296V516.564H278.423C278.868 516.564 279.047 516.742 279.047 517.155V520.109H278.133V516.954H274.186V520.109H273.272ZM274.186 516.174H275.881C277.218 516.174 278.032 516.04 278.032 514.602C278.032 513.152 277.218 513.03 275.881 513.03H274.186V516.174ZM280.289 517.266C280.289 515.482 281.404 514.457 282.976 514.457C284.537 514.457 285.563 515.449 285.563 517.155V517.511H281.181C281.237 518.559 281.738 519.462 283.11 519.462C284.024 519.462 284.637 519.017 284.838 518.169H285.752C285.54 519.028 284.871 520.221 283.11 520.221C281.125 520.221 280.289 518.86 280.289 517.266ZM281.181 516.82H284.671C284.671 515.928 284.08 515.226 282.976 515.226C281.883 515.226 281.181 515.928 281.181 516.82ZM286.346 514.568H287.215L288.553 519.853H288.821L289.936 514.568H291.82L292.946 519.853H293.202L294.551 514.568H295.41L294.005 520.109H292.143L291.017 514.836H290.749L289.623 520.109H287.75L286.346 514.568ZM296.131 518.571C296.131 517.69 296.655 517.088 297.948 516.954L300.155 516.742C300.1 515.728 299.553 515.226 298.595 515.226C297.792 515.226 297.045 515.583 297.045 516.631H296.153C296.153 515.482 297.023 514.457 298.595 514.457C300.144 514.457 301.07 515.482 301.07 516.965V519.329H301.884V520.109H300.902C300.479 520.109 300.245 519.875 300.245 519.462V519.161L300.39 518.582H300.122C299.91 519.429 299.319 520.221 297.981 520.221C296.376 520.221 296.131 519.15 296.131 518.571ZM297.045 518.459C297.045 519.095 297.446 519.44 298.093 519.44C299.353 519.44 300.155 518.571 300.155 517.422L298.104 517.634C297.402 517.701 297.045 517.913 297.045 518.459ZM302.93 520.109V515.226C302.93 514.702 303.175 514.445 303.699 514.468L306.776 514.568V515.349L303.844 515.248V520.109H302.93ZM313.145 520.109H312.231V519.295L312.387 518.671H312.119C311.885 519.529 311.138 520.221 309.878 520.221C308.273 520.221 307.236 518.983 307.236 517.333C307.236 515.694 308.273 514.457 309.878 514.457C311.138 514.457 311.885 515.148 312.119 516.017H312.387L312.231 515.382V511.915H313.145V520.109ZM312.231 517.333C312.231 515.861 311.294 515.237 310.146 515.237C308.998 515.237 308.15 515.861 308.15 517.333C308.15 518.816 308.998 519.44 310.146 519.44C311.294 519.44 312.231 518.816 312.231 517.333ZM319.135 518.671C319.135 519.507 318.611 520.221 316.95 520.221C315.155 520.221 314.419 519.384 314.419 518.069H315.334C315.334 519.028 315.891 519.474 316.961 519.474C317.82 519.474 318.221 519.273 318.221 518.704C318.221 517.98 317.474 517.857 316.571 517.578C315.523 517.244 314.676 516.921 314.676 515.917C314.676 515.036 315.423 514.457 316.694 514.457C318.422 514.457 318.946 515.404 318.946 516.318H318.032C318.032 515.571 317.574 515.204 316.694 515.204C316.081 515.204 315.59 515.382 315.59 515.884C315.59 516.419 315.969 516.586 316.861 516.876C317.954 517.233 319.135 517.478 319.135 518.671Z" fill="url(#paint17_linear_784_8867)"/>
<path d="M825.068 456.515L633.306 253.953L537.91 272.825L544.687 339.386L687.678 482.66L833.801 629.916L912.218 566.328L825.068 456.515Z" fill="url(#paint18_linear_784_8867)"/>
<path d="M864.795 531.361L631.54 298.107L621.8 278.882L631.54 252.225L767.904 393.715L808.404 418.323L864.795 531.361Z" fill="url(#paint19_linear_784_8867)"/>
<path d="M506.89 254.865L547.825 214.698H591.593L632.528 254.865V300.436L591.586 341.378H547.832L506.89 300.436V254.865Z" fill="white" stroke="url(#paint20_linear_784_8867)" stroke-width="2.6066"/>
<path d="M535.336 266.267C535.336 258.926 538.573 253.288 546.981 253.988L554.888 254.656V259.327L546.981 258.659C542.71 258.292 540.108 259.527 539.107 263.931L537.772 266.934H539.107C539.507 262.997 543.077 260.661 547.481 260.661C553.32 260.661 556.79 263.898 556.79 269.269C556.79 274.508 552.753 278.178 546.08 278.178C539.607 278.178 535.336 274.407 535.336 266.267ZM540.675 269.603C540.675 271.638 542.343 273.507 546.08 273.507C549.75 273.507 551.451 272.406 551.451 269.269C551.451 266.533 549.817 265.332 546.213 265.332C542.31 265.332 540.675 266.834 540.675 269.603ZM570.458 253.988C577.564 253.988 581.768 258.893 581.768 266.066C581.768 273.273 577.564 278.178 570.458 278.178C563.318 278.178 559.114 273.273 559.114 266.066C559.114 258.893 563.318 253.988 570.458 253.988ZM570.458 258.659C566.688 258.659 564.452 261.228 564.452 266.066C564.452 267.234 564.586 268.235 564.819 269.136L573.794 259.56C572.893 258.96 571.759 258.659 570.458 258.659ZM570.458 273.507C574.228 273.507 576.43 270.938 576.43 266.066C576.43 264.932 576.297 263.898 576.063 262.997L567.088 272.572C568.022 273.206 569.157 273.507 570.458 273.507ZM603.448 266.834V270.837H596.442V277.844H592.438V270.837H585.431V266.834H592.438V259.827H596.442V266.834H603.448ZM546.625 293.844V285.023H548.689L551.192 293.556H551.479L553.994 285.023H556.046V293.844H555.02V286.049L555.195 285.311H554.895L552.368 293.844H550.303L547.776 285.311H547.488L547.651 286.049V293.844H546.625ZM559.546 286.637C559.033 286.637 558.645 286.262 558.645 285.761C558.645 285.286 559.033 284.898 559.546 284.898C560.046 284.898 560.447 285.286 560.447 285.761C560.447 286.262 560.046 286.637 559.546 286.637ZM557.469 293.844V292.968H559.221V288.389L557.932 288.502V287.626L559.371 287.501C559.959 287.451 560.184 287.776 560.184 288.251V292.968H561.936V293.844H557.469ZM562.891 293.844V292.968H564.643V285.411L563.354 285.524V284.648L564.805 284.523C565.381 284.473 565.656 284.798 565.656 285.386V292.968H567.395V293.844H562.891ZM568.353 293.844V292.968H570.104V285.411L568.816 285.524V284.648L570.267 284.523C570.842 284.473 571.118 284.798 571.118 285.386V292.968H572.857V293.844H568.353ZM575.992 286.637C575.479 286.637 575.091 286.262 575.091 285.761C575.091 285.286 575.479 284.898 575.992 284.898C576.492 284.898 576.893 285.286 576.893 285.761C576.893 286.262 576.492 286.637 575.992 286.637ZM573.915 293.844V292.968H575.667V288.389L574.378 288.502V287.626L575.817 287.501C576.405 287.451 576.63 287.776 576.63 288.251V292.968H578.382V293.844H573.915ZM579.083 290.729C579.083 288.927 580.385 287.501 582.374 287.501C584.351 287.501 585.639 288.927 585.639 290.729C585.639 292.543 584.351 293.969 582.374 293.969C580.385 293.969 579.083 292.543 579.083 290.729ZM580.109 290.729C580.109 292.03 580.898 293.093 582.374 293.093C583.838 293.093 584.626 292.03 584.626 290.729C584.626 289.44 583.838 288.376 582.374 288.376C580.898 288.376 580.109 289.44 580.109 290.729ZM590.333 288.376C589.02 288.376 588.094 289.415 588.094 291.091V293.844H587.068V287.626H588.094V288.702L587.931 289.415H588.219C588.469 288.289 589.257 287.501 590.609 287.501C592.01 287.501 592.923 288.314 592.923 290.04V293.844H591.91V290.178C591.91 288.877 591.397 288.376 590.333 288.376Z" fill="#5852F2"/>
<path d="M548.244 299.446V300.03H546.209V305.327H545.534V300.03H543.482V299.446H548.244ZM548.139 305.327V301.673C548.139 301.281 548.322 301.089 548.714 301.106L551.016 301.181V301.765L548.823 301.69V305.327H548.139ZM551.629 304.176C551.629 303.517 552.021 303.066 552.989 302.966L554.64 302.808C554.599 302.049 554.19 301.673 553.473 301.673C552.872 301.673 552.313 301.94 552.313 302.724H551.646C551.646 301.865 552.297 301.098 553.473 301.098C554.632 301.098 555.324 301.865 555.324 302.974V304.743H555.933V305.327H555.199C554.882 305.327 554.707 305.151 554.707 304.843V304.618L554.816 304.184H554.615C554.457 304.818 554.015 305.41 553.014 305.41C551.813 305.41 551.629 304.609 551.629 304.176ZM552.313 304.092C552.313 304.568 552.614 304.826 553.097 304.826C554.04 304.826 554.64 304.176 554.64 303.316L553.106 303.475C552.58 303.525 552.313 303.683 552.313 304.092ZM558.893 301.682C558.017 301.682 557.4 302.374 557.4 303.492V305.327H556.716V301.181H557.4V301.898L557.292 302.374H557.483C557.65 301.623 558.176 301.098 559.077 301.098C560.011 301.098 560.62 301.64 560.62 302.791V305.327H559.944V302.883C559.944 302.015 559.602 301.682 558.893 301.682ZM565.004 304.251C565.004 304.876 564.612 305.41 563.369 305.41C562.026 305.41 561.475 304.784 561.475 303.8H562.159C562.159 304.518 562.576 304.851 563.377 304.851C564.019 304.851 564.32 304.701 564.32 304.276C564.32 303.734 563.761 303.642 563.085 303.433C562.301 303.183 561.667 302.941 561.667 302.19C561.667 301.531 562.226 301.098 563.177 301.098C564.47 301.098 564.862 301.807 564.862 302.491H564.178C564.178 301.932 563.836 301.657 563.177 301.657C562.718 301.657 562.351 301.79 562.351 302.165C562.351 302.566 562.635 302.691 563.302 302.908C564.12 303.175 565.004 303.358 565.004 304.251ZM565.64 304.176C565.64 303.517 566.032 303.066 566.999 302.966L568.651 302.808C568.609 302.049 568.2 301.673 567.483 301.673C566.883 301.673 566.324 301.94 566.324 302.724H565.656C565.656 301.865 566.307 301.098 567.483 301.098C568.643 301.098 569.335 301.865 569.335 302.974V304.743H569.944V305.327H569.21C568.893 305.327 568.718 305.151 568.718 304.843V304.618L568.826 304.184H568.626C568.467 304.818 568.025 305.41 567.024 305.41C565.823 305.41 565.64 304.609 565.64 304.176ZM566.324 304.092C566.324 304.568 566.624 304.826 567.108 304.826C568.05 304.826 568.651 304.176 568.651 303.316L567.116 303.475C566.591 303.525 566.324 303.683 566.324 304.092ZM570.413 303.25C570.413 302.057 571.189 301.098 572.532 301.098C573.332 301.098 574.358 301.548 574.467 302.749H573.775C573.658 301.957 573.132 301.682 572.532 301.682C571.547 301.682 571.097 302.399 571.097 303.25C571.097 304.109 571.547 304.826 572.532 304.826C573.132 304.826 573.658 304.551 573.775 303.759H574.467C574.358 304.96 573.332 305.41 572.532 305.41C571.189 305.41 570.413 304.451 570.413 303.25ZM576.44 304.835L577.899 304.743V305.327L576.331 305.41C575.939 305.435 575.764 305.227 575.764 304.843V301.765H574.847V301.181H575.764V300.113L576.44 299.905V301.181H577.733V301.765H576.44V304.835ZM580.009 300.522C579.667 300.522 579.408 300.272 579.408 299.938C579.408 299.621 579.667 299.363 580.009 299.363C580.342 299.363 580.609 299.621 580.609 299.938C580.609 300.272 580.342 300.522 580.009 300.522ZM578.624 305.327V304.743H579.792V301.69L578.933 301.765V301.181L579.892 301.098C580.284 301.064 580.434 301.281 580.434 301.598V304.743H581.602V305.327H578.624ZM582.069 303.25C582.069 302.049 582.937 301.098 584.263 301.098C585.581 301.098 586.44 302.049 586.44 303.25C586.44 304.459 585.581 305.41 584.263 305.41C582.937 305.41 582.069 304.459 582.069 303.25ZM582.753 303.25C582.753 304.117 583.279 304.826 584.263 304.826C585.239 304.826 585.765 304.117 585.765 303.25C585.765 302.391 585.239 301.682 584.263 301.682C583.279 301.682 582.753 302.391 582.753 303.25ZM589.57 301.682C588.694 301.682 588.076 302.374 588.076 303.492V305.327H587.392V301.181H588.076V301.898L587.968 302.374H588.16C588.327 301.623 588.852 301.098 589.753 301.098C590.687 301.098 591.296 301.64 591.296 302.791V305.327H590.621V302.883C590.621 302.015 590.279 301.682 589.57 301.682ZM595.68 304.251C595.68 304.876 595.288 305.41 594.045 305.41C592.702 305.41 592.152 304.784 592.152 303.8H592.836C592.836 304.518 593.253 304.851 594.054 304.851C594.696 304.851 594.996 304.701 594.996 304.276C594.996 303.734 594.437 303.642 593.762 303.433C592.978 303.183 592.344 302.941 592.344 302.19C592.344 301.531 592.903 301.098 593.853 301.098C595.146 301.098 595.538 301.807 595.538 302.491H594.854C594.854 301.932 594.512 301.657 593.853 301.657C593.395 301.657 593.028 301.79 593.028 302.165C593.028 302.566 593.311 302.691 593.979 302.908C594.796 303.175 595.68 303.358 595.68 304.251Z" fill="#5852F2"/>
</g>
<defs>
<linearGradient id="paint0_linear_784_8867" x1="196.428" y1="387.752" x2="820.401" y2="330.707" gradientUnits="userSpaceOnUse">
<stop stop-color="#5852F2"/>
<stop offset="0.443709" stop-color="#A0A1F1"/>
<stop offset="0.653159" stop-color="#C7CCF1"/>
<stop offset="0.786458" stop-color="#98BCEF"/>
<stop offset="1" stop-color="#0C8BE8"/>
</linearGradient>
<linearGradient id="paint1_linear_784_8867" x1="167.293" y1="326.52" x2="308.293" y2="313.892" gradientUnits="userSpaceOnUse">
<stop stop-color="#5852F2"/>
<stop offset="0.443709" stop-color="#A0A1F1"/>
<stop offset="0.653159" stop-color="#C7CCF1"/>
<stop offset="0.786458" stop-color="#98BCEF"/>
<stop offset="1" stop-color="#0C8BE8"/>
</linearGradient>
<linearGradient id="paint2_linear_784_8867" x1="223.012" y1="409.953" x2="207.267" y2="313.585" gradientUnits="userSpaceOnUse">
<stop stop-color="#5852F2"/>
<stop offset="0.452768" stop-color="#C7CCF1"/>
<stop offset="0.932865" stop-color="#0C8BE8"/>
</linearGradient>
<linearGradient id="paint3_linear_784_8867" x1="233.794" y1="403.818" x2="390.18" y2="174.983" gradientUnits="userSpaceOnUse">
<stop stop-color="#5852F2"/>
<stop offset="0.452768" stop-color="#C7CCF1"/>
<stop offset="1" stop-color="#0C8BE8"/>
</linearGradient>
<linearGradient id="paint4_linear_784_8867" x1="246.15" y1="230.975" x2="387.15" y2="218.347" gradientUnits="userSpaceOnUse">
<stop stop-color="#5852F2"/>
<stop offset="0.443709" stop-color="#A0A1F1"/>
<stop offset="0.653159" stop-color="#C7CCF1"/>
<stop offset="0.786458" stop-color="#98BCEF"/>
<stop offset="1" stop-color="#0C8BE8"/>
</linearGradient>
<linearGradient id="paint5_linear_784_8867" x1="275.543" y1="261.83" x2="348.284" y2="255.319" gradientUnits="userSpaceOnUse">
<stop stop-color="#5852F2"/>
<stop offset="0.443709" stop-color="#A0A1F1"/>
<stop offset="0.653159" stop-color="#C7CCF1"/>
<stop offset="0.786458" stop-color="#98BCEF"/>
<stop offset="1" stop-color="#0C8BE8"/>
</linearGradient>
<linearGradient id="paint6_linear_784_8867" x1="642.551" y1="296.983" x2="232.665" y2="512.348" gradientUnits="userSpaceOnUse">
<stop stop-color="#9F9BFF"/>
<stop offset="0.452768" stop-color="#C7CCF1"/>
<stop offset="1" stop-color="#0C8BE8"/>
</linearGradient>
<linearGradient id="paint7_linear_784_8867" x1="473.757" y1="401.972" x2="935.552" y2="479.124" gradientUnits="userSpaceOnUse">
<stop stop-color="#5852F2"/>
<stop offset="0.452768" stop-color="#C7CCF1"/>
<stop offset="1" stop-color="#0C8BE8"/>
</linearGradient>
<linearGradient id="paint8_linear_784_8867" x1="393.843" y1="246.171" x2="534.842" y2="233.543" gradientUnits="userSpaceOnUse">
<stop stop-color="#5852F2"/>
<stop offset="0.443709" stop-color="#A0A1F1"/>
<stop offset="0.653159" stop-color="#C7CCF1"/>
<stop offset="0.786458" stop-color="#98BCEF"/>
<stop offset="1" stop-color="#0C8BE8"/>
</linearGradient>
<linearGradient id="paint9_linear_784_8867" x1="485.275" y1="273.305" x2="434.536" y2="355.692" gradientUnits="userSpaceOnUse">
<stop stop-color="#5852F2"/>
<stop offset="0.452768" stop-color="#C7CCF1"/>
<stop offset="1" stop-color="#0C8BE8"/>
</linearGradient>
<linearGradient id="paint10_linear_784_8867" x1="355.149" y1="412.911" x2="808.591" y2="371.072" gradientUnits="userSpaceOnUse">
<stop stop-color="#5852F2"/>
<stop offset="0.443709" stop-color="#A0A1F1"/>
<stop offset="0.653159" stop-color="#C7CCF1"/>
<stop offset="0.786458" stop-color="#98BCEF"/>
<stop offset="1" stop-color="#0C8BE8"/>
</linearGradient>
<linearGradient id="paint11_linear_784_8867" x1="367.376" y1="459.376" x2="831.939" y2="414.706" gradientUnits="userSpaceOnUse">
<stop stop-color="#5852F2"/>
<stop offset="0.443709" stop-color="#A0A1F1"/>
<stop offset="0.653159" stop-color="#C7CCF1"/>
<stop offset="0.786458" stop-color="#98BCEF"/>
<stop offset="1" stop-color="#0C8BE8"/>
</linearGradient>
<linearGradient id="paint12_linear_784_8867" x1="323.672" y1="357.297" x2="464.672" y2="344.669" gradientUnits="userSpaceOnUse">
<stop stop-color="#5852F2"/>
<stop offset="0.443709" stop-color="#A0A1F1"/>
<stop offset="0.653159" stop-color="#C7CCF1"/>
<stop offset="0.786458" stop-color="#98BCEF"/>
<stop offset="1" stop-color="#0C8BE8"/>
</linearGradient>
<linearGradient id="paint13_linear_784_8867" x1="393.155" y1="462.617" x2="323.264" y2="432.227" gradientUnits="userSpaceOnUse">
<stop stop-color="#5852F2"/>
<stop offset="0.452768" stop-color="#C7CCF1"/>
<stop offset="1" stop-color="#0C8BE8"/>
</linearGradient>
<linearGradient id="paint14_linear_784_8867" x1="467.209" y1="780.369" x2="77.1872" y2="537.291" gradientUnits="userSpaceOnUse">
<stop stop-color="#5852F2"/>
<stop offset="0.452768" stop-color="#C7CCF1"/>
<stop offset="1" stop-color="#0C8BE8"/>
</linearGradient>
<linearGradient id="paint15_linear_784_8867" x1="264.551" y1="553.802" x2="720.03" y2="516.971" gradientUnits="userSpaceOnUse">
<stop stop-color="#5852F2"/>
<stop offset="0.443709" stop-color="#A0A1F1"/>
<stop offset="0.653159" stop-color="#C7CCF1"/>
<stop offset="0.786458" stop-color="#98BCEF"/>
<stop offset="1" stop-color="#0C8BE8"/>
</linearGradient>
<linearGradient id="paint16_linear_784_8867" x1="223.443" y1="447.028" x2="364.443" y2="434.4" gradientUnits="userSpaceOnUse">
<stop stop-color="#5852F2"/>
<stop offset="0.443709" stop-color="#A0A1F1"/>
<stop offset="0.653159" stop-color="#C7CCF1"/>
<stop offset="0.786458" stop-color="#98BCEF"/>
<stop offset="1" stop-color="#0C8BE8"/>
</linearGradient>
<linearGradient id="paint17_linear_784_8867" x1="252.059" y1="481.929" x2="330.469" y2="471.873" gradientUnits="userSpaceOnUse">
<stop stop-color="#5852F2"/>
<stop offset="0.443709" stop-color="#A0A1F1"/>
<stop offset="0.653159" stop-color="#C7CCF1"/>
<stop offset="0.786458" stop-color="#98BCEF"/>
<stop offset="1" stop-color="#0C8BE8"/>
</linearGradient>
<linearGradient id="paint18_linear_784_8867" x1="609.499" y1="306.309" x2="954.442" y2="322.253" gradientUnits="userSpaceOnUse">
<stop stop-color="#5852F2"/>
<stop offset="0.445711" stop-color="#C7CCF1"/>
<stop offset="1" stop-color="#0C8BE8"/>
</linearGradient>
<linearGradient id="paint19_linear_784_8867" x1="621.8" y1="267.804" x2="889.972" y2="246.726" gradientUnits="userSpaceOnUse">
<stop stop-color="#5852F2"/>
<stop offset="0.443709" stop-color="#A0A1F1"/>
<stop offset="0.653159" stop-color="#C7CCF1"/>
<stop offset="0.786458" stop-color="#98BCEF"/>
<stop offset="1" stop-color="#0C8BE8"/>
</linearGradient>
<linearGradient id="paint20_linear_784_8867" x1="505.587" y1="220.61" x2="646.86" y2="207.958" gradientUnits="userSpaceOnUse">
<stop stop-color="#5852F2"/>
<stop offset="0.443709" stop-color="#A0A1F1"/>
<stop offset="0.653159" stop-color="#C7CCF1"/>
<stop offset="0.786458" stop-color="#98BCEF"/>
<stop offset="1" stop-color="#0C8BE8"/>
</linearGradient>
<clipPath id="clip0_784_8867">
<rect width="738.213" height="577.242" fill="white"/>
</clipPath>
</defs>
</svg>
