<svg width="63" height="54" viewBox="0 0 63 54" fill="none" xmlns="http://www.w3.org/2000/svg">
<g clip-path="url(#clip0_784_9061)">
<path d="M62.792 13.7728V19.1035L60.5374 20.2503C58.8251 21.1238 57.805 22.9384 57.9499 24.8532C57.9997 25.5183 58.026 26.1912 58.026 26.864C58.0228 36.7065 52.493 45.7157 43.7122 50.1842C34.9314 54.6527 24.3831 53.8255 16.4082 48.0431L21.038 45.6867L21.3001 45.5479C27.9444 49.2686 36.0654 49.1933 42.6394 45.3501C49.2134 41.507 53.2552 34.4717 53.2599 26.864C53.2596 25.922 53.1983 24.981 53.0764 24.0468L17.0112 42.4008L9.55015 46.1972L0.828125 50.6352V45.2913L9.61045 40.822L13.8784 38.6462L62.792 13.7728ZM19.9015 3.53599C28.6824 -0.935582 39.2325 -0.110386 47.2093 5.67191L46.5722 5.99658L42.3017 8.16973C35.6591 4.46462 27.549 4.54856 20.9848 8.39036C14.4205 12.2322 10.3834 19.2576 10.3733 26.8562C10.3737 27.7921 10.435 28.7271 10.5568 29.6551L46.5853 11.3273L54.0464 7.53087L62.792 3.07461V8.42108L53.9704 12.9114L49.7024 15.0819L11.7208 34.4098L9.60521 35.486L7.45812 36.5804L0.828125 39.9553V34.6062L3.08007 33.4594C4.79394 32.5873 5.81535 30.7721 5.6702 28.8565C5.61952 28.195 5.59417 27.5308 5.59417 26.864C5.59316 17.0202 11.1207 8.00756 19.9015 3.53599Z" fill="#7C7AF2"/>
</g>
<defs>
<clipPath id="clip0_784_9061">
<rect width="61.809" height="52.3595" fill="white" transform="translate(0.910156 0.675293)"/>
</clipPath>
</defs>
</svg>
