<svg width="100" height="99" viewBox="0 0 100 99" fill="none" xmlns="http://www.w3.org/2000/svg">
<path d="M37.6975 25.1454C36.9561 25.0303 36.9248 25.0168 37.2738 24.9631C37.9425 24.8603 39.5215 25.0005 40.6094 25.2592C43.1496 25.8631 45.4611 27.4098 47.9284 30.1569L48.5838 30.8867L49.5214 30.7358C53.4718 30.1011 57.4905 30.6056 60.8516 32.1584C61.7763 32.5855 63.2344 33.4358 63.4165 33.6543C63.4745 33.7241 63.5811 34.1723 63.6532 34.6507C63.9029 36.3057 63.778 37.5741 63.2717 38.5217C62.9963 39.0372 62.9809 39.2005 63.1661 39.6419C63.314 39.994 63.726 40.2546 64.1342 40.2539C64.9694 40.2529 65.8685 38.9026 66.2852 37.0238L66.4506 36.2775L66.7785 36.6488C68.5764 38.6859 69.9886 41.4641 70.2313 43.4416L70.2945 43.9572L69.9922 43.4885C69.4721 42.6819 68.9495 42.1329 68.2803 41.6901C67.0739 40.8918 65.7983 40.6201 62.4201 40.4421C59.3691 40.2814 57.6423 40.0207 55.93 39.4624C53.0168 38.5127 51.5483 37.2477 48.0879 32.7075C46.5508 30.6908 45.6008 29.5752 44.6558 28.6767C42.5084 26.6349 40.3985 25.5643 37.6975 25.1454Z" fill="#FF007A"/>
<path d="M64.1021 29.6484C64.1787 28.2971 64.362 27.4058 64.7305 26.5918C64.8762 26.2695 65.013 26.0059 65.034 26.0059C65.0551 26.0059 64.9917 26.2437 64.8931 26.5344C64.6253 27.3242 64.5813 28.4048 64.7659 29.6618C65.0001 31.257 65.1332 31.4871 66.8191 33.21C67.6098 34.0182 68.5296 35.0375 68.863 35.4751L69.4691 36.2707L68.863 35.7021C68.1216 35.0067 66.4165 33.6505 66.0399 33.4566C65.7873 33.3267 65.7498 33.3289 65.5941 33.484C65.4504 33.6268 65.4203 33.8415 65.4003 34.8564C65.3694 36.4381 65.1537 37.4534 64.6334 38.4684C64.352 39.0176 64.3076 38.9003 64.5623 38.2806C64.7524 37.8179 64.7718 37.6145 64.7703 36.0832C64.7673 33.0067 64.4021 32.2671 62.2601 31C61.7175 30.679 60.8235 30.2162 60.2734 29.9713C59.7232 29.7265 59.2863 29.5133 59.3022 29.4972C59.3628 29.4369 61.4517 30.0467 62.2925 30.37C63.5431 30.8511 63.7496 30.9134 63.9015 30.8554C64.0033 30.8166 64.0526 30.52 64.1021 29.6484Z" fill="#FF007A"/>
<path d="M39.1393 34.9118C37.634 32.8395 36.7027 29.662 36.9043 27.2868L36.9667 26.5518L37.3093 26.6143C37.9528 26.7316 39.0622 27.1446 39.5817 27.4601C41.0073 28.3259 41.6244 29.4658 42.2523 32.3929C42.4362 33.2503 42.6776 34.2207 42.7887 34.549C42.9674 35.0779 43.6428 36.3127 44.1921 37.1149C44.5876 37.6925 44.3247 37.9662 43.4505 37.8872C42.1151 37.7667 40.3062 36.5183 39.1393 34.9118Z" fill="#FF007A"/>
<path d="M62.2778 50.3337C55.2432 47.5012 52.7656 45.0428 52.7656 40.8946C52.7656 40.284 52.7866 39.7847 52.8123 39.7847C52.8379 39.7847 53.11 39.9861 53.4171 40.2323C54.8436 41.3766 56.4409 41.8651 60.8631 42.5104C63.4653 42.89 64.9298 43.1966 66.2806 43.6447C70.5741 45.0685 73.2307 47.9583 73.8642 51.8943C74.0483 53.038 73.9404 55.1827 73.6418 56.3129C73.4061 57.2058 72.6871 58.8151 72.4965 58.8768C72.4436 58.894 72.3917 58.6913 72.3783 58.4156C72.3059 56.9376 71.5591 55.4988 70.3047 54.4209C68.8786 53.1955 66.9626 52.2199 62.2778 50.3337Z" fill="#FF007A"/>
<path d="M57.3392 51.513C57.251 50.9886 57.0982 50.3188 56.9996 50.0246L56.8199 49.4897L57.1534 49.864C57.6147 50.3818 57.9794 51.0445 58.2883 51.927C58.5242 52.6008 58.5507 52.8011 58.5489 53.8958C58.5471 54.9705 58.5176 55.1956 58.3 55.8019C57.9565 56.7581 57.5304 57.4361 56.8153 58.1637C55.5302 59.4715 53.8782 60.1957 51.4941 60.496C51.0796 60.5481 49.8718 60.6361 48.8099 60.6913C46.1338 60.8305 44.3726 61.1179 42.79 61.6736C42.5624 61.7537 42.3593 61.8021 42.3387 61.7815C42.2746 61.7178 43.3521 61.0755 44.2422 60.6469C45.497 60.0422 46.7463 59.7124 49.5452 59.2463C50.928 59.016 52.3558 58.7366 52.7184 58.6254C56.1424 57.5756 57.9025 54.8665 57.3392 51.513Z" fill="#FF007A"/>
<path d="M60.5624 57.2392C59.6277 55.23 59.4132 53.2901 59.9252 51.481C59.98 51.2876 60.068 51.1294 60.121 51.1294C60.1739 51.1294 60.3945 51.2486 60.611 51.3944C61.0418 51.6843 61.9057 52.1726 64.2069 53.4273C67.0787 54.993 68.7161 56.2054 69.8294 57.5906C70.8045 58.8037 71.408 60.1851 71.6984 61.8699C71.8628 62.8242 71.7665 65.1205 71.5217 66.0815C70.7495 69.1113 68.955 71.4915 66.3956 72.8803C66.0205 73.0837 65.684 73.2507 65.6474 73.2514C65.6111 73.2522 65.7477 72.9048 65.9511 72.4794C66.8122 70.6795 66.9101 68.9287 66.2593 66.98C65.8607 65.7869 65.048 64.3309 63.4072 61.8704C61.4994 59.0094 61.0318 58.248 60.5624 57.2392Z" fill="#FF007A"/>
<path d="M34.1394 68.0791C36.75 65.875 39.9981 64.309 42.9567 63.8285C44.2318 63.6213 46.356 63.7036 47.5368 64.0057C49.4294 64.4902 51.1225 65.575 52.0031 66.8675C52.8636 68.1309 53.2327 69.2316 53.6171 71.681C53.7688 72.6471 53.9337 73.6175 53.9836 73.8371C54.2722 75.1065 54.8339 76.1211 55.53 76.6308C56.6356 77.4398 58.5393 77.4902 60.4121 76.7596C60.73 76.6357 61.006 76.55 61.0254 76.5693C61.0932 76.6368 60.1502 77.268 59.485 77.6003C58.5898 78.0476 57.8779 78.2204 56.9321 78.2204C55.2169 78.2204 53.7928 77.3478 52.6047 75.5687C52.3708 75.2185 51.8452 74.1697 51.4366 73.2382C50.1821 70.3765 49.5625 69.5049 48.1058 68.551C46.8382 67.7208 45.2032 67.5721 43.9734 68.1751C42.3578 68.9673 41.9071 71.0318 43.0641 72.3402C43.524 72.8602 44.3817 73.3088 45.0828 73.3961C46.3948 73.5592 47.5222 72.5611 47.5222 71.2365C47.5222 70.3765 47.1917 69.8857 46.3594 69.5102C45.223 68.9972 44.0013 69.5968 44.0071 70.6645C44.0096 71.1198 44.2079 71.4057 44.6642 71.6122C44.957 71.7447 44.9639 71.7552 44.7251 71.7056C43.6822 71.4894 43.4379 70.2321 44.2764 69.3975C45.2831 68.3955 47.3649 68.8377 48.0796 70.2054C48.3799 70.7798 48.4148 71.9239 48.1529 72.6147C47.5669 74.161 45.8585 74.9742 44.1251 74.5317C42.9451 74.2303 42.4646 73.9042 41.0417 72.4386C38.5693 69.8919 37.6095 69.3985 34.0452 68.842L33.3623 68.7354L34.1394 68.0791Z" fill="#FF007A"/>
<path fill-rule="evenodd" clip-rule="evenodd" d="M15.4982 11.0302C23.7546 21.0511 36.4838 36.6532 37.1158 37.5266C37.6374 38.2479 37.4411 38.8963 36.5472 39.4045C36.0501 39.687 35.0282 39.9734 34.5165 39.9734C33.9378 39.9734 33.2858 39.6947 32.811 39.2443C32.4754 38.9261 31.121 36.9035 27.9942 32.052C25.602 28.3399 23.5998 25.2604 23.5451 25.2088C23.4188 25.0896 23.421 25.0935 27.7504 32.8399C30.4688 37.704 31.3865 39.4236 31.3865 39.6536C31.3865 40.1213 31.2589 40.3673 30.6818 41.0109C29.7199 42.084 29.2898 43.2898 28.9795 45.7854C28.6315 48.5829 27.6529 50.559 24.941 53.9411C23.3537 55.9208 23.0939 56.2837 22.6933 57.0816C22.1887 58.0865 22.05 58.6493 21.9938 59.9182C21.9344 61.2598 22.0502 62.1263 22.46 63.409C22.8188 64.532 23.1933 65.2736 24.1509 66.7566C24.9773 68.0365 25.4531 68.9877 25.4531 69.3598C25.4531 69.6557 25.5096 69.656 26.7901 69.367C29.8545 68.675 32.3428 67.4579 33.7422 65.9665C34.6082 65.0433 34.8117 64.5335 34.8182 63.2685C34.8225 62.441 34.7935 62.2677 34.5698 61.7918C34.2057 61.0169 33.5427 60.3728 32.0819 59.374C30.1677 58.0654 29.3499 57.012 29.1241 55.5631C28.9389 54.3744 29.1539 53.5357 30.2129 51.3163C31.3088 49.0188 31.5805 48.04 31.7643 45.7243C31.8829 44.2283 32.0473 43.6382 32.4771 43.1646C32.9255 42.6708 33.329 42.5036 34.4384 42.3519C36.2471 42.1049 37.399 41.6369 38.3456 40.7644C39.1669 40.0078 39.5105 39.2785 39.5632 38.1807L39.6034 37.3488L39.1443 36.8137C37.4823 34.8758 14.3851 9.50684 14.2829 9.50684C14.261 9.50684 14.8079 10.1924 15.4982 11.0302ZM26.3861 61.4362C26.7618 60.7706 26.5622 59.9151 25.9336 59.4971C25.3398 59.1023 24.4171 59.2883 24.4171 59.8029C24.4171 59.9599 24.504 60.0743 24.6997 60.175C25.0292 60.3445 25.0532 60.5353 24.7939 60.9249C24.5312 61.3196 24.5525 61.6666 24.8537 61.9023C25.3391 62.2824 26.0261 62.0734 26.3861 61.4362Z" fill="#FF007A"/>
<path fill-rule="evenodd" clip-rule="evenodd" d="M40.7425 42.7888C39.8935 43.0497 39.0681 43.9496 38.8126 44.8931C38.6567 45.469 38.7451 46.4786 38.9786 46.7906C39.3558 47.2942 39.7205 47.427 40.7083 47.42C42.6419 47.4066 44.3229 46.5772 44.5183 45.5404C44.6786 44.6905 43.9403 43.5127 42.9233 42.9956C42.3986 42.729 41.2825 42.623 40.7425 42.7888ZM43.0031 44.5564C43.3013 44.1327 43.1708 43.6748 42.6637 43.3651C41.6978 42.7754 40.2372 43.2634 40.2372 44.1758C40.2372 44.6299 40.999 45.1255 41.6971 45.1255C42.1618 45.1255 42.7977 44.8484 43.0031 44.5564Z" fill="#FF007A"/>
</svg>
