<svg width="62" height="62" viewBox="0 0 62 62" fill="none" xmlns="http://www.w3.org/2000/svg">
<path fill-rule="evenodd" clip-rule="evenodd" d="M61.7736 30.8204C61.7736 47.808 48.0024 61.5793 31.0148 61.5793C14.0271 61.5793 0.255859 47.808 0.255859 30.8204C0.255859 13.8327 14.0271 0.0615234 31.0148 0.0615234C48.0024 0.0615234 61.7736 13.8327 61.7736 30.8204ZM22.2986 43.0602H16.3292C15.0749 43.0602 14.4553 43.0602 14.0774 42.8185C13.6694 42.5539 13.42 42.1157 13.3898 41.6321C13.3672 41.1863 13.6769 40.6422 14.2966 39.5541L29.0358 13.5741C29.663 12.4709 29.9804 11.9193 30.3808 11.7153C30.8116 11.4962 31.3254 11.4962 31.7561 11.7153C32.1566 11.9193 32.474 12.4709 33.1011 13.5741L36.1312 18.8635L36.1467 18.8905C36.824 20.0741 37.1676 20.6742 37.3175 21.3042C37.4837 21.9918 37.4837 22.7172 37.3175 23.4048C37.1664 24.0396 36.8263 24.6441 36.1387 25.8455L28.3966 39.5315L28.3765 39.5666C27.6946 40.7598 27.3491 41.3646 26.8702 41.8211C26.3488 42.3198 25.7217 42.6824 25.034 42.8864C24.4069 43.0602 23.7041 43.0602 22.2986 43.0602ZM37.3734 43.0609H45.9271C47.1891 43.0609 47.8237 43.0609 48.2016 42.8116C48.6096 42.5471 48.8665 42.1013 48.8892 41.6177C48.9111 41.1866 48.608 40.6635 48.014 39.6387C47.9937 39.6037 47.9731 39.5683 47.9522 39.5322L43.6678 32.2026L43.619 32.1202C43.017 31.1019 42.7129 30.5878 42.3228 30.3891C41.8921 30.1699 41.3859 30.1699 40.9551 30.3891C40.5622 30.5931 40.2448 31.1296 39.6176 32.2101L35.3484 39.5397L35.3337 39.565C34.7088 40.6438 34.3964 41.1829 34.419 41.6253C34.4492 42.1089 34.6985 42.5547 35.1066 42.8191C35.4768 43.0609 36.1115 43.0609 37.3734 43.0609Z" fill="#DD4343"/>
</svg>
